G75*
G70*
%OFA0B0*%
%FSLAX24Y24*%
%IPPOS*%
%LPD*%
%AMOC8*
5,1,8,0,0,1.08239X$1,22.5*
%
%ADD10C,0.0000*%
%ADD11C,0.0080*%
%ADD12C,0.0040*%
%ADD13C,0.0030*%
%ADD14C,0.0060*%
%ADD15R,0.0160X0.0230*%
%ADD16C,0.0160*%
%ADD17C,0.0050*%
%ADD18R,0.0300X1.0550*%
%ADD19R,0.0200X1.5450*%
%ADD20R,0.2850X0.0320*%
%ADD21R,0.1850X0.0320*%
%ADD22C,0.0020*%
D10*
X000706Y000151D02*
X000706Y023773D01*
X040076Y023773D01*
X040076Y000151D01*
X000706Y000151D01*
X002044Y002120D02*
X002046Y002170D01*
X002052Y002220D01*
X002062Y002269D01*
X002076Y002317D01*
X002093Y002364D01*
X002114Y002409D01*
X002139Y002453D01*
X002167Y002494D01*
X002199Y002533D01*
X002233Y002570D01*
X002270Y002604D01*
X002310Y002634D01*
X002352Y002661D01*
X002396Y002685D01*
X002442Y002706D01*
X002489Y002722D01*
X002537Y002735D01*
X002587Y002744D01*
X002636Y002749D01*
X002687Y002750D01*
X002737Y002747D01*
X002786Y002740D01*
X002835Y002729D01*
X002883Y002714D01*
X002929Y002696D01*
X002974Y002674D01*
X003017Y002648D01*
X003058Y002619D01*
X003097Y002587D01*
X003133Y002552D01*
X003165Y002514D01*
X003195Y002474D01*
X003222Y002431D01*
X003245Y002387D01*
X003264Y002341D01*
X003280Y002293D01*
X003292Y002244D01*
X003300Y002195D01*
X003304Y002145D01*
X003304Y002095D01*
X003300Y002045D01*
X003292Y001996D01*
X003280Y001947D01*
X003264Y001899D01*
X003245Y001853D01*
X003222Y001809D01*
X003195Y001766D01*
X003165Y001726D01*
X003133Y001688D01*
X003097Y001653D01*
X003058Y001621D01*
X003017Y001592D01*
X002974Y001566D01*
X002929Y001544D01*
X002883Y001526D01*
X002835Y001511D01*
X002786Y001500D01*
X002737Y001493D01*
X002687Y001490D01*
X002636Y001491D01*
X002587Y001496D01*
X002537Y001505D01*
X002489Y001518D01*
X002442Y001534D01*
X002396Y001555D01*
X002352Y001579D01*
X002310Y001606D01*
X002270Y001636D01*
X002233Y001670D01*
X002199Y001707D01*
X002167Y001746D01*
X002139Y001787D01*
X002114Y001831D01*
X002093Y001876D01*
X002076Y001923D01*
X002062Y001971D01*
X002052Y002020D01*
X002046Y002070D01*
X002044Y002120D01*
X002461Y011273D02*
X002463Y011299D01*
X002469Y011325D01*
X002479Y011350D01*
X002492Y011373D01*
X002508Y011393D01*
X002528Y011411D01*
X002550Y011426D01*
X002573Y011438D01*
X002599Y011446D01*
X002625Y011450D01*
X002651Y011450D01*
X002677Y011446D01*
X002703Y011438D01*
X002727Y011426D01*
X002748Y011411D01*
X002768Y011393D01*
X002784Y011373D01*
X002797Y011350D01*
X002807Y011325D01*
X002813Y011299D01*
X002815Y011273D01*
X002813Y011247D01*
X002807Y011221D01*
X002797Y011196D01*
X002784Y011173D01*
X002768Y011153D01*
X002748Y011135D01*
X002726Y011120D01*
X002703Y011108D01*
X002677Y011100D01*
X002651Y011096D01*
X002625Y011096D01*
X002599Y011100D01*
X002573Y011108D01*
X002549Y011120D01*
X002528Y011135D01*
X002508Y011153D01*
X002492Y011173D01*
X002479Y011196D01*
X002469Y011221D01*
X002463Y011247D01*
X002461Y011273D01*
X002461Y012651D02*
X002463Y012677D01*
X002469Y012703D01*
X002479Y012728D01*
X002492Y012751D01*
X002508Y012771D01*
X002528Y012789D01*
X002550Y012804D01*
X002573Y012816D01*
X002599Y012824D01*
X002625Y012828D01*
X002651Y012828D01*
X002677Y012824D01*
X002703Y012816D01*
X002727Y012804D01*
X002748Y012789D01*
X002768Y012771D01*
X002784Y012751D01*
X002797Y012728D01*
X002807Y012703D01*
X002813Y012677D01*
X002815Y012651D01*
X002813Y012625D01*
X002807Y012599D01*
X002797Y012574D01*
X002784Y012551D01*
X002768Y012531D01*
X002748Y012513D01*
X002726Y012498D01*
X002703Y012486D01*
X002677Y012478D01*
X002651Y012474D01*
X002625Y012474D01*
X002599Y012478D01*
X002573Y012486D01*
X002549Y012498D01*
X002528Y012513D01*
X002508Y012531D01*
X002492Y012551D01*
X002479Y012574D01*
X002469Y012599D01*
X002463Y012625D01*
X002461Y012651D01*
X002044Y021805D02*
X002046Y021855D01*
X002052Y021905D01*
X002062Y021954D01*
X002076Y022002D01*
X002093Y022049D01*
X002114Y022094D01*
X002139Y022138D01*
X002167Y022179D01*
X002199Y022218D01*
X002233Y022255D01*
X002270Y022289D01*
X002310Y022319D01*
X002352Y022346D01*
X002396Y022370D01*
X002442Y022391D01*
X002489Y022407D01*
X002537Y022420D01*
X002587Y022429D01*
X002636Y022434D01*
X002687Y022435D01*
X002737Y022432D01*
X002786Y022425D01*
X002835Y022414D01*
X002883Y022399D01*
X002929Y022381D01*
X002974Y022359D01*
X003017Y022333D01*
X003058Y022304D01*
X003097Y022272D01*
X003133Y022237D01*
X003165Y022199D01*
X003195Y022159D01*
X003222Y022116D01*
X003245Y022072D01*
X003264Y022026D01*
X003280Y021978D01*
X003292Y021929D01*
X003300Y021880D01*
X003304Y021830D01*
X003304Y021780D01*
X003300Y021730D01*
X003292Y021681D01*
X003280Y021632D01*
X003264Y021584D01*
X003245Y021538D01*
X003222Y021494D01*
X003195Y021451D01*
X003165Y021411D01*
X003133Y021373D01*
X003097Y021338D01*
X003058Y021306D01*
X003017Y021277D01*
X002974Y021251D01*
X002929Y021229D01*
X002883Y021211D01*
X002835Y021196D01*
X002786Y021185D01*
X002737Y021178D01*
X002687Y021175D01*
X002636Y021176D01*
X002587Y021181D01*
X002537Y021190D01*
X002489Y021203D01*
X002442Y021219D01*
X002396Y021240D01*
X002352Y021264D01*
X002310Y021291D01*
X002270Y021321D01*
X002233Y021355D01*
X002199Y021392D01*
X002167Y021431D01*
X002139Y021472D01*
X002114Y021516D01*
X002093Y021561D01*
X002076Y021608D01*
X002062Y021656D01*
X002052Y021705D01*
X002046Y021755D01*
X002044Y021805D01*
X035469Y018522D02*
X035471Y018572D01*
X035477Y018622D01*
X035487Y018671D01*
X035501Y018719D01*
X035518Y018766D01*
X035539Y018811D01*
X035564Y018855D01*
X035592Y018896D01*
X035624Y018935D01*
X035658Y018972D01*
X035695Y019006D01*
X035735Y019036D01*
X035777Y019063D01*
X035821Y019087D01*
X035867Y019108D01*
X035914Y019124D01*
X035962Y019137D01*
X036012Y019146D01*
X036061Y019151D01*
X036112Y019152D01*
X036162Y019149D01*
X036211Y019142D01*
X036260Y019131D01*
X036308Y019116D01*
X036354Y019098D01*
X036399Y019076D01*
X036442Y019050D01*
X036483Y019021D01*
X036522Y018989D01*
X036558Y018954D01*
X036590Y018916D01*
X036620Y018876D01*
X036647Y018833D01*
X036670Y018789D01*
X036689Y018743D01*
X036705Y018695D01*
X036717Y018646D01*
X036725Y018597D01*
X036729Y018547D01*
X036729Y018497D01*
X036725Y018447D01*
X036717Y018398D01*
X036705Y018349D01*
X036689Y018301D01*
X036670Y018255D01*
X036647Y018211D01*
X036620Y018168D01*
X036590Y018128D01*
X036558Y018090D01*
X036522Y018055D01*
X036483Y018023D01*
X036442Y017994D01*
X036399Y017968D01*
X036354Y017946D01*
X036308Y017928D01*
X036260Y017913D01*
X036211Y017902D01*
X036162Y017895D01*
X036112Y017892D01*
X036061Y017893D01*
X036012Y017898D01*
X035962Y017907D01*
X035914Y017920D01*
X035867Y017936D01*
X035821Y017957D01*
X035777Y017981D01*
X035735Y018008D01*
X035695Y018038D01*
X035658Y018072D01*
X035624Y018109D01*
X035592Y018148D01*
X035564Y018189D01*
X035539Y018233D01*
X035518Y018278D01*
X035501Y018325D01*
X035487Y018373D01*
X035477Y018422D01*
X035471Y018472D01*
X035469Y018522D01*
X037477Y021805D02*
X037479Y021855D01*
X037485Y021905D01*
X037495Y021954D01*
X037509Y022002D01*
X037526Y022049D01*
X037547Y022094D01*
X037572Y022138D01*
X037600Y022179D01*
X037632Y022218D01*
X037666Y022255D01*
X037703Y022289D01*
X037743Y022319D01*
X037785Y022346D01*
X037829Y022370D01*
X037875Y022391D01*
X037922Y022407D01*
X037970Y022420D01*
X038020Y022429D01*
X038069Y022434D01*
X038120Y022435D01*
X038170Y022432D01*
X038219Y022425D01*
X038268Y022414D01*
X038316Y022399D01*
X038362Y022381D01*
X038407Y022359D01*
X038450Y022333D01*
X038491Y022304D01*
X038530Y022272D01*
X038566Y022237D01*
X038598Y022199D01*
X038628Y022159D01*
X038655Y022116D01*
X038678Y022072D01*
X038697Y022026D01*
X038713Y021978D01*
X038725Y021929D01*
X038733Y021880D01*
X038737Y021830D01*
X038737Y021780D01*
X038733Y021730D01*
X038725Y021681D01*
X038713Y021632D01*
X038697Y021584D01*
X038678Y021538D01*
X038655Y021494D01*
X038628Y021451D01*
X038598Y021411D01*
X038566Y021373D01*
X038530Y021338D01*
X038491Y021306D01*
X038450Y021277D01*
X038407Y021251D01*
X038362Y021229D01*
X038316Y021211D01*
X038268Y021196D01*
X038219Y021185D01*
X038170Y021178D01*
X038120Y021175D01*
X038069Y021176D01*
X038020Y021181D01*
X037970Y021190D01*
X037922Y021203D01*
X037875Y021219D01*
X037829Y021240D01*
X037785Y021264D01*
X037743Y021291D01*
X037703Y021321D01*
X037666Y021355D01*
X037632Y021392D01*
X037600Y021431D01*
X037572Y021472D01*
X037547Y021516D01*
X037526Y021561D01*
X037509Y021608D01*
X037495Y021656D01*
X037485Y021705D01*
X037479Y021755D01*
X037477Y021805D01*
X035469Y005402D02*
X035471Y005452D01*
X035477Y005502D01*
X035487Y005551D01*
X035501Y005599D01*
X035518Y005646D01*
X035539Y005691D01*
X035564Y005735D01*
X035592Y005776D01*
X035624Y005815D01*
X035658Y005852D01*
X035695Y005886D01*
X035735Y005916D01*
X035777Y005943D01*
X035821Y005967D01*
X035867Y005988D01*
X035914Y006004D01*
X035962Y006017D01*
X036012Y006026D01*
X036061Y006031D01*
X036112Y006032D01*
X036162Y006029D01*
X036211Y006022D01*
X036260Y006011D01*
X036308Y005996D01*
X036354Y005978D01*
X036399Y005956D01*
X036442Y005930D01*
X036483Y005901D01*
X036522Y005869D01*
X036558Y005834D01*
X036590Y005796D01*
X036620Y005756D01*
X036647Y005713D01*
X036670Y005669D01*
X036689Y005623D01*
X036705Y005575D01*
X036717Y005526D01*
X036725Y005477D01*
X036729Y005427D01*
X036729Y005377D01*
X036725Y005327D01*
X036717Y005278D01*
X036705Y005229D01*
X036689Y005181D01*
X036670Y005135D01*
X036647Y005091D01*
X036620Y005048D01*
X036590Y005008D01*
X036558Y004970D01*
X036522Y004935D01*
X036483Y004903D01*
X036442Y004874D01*
X036399Y004848D01*
X036354Y004826D01*
X036308Y004808D01*
X036260Y004793D01*
X036211Y004782D01*
X036162Y004775D01*
X036112Y004772D01*
X036061Y004773D01*
X036012Y004778D01*
X035962Y004787D01*
X035914Y004800D01*
X035867Y004816D01*
X035821Y004837D01*
X035777Y004861D01*
X035735Y004888D01*
X035695Y004918D01*
X035658Y004952D01*
X035624Y004989D01*
X035592Y005028D01*
X035564Y005069D01*
X035539Y005113D01*
X035518Y005158D01*
X035501Y005205D01*
X035487Y005253D01*
X035477Y005302D01*
X035471Y005352D01*
X035469Y005402D01*
X037477Y002120D02*
X037479Y002170D01*
X037485Y002220D01*
X037495Y002269D01*
X037509Y002317D01*
X037526Y002364D01*
X037547Y002409D01*
X037572Y002453D01*
X037600Y002494D01*
X037632Y002533D01*
X037666Y002570D01*
X037703Y002604D01*
X037743Y002634D01*
X037785Y002661D01*
X037829Y002685D01*
X037875Y002706D01*
X037922Y002722D01*
X037970Y002735D01*
X038020Y002744D01*
X038069Y002749D01*
X038120Y002750D01*
X038170Y002747D01*
X038219Y002740D01*
X038268Y002729D01*
X038316Y002714D01*
X038362Y002696D01*
X038407Y002674D01*
X038450Y002648D01*
X038491Y002619D01*
X038530Y002587D01*
X038566Y002552D01*
X038598Y002514D01*
X038628Y002474D01*
X038655Y002431D01*
X038678Y002387D01*
X038697Y002341D01*
X038713Y002293D01*
X038725Y002244D01*
X038733Y002195D01*
X038737Y002145D01*
X038737Y002095D01*
X038733Y002045D01*
X038725Y001996D01*
X038713Y001947D01*
X038697Y001899D01*
X038678Y001853D01*
X038655Y001809D01*
X038628Y001766D01*
X038598Y001726D01*
X038566Y001688D01*
X038530Y001653D01*
X038491Y001621D01*
X038450Y001592D01*
X038407Y001566D01*
X038362Y001544D01*
X038316Y001526D01*
X038268Y001511D01*
X038219Y001500D01*
X038170Y001493D01*
X038120Y001490D01*
X038069Y001491D01*
X038020Y001496D01*
X037970Y001505D01*
X037922Y001518D01*
X037875Y001534D01*
X037829Y001555D01*
X037785Y001579D01*
X037743Y001606D01*
X037703Y001636D01*
X037666Y001670D01*
X037632Y001707D01*
X037600Y001746D01*
X037572Y001787D01*
X037547Y001831D01*
X037526Y001876D01*
X037509Y001923D01*
X037495Y001971D01*
X037485Y002020D01*
X037479Y002070D01*
X037477Y002120D01*
D11*
X007216Y009901D02*
X006975Y009901D01*
X006815Y010061D01*
X006735Y010061D01*
X006895Y010257D02*
X006735Y010417D01*
X006895Y010577D01*
X007216Y010577D01*
X007216Y010772D02*
X006735Y010772D01*
X007216Y011093D01*
X006735Y011093D01*
X006735Y011288D02*
X006735Y011608D01*
X006735Y011448D02*
X007216Y011448D01*
X007216Y011804D02*
X006735Y011804D01*
X006735Y012044D01*
X006815Y012124D01*
X006975Y012124D01*
X007055Y012044D01*
X007055Y011804D01*
X007055Y011964D02*
X007216Y012124D01*
X007135Y012319D02*
X006815Y012319D01*
X006735Y012399D01*
X006735Y012560D01*
X006815Y012640D01*
X007135Y012640D01*
X007216Y012560D01*
X007216Y012399D01*
X007135Y012319D01*
X007216Y012835D02*
X006735Y012835D01*
X007216Y013155D01*
X006735Y013155D01*
X006735Y013351D02*
X006735Y013511D01*
X006735Y013431D02*
X007216Y013431D01*
X007216Y013351D02*
X007216Y013511D01*
X007216Y013694D02*
X006735Y014015D01*
X006735Y013694D02*
X007216Y014015D01*
X006166Y013605D02*
X005685Y013285D01*
X005765Y013090D02*
X006085Y012769D01*
X006166Y012849D01*
X006166Y013010D01*
X006085Y013090D01*
X005765Y013090D01*
X005685Y013010D01*
X005685Y012849D01*
X005765Y012769D01*
X006085Y012769D01*
X006166Y012574D02*
X006166Y012254D01*
X006166Y012414D02*
X005685Y012414D01*
X005845Y012254D01*
X005925Y012058D02*
X005925Y011738D01*
X005685Y011543D02*
X006166Y011543D01*
X005685Y011222D01*
X006166Y011222D01*
X006085Y011027D02*
X005925Y011027D01*
X005925Y010867D01*
X005765Y011027D02*
X005685Y010947D01*
X005685Y010787D01*
X005765Y010707D01*
X006085Y010707D01*
X006166Y010787D01*
X006166Y010947D01*
X006085Y011027D01*
X006975Y010577D02*
X006975Y010257D01*
X006895Y010257D02*
X007216Y010257D01*
X006975Y009901D02*
X006815Y009741D01*
X006735Y009741D01*
X006166Y010271D02*
X006085Y010191D01*
X006166Y010271D02*
X006166Y010431D01*
X006085Y010511D01*
X006005Y010511D01*
X005925Y010431D01*
X005925Y010271D01*
X005845Y010191D01*
X005765Y010191D01*
X005685Y010271D01*
X005685Y010431D01*
X005765Y010511D01*
X006166Y013285D02*
X005685Y013605D01*
D12*
X006399Y012976D02*
X006305Y012883D01*
X006352Y012775D02*
X006539Y012588D01*
X006586Y012635D01*
X006586Y012728D01*
X006539Y012775D01*
X006352Y012775D01*
X006305Y012728D01*
X006305Y012635D01*
X006352Y012588D01*
X006539Y012588D01*
X006539Y012488D02*
X006586Y012488D01*
X006586Y012441D01*
X006539Y012441D01*
X006539Y012488D01*
X006586Y012333D02*
X006586Y012146D01*
X006586Y012240D02*
X006305Y012240D01*
X006399Y012146D01*
X006445Y011744D02*
X006492Y011697D01*
X006492Y011557D01*
X006492Y011650D02*
X006586Y011744D01*
X006445Y011744D02*
X006352Y011744D01*
X006305Y011697D01*
X006305Y011557D01*
X006586Y011557D01*
X006586Y011449D02*
X006586Y011262D01*
X006305Y011262D01*
X006305Y011449D01*
X006445Y011356D02*
X006445Y011262D01*
X006492Y011154D02*
X006305Y011154D01*
X006305Y010968D02*
X006492Y010968D01*
X006586Y011061D01*
X006492Y011154D01*
X006586Y010865D02*
X006492Y010771D01*
X006399Y010771D01*
X006305Y010865D01*
X007449Y010939D02*
X007682Y010939D01*
X007729Y010893D01*
X007729Y010846D01*
X007636Y010799D02*
X007636Y010939D01*
X007589Y011047D02*
X007542Y011094D01*
X007542Y011234D01*
X007495Y011234D02*
X007636Y011234D01*
X007636Y011094D01*
X007589Y011047D01*
X007449Y011094D02*
X007449Y011187D01*
X007495Y011234D01*
X007449Y011342D02*
X007449Y011482D01*
X007495Y011529D01*
X007636Y011529D01*
X007589Y011683D02*
X007636Y011730D01*
X007589Y011683D02*
X007402Y011683D01*
X007449Y011636D02*
X007449Y011730D01*
X007449Y011833D02*
X007636Y011833D01*
X007542Y011833D02*
X007449Y011926D01*
X007449Y011973D01*
X007495Y012078D02*
X007589Y012078D01*
X007636Y012125D01*
X007636Y012218D01*
X007589Y012265D01*
X007495Y012265D01*
X007449Y012218D01*
X007449Y012125D01*
X007495Y012078D01*
X007449Y012373D02*
X007449Y012513D01*
X007495Y012560D01*
X007636Y012560D01*
X007636Y012668D02*
X007636Y012761D01*
X007636Y012714D02*
X007449Y012714D01*
X007449Y012668D01*
X007355Y012714D02*
X007309Y012714D01*
X007449Y012864D02*
X007636Y013051D01*
X007636Y013159D02*
X007636Y013205D01*
X007589Y013205D01*
X007589Y013159D01*
X007636Y013159D01*
X007589Y013306D02*
X007636Y013353D01*
X007636Y013493D01*
X007589Y013601D02*
X007636Y013647D01*
X007636Y013741D01*
X007589Y013787D01*
X007495Y013787D01*
X007449Y013741D01*
X007449Y013647D01*
X007495Y013601D01*
X007589Y013601D01*
X007449Y013493D02*
X007449Y013353D01*
X007495Y013306D01*
X007589Y013306D01*
X007449Y013051D02*
X007636Y012864D01*
X007636Y012373D02*
X007449Y012373D01*
X006586Y012883D02*
X006492Y012976D01*
X006399Y012976D01*
X007449Y013895D02*
X007449Y013942D01*
X007495Y013989D01*
X007449Y014035D01*
X007495Y014082D01*
X007636Y014082D01*
X007636Y013989D02*
X007495Y013989D01*
X007449Y013895D02*
X007636Y013895D01*
X007636Y011342D02*
X007449Y011342D01*
X007636Y010799D02*
X007589Y010752D01*
X007449Y010752D01*
X007589Y010652D02*
X007636Y010652D01*
X007636Y010605D01*
X007589Y010605D01*
X007589Y010652D01*
X007589Y010497D02*
X007449Y010497D01*
X007589Y010497D02*
X007636Y010451D01*
X007589Y010404D01*
X007636Y010357D01*
X007589Y010310D01*
X007449Y010310D01*
X007449Y010203D02*
X007589Y010203D01*
X007636Y010156D01*
X007589Y010109D01*
X007636Y010063D01*
X007589Y010016D01*
X007449Y010016D01*
X007449Y009908D02*
X007589Y009908D01*
X007636Y009861D01*
X007589Y009815D01*
X007636Y009768D01*
X007589Y009721D01*
X007449Y009721D01*
D13*
X007800Y010066D02*
X007730Y010136D01*
X007800Y010206D01*
X007941Y010206D01*
X007906Y010287D02*
X007941Y010322D01*
X007941Y010427D01*
X007800Y010427D01*
X007800Y010508D02*
X007800Y010578D01*
X007765Y010543D02*
X007906Y010543D01*
X007941Y010578D01*
X007941Y010655D02*
X007730Y010655D01*
X007800Y010690D02*
X007800Y010761D01*
X007835Y010796D01*
X007941Y010796D01*
X007906Y010876D02*
X007941Y010911D01*
X007941Y010982D01*
X007906Y011017D01*
X007835Y011017D01*
X007800Y010982D01*
X007800Y010911D01*
X007835Y010876D01*
X007906Y010876D01*
X007800Y010690D02*
X007835Y010655D01*
X007800Y010287D02*
X007906Y010287D01*
X007835Y010206D02*
X007835Y010066D01*
X007800Y010066D02*
X007941Y010066D01*
X007941Y011097D02*
X007800Y011097D01*
X007800Y011167D02*
X007800Y011203D01*
X007800Y011167D02*
X007870Y011097D01*
X007835Y011282D02*
X007800Y011282D01*
X007800Y011317D01*
X007835Y011317D01*
X007835Y011282D01*
X007906Y011282D02*
X007941Y011282D01*
X007941Y011317D01*
X007906Y011317D01*
X007906Y011282D01*
X007906Y011613D02*
X007941Y011648D01*
X007941Y011718D01*
X007906Y011753D01*
X007870Y011753D01*
X007835Y011718D01*
X007835Y011648D01*
X007800Y011613D01*
X007765Y011613D01*
X007730Y011648D01*
X007730Y011718D01*
X007765Y011753D01*
X007800Y011869D02*
X007800Y011939D01*
X007835Y011974D01*
X007941Y011974D01*
X007941Y011869D01*
X007906Y011834D01*
X007870Y011869D01*
X007870Y011974D01*
X007800Y012055D02*
X007800Y012125D01*
X007765Y012090D02*
X007906Y012090D01*
X007941Y012125D01*
X007941Y012202D02*
X007941Y012272D01*
X007941Y012237D02*
X007800Y012237D01*
X007800Y012202D01*
X007730Y012237D02*
X007695Y012237D01*
X007835Y012350D02*
X007800Y012385D01*
X007800Y012490D01*
X007870Y012455D02*
X007870Y012385D01*
X007835Y012350D01*
X007941Y012350D02*
X007941Y012455D01*
X007906Y012490D01*
X007870Y012455D01*
X007835Y012571D02*
X007800Y012606D01*
X007800Y012676D01*
X007835Y012711D01*
X007941Y012711D01*
X007941Y012571D02*
X007730Y012571D01*
X007730Y013013D02*
X007941Y013153D01*
X007730Y013153D01*
X007800Y013269D02*
X007800Y013339D01*
X007835Y013374D01*
X007941Y013374D01*
X007941Y013269D01*
X007906Y013234D01*
X007870Y013269D01*
X007870Y013374D01*
X007800Y013455D02*
X007800Y013490D01*
X007941Y013490D01*
X007941Y013455D02*
X007941Y013525D01*
X007941Y013602D02*
X007800Y013602D01*
X007870Y013602D02*
X007800Y013672D01*
X007800Y013707D01*
X007730Y013490D02*
X007695Y013490D01*
X008214Y013793D02*
X008262Y013744D01*
X008359Y013744D01*
X008408Y013793D01*
X008509Y013744D02*
X008702Y013938D01*
X008702Y013986D01*
X008654Y014035D01*
X008557Y014035D01*
X008509Y013986D01*
X008408Y013986D02*
X008359Y014035D01*
X008262Y014035D01*
X008214Y013986D01*
X008214Y013793D01*
X008509Y013744D02*
X008702Y013744D01*
X008803Y013793D02*
X008852Y013744D01*
X008948Y013744D01*
X008997Y013793D01*
X008997Y013841D01*
X008948Y013889D01*
X008900Y013889D01*
X008948Y013889D02*
X008997Y013938D01*
X008997Y013986D01*
X008948Y014035D01*
X008852Y014035D01*
X008803Y013986D01*
X007941Y013013D02*
X007730Y013013D01*
X008262Y012035D02*
X008214Y011986D01*
X008214Y011793D01*
X008262Y011744D01*
X008359Y011744D01*
X008408Y011793D01*
X008509Y011744D02*
X008702Y011938D01*
X008702Y011986D01*
X008654Y012035D01*
X008557Y012035D01*
X008509Y011986D01*
X008408Y011986D02*
X008359Y012035D01*
X008262Y012035D01*
X008509Y011744D02*
X008702Y011744D01*
X008803Y011889D02*
X008997Y011889D01*
X009021Y011835D02*
X009070Y011883D01*
X009263Y011883D01*
X009312Y011835D01*
X009312Y011738D01*
X009263Y011690D01*
X009070Y011690D01*
X009021Y011738D01*
X009021Y011835D01*
X008948Y011744D02*
X008948Y012035D01*
X008803Y011889D01*
X009021Y012081D02*
X009312Y012081D01*
X009312Y011984D02*
X009312Y012178D01*
X009118Y011984D02*
X009021Y012081D01*
X009312Y011883D02*
X009215Y011786D01*
X011714Y012744D02*
X011714Y013035D01*
X011859Y013035D01*
X011908Y012986D01*
X011908Y012889D01*
X011859Y012841D01*
X011714Y012841D01*
X011811Y012841D02*
X011908Y012744D01*
X012009Y012744D02*
X012202Y012744D01*
X012105Y012744D02*
X012105Y013035D01*
X012009Y012938D01*
X012303Y012889D02*
X012497Y012889D01*
X012448Y012744D02*
X012448Y013035D01*
X012303Y012889D01*
X012937Y011739D02*
X013082Y011594D01*
X013082Y011787D01*
X012937Y011739D02*
X013228Y011739D01*
X013179Y011493D02*
X013228Y011444D01*
X013228Y011348D01*
X013179Y011299D01*
X012986Y011299D01*
X012937Y011348D01*
X012937Y011444D01*
X012986Y011493D01*
X012937Y011200D02*
X012937Y011103D01*
X012937Y011151D02*
X013228Y011151D01*
X013228Y011103D02*
X013228Y011200D01*
X013261Y009580D02*
X013164Y009580D01*
X013116Y009531D01*
X013014Y009531D02*
X012966Y009580D01*
X012869Y009580D01*
X012821Y009531D01*
X012720Y009531D02*
X012671Y009580D01*
X012575Y009580D01*
X012526Y009531D01*
X012526Y009338D01*
X012575Y009289D01*
X012671Y009289D01*
X012720Y009338D01*
X012821Y009289D02*
X013014Y009483D01*
X013014Y009531D01*
X013014Y009289D02*
X012821Y009289D01*
X013116Y009289D02*
X013309Y009483D01*
X013309Y009531D01*
X013261Y009580D01*
X013309Y009289D02*
X013116Y009289D01*
X013714Y008886D02*
X013714Y008693D01*
X013762Y008644D01*
X013859Y008644D01*
X013908Y008693D01*
X014009Y008644D02*
X014202Y008838D01*
X014202Y008886D01*
X014154Y008935D01*
X014057Y008935D01*
X014009Y008886D01*
X013908Y008886D02*
X013859Y008935D01*
X013762Y008935D01*
X013714Y008886D01*
X014009Y008644D02*
X014202Y008644D01*
X014303Y008644D02*
X014497Y008644D01*
X014400Y008644D02*
X014400Y008935D01*
X014303Y008838D01*
X014714Y008886D02*
X014714Y008693D01*
X014762Y008644D01*
X014859Y008644D01*
X014908Y008693D01*
X015009Y008644D02*
X015202Y008838D01*
X015202Y008886D01*
X015154Y008935D01*
X015057Y008935D01*
X015009Y008886D01*
X014908Y008886D02*
X014859Y008935D01*
X014762Y008935D01*
X014714Y008886D01*
X015009Y008644D02*
X015202Y008644D01*
X015303Y008693D02*
X015497Y008886D01*
X015497Y008693D01*
X015448Y008644D01*
X015352Y008644D01*
X015303Y008693D01*
X015303Y008886D01*
X015352Y008935D01*
X015448Y008935D01*
X015497Y008886D01*
X017114Y008886D02*
X017114Y008693D01*
X017162Y008644D01*
X017259Y008644D01*
X017308Y008693D01*
X017409Y008644D02*
X017602Y008644D01*
X017505Y008644D02*
X017505Y008935D01*
X017409Y008838D01*
X017308Y008886D02*
X017259Y008935D01*
X017162Y008935D01*
X017114Y008886D01*
X017703Y008935D02*
X017897Y008935D01*
X017897Y008886D01*
X017703Y008693D01*
X017703Y008644D01*
X019171Y010260D02*
X019364Y010260D01*
X019412Y010308D01*
X019412Y010405D01*
X019364Y010453D01*
X019364Y010554D02*
X019412Y010603D01*
X019412Y010699D01*
X019364Y010748D01*
X019316Y010748D01*
X019267Y010699D01*
X019267Y010651D01*
X019267Y010699D02*
X019219Y010748D01*
X019171Y010748D01*
X019122Y010699D01*
X019122Y010603D01*
X019171Y010554D01*
X019171Y010453D02*
X019122Y010405D01*
X019122Y010308D01*
X019171Y010260D01*
X019171Y010849D02*
X019122Y010897D01*
X019122Y010994D01*
X019171Y011042D01*
X019364Y010849D01*
X019412Y010897D01*
X019412Y010994D01*
X019364Y011042D01*
X019171Y011042D01*
X019171Y010849D02*
X019364Y010849D01*
X020541Y011600D02*
X020541Y011697D01*
X020541Y011649D02*
X020831Y011649D01*
X020831Y011697D02*
X020831Y011600D01*
X020783Y011797D02*
X020589Y011797D01*
X020541Y011845D01*
X020541Y011942D01*
X020589Y011990D01*
X020541Y012091D02*
X020541Y012285D01*
X020589Y012285D01*
X020783Y012091D01*
X020831Y012091D01*
X020783Y011990D02*
X020831Y011942D01*
X020831Y011845D01*
X020783Y011797D01*
X021167Y011042D02*
X021167Y010849D01*
X021022Y010994D01*
X021312Y010994D01*
X021264Y010748D02*
X021312Y010699D01*
X021312Y010603D01*
X021264Y010554D01*
X021264Y010453D02*
X021312Y010405D01*
X021312Y010308D01*
X021264Y010260D01*
X021071Y010260D01*
X021022Y010308D01*
X021022Y010405D01*
X021071Y010453D01*
X021071Y010554D02*
X021022Y010603D01*
X021022Y010699D01*
X021071Y010748D01*
X021119Y010748D01*
X021167Y010699D01*
X021216Y010748D01*
X021264Y010748D01*
X021167Y010699D02*
X021167Y010651D01*
X021119Y010042D02*
X021167Y009994D01*
X021216Y010042D01*
X021264Y010042D01*
X021312Y009994D01*
X021312Y009897D01*
X021264Y009849D01*
X021167Y009946D02*
X021167Y009994D01*
X021119Y010042D02*
X021071Y010042D01*
X021022Y009994D01*
X021022Y009897D01*
X021071Y009849D01*
X021167Y009748D02*
X021167Y009554D01*
X021022Y009699D01*
X021312Y009699D01*
X021312Y009453D02*
X021216Y009356D01*
X021216Y009405D02*
X021216Y009260D01*
X021312Y009260D02*
X021022Y009260D01*
X021022Y009405D01*
X021071Y009453D01*
X021167Y009453D01*
X021216Y009405D01*
X021167Y009042D02*
X021167Y008849D01*
X021022Y008994D01*
X021312Y008994D01*
X021167Y008748D02*
X021167Y008554D01*
X021022Y008699D01*
X021312Y008699D01*
X021312Y008453D02*
X021216Y008356D01*
X021216Y008405D02*
X021216Y008260D01*
X021312Y008260D02*
X021022Y008260D01*
X021022Y008405D01*
X021071Y008453D01*
X021167Y008453D01*
X021216Y008405D01*
X021167Y008042D02*
X021264Y008042D01*
X021312Y007994D01*
X021312Y007897D01*
X021264Y007849D01*
X021167Y007849D02*
X021119Y007946D01*
X021119Y007994D01*
X021167Y008042D01*
X021022Y008042D02*
X021022Y007849D01*
X021167Y007849D01*
X021167Y007748D02*
X021167Y007554D01*
X021022Y007699D01*
X021312Y007699D01*
X021312Y007453D02*
X021216Y007356D01*
X021216Y007405D02*
X021216Y007260D01*
X021312Y007260D02*
X021022Y007260D01*
X021022Y007405D01*
X021071Y007453D01*
X021167Y007453D01*
X021216Y007405D01*
X022922Y007405D02*
X022971Y007453D01*
X023067Y007453D01*
X023116Y007405D01*
X023116Y007260D01*
X023212Y007260D02*
X022922Y007260D01*
X022922Y007405D01*
X022971Y007554D02*
X022922Y007603D01*
X022922Y007699D01*
X022971Y007748D01*
X023019Y007748D01*
X023067Y007699D01*
X023116Y007748D01*
X023164Y007748D01*
X023212Y007699D01*
X023212Y007603D01*
X023164Y007554D01*
X023212Y007453D02*
X023116Y007356D01*
X023067Y007651D02*
X023067Y007699D01*
X023067Y007849D02*
X023067Y008042D01*
X023212Y007994D02*
X022922Y007994D01*
X023067Y007849D01*
X023116Y008260D02*
X023116Y008405D01*
X023067Y008453D01*
X022971Y008453D01*
X022922Y008405D01*
X022922Y008260D01*
X023212Y008260D01*
X023116Y008356D02*
X023212Y008453D01*
X023164Y008554D02*
X023212Y008603D01*
X023212Y008699D01*
X023164Y008748D01*
X023116Y008748D01*
X023067Y008699D01*
X023067Y008651D01*
X023067Y008699D02*
X023019Y008748D01*
X022971Y008748D01*
X022922Y008699D01*
X022922Y008603D01*
X022971Y008554D01*
X022922Y008849D02*
X023067Y008849D01*
X023019Y008946D01*
X023019Y008994D01*
X023067Y009042D01*
X023164Y009042D01*
X023212Y008994D01*
X023212Y008897D01*
X023164Y008849D01*
X022922Y008849D02*
X022922Y009042D01*
X022922Y009260D02*
X022922Y009405D01*
X022971Y009453D01*
X023067Y009453D01*
X023116Y009405D01*
X023116Y009260D01*
X023212Y009260D02*
X022922Y009260D01*
X023116Y009356D02*
X023212Y009453D01*
X023212Y009554D02*
X023019Y009748D01*
X022971Y009748D01*
X022922Y009699D01*
X022922Y009603D01*
X022971Y009554D01*
X023212Y009554D02*
X023212Y009748D01*
X023212Y009849D02*
X023164Y009849D01*
X022971Y010042D01*
X022922Y010042D01*
X022922Y009849D01*
X024822Y009897D02*
X024871Y009849D01*
X024919Y009849D01*
X024967Y009897D01*
X024967Y010042D01*
X024871Y010042D02*
X024822Y009994D01*
X024822Y009897D01*
X024871Y010042D02*
X025064Y010042D01*
X025112Y009994D01*
X025112Y009897D01*
X025064Y009849D01*
X024967Y009748D02*
X024967Y009554D01*
X024822Y009699D01*
X025112Y009699D01*
X025112Y009453D02*
X025016Y009356D01*
X025016Y009405D02*
X025016Y009260D01*
X025112Y009260D02*
X024822Y009260D01*
X024822Y009405D01*
X024871Y009453D01*
X024967Y009453D01*
X025016Y009405D01*
X025064Y009042D02*
X025112Y008994D01*
X025112Y008897D01*
X025064Y008849D01*
X024871Y009042D01*
X025064Y009042D01*
X025064Y008849D02*
X024871Y008849D01*
X024822Y008897D01*
X024822Y008994D01*
X024871Y009042D01*
X024822Y008748D02*
X024822Y008554D01*
X024967Y008554D01*
X024919Y008651D01*
X024919Y008699D01*
X024967Y008748D01*
X025064Y008748D01*
X025112Y008699D01*
X025112Y008603D01*
X025064Y008554D01*
X025112Y008453D02*
X025016Y008356D01*
X025016Y008405D02*
X025016Y008260D01*
X025112Y008260D02*
X024822Y008260D01*
X024822Y008405D01*
X024871Y008453D01*
X024967Y008453D01*
X025016Y008405D01*
X025016Y008042D02*
X024967Y007994D01*
X024967Y007849D01*
X025064Y007849D01*
X025112Y007897D01*
X025112Y007994D01*
X025064Y008042D01*
X025016Y008042D01*
X024871Y007946D02*
X024967Y007849D01*
X024919Y007748D02*
X024967Y007699D01*
X025016Y007748D01*
X025064Y007748D01*
X025112Y007699D01*
X025112Y007603D01*
X025064Y007554D01*
X025064Y007453D02*
X025112Y007405D01*
X025112Y007308D01*
X025064Y007260D01*
X024871Y007260D01*
X024822Y007308D01*
X024822Y007405D01*
X024871Y007453D01*
X024871Y007554D02*
X024822Y007603D01*
X024822Y007699D01*
X024871Y007748D01*
X024919Y007748D01*
X024967Y007699D02*
X024967Y007651D01*
X024871Y007946D02*
X024822Y008042D01*
X024447Y006373D02*
X024447Y006180D01*
X024447Y006276D02*
X024157Y006276D01*
X024254Y006180D01*
X024447Y006079D02*
X024447Y005885D01*
X024447Y005982D02*
X024157Y005982D01*
X024254Y005885D01*
X024205Y005784D02*
X024157Y005736D01*
X024157Y005639D01*
X024205Y005590D01*
X024399Y005590D01*
X024447Y005639D01*
X024447Y005736D01*
X024399Y005784D01*
X024447Y005491D02*
X024447Y005394D01*
X024447Y005442D02*
X024157Y005442D01*
X024157Y005394D02*
X024157Y005491D01*
X024822Y004542D02*
X024871Y004542D01*
X025064Y004349D01*
X025112Y004349D01*
X025064Y004248D02*
X025112Y004199D01*
X025112Y004103D01*
X025064Y004054D01*
X025064Y003953D02*
X025112Y003905D01*
X025112Y003808D01*
X025064Y003760D01*
X024871Y003760D01*
X024822Y003808D01*
X024822Y003905D01*
X024871Y003953D01*
X024871Y004054D02*
X024822Y004103D01*
X024822Y004199D01*
X024871Y004248D01*
X024919Y004248D01*
X024967Y004199D01*
X025016Y004248D01*
X025064Y004248D01*
X024967Y004199D02*
X024967Y004151D01*
X024822Y004349D02*
X024822Y004542D01*
X025112Y003542D02*
X025112Y003349D01*
X025112Y003446D02*
X024822Y003446D01*
X024919Y003349D01*
X024967Y003248D02*
X025064Y003248D01*
X025112Y003199D01*
X025112Y003103D01*
X025064Y003054D01*
X024967Y003054D02*
X024919Y003151D01*
X024919Y003199D01*
X024967Y003248D01*
X024822Y003248D02*
X024822Y003054D01*
X024967Y003054D01*
X024967Y002953D02*
X025016Y002905D01*
X025016Y002760D01*
X025112Y002760D02*
X024822Y002760D01*
X024822Y002905D01*
X024871Y002953D01*
X024967Y002953D01*
X025016Y002856D02*
X025112Y002953D01*
X023212Y002953D02*
X023116Y002856D01*
X023116Y002905D02*
X023116Y002760D01*
X023212Y002760D02*
X022922Y002760D01*
X022922Y002905D01*
X022971Y002953D01*
X023067Y002953D01*
X023116Y002905D01*
X023164Y003054D02*
X023212Y003103D01*
X023212Y003199D01*
X023164Y003248D01*
X023116Y003248D01*
X023067Y003199D01*
X023067Y003151D01*
X023067Y003199D02*
X023019Y003248D01*
X022971Y003248D01*
X022922Y003199D01*
X022922Y003103D01*
X022971Y003054D01*
X022971Y003349D02*
X022922Y003397D01*
X022922Y003494D01*
X022971Y003542D01*
X023019Y003542D01*
X023067Y003494D01*
X023067Y003397D01*
X023019Y003349D01*
X022971Y003349D01*
X023067Y003397D02*
X023116Y003349D01*
X023164Y003349D01*
X023212Y003397D01*
X023212Y003494D01*
X023164Y003542D01*
X023116Y003542D01*
X023067Y003494D01*
X023116Y003760D02*
X023116Y003905D01*
X023067Y003953D01*
X022971Y003953D01*
X022922Y003905D01*
X022922Y003760D01*
X023212Y003760D01*
X023116Y003856D02*
X023212Y003953D01*
X023164Y004054D02*
X023212Y004103D01*
X023212Y004199D01*
X023164Y004248D01*
X023116Y004248D01*
X023067Y004199D01*
X023067Y004151D01*
X023067Y004199D02*
X023019Y004248D01*
X022971Y004248D01*
X022922Y004199D01*
X022922Y004103D01*
X022971Y004054D01*
X022922Y004349D02*
X022922Y004542D01*
X022971Y004542D01*
X023164Y004349D01*
X023212Y004349D01*
X021312Y004397D02*
X021264Y004349D01*
X021071Y004542D01*
X021022Y004494D01*
X021022Y004397D01*
X021071Y004349D01*
X021264Y004349D01*
X021312Y004397D02*
X021312Y004494D01*
X021264Y004542D01*
X021071Y004542D01*
X021167Y004248D02*
X021167Y004054D01*
X021022Y004199D01*
X021312Y004199D01*
X021312Y003953D02*
X021216Y003856D01*
X021216Y003905D02*
X021216Y003760D01*
X021312Y003760D02*
X021022Y003760D01*
X021022Y003905D01*
X021071Y003953D01*
X021167Y003953D01*
X021216Y003905D01*
X021312Y003542D02*
X021312Y003349D01*
X021312Y003446D02*
X021022Y003446D01*
X021119Y003349D01*
X021167Y003248D02*
X021167Y003054D01*
X021022Y003199D01*
X021312Y003199D01*
X021312Y002953D02*
X021216Y002856D01*
X021216Y002905D02*
X021216Y002760D01*
X021312Y002760D02*
X021022Y002760D01*
X021022Y002905D01*
X021071Y002953D01*
X021167Y002953D01*
X021216Y002905D01*
X021001Y002397D02*
X021098Y002301D01*
X021098Y002107D01*
X021098Y002252D02*
X020904Y002252D01*
X020904Y002301D02*
X021001Y002397D01*
X020904Y002301D02*
X020904Y002107D01*
X020803Y002252D02*
X020609Y002252D01*
X020508Y002397D02*
X020315Y002397D01*
X020412Y002397D02*
X020412Y002107D01*
X020214Y002107D02*
X020020Y002397D01*
X019919Y002397D02*
X019726Y002397D01*
X019726Y002107D01*
X019919Y002107D01*
X020020Y002107D02*
X020214Y002397D01*
X019822Y002252D02*
X019726Y002252D01*
X019752Y004244D02*
X019848Y004244D01*
X019897Y004293D01*
X019897Y004486D01*
X019848Y004535D01*
X019752Y004535D01*
X019703Y004486D01*
X019703Y004438D01*
X019752Y004389D01*
X019897Y004389D01*
X019752Y004244D02*
X019703Y004293D01*
X019602Y004244D02*
X019409Y004244D01*
X019602Y004438D01*
X019602Y004486D01*
X019554Y004535D01*
X019457Y004535D01*
X019409Y004486D01*
X019308Y004486D02*
X019259Y004535D01*
X019162Y004535D01*
X019114Y004486D01*
X019114Y004293D01*
X019162Y004244D01*
X019259Y004244D01*
X019308Y004293D01*
X018897Y004293D02*
X018897Y004389D01*
X018848Y004438D01*
X018800Y004438D01*
X018703Y004389D01*
X018703Y004535D01*
X018897Y004535D01*
X018897Y004293D02*
X018848Y004244D01*
X018752Y004244D01*
X018703Y004293D01*
X018602Y004244D02*
X018409Y004244D01*
X018602Y004438D01*
X018602Y004486D01*
X018554Y004535D01*
X018457Y004535D01*
X018409Y004486D01*
X018308Y004486D02*
X018308Y004389D01*
X018259Y004341D01*
X018114Y004341D01*
X018114Y004244D02*
X018114Y004535D01*
X018259Y004535D01*
X018308Y004486D01*
X018211Y004341D02*
X018308Y004244D01*
X017897Y004389D02*
X017703Y004389D01*
X017848Y004535D01*
X017848Y004244D01*
X017602Y004244D02*
X017409Y004244D01*
X017602Y004438D01*
X017602Y004486D01*
X017554Y004535D01*
X017457Y004535D01*
X017409Y004486D01*
X017308Y004486D02*
X017308Y004389D01*
X017259Y004341D01*
X017114Y004341D01*
X017114Y004244D02*
X017114Y004535D01*
X017259Y004535D01*
X017308Y004486D01*
X017211Y004341D02*
X017308Y004244D01*
X016697Y004293D02*
X016697Y004486D01*
X016503Y004293D01*
X016552Y004244D01*
X016648Y004244D01*
X016697Y004293D01*
X016697Y004486D02*
X016648Y004535D01*
X016552Y004535D01*
X016503Y004486D01*
X016503Y004293D01*
X016402Y004244D02*
X016209Y004244D01*
X016305Y004244D02*
X016305Y004535D01*
X016209Y004438D01*
X016108Y004486D02*
X016108Y004389D01*
X016059Y004341D01*
X015914Y004341D01*
X015914Y004244D02*
X015914Y004535D01*
X016059Y004535D01*
X016108Y004486D01*
X016011Y004341D02*
X016108Y004244D01*
X015697Y004244D02*
X015503Y004244D01*
X015600Y004244D02*
X015600Y004535D01*
X015503Y004438D01*
X015402Y004244D02*
X015209Y004244D01*
X015305Y004244D02*
X015305Y004535D01*
X015209Y004438D01*
X015108Y004486D02*
X015108Y004389D01*
X015059Y004341D01*
X014914Y004341D01*
X014914Y004244D02*
X014914Y004535D01*
X015059Y004535D01*
X015108Y004486D01*
X015011Y004341D02*
X015108Y004244D01*
X014202Y004244D02*
X014009Y004244D01*
X014105Y004244D02*
X014105Y004535D01*
X014009Y004438D01*
X013908Y004244D02*
X013714Y004244D01*
X013714Y004535D01*
X013002Y004486D02*
X012954Y004535D01*
X012857Y004535D01*
X012809Y004486D01*
X013002Y004486D02*
X013002Y004438D01*
X012809Y004244D01*
X013002Y004244D01*
X012708Y004244D02*
X012514Y004244D01*
X012514Y004535D01*
X012247Y004435D02*
X012199Y004483D01*
X012102Y004483D01*
X012053Y004435D01*
X011952Y004435D02*
X011904Y004483D01*
X011759Y004483D01*
X011759Y004193D01*
X011904Y004193D01*
X011952Y004241D01*
X011952Y004435D01*
X012053Y004193D02*
X012247Y004386D01*
X012247Y004435D01*
X012247Y004193D02*
X012053Y004193D01*
X011247Y004193D02*
X011053Y004193D01*
X011150Y004193D02*
X011150Y004483D01*
X011053Y004386D01*
X010952Y004435D02*
X010904Y004483D01*
X010759Y004483D01*
X010759Y004193D01*
X010904Y004193D01*
X010952Y004241D01*
X010952Y004435D01*
X010022Y004386D02*
X010022Y004337D01*
X009925Y004240D01*
X009925Y004095D01*
X009925Y004240D02*
X009828Y004337D01*
X009828Y004386D01*
X009727Y004337D02*
X009727Y004240D01*
X009679Y004192D01*
X009534Y004192D01*
X009631Y004192D02*
X009727Y004095D01*
X009534Y004095D02*
X009534Y004386D01*
X009679Y004386D01*
X009727Y004337D01*
X009433Y004386D02*
X009239Y004386D01*
X009239Y004095D01*
X009433Y004095D01*
X009336Y004240D02*
X009239Y004240D01*
X009138Y004386D02*
X008945Y004386D01*
X009041Y004386D02*
X009041Y004095D01*
X008747Y004095D02*
X008747Y004386D01*
X008843Y004386D02*
X008650Y004386D01*
X008549Y004289D02*
X008452Y004386D01*
X008355Y004289D01*
X008355Y004095D01*
X008254Y004144D02*
X008206Y004095D01*
X008061Y004095D01*
X008061Y004386D01*
X008206Y004386D01*
X008254Y004337D01*
X008254Y004289D01*
X008206Y004240D01*
X008061Y004240D01*
X008206Y004240D02*
X008254Y004192D01*
X008254Y004144D01*
X008355Y004240D02*
X008549Y004240D01*
X008549Y004289D02*
X008549Y004095D01*
X009962Y006444D02*
X010059Y006444D01*
X010108Y006493D01*
X010209Y006444D02*
X010402Y006444D01*
X010305Y006444D02*
X010305Y006735D01*
X010209Y006638D01*
X010108Y006686D02*
X010059Y006735D01*
X009962Y006735D01*
X009914Y006686D01*
X009914Y006493D01*
X009962Y006444D01*
X010503Y006444D02*
X010697Y006444D01*
X010600Y006444D02*
X010600Y006735D01*
X010503Y006638D01*
X011126Y006738D02*
X011175Y006689D01*
X011271Y006689D01*
X011320Y006738D01*
X011421Y006689D02*
X011614Y006689D01*
X011518Y006689D02*
X011518Y006980D01*
X011421Y006883D01*
X011320Y006931D02*
X011271Y006980D01*
X011175Y006980D01*
X011126Y006931D01*
X011126Y006738D01*
X011716Y006689D02*
X011909Y006883D01*
X011909Y006931D01*
X011861Y006980D01*
X011764Y006980D01*
X011716Y006931D01*
X011716Y006689D02*
X011909Y006689D01*
X012526Y006738D02*
X012575Y006689D01*
X012671Y006689D01*
X012720Y006738D01*
X012821Y006689D02*
X013014Y006689D01*
X012918Y006689D02*
X012918Y006980D01*
X012821Y006883D01*
X012720Y006931D02*
X012671Y006980D01*
X012575Y006980D01*
X012526Y006931D01*
X012526Y006738D01*
X013116Y006738D02*
X013164Y006689D01*
X013261Y006689D01*
X013309Y006738D01*
X013309Y006786D01*
X013261Y006834D01*
X013212Y006834D01*
X013261Y006834D02*
X013309Y006883D01*
X013309Y006931D01*
X013261Y006980D01*
X013164Y006980D01*
X013116Y006931D01*
X013714Y006686D02*
X013714Y006493D01*
X013762Y006444D01*
X013859Y006444D01*
X013908Y006493D01*
X014009Y006444D02*
X014202Y006444D01*
X014105Y006444D02*
X014105Y006735D01*
X014009Y006638D01*
X013908Y006686D02*
X013859Y006735D01*
X013762Y006735D01*
X013714Y006686D01*
X014303Y006735D02*
X014303Y006589D01*
X014400Y006638D01*
X014448Y006638D01*
X014497Y006589D01*
X014497Y006493D01*
X014448Y006444D01*
X014352Y006444D01*
X014303Y006493D01*
X014303Y006735D02*
X014497Y006735D01*
X014694Y005922D02*
X014694Y005729D01*
X014839Y005729D01*
X014791Y005826D01*
X014791Y005874D01*
X014839Y005922D01*
X014936Y005922D01*
X014984Y005874D01*
X014984Y005777D01*
X014936Y005729D01*
X014936Y005628D02*
X014984Y005579D01*
X014984Y005482D01*
X014936Y005434D01*
X014742Y005434D01*
X014694Y005482D01*
X014694Y005579D01*
X014742Y005628D01*
X014694Y005334D02*
X014694Y005238D01*
X014694Y005286D02*
X014984Y005286D01*
X014984Y005238D02*
X014984Y005334D01*
X017114Y006493D02*
X017162Y006444D01*
X017259Y006444D01*
X017308Y006493D01*
X017409Y006444D02*
X017602Y006444D01*
X017505Y006444D02*
X017505Y006735D01*
X017409Y006638D01*
X017308Y006686D02*
X017259Y006735D01*
X017162Y006735D01*
X017114Y006686D01*
X017114Y006493D01*
X017703Y006493D02*
X017752Y006444D01*
X017848Y006444D01*
X017897Y006493D01*
X017897Y006541D01*
X017848Y006589D01*
X017703Y006589D01*
X017703Y006493D01*
X017703Y006589D02*
X017800Y006686D01*
X017897Y006735D01*
X018114Y006735D02*
X018259Y006735D01*
X018308Y006686D01*
X018308Y006589D01*
X018259Y006541D01*
X018114Y006541D01*
X018114Y006444D02*
X018114Y006735D01*
X018211Y006541D02*
X018308Y006444D01*
X018409Y006444D02*
X018602Y006444D01*
X018505Y006444D02*
X018505Y006735D01*
X018409Y006638D01*
X018703Y006589D02*
X018848Y006589D01*
X018897Y006541D01*
X018897Y006493D01*
X018848Y006444D01*
X018752Y006444D01*
X018703Y006493D01*
X018703Y006589D01*
X018800Y006686D01*
X018897Y006735D01*
X019114Y006735D02*
X019259Y006735D01*
X019308Y006686D01*
X019308Y006589D01*
X019259Y006541D01*
X019114Y006541D01*
X019114Y006444D02*
X019114Y006735D01*
X019211Y006541D02*
X019308Y006444D01*
X019409Y006444D02*
X019602Y006444D01*
X019505Y006444D02*
X019505Y006735D01*
X019409Y006638D01*
X019703Y006589D02*
X019703Y006735D01*
X019897Y006735D01*
X019848Y006638D02*
X019897Y006589D01*
X019897Y006493D01*
X019848Y006444D01*
X019752Y006444D01*
X019703Y006493D01*
X019703Y006589D02*
X019800Y006638D01*
X019848Y006638D01*
X020250Y006286D02*
X020298Y006334D01*
X020347Y006334D01*
X020395Y006286D01*
X020395Y006189D01*
X020347Y006141D01*
X020298Y006141D01*
X020250Y006189D01*
X020250Y006286D01*
X020395Y006286D02*
X020443Y006334D01*
X020492Y006334D01*
X020540Y006286D01*
X020540Y006189D01*
X020492Y006141D01*
X020443Y006141D01*
X020395Y006189D01*
X020298Y006040D02*
X020250Y005991D01*
X020250Y005895D01*
X020298Y005846D01*
X020492Y005846D01*
X020540Y005895D01*
X020540Y005991D01*
X020492Y006040D01*
X020540Y005747D02*
X020540Y005650D01*
X020540Y005698D02*
X020250Y005698D01*
X020250Y005650D02*
X020250Y005747D01*
X028243Y003210D02*
X028243Y003016D01*
X028291Y002968D01*
X028388Y002968D01*
X028436Y003016D01*
X028538Y003113D02*
X028731Y003113D01*
X028832Y003065D02*
X028881Y003113D01*
X028977Y003113D01*
X029026Y003065D01*
X029026Y003016D01*
X028977Y002968D01*
X028881Y002968D01*
X028832Y003016D01*
X028832Y003065D01*
X028881Y003113D02*
X028832Y003161D01*
X028832Y003210D01*
X028881Y003258D01*
X028977Y003258D01*
X029026Y003210D01*
X029026Y003161D01*
X028977Y003113D01*
X029243Y003016D02*
X029291Y002968D01*
X029388Y002968D01*
X029436Y003016D01*
X029538Y003113D02*
X029731Y003113D01*
X029832Y003161D02*
X029881Y003113D01*
X030026Y003113D01*
X030026Y003016D02*
X030026Y003210D01*
X029977Y003258D01*
X029881Y003258D01*
X029832Y003210D01*
X029832Y003161D01*
X029832Y003016D02*
X029881Y002968D01*
X029977Y002968D01*
X030026Y003016D01*
X029683Y002968D02*
X029683Y003258D01*
X029538Y003113D01*
X029436Y003210D02*
X029388Y003258D01*
X029291Y003258D01*
X029243Y003210D01*
X029243Y003016D01*
X028683Y002968D02*
X028683Y003258D01*
X028538Y003113D01*
X028436Y003210D02*
X028388Y003258D01*
X028291Y003258D01*
X028243Y003210D01*
X030378Y003265D02*
X030378Y003410D01*
X030427Y003459D01*
X030523Y003459D01*
X030572Y003410D01*
X030572Y003265D01*
X030668Y003265D02*
X030378Y003265D01*
X030572Y003362D02*
X030668Y003459D01*
X030620Y003560D02*
X030668Y003608D01*
X030668Y003705D01*
X030620Y003753D01*
X030572Y003753D01*
X030523Y003705D01*
X030523Y003560D01*
X030620Y003560D01*
X030523Y003560D02*
X030427Y003657D01*
X030378Y003753D01*
X030427Y003854D02*
X030378Y003903D01*
X030378Y004000D01*
X030427Y004048D01*
X030475Y004048D01*
X030523Y004000D01*
X030572Y004048D01*
X030620Y004048D01*
X030668Y004000D01*
X030668Y003903D01*
X030620Y003854D01*
X030523Y003951D02*
X030523Y004000D01*
X030572Y004765D02*
X030572Y004910D01*
X030523Y004959D01*
X030427Y004959D01*
X030378Y004910D01*
X030378Y004765D01*
X030668Y004765D01*
X030572Y004862D02*
X030668Y004959D01*
X030620Y005060D02*
X030668Y005108D01*
X030668Y005205D01*
X030620Y005253D01*
X030572Y005253D01*
X030523Y005205D01*
X030523Y005060D01*
X030620Y005060D01*
X030523Y005060D02*
X030427Y005157D01*
X030378Y005253D01*
X030427Y005354D02*
X030378Y005403D01*
X030378Y005500D01*
X030427Y005548D01*
X030475Y005548D01*
X030668Y005354D01*
X030668Y005548D01*
X030668Y006265D02*
X030378Y006265D01*
X030378Y006410D01*
X030427Y006459D01*
X030523Y006459D01*
X030572Y006410D01*
X030572Y006265D01*
X030572Y006362D02*
X030668Y006459D01*
X030620Y006560D02*
X030668Y006608D01*
X030668Y006705D01*
X030620Y006753D01*
X030572Y006753D01*
X030523Y006705D01*
X030523Y006560D01*
X030620Y006560D01*
X030523Y006560D02*
X030427Y006657D01*
X030378Y006753D01*
X030475Y006854D02*
X030378Y006951D01*
X030668Y006951D01*
X030668Y006854D02*
X030668Y007048D01*
X030668Y007765D02*
X030378Y007765D01*
X030378Y007910D01*
X030427Y007959D01*
X030523Y007959D01*
X030572Y007910D01*
X030572Y007765D01*
X030572Y007862D02*
X030668Y007959D01*
X030620Y008060D02*
X030668Y008108D01*
X030668Y008205D01*
X030620Y008253D01*
X030572Y008253D01*
X030523Y008205D01*
X030523Y008060D01*
X030620Y008060D01*
X030523Y008060D02*
X030427Y008157D01*
X030378Y008253D01*
X030427Y008354D02*
X030378Y008403D01*
X030378Y008500D01*
X030427Y008548D01*
X030620Y008354D01*
X030668Y008403D01*
X030668Y008500D01*
X030620Y008548D01*
X030427Y008548D01*
X030427Y008354D02*
X030620Y008354D01*
X030097Y008786D02*
X029903Y008593D01*
X029903Y008544D01*
X029754Y008544D02*
X029754Y008835D01*
X029609Y008689D01*
X029802Y008689D01*
X029903Y008835D02*
X030097Y008835D01*
X030097Y008786D01*
X029977Y008968D02*
X029881Y008968D01*
X029832Y009016D01*
X029832Y009113D02*
X029929Y009161D01*
X029977Y009161D01*
X030026Y009113D01*
X030026Y009016D01*
X029977Y008968D01*
X029832Y009113D02*
X029832Y009258D01*
X030026Y009258D01*
X029731Y009113D02*
X029538Y009113D01*
X029683Y009258D01*
X029683Y008968D01*
X029436Y009016D02*
X029388Y008968D01*
X029291Y008968D01*
X029243Y009016D01*
X029243Y009210D01*
X029291Y009258D01*
X029388Y009258D01*
X029436Y009210D01*
X029026Y009113D02*
X028832Y009113D01*
X028977Y009258D01*
X028977Y008968D01*
X029097Y008835D02*
X029000Y008786D01*
X028903Y008689D01*
X029048Y008689D01*
X029097Y008641D01*
X029097Y008593D01*
X029048Y008544D01*
X028952Y008544D01*
X028903Y008593D01*
X028903Y008689D01*
X028802Y008689D02*
X028609Y008689D01*
X028754Y008835D01*
X028754Y008544D01*
X028508Y008593D02*
X028459Y008544D01*
X028362Y008544D01*
X028314Y008593D01*
X028314Y008786D01*
X028362Y008835D01*
X028459Y008835D01*
X028508Y008786D01*
X028388Y008968D02*
X028436Y009016D01*
X028388Y008968D02*
X028291Y008968D01*
X028243Y009016D01*
X028243Y009210D01*
X028291Y009258D01*
X028388Y009258D01*
X028436Y009210D01*
X028538Y009113D02*
X028731Y009113D01*
X028683Y008968D02*
X028683Y009258D01*
X028538Y009113D01*
X029314Y008786D02*
X029314Y008593D01*
X029362Y008544D01*
X029459Y008544D01*
X029508Y008593D01*
X029508Y008786D02*
X029459Y008835D01*
X029362Y008835D01*
X029314Y008786D01*
X030378Y009265D02*
X030378Y009410D01*
X030427Y009459D01*
X030523Y009459D01*
X030572Y009410D01*
X030572Y009265D01*
X030668Y009265D02*
X030378Y009265D01*
X030572Y009362D02*
X030668Y009459D01*
X030620Y009560D02*
X030668Y009608D01*
X030668Y009705D01*
X030620Y009753D01*
X030523Y009753D01*
X030475Y009705D01*
X030475Y009657D01*
X030523Y009560D01*
X030378Y009560D01*
X030378Y009753D01*
X030427Y009854D02*
X030475Y009854D01*
X030523Y009903D01*
X030523Y010048D01*
X030427Y010048D02*
X030378Y010000D01*
X030378Y009903D01*
X030427Y009854D01*
X030620Y009854D02*
X030668Y009903D01*
X030668Y010000D01*
X030620Y010048D01*
X030427Y010048D01*
X030378Y010765D02*
X030378Y010910D01*
X030427Y010959D01*
X030523Y010959D01*
X030572Y010910D01*
X030572Y010765D01*
X030668Y010765D02*
X030378Y010765D01*
X030572Y010862D02*
X030668Y010959D01*
X030620Y011060D02*
X030668Y011108D01*
X030668Y011205D01*
X030620Y011253D01*
X030523Y011253D01*
X030475Y011205D01*
X030475Y011157D01*
X030523Y011060D01*
X030378Y011060D01*
X030378Y011253D01*
X030427Y011354D02*
X030475Y011354D01*
X030523Y011403D01*
X030523Y011500D01*
X030572Y011548D01*
X030620Y011548D01*
X030668Y011500D01*
X030668Y011403D01*
X030620Y011354D01*
X030572Y011354D01*
X030523Y011403D01*
X030523Y011500D02*
X030475Y011548D01*
X030427Y011548D01*
X030378Y011500D01*
X030378Y011403D01*
X030427Y011354D01*
X030378Y012265D02*
X030378Y012410D01*
X030427Y012459D01*
X030523Y012459D01*
X030572Y012410D01*
X030572Y012265D01*
X030668Y012265D02*
X030378Y012265D01*
X030572Y012362D02*
X030668Y012459D01*
X030620Y012560D02*
X030668Y012608D01*
X030668Y012705D01*
X030620Y012753D01*
X030523Y012753D01*
X030475Y012705D01*
X030475Y012657D01*
X030523Y012560D01*
X030378Y012560D01*
X030378Y012753D01*
X030378Y012854D02*
X030378Y013048D01*
X030427Y013048D01*
X030620Y012854D01*
X030668Y012854D01*
X030668Y013765D02*
X030378Y013765D01*
X030378Y013910D01*
X030427Y013959D01*
X030523Y013959D01*
X030572Y013910D01*
X030572Y013765D01*
X030572Y013862D02*
X030668Y013959D01*
X030620Y014060D02*
X030668Y014108D01*
X030668Y014205D01*
X030620Y014253D01*
X030523Y014253D01*
X030475Y014205D01*
X030475Y014157D01*
X030523Y014060D01*
X030378Y014060D01*
X030378Y014253D01*
X030523Y014354D02*
X030523Y014500D01*
X030572Y014548D01*
X030620Y014548D01*
X030668Y014500D01*
X030668Y014403D01*
X030620Y014354D01*
X030523Y014354D01*
X030427Y014451D01*
X030378Y014548D01*
X030097Y014593D02*
X030048Y014544D01*
X029952Y014544D01*
X029903Y014593D01*
X030000Y014689D02*
X030048Y014689D01*
X030097Y014641D01*
X030097Y014593D01*
X030048Y014689D02*
X030097Y014738D01*
X030097Y014786D01*
X030048Y014835D01*
X029952Y014835D01*
X029903Y014786D01*
X029802Y014689D02*
X029609Y014689D01*
X029754Y014835D01*
X029754Y014544D01*
X029508Y014593D02*
X029459Y014544D01*
X029362Y014544D01*
X029314Y014593D01*
X029314Y014786D01*
X029362Y014835D01*
X029459Y014835D01*
X029508Y014786D01*
X029388Y014968D02*
X029436Y015016D01*
X029388Y014968D02*
X029291Y014968D01*
X029243Y015016D01*
X029243Y015210D01*
X029291Y015258D01*
X029388Y015258D01*
X029436Y015210D01*
X029538Y015113D02*
X029731Y015113D01*
X029832Y015161D02*
X029929Y015258D01*
X029929Y014968D01*
X029832Y014968D02*
X030026Y014968D01*
X029683Y014968D02*
X029683Y015258D01*
X029538Y015113D01*
X029026Y015016D02*
X028977Y014968D01*
X028881Y014968D01*
X028832Y015016D01*
X029026Y015210D01*
X029026Y015016D01*
X029048Y014835D02*
X028952Y014835D01*
X028903Y014786D01*
X028802Y014689D02*
X028609Y014689D01*
X028754Y014835D01*
X028754Y014544D01*
X028903Y014544D02*
X029097Y014738D01*
X029097Y014786D01*
X029048Y014835D01*
X028832Y015016D02*
X028832Y015210D01*
X028881Y015258D01*
X028977Y015258D01*
X029026Y015210D01*
X028731Y015113D02*
X028538Y015113D01*
X028683Y015258D01*
X028683Y014968D01*
X028436Y015016D02*
X028388Y014968D01*
X028291Y014968D01*
X028243Y015016D01*
X028243Y015210D01*
X028291Y015258D01*
X028388Y015258D01*
X028436Y015210D01*
X028459Y014835D02*
X028362Y014835D01*
X028314Y014786D01*
X028314Y014593D01*
X028362Y014544D01*
X028459Y014544D01*
X028508Y014593D01*
X028508Y014786D02*
X028459Y014835D01*
X028903Y014544D02*
X029097Y014544D01*
X030378Y015265D02*
X030378Y015410D01*
X030427Y015459D01*
X030523Y015459D01*
X030572Y015410D01*
X030572Y015265D01*
X030668Y015265D02*
X030378Y015265D01*
X030572Y015362D02*
X030668Y015459D01*
X030620Y015560D02*
X030668Y015608D01*
X030668Y015705D01*
X030620Y015753D01*
X030523Y015753D01*
X030475Y015705D01*
X030475Y015657D01*
X030523Y015560D01*
X030378Y015560D01*
X030378Y015753D01*
X030378Y015854D02*
X030523Y015854D01*
X030475Y015951D01*
X030475Y016000D01*
X030523Y016048D01*
X030620Y016048D01*
X030668Y016000D01*
X030668Y015903D01*
X030620Y015854D01*
X030378Y015854D02*
X030378Y016048D01*
X030378Y016765D02*
X030378Y016910D01*
X030427Y016959D01*
X030523Y016959D01*
X030572Y016910D01*
X030572Y016765D01*
X030668Y016765D02*
X030378Y016765D01*
X030572Y016862D02*
X030668Y016959D01*
X030620Y017060D02*
X030668Y017108D01*
X030668Y017205D01*
X030620Y017253D01*
X030523Y017253D01*
X030475Y017205D01*
X030475Y017157D01*
X030523Y017060D01*
X030378Y017060D01*
X030378Y017253D01*
X030523Y017354D02*
X030523Y017548D01*
X030378Y017500D02*
X030523Y017354D01*
X030668Y017500D02*
X030378Y017500D01*
X030378Y018265D02*
X030378Y018410D01*
X030427Y018459D01*
X030523Y018459D01*
X030572Y018410D01*
X030572Y018265D01*
X030668Y018265D02*
X030378Y018265D01*
X030572Y018362D02*
X030668Y018459D01*
X030620Y018560D02*
X030668Y018608D01*
X030668Y018705D01*
X030620Y018753D01*
X030523Y018753D01*
X030475Y018705D01*
X030475Y018657D01*
X030523Y018560D01*
X030378Y018560D01*
X030378Y018753D01*
X030427Y018854D02*
X030378Y018903D01*
X030378Y019000D01*
X030427Y019048D01*
X030475Y019048D01*
X030523Y019000D01*
X030572Y019048D01*
X030620Y019048D01*
X030668Y019000D01*
X030668Y018903D01*
X030620Y018854D01*
X030523Y018951D02*
X030523Y019000D01*
X030572Y019765D02*
X030572Y019910D01*
X030523Y019959D01*
X030427Y019959D01*
X030378Y019910D01*
X030378Y019765D01*
X030668Y019765D01*
X030572Y019862D02*
X030668Y019959D01*
X030620Y020060D02*
X030668Y020108D01*
X030668Y020205D01*
X030620Y020253D01*
X030523Y020253D01*
X030475Y020205D01*
X030475Y020157D01*
X030523Y020060D01*
X030378Y020060D01*
X030378Y020253D01*
X030427Y020354D02*
X030378Y020403D01*
X030378Y020500D01*
X030427Y020548D01*
X030475Y020548D01*
X030668Y020354D01*
X030668Y020548D01*
X030097Y020593D02*
X030097Y020786D01*
X030048Y020835D01*
X029952Y020835D01*
X029903Y020786D01*
X029903Y020738D01*
X029952Y020689D01*
X030097Y020689D01*
X030097Y020593D02*
X030048Y020544D01*
X029952Y020544D01*
X029903Y020593D01*
X029802Y020593D02*
X029754Y020544D01*
X029657Y020544D01*
X029609Y020593D01*
X029508Y020593D02*
X029459Y020544D01*
X029362Y020544D01*
X029314Y020593D01*
X029314Y020786D01*
X029362Y020835D01*
X029459Y020835D01*
X029508Y020786D01*
X029609Y020786D02*
X029657Y020835D01*
X029754Y020835D01*
X029802Y020786D01*
X029802Y020738D01*
X029754Y020689D01*
X029802Y020641D01*
X029802Y020593D01*
X029754Y020689D02*
X029705Y020689D01*
X029097Y020641D02*
X029097Y020593D01*
X029048Y020544D01*
X028952Y020544D01*
X028903Y020593D01*
X028903Y020641D01*
X028952Y020689D01*
X029048Y020689D01*
X029097Y020641D01*
X029048Y020689D02*
X029097Y020738D01*
X029097Y020786D01*
X029048Y020835D01*
X028952Y020835D01*
X028903Y020786D01*
X028903Y020738D01*
X028952Y020689D01*
X028802Y020641D02*
X028802Y020593D01*
X028754Y020544D01*
X028657Y020544D01*
X028609Y020593D01*
X028508Y020593D02*
X028459Y020544D01*
X028362Y020544D01*
X028314Y020593D01*
X028314Y020786D01*
X028362Y020835D01*
X028459Y020835D01*
X028508Y020786D01*
X028609Y020786D02*
X028657Y020835D01*
X028754Y020835D01*
X028802Y020786D01*
X028802Y020738D01*
X028754Y020689D01*
X028802Y020641D01*
X028754Y020689D02*
X028705Y020689D01*
X025112Y020703D02*
X025064Y020654D01*
X025112Y020703D02*
X025112Y020799D01*
X025064Y020848D01*
X025016Y020848D01*
X024967Y020799D01*
X024967Y020751D01*
X024967Y020799D02*
X024919Y020848D01*
X024871Y020848D01*
X024822Y020799D01*
X024822Y020703D01*
X024871Y020654D01*
X024871Y020553D02*
X024967Y020553D01*
X025016Y020505D01*
X025016Y020360D01*
X025112Y020360D02*
X024822Y020360D01*
X024822Y020505D01*
X024871Y020553D01*
X025016Y020456D02*
X025112Y020553D01*
X025064Y020142D02*
X024871Y020142D01*
X024822Y020094D01*
X024822Y019997D01*
X024871Y019949D01*
X024919Y019949D01*
X024967Y019997D01*
X024967Y020142D01*
X025064Y020142D02*
X025112Y020094D01*
X025112Y019997D01*
X025064Y019949D01*
X025112Y019848D02*
X025112Y019654D01*
X024919Y019848D01*
X024871Y019848D01*
X024822Y019799D01*
X024822Y019703D01*
X024871Y019654D01*
X024871Y019553D02*
X024967Y019553D01*
X025016Y019505D01*
X025016Y019360D01*
X025112Y019360D02*
X024822Y019360D01*
X024822Y019505D01*
X024871Y019553D01*
X025016Y019456D02*
X025112Y019553D01*
X024330Y018362D02*
X024137Y018362D01*
X024089Y018314D01*
X024089Y018217D01*
X024137Y018169D01*
X024185Y018169D01*
X024234Y018217D01*
X024234Y018362D01*
X024330Y018362D02*
X024379Y018314D01*
X024379Y018217D01*
X024330Y018169D01*
X024330Y018067D02*
X024379Y018019D01*
X024379Y017922D01*
X024330Y017874D01*
X024137Y017874D01*
X024089Y017922D01*
X024089Y018019D01*
X024137Y018067D01*
X024089Y017774D02*
X024089Y017677D01*
X024089Y017726D02*
X024379Y017726D01*
X024379Y017774D02*
X024379Y017677D01*
X024822Y016242D02*
X024871Y016146D01*
X024967Y016049D01*
X024967Y016194D01*
X025016Y016242D01*
X025064Y016242D01*
X025112Y016194D01*
X025112Y016097D01*
X025064Y016049D01*
X024967Y016049D01*
X024919Y015948D02*
X024967Y015899D01*
X025016Y015948D01*
X025064Y015948D01*
X025112Y015899D01*
X025112Y015803D01*
X025064Y015754D01*
X025112Y015653D02*
X025016Y015556D01*
X025016Y015605D02*
X025016Y015460D01*
X025112Y015460D02*
X024822Y015460D01*
X024822Y015605D01*
X024871Y015653D01*
X024967Y015653D01*
X025016Y015605D01*
X024871Y015754D02*
X024822Y015803D01*
X024822Y015899D01*
X024871Y015948D01*
X024919Y015948D01*
X024967Y015899D02*
X024967Y015851D01*
X024919Y015242D02*
X024871Y015242D01*
X024822Y015194D01*
X024822Y015097D01*
X024871Y015049D01*
X024967Y014948D02*
X024967Y014754D01*
X024822Y014899D01*
X025112Y014899D01*
X025112Y015049D02*
X024919Y015242D01*
X025112Y015242D02*
X025112Y015049D01*
X025112Y014653D02*
X025016Y014556D01*
X025016Y014605D02*
X025016Y014460D01*
X025112Y014460D02*
X024822Y014460D01*
X024822Y014605D01*
X024871Y014653D01*
X024967Y014653D01*
X025016Y014605D01*
X025064Y014242D02*
X024871Y014242D01*
X024822Y014194D01*
X024822Y014097D01*
X024871Y014049D01*
X024919Y014049D01*
X024967Y014097D01*
X024967Y014242D01*
X025064Y014242D02*
X025112Y014194D01*
X025112Y014097D01*
X025064Y014049D01*
X025064Y013948D02*
X025112Y013899D01*
X025112Y013803D01*
X025064Y013754D01*
X025112Y013653D02*
X025016Y013556D01*
X025016Y013605D02*
X025016Y013460D01*
X025112Y013460D02*
X024822Y013460D01*
X024822Y013605D01*
X024871Y013653D01*
X024967Y013653D01*
X025016Y013605D01*
X024871Y013754D02*
X024822Y013803D01*
X024822Y013899D01*
X024871Y013948D01*
X024919Y013948D01*
X024967Y013899D01*
X025016Y013948D01*
X025064Y013948D01*
X024967Y013899D02*
X024967Y013851D01*
X023212Y013899D02*
X022922Y013899D01*
X023067Y013754D01*
X023067Y013948D01*
X023164Y014049D02*
X023212Y014049D01*
X023164Y014049D02*
X022971Y014242D01*
X022922Y014242D01*
X022922Y014049D01*
X022971Y013653D02*
X023067Y013653D01*
X023116Y013605D01*
X023116Y013460D01*
X023212Y013460D02*
X022922Y013460D01*
X022922Y013605D01*
X022971Y013653D01*
X023116Y013556D02*
X023212Y013653D01*
X023212Y014460D02*
X022922Y014460D01*
X022922Y014605D01*
X022971Y014653D01*
X023067Y014653D01*
X023116Y014605D01*
X023116Y014460D01*
X023116Y014556D02*
X023212Y014653D01*
X023067Y014754D02*
X023067Y014948D01*
X023019Y015049D02*
X022971Y015049D01*
X022922Y015097D01*
X022922Y015194D01*
X022971Y015242D01*
X023019Y015242D01*
X023067Y015194D01*
X023067Y015097D01*
X023019Y015049D01*
X023067Y015097D02*
X023116Y015049D01*
X023164Y015049D01*
X023212Y015097D01*
X023212Y015194D01*
X023164Y015242D01*
X023116Y015242D01*
X023067Y015194D01*
X023116Y015460D02*
X023116Y015605D01*
X023067Y015653D01*
X022971Y015653D01*
X022922Y015605D01*
X022922Y015460D01*
X023212Y015460D01*
X023116Y015556D02*
X023212Y015653D01*
X023067Y015754D02*
X023067Y015948D01*
X023067Y016049D02*
X023067Y016194D01*
X023116Y016242D01*
X023164Y016242D01*
X023212Y016194D01*
X023212Y016097D01*
X023164Y016049D01*
X023067Y016049D01*
X022971Y016146D01*
X022922Y016242D01*
X022922Y015899D02*
X023067Y015754D01*
X023212Y015899D02*
X022922Y015899D01*
X021312Y016008D02*
X021312Y016105D01*
X021264Y016153D01*
X021264Y016254D02*
X021312Y016303D01*
X021312Y016399D01*
X021264Y016448D01*
X021216Y016448D01*
X021167Y016399D01*
X021167Y016351D01*
X021167Y016399D02*
X021119Y016448D01*
X021071Y016448D01*
X021022Y016399D01*
X021022Y016303D01*
X021071Y016254D01*
X021071Y016153D02*
X021022Y016105D01*
X021022Y016008D01*
X021071Y015960D01*
X021264Y015960D01*
X021312Y016008D01*
X021312Y015742D02*
X021312Y015549D01*
X021119Y015742D01*
X021071Y015742D01*
X021022Y015694D01*
X021022Y015597D01*
X021071Y015549D01*
X021071Y015448D02*
X021119Y015448D01*
X021167Y015399D01*
X021216Y015448D01*
X021264Y015448D01*
X021312Y015399D01*
X021312Y015303D01*
X021264Y015254D01*
X021312Y015153D02*
X021216Y015056D01*
X021216Y015105D02*
X021216Y014960D01*
X021312Y014960D02*
X021022Y014960D01*
X021022Y015105D01*
X021071Y015153D01*
X021167Y015153D01*
X021216Y015105D01*
X021071Y015254D02*
X021022Y015303D01*
X021022Y015399D01*
X021071Y015448D01*
X021167Y015399D02*
X021167Y015351D01*
X021312Y014742D02*
X021312Y014549D01*
X021312Y014646D02*
X021022Y014646D01*
X021119Y014549D01*
X021119Y014448D02*
X021167Y014399D01*
X021216Y014448D01*
X021264Y014448D01*
X021312Y014399D01*
X021312Y014303D01*
X021264Y014254D01*
X021312Y014153D02*
X021216Y014056D01*
X021216Y014105D02*
X021216Y013960D01*
X021312Y013960D02*
X021022Y013960D01*
X021022Y014105D01*
X021071Y014153D01*
X021167Y014153D01*
X021216Y014105D01*
X021071Y014254D02*
X021022Y014303D01*
X021022Y014399D01*
X021071Y014448D01*
X021119Y014448D01*
X021167Y014399D02*
X021167Y014351D01*
X021119Y013642D02*
X021167Y013594D01*
X021216Y013642D01*
X021264Y013642D01*
X021312Y013594D01*
X021312Y013497D01*
X021264Y013449D01*
X021264Y013348D02*
X021312Y013299D01*
X021312Y013203D01*
X021264Y013154D01*
X021312Y013053D02*
X021216Y012956D01*
X021216Y013005D02*
X021216Y012860D01*
X021312Y012860D02*
X021022Y012860D01*
X021022Y013005D01*
X021071Y013053D01*
X021167Y013053D01*
X021216Y013005D01*
X021071Y013154D02*
X021022Y013203D01*
X021022Y013299D01*
X021071Y013348D01*
X021119Y013348D01*
X021167Y013299D01*
X021216Y013348D01*
X021264Y013348D01*
X021167Y013299D02*
X021167Y013251D01*
X021071Y013449D02*
X021022Y013497D01*
X021022Y013594D01*
X021071Y013642D01*
X021119Y013642D01*
X021167Y013594D02*
X021167Y013546D01*
X019412Y013594D02*
X019364Y013642D01*
X019316Y013642D01*
X019267Y013594D01*
X019267Y013449D01*
X019364Y013449D01*
X019412Y013497D01*
X019412Y013594D01*
X019267Y013449D02*
X019171Y013546D01*
X019122Y013642D01*
X019171Y013348D02*
X019122Y013299D01*
X019122Y013203D01*
X019171Y013154D01*
X019171Y013053D02*
X019267Y013053D01*
X019316Y013005D01*
X019316Y012860D01*
X019412Y012860D02*
X019122Y012860D01*
X019122Y013005D01*
X019171Y013053D01*
X019316Y012956D02*
X019412Y013053D01*
X019412Y013154D02*
X019219Y013348D01*
X019171Y013348D01*
X019412Y013348D02*
X019412Y013154D01*
X022922Y014899D02*
X023067Y014754D01*
X023212Y014899D02*
X022922Y014899D01*
X021312Y016597D02*
X021264Y016549D01*
X021312Y016597D02*
X021312Y016694D01*
X021264Y016742D01*
X021167Y016742D01*
X021119Y016694D01*
X021119Y016646D01*
X021167Y016549D01*
X021022Y016549D01*
X021022Y016742D01*
X020831Y017614D02*
X020831Y017711D01*
X020831Y017662D02*
X020541Y017662D01*
X020541Y017614D02*
X020541Y017711D01*
X020589Y017810D02*
X020783Y017810D01*
X020831Y017859D01*
X020831Y017956D01*
X020783Y018004D01*
X020783Y018105D02*
X020831Y018153D01*
X020831Y018250D01*
X020783Y018299D01*
X020734Y018299D01*
X020686Y018250D01*
X020686Y018105D01*
X020783Y018105D01*
X020686Y018105D02*
X020589Y018202D01*
X020541Y018299D01*
X020589Y018004D02*
X020541Y017956D01*
X020541Y017859D01*
X020589Y017810D01*
X019602Y017086D02*
X019602Y017038D01*
X019554Y016989D01*
X019602Y016941D01*
X019602Y016893D01*
X019554Y016844D01*
X019457Y016844D01*
X019409Y016893D01*
X019308Y016844D02*
X019211Y016941D01*
X019259Y016941D02*
X019114Y016941D01*
X019114Y016844D02*
X019114Y017135D01*
X019259Y017135D01*
X019308Y017086D01*
X019308Y016989D01*
X019259Y016941D01*
X019409Y017086D02*
X019457Y017135D01*
X019554Y017135D01*
X019602Y017086D01*
X019554Y016989D02*
X019505Y016989D01*
X018602Y016989D02*
X018409Y016989D01*
X018554Y017135D01*
X018554Y016844D01*
X018308Y016844D02*
X018211Y016941D01*
X018259Y016941D02*
X018114Y016941D01*
X018114Y016844D02*
X018114Y017135D01*
X018259Y017135D01*
X018308Y017086D01*
X018308Y016989D01*
X018259Y016941D01*
X017897Y016941D02*
X017848Y016989D01*
X017752Y016989D01*
X017703Y017038D01*
X017703Y017086D01*
X017752Y017135D01*
X017848Y017135D01*
X017897Y017086D01*
X017897Y017038D01*
X017848Y016989D01*
X017897Y016941D02*
X017897Y016893D01*
X017848Y016844D01*
X017752Y016844D01*
X017703Y016893D01*
X017703Y016941D01*
X017752Y016989D01*
X017602Y016844D02*
X017409Y016844D01*
X017505Y016844D02*
X017505Y017135D01*
X017409Y017038D01*
X017308Y017086D02*
X017259Y017135D01*
X017162Y017135D01*
X017114Y017086D01*
X017114Y016893D01*
X017162Y016844D01*
X017259Y016844D01*
X017308Y016893D01*
X014822Y017864D02*
X014822Y017961D01*
X014822Y017913D02*
X014531Y017913D01*
X014531Y017961D02*
X014531Y017864D01*
X014580Y018061D02*
X014773Y018061D01*
X014822Y018109D01*
X014822Y018206D01*
X014773Y018254D01*
X014773Y018355D02*
X014822Y018404D01*
X014822Y018500D01*
X014773Y018549D01*
X014725Y018549D01*
X014677Y018500D01*
X014677Y018452D01*
X014677Y018500D02*
X014628Y018549D01*
X014580Y018549D01*
X014531Y018500D01*
X014531Y018404D01*
X014580Y018355D01*
X014580Y018254D02*
X014531Y018206D01*
X014531Y018109D01*
X014580Y018061D01*
X014448Y017135D02*
X014352Y017135D01*
X014303Y017086D01*
X014303Y017038D01*
X014352Y016989D01*
X014497Y016989D01*
X014497Y016893D02*
X014497Y017086D01*
X014448Y017135D01*
X014497Y016893D02*
X014448Y016844D01*
X014352Y016844D01*
X014303Y016893D01*
X014202Y016844D02*
X014009Y016844D01*
X014105Y016844D02*
X014105Y017135D01*
X014009Y017038D01*
X013908Y017086D02*
X013859Y017135D01*
X013762Y017135D01*
X013714Y017086D01*
X013714Y016893D01*
X013762Y016844D01*
X013859Y016844D01*
X013908Y016893D01*
X013497Y016893D02*
X013497Y016989D01*
X013448Y017038D01*
X013400Y017038D01*
X013303Y016989D01*
X013303Y017135D01*
X013497Y017135D01*
X013497Y016893D02*
X013448Y016844D01*
X013352Y016844D01*
X013303Y016893D01*
X013202Y016844D02*
X013009Y016844D01*
X013202Y017038D01*
X013202Y017086D01*
X013154Y017135D01*
X013057Y017135D01*
X013009Y017086D01*
X012908Y017086D02*
X012859Y017135D01*
X012762Y017135D01*
X012714Y017086D01*
X012714Y016893D01*
X012762Y016844D01*
X012859Y016844D01*
X012908Y016893D01*
X012348Y017309D02*
X012154Y017309D01*
X012348Y017503D01*
X012348Y017551D01*
X012299Y017599D01*
X012203Y017599D01*
X012154Y017551D01*
X012053Y017551D02*
X012053Y017358D01*
X012005Y017309D01*
X011908Y017309D01*
X011860Y017358D01*
X011860Y017551D01*
X011908Y017599D01*
X012005Y017599D01*
X012053Y017551D01*
X011956Y017406D02*
X012053Y017309D01*
X011497Y017135D02*
X011400Y017086D01*
X011303Y016989D01*
X011448Y016989D01*
X011497Y016941D01*
X011497Y016893D01*
X011448Y016844D01*
X011352Y016844D01*
X011303Y016893D01*
X011303Y016989D01*
X011202Y017038D02*
X011009Y016844D01*
X011202Y016844D01*
X011202Y017038D02*
X011202Y017086D01*
X011154Y017135D01*
X011057Y017135D01*
X011009Y017086D01*
X010908Y017086D02*
X010859Y017135D01*
X010762Y017135D01*
X010714Y017086D01*
X010714Y016893D01*
X010762Y016844D01*
X010859Y016844D01*
X010908Y016893D01*
X011162Y019044D02*
X011259Y019044D01*
X011308Y019093D01*
X011409Y019189D02*
X011602Y019189D01*
X011554Y019044D02*
X011554Y019335D01*
X011409Y019189D01*
X011308Y019286D02*
X011259Y019335D01*
X011162Y019335D01*
X011114Y019286D01*
X011114Y019093D01*
X011162Y019044D01*
X010402Y019093D02*
X010402Y019141D01*
X010354Y019189D01*
X010305Y019189D01*
X010354Y019189D02*
X010402Y019238D01*
X010402Y019286D01*
X010354Y019335D01*
X010257Y019335D01*
X010209Y019286D01*
X010108Y019286D02*
X010059Y019335D01*
X009962Y019335D01*
X009914Y019286D01*
X009914Y019093D01*
X009962Y019044D01*
X010059Y019044D01*
X010108Y019093D01*
X010209Y019093D02*
X010257Y019044D01*
X010354Y019044D01*
X010402Y019093D01*
X012714Y019141D02*
X012859Y019141D01*
X012908Y019189D01*
X012908Y019286D01*
X012859Y019335D01*
X012714Y019335D01*
X012714Y019044D01*
X012811Y019141D02*
X012908Y019044D01*
X013009Y019093D02*
X013057Y019044D01*
X013154Y019044D01*
X013202Y019093D01*
X013202Y019286D01*
X013154Y019335D01*
X013057Y019335D01*
X013009Y019286D01*
X013009Y019238D01*
X013057Y019189D01*
X013202Y019189D01*
X013714Y019141D02*
X013859Y019141D01*
X013908Y019189D01*
X013908Y019286D01*
X013859Y019335D01*
X013714Y019335D01*
X013714Y019044D01*
X013811Y019141D02*
X013908Y019044D01*
X014009Y019044D02*
X014009Y019093D01*
X014202Y019286D01*
X014202Y019335D01*
X014009Y019335D01*
X017114Y019335D02*
X017114Y019044D01*
X017114Y019141D02*
X017259Y019141D01*
X017308Y019189D01*
X017308Y019286D01*
X017259Y019335D01*
X017114Y019335D01*
X017211Y019141D02*
X017308Y019044D01*
X017409Y019093D02*
X017409Y019141D01*
X017457Y019189D01*
X017554Y019189D01*
X017602Y019141D01*
X017602Y019093D01*
X017554Y019044D01*
X017457Y019044D01*
X017409Y019093D01*
X017457Y019189D02*
X017409Y019238D01*
X017409Y019286D01*
X017457Y019335D01*
X017554Y019335D01*
X017602Y019286D01*
X017602Y019238D01*
X017554Y019189D01*
X018114Y019141D02*
X018259Y019141D01*
X018308Y019189D01*
X018308Y019286D01*
X018259Y019335D01*
X018114Y019335D01*
X018114Y019044D01*
X018211Y019141D02*
X018308Y019044D01*
X018409Y019044D02*
X018602Y019044D01*
X018505Y019044D02*
X018505Y019335D01*
X018409Y019238D01*
X018703Y019238D02*
X018703Y019286D01*
X018752Y019335D01*
X018848Y019335D01*
X018897Y019286D01*
X018897Y019238D01*
X018848Y019189D01*
X018752Y019189D01*
X018703Y019238D01*
X018752Y019189D02*
X018703Y019141D01*
X018703Y019093D01*
X018752Y019044D01*
X018848Y019044D01*
X018897Y019093D01*
X018897Y019141D01*
X018848Y019189D01*
X019114Y019141D02*
X019259Y019141D01*
X019308Y019189D01*
X019308Y019286D01*
X019259Y019335D01*
X019114Y019335D01*
X019114Y019044D01*
X019211Y019141D02*
X019308Y019044D01*
X019409Y019044D02*
X019602Y019044D01*
X019505Y019044D02*
X019505Y019335D01*
X019409Y019238D01*
X019703Y019335D02*
X019897Y019335D01*
X019897Y019286D01*
X019703Y019093D01*
X019703Y019044D01*
X021022Y019408D02*
X021071Y019360D01*
X021264Y019360D01*
X021312Y019408D01*
X021312Y019505D01*
X021264Y019553D01*
X021264Y019654D02*
X021312Y019703D01*
X021312Y019799D01*
X021264Y019848D01*
X021216Y019848D01*
X021167Y019799D01*
X021167Y019751D01*
X021167Y019799D02*
X021119Y019848D01*
X021071Y019848D01*
X021022Y019799D01*
X021022Y019703D01*
X021071Y019654D01*
X021071Y019553D02*
X021022Y019505D01*
X021022Y019408D01*
X021119Y019949D02*
X021022Y020046D01*
X021312Y020046D01*
X021312Y020142D02*
X021312Y019949D01*
X021312Y020360D02*
X021022Y020360D01*
X021022Y020505D01*
X021071Y020553D01*
X021167Y020553D01*
X021216Y020505D01*
X021216Y020360D01*
X021216Y020456D02*
X021312Y020553D01*
X021312Y020654D02*
X021119Y020848D01*
X021071Y020848D01*
X021022Y020799D01*
X021022Y020703D01*
X021071Y020654D01*
X021312Y020654D02*
X021312Y020848D01*
X021264Y020949D02*
X021216Y020949D01*
X021167Y020997D01*
X021167Y021094D01*
X021216Y021142D01*
X021264Y021142D01*
X021312Y021094D01*
X021312Y020997D01*
X021264Y020949D01*
X021167Y020997D02*
X021119Y020949D01*
X021071Y020949D01*
X021022Y020997D01*
X021022Y021094D01*
X021071Y021142D01*
X021119Y021142D01*
X021167Y021094D01*
X019897Y021244D02*
X019703Y021244D01*
X019897Y021438D01*
X019897Y021486D01*
X019848Y021535D01*
X019752Y021535D01*
X019703Y021486D01*
X019602Y021486D02*
X019554Y021535D01*
X019457Y021535D01*
X019409Y021486D01*
X019308Y021486D02*
X019308Y021389D01*
X019259Y021341D01*
X019114Y021341D01*
X019114Y021244D02*
X019114Y021535D01*
X019259Y021535D01*
X019308Y021486D01*
X019211Y021341D02*
X019308Y021244D01*
X019409Y021244D02*
X019602Y021438D01*
X019602Y021486D01*
X019602Y021244D02*
X019409Y021244D01*
X018897Y021293D02*
X018848Y021244D01*
X018752Y021244D01*
X018703Y021293D01*
X018602Y021244D02*
X018409Y021244D01*
X018602Y021438D01*
X018602Y021486D01*
X018554Y021535D01*
X018457Y021535D01*
X018409Y021486D01*
X018308Y021486D02*
X018308Y021389D01*
X018259Y021341D01*
X018114Y021341D01*
X018114Y021244D02*
X018114Y021535D01*
X018259Y021535D01*
X018308Y021486D01*
X018211Y021341D02*
X018308Y021244D01*
X017897Y021389D02*
X017703Y021389D01*
X017848Y021535D01*
X017848Y021244D01*
X017602Y021244D02*
X017409Y021244D01*
X017505Y021244D02*
X017505Y021535D01*
X017409Y021438D01*
X017308Y021486D02*
X017259Y021535D01*
X017162Y021535D01*
X017114Y021486D01*
X017114Y021293D01*
X017162Y021244D01*
X017259Y021244D01*
X017308Y021293D01*
X016602Y021293D02*
X016554Y021244D01*
X016457Y021244D01*
X016409Y021293D01*
X016409Y021389D01*
X016554Y021389D01*
X016602Y021341D01*
X016602Y021293D01*
X016409Y021389D02*
X016505Y021486D01*
X016602Y021535D01*
X016308Y021486D02*
X016308Y021389D01*
X016259Y021341D01*
X016114Y021341D01*
X016114Y021244D02*
X016114Y021535D01*
X016259Y021535D01*
X016308Y021486D01*
X016211Y021341D02*
X016308Y021244D01*
X015602Y021293D02*
X015554Y021244D01*
X015457Y021244D01*
X015409Y021293D01*
X015409Y021389D02*
X015505Y021438D01*
X015554Y021438D01*
X015602Y021389D01*
X015602Y021293D01*
X015409Y021389D02*
X015409Y021535D01*
X015602Y021535D01*
X015308Y021486D02*
X015308Y021389D01*
X015259Y021341D01*
X015114Y021341D01*
X015114Y021244D02*
X015114Y021535D01*
X015259Y021535D01*
X015308Y021486D01*
X015211Y021341D02*
X015308Y021244D01*
X014897Y021293D02*
X014897Y021486D01*
X014848Y021535D01*
X014752Y021535D01*
X014703Y021486D01*
X014703Y021438D01*
X014752Y021389D01*
X014897Y021389D01*
X014897Y021293D02*
X014848Y021244D01*
X014752Y021244D01*
X014703Y021293D01*
X014602Y021244D02*
X014409Y021244D01*
X014505Y021244D02*
X014505Y021535D01*
X014409Y021438D01*
X014308Y021486D02*
X014308Y021389D01*
X014259Y021341D01*
X014114Y021341D01*
X014114Y021244D02*
X014114Y021535D01*
X014259Y021535D01*
X014308Y021486D01*
X014211Y021341D02*
X014308Y021244D01*
X013897Y021486D02*
X013703Y021293D01*
X013703Y021244D01*
X013602Y021244D02*
X013409Y021244D01*
X013602Y021438D01*
X013602Y021486D01*
X013554Y021535D01*
X013457Y021535D01*
X013409Y021486D01*
X013308Y021486D02*
X013259Y021535D01*
X013162Y021535D01*
X013114Y021486D01*
X013114Y021293D01*
X013162Y021244D01*
X013259Y021244D01*
X013308Y021293D01*
X012897Y021293D02*
X012848Y021244D01*
X012752Y021244D01*
X012703Y021293D01*
X012602Y021244D02*
X012409Y021244D01*
X012505Y021244D02*
X012505Y021535D01*
X012409Y021438D01*
X012308Y021486D02*
X012308Y021389D01*
X012259Y021341D01*
X012114Y021341D01*
X012114Y021244D02*
X012114Y021535D01*
X012259Y021535D01*
X012308Y021486D01*
X012211Y021341D02*
X012308Y021244D01*
X011897Y021244D02*
X011703Y021244D01*
X011897Y021438D01*
X011897Y021486D01*
X011848Y021535D01*
X011752Y021535D01*
X011703Y021486D01*
X011505Y021535D02*
X011505Y021244D01*
X011409Y021244D02*
X011602Y021244D01*
X011409Y021438D02*
X011505Y021535D01*
X011308Y021486D02*
X011259Y021535D01*
X011114Y021535D01*
X011114Y021244D01*
X011114Y021341D02*
X011259Y021341D01*
X011308Y021389D01*
X011308Y021486D01*
X011211Y021341D02*
X011308Y021244D01*
X010897Y021293D02*
X010848Y021244D01*
X010752Y021244D01*
X010703Y021293D01*
X010703Y021341D01*
X010752Y021389D01*
X010848Y021389D01*
X010897Y021341D01*
X010897Y021293D01*
X010848Y021389D02*
X010897Y021438D01*
X010897Y021486D01*
X010848Y021535D01*
X010752Y021535D01*
X010703Y021486D01*
X010703Y021438D01*
X010752Y021389D01*
X010602Y021438D02*
X010602Y021486D01*
X010554Y021535D01*
X010457Y021535D01*
X010409Y021486D01*
X010308Y021486D02*
X010259Y021535D01*
X010162Y021535D01*
X010114Y021486D01*
X010114Y021293D01*
X010162Y021244D01*
X010259Y021244D01*
X010308Y021293D01*
X010409Y021244D02*
X010602Y021438D01*
X010602Y021244D02*
X010409Y021244D01*
X009897Y021244D02*
X009703Y021244D01*
X009800Y021244D02*
X009800Y021535D01*
X009703Y021438D01*
X009602Y021438D02*
X009602Y021486D01*
X009554Y021535D01*
X009457Y021535D01*
X009409Y021486D01*
X009308Y021486D02*
X009308Y021389D01*
X009259Y021341D01*
X009114Y021341D01*
X009114Y021244D02*
X009114Y021535D01*
X009259Y021535D01*
X009308Y021486D01*
X009211Y021341D02*
X009308Y021244D01*
X009409Y021244D02*
X009602Y021438D01*
X009602Y021244D02*
X009409Y021244D01*
X008897Y021293D02*
X008848Y021244D01*
X008752Y021244D01*
X008703Y021293D01*
X008897Y021486D01*
X008897Y021293D01*
X008897Y021486D02*
X008848Y021535D01*
X008752Y021535D01*
X008703Y021486D01*
X008703Y021293D01*
X008602Y021244D02*
X008409Y021244D01*
X008602Y021438D01*
X008602Y021486D01*
X008554Y021535D01*
X008457Y021535D01*
X008409Y021486D01*
X008308Y021486D02*
X008308Y021389D01*
X008259Y021341D01*
X008114Y021341D01*
X008114Y021244D02*
X008114Y021535D01*
X008259Y021535D01*
X008308Y021486D01*
X008211Y021341D02*
X008308Y021244D01*
X012703Y021486D02*
X012752Y021535D01*
X012848Y021535D01*
X012897Y021486D01*
X012897Y021438D01*
X012848Y021389D01*
X012897Y021341D01*
X012897Y021293D01*
X012848Y021389D02*
X012800Y021389D01*
X013703Y021535D02*
X013897Y021535D01*
X013897Y021486D01*
X018703Y021486D02*
X018752Y021535D01*
X018848Y021535D01*
X018897Y021486D01*
X018897Y021438D01*
X018848Y021389D01*
X018897Y021341D01*
X018897Y021293D01*
X018848Y021389D02*
X018800Y021389D01*
X019726Y023107D02*
X019919Y023107D01*
X020020Y023107D02*
X020214Y023397D01*
X020315Y023397D02*
X020508Y023397D01*
X020412Y023397D02*
X020412Y023107D01*
X020214Y023107D02*
X020020Y023397D01*
X019919Y023397D02*
X019726Y023397D01*
X019726Y023107D01*
X019726Y023252D02*
X019822Y023252D01*
X020609Y023252D02*
X020803Y023252D01*
X020904Y023252D02*
X021049Y023252D01*
X021098Y023204D01*
X021098Y023156D01*
X021049Y023107D01*
X020904Y023107D01*
X020904Y023397D01*
X021049Y023397D01*
X021098Y023349D01*
X021098Y023301D01*
X021049Y023252D01*
X022971Y021142D02*
X022922Y021094D01*
X022922Y020997D01*
X022971Y020949D01*
X022971Y020848D02*
X023019Y020848D01*
X023067Y020799D01*
X023116Y020848D01*
X023164Y020848D01*
X023212Y020799D01*
X023212Y020703D01*
X023164Y020654D01*
X023164Y020553D02*
X023212Y020505D01*
X023212Y020408D01*
X023164Y020360D01*
X022971Y020360D01*
X022922Y020408D01*
X022922Y020505D01*
X022971Y020553D01*
X022971Y020654D02*
X022922Y020703D01*
X022922Y020799D01*
X022971Y020848D01*
X023067Y020799D02*
X023067Y020751D01*
X023212Y020949D02*
X023019Y021142D01*
X022971Y021142D01*
X023212Y021142D02*
X023212Y020949D01*
X023164Y020142D02*
X023212Y020094D01*
X023212Y019997D01*
X023164Y019949D01*
X023164Y019848D02*
X023212Y019799D01*
X023212Y019703D01*
X023164Y019654D01*
X023164Y019553D02*
X023212Y019505D01*
X023212Y019408D01*
X023164Y019360D01*
X022971Y019360D01*
X022922Y019408D01*
X022922Y019505D01*
X022971Y019553D01*
X022971Y019654D02*
X022922Y019703D01*
X022922Y019799D01*
X022971Y019848D01*
X023019Y019848D01*
X023067Y019799D01*
X023116Y019848D01*
X023164Y019848D01*
X023067Y019799D02*
X023067Y019751D01*
X022971Y019949D02*
X022922Y019997D01*
X022922Y020094D01*
X022971Y020142D01*
X023019Y020142D01*
X023067Y020094D01*
X023116Y020142D01*
X023164Y020142D01*
X023067Y020094D02*
X023067Y020046D01*
X024822Y020997D02*
X024822Y021094D01*
X024871Y021142D01*
X025064Y020949D01*
X025112Y020997D01*
X025112Y021094D01*
X025064Y021142D01*
X024871Y021142D01*
X024822Y020997D02*
X024871Y020949D01*
X025064Y020949D01*
X034414Y012486D02*
X034414Y012293D01*
X034559Y012293D01*
X034511Y012389D01*
X034511Y012438D01*
X034559Y012486D01*
X034656Y012486D01*
X034704Y012438D01*
X034704Y012341D01*
X034656Y012293D01*
X034704Y012191D02*
X034704Y011998D01*
X034704Y012095D02*
X034414Y012095D01*
X034511Y011998D01*
X034511Y011897D02*
X034559Y011848D01*
X034559Y011703D01*
X034462Y011602D02*
X034414Y011554D01*
X034414Y011409D01*
X034704Y011409D01*
X034704Y011554D01*
X034656Y011602D01*
X034462Y011602D01*
X034414Y011703D02*
X034414Y011848D01*
X034462Y011897D01*
X034511Y011897D01*
X034559Y011848D02*
X034607Y011897D01*
X034656Y011897D01*
X034704Y011848D01*
X034704Y011703D01*
X034414Y011703D01*
X033083Y009980D02*
X033131Y009932D01*
X033131Y009835D01*
X033083Y009787D01*
X032890Y009787D01*
X032841Y009835D01*
X032841Y009932D01*
X032890Y009980D01*
X032986Y009685D02*
X032986Y009492D01*
X032841Y009391D02*
X032841Y009197D01*
X032841Y009294D02*
X033131Y009294D01*
X033131Y009096D02*
X032841Y008903D01*
X032841Y008802D02*
X032841Y008608D01*
X033131Y008608D01*
X033131Y008802D01*
X033131Y008903D02*
X032841Y009096D01*
X032986Y008705D02*
X032986Y008608D01*
X024379Y011369D02*
X024379Y011466D01*
X024379Y011417D02*
X024089Y011417D01*
X024089Y011369D02*
X024089Y011466D01*
X024137Y011565D02*
X024330Y011565D01*
X024379Y011614D01*
X024379Y011711D01*
X024330Y011759D01*
X024379Y011860D02*
X024379Y012054D01*
X024379Y011957D02*
X024089Y011957D01*
X024185Y011860D01*
X024137Y011759D02*
X024089Y011711D01*
X024089Y011614D01*
X024137Y011565D01*
X024137Y012155D02*
X024089Y012203D01*
X024089Y012300D01*
X024137Y012348D01*
X024330Y012155D01*
X024379Y012203D01*
X024379Y012300D01*
X024330Y012348D01*
X024137Y012348D01*
X024137Y012155D02*
X024330Y012155D01*
X011909Y009531D02*
X011716Y009338D01*
X011764Y009289D01*
X011861Y009289D01*
X011909Y009338D01*
X011909Y009531D01*
X011861Y009580D01*
X011764Y009580D01*
X011716Y009531D01*
X011716Y009338D01*
X011614Y009289D02*
X011421Y009289D01*
X011518Y009289D02*
X011518Y009580D01*
X011421Y009483D01*
X011320Y009531D02*
X011271Y009580D01*
X011175Y009580D01*
X011126Y009531D01*
X011126Y009338D01*
X011175Y009289D01*
X011271Y009289D01*
X011320Y009338D01*
X010402Y009286D02*
X010354Y009335D01*
X010257Y009335D01*
X010209Y009286D01*
X010209Y009238D01*
X010257Y009189D01*
X010402Y009189D01*
X010402Y009093D02*
X010402Y009286D01*
X010402Y009093D02*
X010354Y009044D01*
X010257Y009044D01*
X010209Y009093D01*
X010108Y009093D02*
X010059Y009044D01*
X009962Y009044D01*
X009914Y009093D01*
X009914Y009286D01*
X009962Y009335D01*
X010059Y009335D01*
X010108Y009286D01*
X004368Y010609D02*
X004078Y010609D01*
X004175Y010706D01*
X004078Y010803D01*
X004368Y010803D01*
X004368Y010904D02*
X004368Y011001D01*
X004368Y010952D02*
X004078Y010952D01*
X004078Y010904D02*
X004078Y011001D01*
X004078Y011100D02*
X004368Y011294D01*
X004078Y011294D01*
X004078Y011395D02*
X004078Y011492D01*
X004078Y011443D02*
X004368Y011443D01*
X004368Y011395D02*
X004368Y011492D01*
X004223Y011591D02*
X004223Y011785D01*
X004320Y011886D02*
X004368Y011934D01*
X004368Y012031D01*
X004320Y012079D01*
X004078Y012079D01*
X004126Y012181D02*
X004175Y012181D01*
X004223Y012229D01*
X004223Y012326D01*
X004271Y012374D01*
X004320Y012374D01*
X004368Y012326D01*
X004368Y012229D01*
X004320Y012181D01*
X004126Y012181D02*
X004078Y012229D01*
X004078Y012326D01*
X004126Y012374D01*
X004078Y012475D02*
X004078Y012620D01*
X004126Y012669D01*
X004175Y012669D01*
X004223Y012620D01*
X004223Y012475D01*
X004368Y012475D02*
X004078Y012475D01*
X004223Y012620D02*
X004271Y012669D01*
X004320Y012669D01*
X004368Y012620D01*
X004368Y012475D01*
X004223Y012770D02*
X004223Y012963D01*
X004223Y013065D02*
X004223Y013210D01*
X004271Y013258D01*
X004320Y013258D01*
X004368Y013210D01*
X004368Y013065D01*
X004078Y013065D01*
X004078Y013210D01*
X004126Y013258D01*
X004175Y013258D01*
X004223Y013210D01*
X004320Y011886D02*
X004078Y011886D01*
X004078Y011100D02*
X004368Y011100D01*
X002809Y009580D02*
X002616Y009580D01*
X002616Y009434D01*
X002712Y009483D01*
X002761Y009483D01*
X002809Y009434D01*
X002809Y009338D01*
X002761Y009289D01*
X002664Y009289D01*
X002616Y009338D01*
X002514Y009338D02*
X002466Y009289D01*
X002369Y009289D01*
X002321Y009338D01*
X002321Y009531D01*
X002369Y009580D01*
X002466Y009580D01*
X002514Y009531D01*
X003214Y009286D02*
X003214Y009093D01*
X003262Y009044D01*
X003359Y009044D01*
X003408Y009093D01*
X003509Y009093D02*
X003557Y009044D01*
X003654Y009044D01*
X003702Y009093D01*
X003702Y009141D01*
X003654Y009189D01*
X003509Y009189D01*
X003509Y009093D01*
X003509Y009189D02*
X003605Y009286D01*
X003702Y009335D01*
X003408Y009286D02*
X003359Y009335D01*
X003262Y009335D01*
X003214Y009286D01*
X004319Y007245D02*
X004270Y007197D01*
X004270Y007100D01*
X004319Y007052D01*
X004319Y006950D02*
X004270Y006902D01*
X004270Y006805D01*
X004319Y006757D01*
X004512Y006757D01*
X004561Y006805D01*
X004561Y006902D01*
X004512Y006950D01*
X004561Y007052D02*
X004367Y007245D01*
X004319Y007245D01*
X004561Y007245D02*
X004561Y007052D01*
X004561Y006657D02*
X004561Y006560D01*
X004561Y006609D02*
X004270Y006609D01*
X004270Y006657D02*
X004270Y006560D01*
X003702Y006541D02*
X003702Y006493D01*
X003654Y006444D01*
X003557Y006444D01*
X003509Y006493D01*
X003509Y006541D01*
X003557Y006589D01*
X003654Y006589D01*
X003702Y006541D01*
X003654Y006589D02*
X003702Y006638D01*
X003702Y006686D01*
X003654Y006735D01*
X003557Y006735D01*
X003509Y006686D01*
X003509Y006638D01*
X003557Y006589D01*
X003408Y006493D02*
X003359Y006444D01*
X003262Y006444D01*
X003214Y006493D01*
X003214Y006686D01*
X003262Y006735D01*
X003359Y006735D01*
X003408Y006686D01*
X002809Y006931D02*
X002616Y006738D01*
X002616Y006689D01*
X002514Y006738D02*
X002466Y006689D01*
X002369Y006689D01*
X002321Y006738D01*
X002321Y006931D01*
X002369Y006980D01*
X002466Y006980D01*
X002514Y006931D01*
X002616Y006980D02*
X002809Y006980D01*
X002809Y006931D01*
X002502Y016444D02*
X002309Y016444D01*
X002405Y016444D02*
X002405Y016735D01*
X002309Y016638D01*
X002208Y016686D02*
X002208Y016589D01*
X002159Y016541D01*
X002014Y016541D01*
X002014Y016444D02*
X002014Y016735D01*
X002159Y016735D01*
X002208Y016686D01*
X002111Y016541D02*
X002208Y016444D01*
X003214Y016444D02*
X003214Y016735D01*
X003359Y016735D01*
X003408Y016686D01*
X003408Y016589D01*
X003359Y016541D01*
X003214Y016541D01*
X003311Y016541D02*
X003408Y016444D01*
X003509Y016444D02*
X003702Y016638D01*
X003702Y016686D01*
X003654Y016735D01*
X003557Y016735D01*
X003509Y016686D01*
X003509Y016444D02*
X003702Y016444D01*
X004270Y016560D02*
X004270Y016657D01*
X004270Y016609D02*
X004561Y016609D01*
X004561Y016657D02*
X004561Y016560D01*
X004512Y016757D02*
X004319Y016757D01*
X004270Y016805D01*
X004270Y016902D01*
X004319Y016950D01*
X004367Y017052D02*
X004270Y017148D01*
X004561Y017148D01*
X004561Y017052D02*
X004561Y017245D01*
X004512Y016950D02*
X004561Y016902D01*
X004561Y016805D01*
X004512Y016757D01*
X003702Y019044D02*
X003509Y019044D01*
X003605Y019044D02*
X003605Y019335D01*
X003509Y019238D01*
X003408Y019286D02*
X003359Y019335D01*
X003262Y019335D01*
X003214Y019286D01*
X003214Y019093D01*
X003262Y019044D01*
X003359Y019044D01*
X003408Y019093D01*
X002502Y019044D02*
X002309Y019044D01*
X002502Y019238D01*
X002502Y019286D01*
X002454Y019335D01*
X002357Y019335D01*
X002309Y019286D01*
X002208Y019286D02*
X002159Y019335D01*
X002062Y019335D01*
X002014Y019286D01*
X002014Y019093D01*
X002062Y019044D01*
X002159Y019044D01*
X002208Y019093D01*
D14*
X002016Y018991D02*
X002796Y018991D01*
X002796Y017511D01*
X002016Y017511D01*
X002016Y018991D01*
X003216Y018991D02*
X003996Y018991D01*
X003996Y017511D01*
X003216Y017511D01*
X003216Y018991D01*
X005689Y018944D02*
X008222Y018944D01*
X008222Y014858D01*
X005689Y014858D01*
X005689Y018944D01*
X005886Y018944D02*
X005886Y014858D01*
X003996Y014911D02*
X003216Y014911D01*
X003216Y016391D01*
X003996Y016391D01*
X003996Y014911D01*
X002796Y014911D02*
X002016Y014911D01*
X002016Y016391D01*
X002796Y016391D01*
X002796Y014911D01*
X002838Y013462D02*
X001938Y013462D01*
X001038Y012962D02*
X001038Y010962D01*
X001938Y010462D02*
X002838Y010462D01*
X003638Y010962D02*
X003638Y011062D01*
X003638Y012862D02*
X003638Y012962D01*
X008216Y013691D02*
X008216Y012211D01*
X008996Y012211D01*
X008996Y013691D01*
X008216Y013691D01*
X009451Y013162D02*
X009451Y010762D01*
X009701Y010762D02*
X009701Y013162D01*
X009703Y013212D01*
X009709Y013261D01*
X009718Y013310D01*
X009731Y013358D01*
X009748Y013405D01*
X009768Y013450D01*
X009792Y013494D01*
X009819Y013536D01*
X009850Y013576D01*
X009883Y013613D01*
X009919Y013647D01*
X009957Y013679D01*
X009998Y013708D01*
X010040Y013733D01*
X010085Y013755D01*
X010131Y013774D01*
X010179Y013789D01*
X010227Y013800D01*
X010276Y013808D01*
X010326Y013812D01*
X010376Y013812D01*
X010426Y013808D01*
X010475Y013800D01*
X010523Y013789D01*
X010571Y013774D01*
X010617Y013755D01*
X010662Y013733D01*
X010704Y013708D01*
X010745Y013679D01*
X010783Y013647D01*
X010819Y013613D01*
X010852Y013576D01*
X010883Y013536D01*
X010910Y013494D01*
X010934Y013450D01*
X010954Y013405D01*
X010971Y013358D01*
X010984Y013310D01*
X010993Y013261D01*
X010999Y013212D01*
X011001Y013162D01*
X011001Y010762D01*
X011251Y010762D02*
X011251Y013162D01*
X011716Y012691D02*
X012496Y012691D01*
X012496Y011211D01*
X011716Y011211D01*
X011716Y012691D01*
X010651Y012212D02*
X010351Y012212D01*
X010351Y012462D01*
X010351Y012212D02*
X010051Y012212D01*
X010051Y012062D02*
X010651Y012062D01*
X010651Y011862D01*
X010051Y011862D01*
X010051Y012062D01*
X010051Y011712D02*
X010351Y011712D01*
X010351Y011462D01*
X010351Y011712D02*
X010651Y011712D01*
X011001Y010762D02*
X010999Y010712D01*
X010993Y010663D01*
X010984Y010614D01*
X010971Y010566D01*
X010954Y010519D01*
X010934Y010474D01*
X010910Y010430D01*
X010883Y010388D01*
X010852Y010348D01*
X010819Y010311D01*
X010783Y010277D01*
X010745Y010245D01*
X010704Y010216D01*
X010662Y010191D01*
X010617Y010169D01*
X010571Y010150D01*
X010523Y010135D01*
X010475Y010124D01*
X010426Y010116D01*
X010376Y010112D01*
X010326Y010112D01*
X010276Y010116D01*
X010227Y010124D01*
X010179Y010135D01*
X010131Y010150D01*
X010085Y010169D01*
X010040Y010191D01*
X009998Y010216D01*
X009957Y010245D01*
X009919Y010277D01*
X009883Y010311D01*
X009850Y010348D01*
X009819Y010388D01*
X009792Y010430D01*
X009768Y010474D01*
X009748Y010519D01*
X009731Y010566D01*
X009718Y010614D01*
X009709Y010663D01*
X009703Y010712D01*
X009701Y010762D01*
X009451Y010762D02*
X009453Y010703D01*
X009459Y010645D01*
X009468Y010586D01*
X009482Y010529D01*
X009499Y010473D01*
X009520Y010418D01*
X009544Y010364D01*
X009572Y010312D01*
X009603Y010262D01*
X009637Y010214D01*
X009674Y010169D01*
X009715Y010126D01*
X009758Y010085D01*
X009803Y010048D01*
X009851Y010014D01*
X009901Y009983D01*
X009953Y009955D01*
X010007Y009931D01*
X010062Y009910D01*
X010118Y009893D01*
X010175Y009879D01*
X010234Y009870D01*
X010292Y009864D01*
X010351Y009862D01*
X010410Y009864D01*
X010468Y009870D01*
X010527Y009879D01*
X010584Y009893D01*
X010640Y009910D01*
X010695Y009931D01*
X010749Y009955D01*
X010801Y009983D01*
X010851Y010014D01*
X010899Y010048D01*
X010944Y010085D01*
X010987Y010126D01*
X011028Y010169D01*
X011065Y010214D01*
X011099Y010262D01*
X011130Y010312D01*
X011158Y010364D01*
X011182Y010418D01*
X011203Y010473D01*
X011220Y010529D01*
X011234Y010586D01*
X011243Y010645D01*
X011249Y010703D01*
X011251Y010762D01*
X008996Y010211D02*
X008216Y010211D01*
X008216Y011691D01*
X008996Y011691D01*
X008996Y010211D01*
X008222Y008944D02*
X008222Y004858D01*
X005689Y004858D01*
X005689Y008944D01*
X008222Y008944D01*
X009916Y008991D02*
X010696Y008991D01*
X010696Y007511D01*
X009916Y007511D01*
X009916Y008991D01*
X011076Y009161D02*
X011076Y008361D01*
X011936Y008361D01*
X011936Y007271D01*
X011076Y007271D01*
X011076Y008361D01*
X011936Y008361D02*
X011936Y009161D01*
X011866Y009231D01*
X011146Y009231D01*
X011076Y009161D01*
X012476Y009161D02*
X012546Y009231D01*
X013266Y009231D01*
X013336Y009161D01*
X013336Y008361D01*
X012476Y008361D01*
X012476Y009161D01*
X013716Y008591D02*
X014496Y008591D01*
X014496Y007111D01*
X013716Y007111D01*
X013716Y008591D01*
X013336Y008361D02*
X013336Y007271D01*
X012476Y007271D01*
X012476Y008361D01*
X014716Y008591D02*
X014716Y007111D01*
X015496Y007111D01*
X015496Y008591D01*
X014716Y008591D01*
X017116Y008591D02*
X017116Y007111D01*
X017896Y007111D01*
X017896Y008591D01*
X017116Y008591D01*
X017595Y010072D02*
X014131Y010072D01*
X013973Y010230D01*
X013973Y013694D01*
X014131Y013852D01*
X017595Y013852D01*
X017753Y013694D01*
X017753Y010230D01*
X017595Y010072D01*
X019466Y010261D02*
X019466Y011041D01*
X020946Y011041D01*
X020946Y010261D01*
X019466Y010261D01*
X021366Y010261D02*
X021366Y011041D01*
X022846Y011041D01*
X022846Y010261D01*
X021366Y010261D01*
X021366Y010041D02*
X021366Y009261D01*
X022846Y009261D01*
X022846Y010041D01*
X021366Y010041D01*
X023266Y010041D02*
X023266Y009261D01*
X024746Y009261D01*
X024746Y010041D01*
X023266Y010041D01*
X025096Y010860D02*
X025096Y012986D01*
X026729Y012986D01*
X026729Y010860D01*
X025096Y010860D01*
X025166Y010041D02*
X025166Y009261D01*
X026646Y009261D01*
X026646Y010041D01*
X025166Y010041D01*
X025166Y009041D02*
X025166Y008261D01*
X026646Y008261D01*
X026646Y009041D01*
X025166Y009041D01*
X024746Y009041D02*
X024746Y008261D01*
X023266Y008261D01*
X023266Y009041D01*
X024746Y009041D01*
X024746Y008041D02*
X023266Y008041D01*
X023266Y007261D01*
X024746Y007261D01*
X024746Y008041D01*
X025166Y008041D02*
X025166Y007261D01*
X026646Y007261D01*
X026646Y008041D01*
X025166Y008041D01*
X025066Y006873D02*
X025066Y004945D01*
X026758Y004945D01*
X026758Y006873D01*
X025066Y006873D01*
X025162Y006679D02*
X025164Y006699D01*
X025170Y006717D01*
X025179Y006735D01*
X025191Y006750D01*
X025206Y006762D01*
X025224Y006771D01*
X025242Y006777D01*
X025262Y006779D01*
X025282Y006777D01*
X025300Y006771D01*
X025318Y006762D01*
X025333Y006750D01*
X025345Y006735D01*
X025354Y006717D01*
X025360Y006699D01*
X025362Y006679D01*
X025360Y006659D01*
X025354Y006641D01*
X025345Y006623D01*
X025333Y006608D01*
X025318Y006596D01*
X025300Y006587D01*
X025282Y006581D01*
X025262Y006579D01*
X025242Y006581D01*
X025224Y006587D01*
X025206Y006596D01*
X025191Y006608D01*
X025179Y006623D01*
X025170Y006641D01*
X025164Y006659D01*
X025162Y006679D01*
X022890Y006972D02*
X021257Y006972D01*
X021257Y004846D01*
X022890Y004846D01*
X022890Y006972D01*
X022846Y007261D02*
X021366Y007261D01*
X021366Y008041D01*
X022846Y008041D01*
X022846Y007261D01*
X021354Y006777D02*
X021356Y006797D01*
X021362Y006815D01*
X021371Y006833D01*
X021383Y006848D01*
X021398Y006860D01*
X021416Y006869D01*
X021434Y006875D01*
X021454Y006877D01*
X021474Y006875D01*
X021492Y006869D01*
X021510Y006860D01*
X021525Y006848D01*
X021537Y006833D01*
X021546Y006815D01*
X021552Y006797D01*
X021554Y006777D01*
X021552Y006757D01*
X021546Y006739D01*
X021537Y006721D01*
X021525Y006706D01*
X021510Y006694D01*
X021492Y006685D01*
X021474Y006679D01*
X021454Y006677D01*
X021434Y006679D01*
X021416Y006685D01*
X021398Y006694D01*
X021383Y006706D01*
X021371Y006721D01*
X021362Y006739D01*
X021356Y006757D01*
X021354Y006777D01*
X019896Y006391D02*
X019116Y006391D01*
X019116Y004911D01*
X019896Y004911D01*
X019896Y006391D01*
X018896Y006391D02*
X018116Y006391D01*
X018116Y004911D01*
X018896Y004911D01*
X018896Y006391D01*
X017896Y006391D02*
X017116Y006391D01*
X017116Y004911D01*
X017896Y004911D01*
X017896Y006391D01*
X016172Y006213D02*
X015534Y006213D01*
X015534Y006134D01*
X015743Y005948D02*
X015745Y005960D01*
X015750Y005971D01*
X015759Y005980D01*
X015770Y005985D01*
X015782Y005987D01*
X015794Y005985D01*
X015805Y005980D01*
X015814Y005971D01*
X015819Y005960D01*
X015821Y005948D01*
X015819Y005936D01*
X015814Y005925D01*
X015805Y005916D01*
X015794Y005911D01*
X015782Y005909D01*
X015770Y005911D01*
X015759Y005916D01*
X015750Y005925D01*
X015745Y005936D01*
X015743Y005948D01*
X016172Y006134D02*
X016172Y006213D01*
X014496Y006391D02*
X013716Y006391D01*
X013716Y004911D01*
X014496Y004911D01*
X014496Y006391D01*
X013336Y006561D02*
X013336Y005761D01*
X012476Y005761D01*
X012476Y006561D01*
X012546Y006631D01*
X013266Y006631D01*
X013336Y006561D01*
X013336Y005761D02*
X013336Y004671D01*
X012476Y004671D01*
X012476Y005761D01*
X011936Y005761D02*
X011076Y005761D01*
X011076Y006561D01*
X011146Y006631D01*
X011866Y006631D01*
X011936Y006561D01*
X011936Y005761D01*
X011936Y004671D01*
X011076Y004671D01*
X011076Y005761D01*
X010696Y006391D02*
X009916Y006391D01*
X009916Y004911D01*
X010696Y004911D01*
X010696Y006391D01*
X010726Y004141D02*
X011286Y004141D01*
X011286Y003651D01*
X010726Y003651D01*
X010726Y004141D01*
X010106Y003951D02*
X008106Y003951D01*
X008106Y002951D01*
X010106Y002951D01*
X010106Y003951D01*
X010726Y003651D02*
X010726Y002761D01*
X011286Y002761D01*
X011286Y003651D01*
X011726Y003651D02*
X012286Y003651D01*
X012286Y002761D01*
X011726Y002761D01*
X011726Y003651D01*
X011726Y004141D01*
X012286Y004141D01*
X012286Y003651D01*
X012516Y004191D02*
X013296Y004191D01*
X013296Y002711D01*
X012516Y002711D01*
X012516Y004191D01*
X013716Y004191D02*
X014496Y004191D01*
X014496Y002711D01*
X013716Y002711D01*
X013716Y004191D01*
X014916Y004191D02*
X015696Y004191D01*
X015696Y002711D01*
X014916Y002711D01*
X014916Y004191D01*
X015916Y004191D02*
X016696Y004191D01*
X016696Y002711D01*
X015916Y002711D01*
X015916Y004191D01*
X016172Y004936D02*
X015534Y004936D01*
X015534Y005015D01*
X016172Y005015D02*
X016172Y004936D01*
X017116Y004191D02*
X017896Y004191D01*
X017896Y002711D01*
X017116Y002711D01*
X017116Y004191D01*
X018116Y004191D02*
X018896Y004191D01*
X018896Y002711D01*
X018116Y002711D01*
X018116Y004191D01*
X019116Y004191D02*
X019896Y004191D01*
X019896Y002711D01*
X019116Y002711D01*
X019116Y004191D01*
X021366Y004541D02*
X021366Y003761D01*
X022846Y003761D01*
X022846Y004541D01*
X021366Y004541D01*
X021366Y003541D02*
X021366Y002761D01*
X022846Y002761D01*
X022846Y003541D01*
X021366Y003541D01*
X023266Y003541D02*
X023266Y002761D01*
X024746Y002761D01*
X024746Y003541D01*
X023266Y003541D01*
X023266Y003761D02*
X023266Y004541D01*
X024746Y004541D01*
X024746Y003761D01*
X023266Y003761D01*
X025166Y003761D02*
X025166Y004541D01*
X026646Y004541D01*
X026646Y003761D01*
X025166Y003761D01*
X025166Y003541D02*
X025166Y002761D01*
X026646Y002761D01*
X026646Y003541D01*
X025166Y003541D01*
X025291Y001962D02*
X024491Y001962D01*
X024391Y001862D01*
X024291Y001962D01*
X023491Y001962D01*
X023391Y001862D01*
X023291Y001962D01*
X022491Y001962D01*
X022391Y001862D01*
X022291Y001962D01*
X021491Y001962D01*
X021391Y001862D01*
X021291Y001962D01*
X020491Y001962D01*
X020391Y001862D01*
X020291Y001962D01*
X019491Y001962D01*
X019391Y001862D01*
X019291Y001962D01*
X018491Y001962D01*
X018391Y001862D01*
X018291Y001962D01*
X017491Y001962D01*
X017391Y001862D01*
X017291Y001962D01*
X016491Y001962D01*
X016391Y001862D01*
X016291Y001962D01*
X015491Y001962D01*
X015391Y001862D01*
X015291Y001962D01*
X014491Y001962D01*
X014391Y001862D01*
X014291Y001962D01*
X013491Y001962D01*
X013391Y001862D01*
X013291Y001962D01*
X012491Y001962D01*
X012391Y001862D01*
X012291Y001962D01*
X011491Y001962D01*
X011391Y001862D01*
X011291Y001962D01*
X010491Y001962D01*
X010391Y001862D01*
X010291Y001962D01*
X009491Y001962D01*
X009391Y001862D01*
X009291Y001962D01*
X008491Y001962D01*
X008391Y001862D01*
X008291Y001962D01*
X007491Y001962D01*
X007391Y001862D01*
X007291Y001962D01*
X006491Y001962D01*
X006391Y001862D01*
X006291Y001962D01*
X005391Y001962D01*
X005391Y000962D01*
X006291Y000962D01*
X006391Y001062D01*
X006491Y000962D01*
X007291Y000962D01*
X007391Y001062D01*
X007491Y000962D01*
X008291Y000962D01*
X008391Y001062D01*
X008491Y000962D01*
X009291Y000962D01*
X009391Y001062D01*
X009491Y000962D01*
X010291Y000962D01*
X010391Y001062D01*
X010491Y000962D01*
X011291Y000962D01*
X011391Y001062D01*
X011491Y000962D01*
X012291Y000962D01*
X012391Y001062D01*
X012491Y000962D01*
X013291Y000962D01*
X013391Y001062D01*
X013491Y000962D01*
X014291Y000962D01*
X014391Y001062D01*
X014491Y000962D01*
X015291Y000962D01*
X015391Y001062D01*
X015491Y000962D01*
X016291Y000962D01*
X016391Y001062D01*
X016491Y000962D01*
X017291Y000962D01*
X017391Y001062D01*
X017491Y000962D01*
X018291Y000962D01*
X018391Y001062D01*
X018491Y000962D01*
X019291Y000962D01*
X019391Y001062D01*
X019491Y000962D01*
X020291Y000962D01*
X020391Y001062D01*
X020491Y000962D01*
X021291Y000962D01*
X021391Y001062D01*
X021491Y000962D01*
X022291Y000962D01*
X022391Y001062D01*
X022491Y000962D01*
X023291Y000962D01*
X023391Y001062D01*
X023491Y000962D01*
X024291Y000962D01*
X024391Y001062D01*
X024491Y000962D01*
X025291Y000962D01*
X025391Y001062D01*
X025491Y000962D01*
X026291Y000962D01*
X026391Y001062D01*
X026491Y000962D01*
X027291Y000962D01*
X027391Y001062D01*
X027491Y000962D01*
X028291Y000962D01*
X028391Y001062D01*
X028491Y000962D01*
X029291Y000962D01*
X029391Y001062D01*
X029491Y000962D01*
X030291Y000962D01*
X030391Y001062D01*
X030491Y000962D01*
X031291Y000962D01*
X031391Y001062D01*
X031491Y000962D01*
X032291Y000962D01*
X032391Y001062D01*
X032491Y000962D01*
X033291Y000962D01*
X033391Y001062D01*
X033491Y000962D01*
X034291Y000962D01*
X034391Y001062D01*
X034491Y000962D01*
X035391Y000962D01*
X035391Y001962D01*
X034491Y001962D01*
X034391Y001862D01*
X034291Y001962D01*
X033491Y001962D01*
X033391Y001862D01*
X033291Y001962D01*
X032491Y001962D01*
X032391Y001862D01*
X032291Y001962D01*
X031491Y001962D01*
X031391Y001862D01*
X031291Y001962D01*
X030491Y001962D01*
X030391Y001862D01*
X030291Y001962D01*
X029491Y001962D01*
X029391Y001862D01*
X029291Y001962D01*
X028491Y001962D01*
X028391Y001862D01*
X028291Y001962D01*
X027491Y001962D01*
X027391Y001862D01*
X027291Y001962D01*
X026491Y001962D01*
X026391Y001862D01*
X026291Y001962D01*
X025491Y001962D01*
X025391Y001862D01*
X025291Y001962D01*
X028316Y003311D02*
X029096Y003311D01*
X029096Y004791D01*
X028316Y004791D01*
X028316Y003311D01*
X029316Y003311D02*
X030096Y003311D01*
X030096Y004791D01*
X029316Y004791D01*
X029316Y003311D01*
X030726Y003181D02*
X030726Y004121D01*
X032686Y004121D01*
X032686Y003181D01*
X030726Y003181D01*
X030726Y004681D02*
X030726Y005621D01*
X032686Y005621D01*
X032686Y004681D01*
X030726Y004681D01*
X029543Y005310D02*
X028905Y005310D01*
X028905Y005389D01*
X029543Y005389D02*
X029543Y005310D01*
X030726Y006181D02*
X030726Y007121D01*
X032686Y007121D01*
X032686Y006181D01*
X030726Y006181D01*
X029543Y006508D02*
X029543Y006587D01*
X028905Y006587D01*
X028905Y006508D01*
X029114Y006322D02*
X029116Y006334D01*
X029121Y006345D01*
X029130Y006354D01*
X029141Y006359D01*
X029153Y006361D01*
X029165Y006359D01*
X029176Y006354D01*
X029185Y006345D01*
X029190Y006334D01*
X029192Y006322D01*
X029190Y006310D01*
X029185Y006299D01*
X029176Y006290D01*
X029165Y006285D01*
X029153Y006283D01*
X029141Y006285D01*
X029130Y006290D01*
X029121Y006299D01*
X029116Y006310D01*
X029114Y006322D01*
X029096Y007011D02*
X028316Y007011D01*
X028316Y008491D01*
X029096Y008491D01*
X029096Y007011D01*
X029316Y007011D02*
X029316Y008491D01*
X030096Y008491D01*
X030096Y007011D01*
X029316Y007011D01*
X030726Y007681D02*
X030726Y008621D01*
X032686Y008621D01*
X032686Y007681D01*
X030726Y007681D01*
X030726Y009181D02*
X030726Y010121D01*
X032686Y010121D01*
X032686Y009181D01*
X030726Y009181D01*
X030096Y009311D02*
X029316Y009311D01*
X029316Y010791D01*
X030096Y010791D01*
X030096Y009311D01*
X029096Y009311D02*
X028316Y009311D01*
X028316Y010791D01*
X029096Y010791D01*
X029096Y009311D01*
X030726Y010681D02*
X030726Y011621D01*
X032686Y011621D01*
X032686Y010681D01*
X030726Y010681D01*
X029543Y011294D02*
X028905Y011294D01*
X028905Y011373D01*
X029543Y011373D02*
X029543Y011294D01*
X030726Y012181D02*
X030726Y013121D01*
X032686Y013121D01*
X032686Y012181D01*
X030726Y012181D01*
X029543Y012493D02*
X029543Y012571D01*
X028905Y012571D01*
X028905Y012493D01*
X029114Y012307D02*
X029116Y012319D01*
X029121Y012330D01*
X029130Y012339D01*
X029141Y012344D01*
X029153Y012346D01*
X029165Y012344D01*
X029176Y012339D01*
X029185Y012330D01*
X029190Y012319D01*
X029192Y012307D01*
X029190Y012295D01*
X029185Y012284D01*
X029176Y012275D01*
X029165Y012270D01*
X029153Y012268D01*
X029141Y012270D01*
X029130Y012275D01*
X029121Y012284D01*
X029116Y012295D01*
X029114Y012307D01*
X029096Y013011D02*
X028316Y013011D01*
X028316Y014491D01*
X029096Y014491D01*
X029096Y013011D01*
X029316Y013011D02*
X029316Y014491D01*
X030096Y014491D01*
X030096Y013011D01*
X029316Y013011D01*
X030726Y013681D02*
X030726Y014621D01*
X032686Y014621D01*
X032686Y013681D01*
X030726Y013681D01*
X030726Y015181D02*
X030726Y016121D01*
X032686Y016121D01*
X032686Y015181D01*
X030726Y015181D01*
X030096Y015311D02*
X029316Y015311D01*
X029316Y016791D01*
X030096Y016791D01*
X030096Y015311D01*
X029096Y015311D02*
X028316Y015311D01*
X028316Y016791D01*
X029096Y016791D01*
X029096Y015311D01*
X030726Y016681D02*
X030726Y017621D01*
X032686Y017621D01*
X032686Y016681D01*
X030726Y016681D01*
X029543Y017278D02*
X028905Y017278D01*
X028905Y017357D01*
X029543Y017357D02*
X029543Y017278D01*
X029114Y018291D02*
X029116Y018303D01*
X029121Y018314D01*
X029130Y018323D01*
X029141Y018328D01*
X029153Y018330D01*
X029165Y018328D01*
X029176Y018323D01*
X029185Y018314D01*
X029190Y018303D01*
X029192Y018291D01*
X029190Y018279D01*
X029185Y018268D01*
X029176Y018259D01*
X029165Y018254D01*
X029153Y018252D01*
X029141Y018254D01*
X029130Y018259D01*
X029121Y018268D01*
X029116Y018279D01*
X029114Y018291D01*
X028905Y018477D02*
X028905Y018556D01*
X029543Y018556D01*
X029543Y018477D01*
X029316Y019011D02*
X029316Y020491D01*
X030096Y020491D01*
X030096Y019011D01*
X029316Y019011D01*
X029096Y019011D02*
X028316Y019011D01*
X028316Y020491D01*
X029096Y020491D01*
X029096Y019011D01*
X030726Y019121D02*
X030726Y018181D01*
X032686Y018181D01*
X032686Y019121D01*
X030726Y019121D01*
X030726Y019681D02*
X030726Y020621D01*
X032686Y020621D01*
X032686Y019681D01*
X030726Y019681D01*
X030491Y021962D02*
X031291Y021962D01*
X031391Y022062D01*
X031491Y021962D01*
X032291Y021962D01*
X032391Y022062D01*
X032491Y021962D01*
X033291Y021962D01*
X033391Y022062D01*
X033491Y021962D01*
X034291Y021962D01*
X034391Y022062D01*
X034491Y021962D01*
X035391Y021962D01*
X035391Y022962D01*
X034491Y022962D01*
X034391Y022862D01*
X034291Y022962D01*
X033491Y022962D01*
X033391Y022862D01*
X033291Y022962D01*
X032491Y022962D01*
X032391Y022862D01*
X032291Y022962D01*
X031491Y022962D01*
X031391Y022862D01*
X031291Y022962D01*
X030491Y022962D01*
X030391Y022862D01*
X030291Y022962D01*
X029491Y022962D01*
X029391Y022862D01*
X029291Y022962D01*
X028491Y022962D01*
X028391Y022862D01*
X028291Y022962D01*
X027491Y022962D01*
X027391Y022862D01*
X027291Y022962D01*
X026491Y022962D01*
X026391Y022862D01*
X026291Y022962D01*
X025491Y022962D01*
X025391Y022862D01*
X025291Y022962D01*
X024491Y022962D01*
X024391Y022862D01*
X024291Y022962D01*
X023491Y022962D01*
X023391Y022862D01*
X023291Y022962D01*
X022491Y022962D01*
X022391Y022862D01*
X022291Y022962D01*
X021491Y022962D01*
X021391Y022862D01*
X021291Y022962D01*
X020491Y022962D01*
X020391Y022862D01*
X020291Y022962D01*
X019491Y022962D01*
X019391Y022862D01*
X019291Y022962D01*
X018491Y022962D01*
X018391Y022862D01*
X018291Y022962D01*
X017491Y022962D01*
X017391Y022862D01*
X017291Y022962D01*
X016491Y022962D01*
X016391Y022862D01*
X016291Y022962D01*
X015491Y022962D01*
X015391Y022862D01*
X015291Y022962D01*
X014491Y022962D01*
X014391Y022862D01*
X014291Y022962D01*
X013491Y022962D01*
X013391Y022862D01*
X013291Y022962D01*
X012491Y022962D01*
X012391Y022862D01*
X012291Y022962D01*
X011491Y022962D01*
X011391Y022862D01*
X011291Y022962D01*
X010491Y022962D01*
X010391Y022862D01*
X010291Y022962D01*
X009491Y022962D01*
X009391Y022862D01*
X009291Y022962D01*
X008491Y022962D01*
X008391Y022862D01*
X008291Y022962D01*
X007491Y022962D01*
X007391Y022862D01*
X007291Y022962D01*
X006491Y022962D01*
X006391Y022862D01*
X006291Y022962D01*
X005391Y022962D01*
X005391Y021962D01*
X006291Y021962D01*
X006391Y022062D01*
X006491Y021962D01*
X007291Y021962D01*
X007391Y022062D01*
X007491Y021962D01*
X008291Y021962D01*
X008391Y022062D01*
X008491Y021962D01*
X009291Y021962D01*
X009391Y022062D01*
X009491Y021962D01*
X010291Y021962D01*
X010391Y022062D01*
X010491Y021962D01*
X011291Y021962D01*
X011391Y022062D01*
X011491Y021962D01*
X012291Y021962D01*
X012391Y022062D01*
X012491Y021962D01*
X013291Y021962D01*
X013391Y022062D01*
X013491Y021962D01*
X014291Y021962D01*
X014391Y022062D01*
X014491Y021962D01*
X015291Y021962D01*
X015391Y022062D01*
X015491Y021962D01*
X016291Y021962D01*
X016391Y022062D01*
X016491Y021962D01*
X017291Y021962D01*
X017391Y022062D01*
X017491Y021962D01*
X018291Y021962D01*
X018391Y022062D01*
X018491Y021962D01*
X019291Y021962D01*
X019391Y022062D01*
X019491Y021962D01*
X020291Y021962D01*
X020391Y022062D01*
X020491Y021962D01*
X021291Y021962D01*
X021391Y022062D01*
X021491Y021962D01*
X022291Y021962D01*
X022391Y022062D01*
X022491Y021962D01*
X023291Y021962D01*
X023391Y022062D01*
X023491Y021962D01*
X024291Y021962D01*
X024391Y022062D01*
X024491Y021962D01*
X025291Y021962D01*
X025391Y022062D01*
X025491Y021962D01*
X026291Y021962D01*
X026391Y022062D01*
X026491Y021962D01*
X027291Y021962D01*
X027391Y022062D01*
X027491Y021962D01*
X028291Y021962D01*
X028391Y022062D01*
X028491Y021962D01*
X029291Y021962D01*
X029391Y022062D01*
X029491Y021962D01*
X030291Y021962D01*
X030391Y022062D01*
X030491Y021962D01*
X026646Y021141D02*
X026646Y020361D01*
X025166Y020361D01*
X025166Y021141D01*
X026646Y021141D01*
X026646Y020141D02*
X025166Y020141D01*
X025166Y019361D01*
X026646Y019361D01*
X026646Y020141D01*
X024746Y020141D02*
X024746Y019361D01*
X023266Y019361D01*
X023266Y020141D01*
X024746Y020141D01*
X024746Y020361D02*
X023266Y020361D01*
X023266Y021141D01*
X024746Y021141D01*
X024746Y020361D01*
X022846Y020361D02*
X021366Y020361D01*
X021366Y021141D01*
X022846Y021141D01*
X022846Y020361D01*
X022846Y020141D02*
X022846Y019361D01*
X021366Y019361D01*
X021366Y020141D01*
X022846Y020141D01*
X025096Y019000D02*
X025096Y016874D01*
X026729Y016874D01*
X026729Y019000D01*
X025096Y019000D01*
X025192Y018804D02*
X025194Y018824D01*
X025200Y018842D01*
X025209Y018860D01*
X025221Y018875D01*
X025236Y018887D01*
X025254Y018896D01*
X025272Y018902D01*
X025292Y018904D01*
X025312Y018902D01*
X025330Y018896D01*
X025348Y018887D01*
X025363Y018875D01*
X025375Y018860D01*
X025384Y018842D01*
X025390Y018824D01*
X025392Y018804D01*
X025390Y018784D01*
X025384Y018766D01*
X025375Y018748D01*
X025363Y018733D01*
X025348Y018721D01*
X025330Y018712D01*
X025312Y018706D01*
X025292Y018704D01*
X025272Y018706D01*
X025254Y018712D01*
X025236Y018721D01*
X025221Y018733D01*
X025209Y018748D01*
X025200Y018766D01*
X025194Y018784D01*
X025192Y018804D01*
X022653Y018449D02*
X022653Y017425D01*
X022651Y017405D01*
X022647Y017385D01*
X022639Y017367D01*
X022629Y017350D01*
X022616Y017334D01*
X022600Y017321D01*
X022583Y017311D01*
X022565Y017303D01*
X022545Y017299D01*
X022525Y017297D01*
X021621Y017297D01*
X021601Y017299D01*
X021581Y017303D01*
X021563Y017311D01*
X021546Y017321D01*
X021530Y017334D01*
X021517Y017350D01*
X021507Y017367D01*
X021499Y017385D01*
X021495Y017405D01*
X021493Y017425D01*
X021493Y018465D01*
X021493Y018449D02*
X021495Y018469D01*
X021499Y018489D01*
X021507Y018507D01*
X021517Y018524D01*
X021530Y018540D01*
X021546Y018553D01*
X021563Y018563D01*
X021581Y018571D01*
X021601Y018575D01*
X021621Y018577D01*
X022525Y018577D01*
X022545Y018575D01*
X022565Y018571D01*
X022583Y018563D01*
X022600Y018553D01*
X022616Y018540D01*
X022629Y018524D01*
X022639Y018507D01*
X022647Y018489D01*
X022651Y018469D01*
X022653Y018449D01*
X021594Y018378D02*
X021596Y018398D01*
X021602Y018416D01*
X021611Y018434D01*
X021623Y018449D01*
X021638Y018461D01*
X021656Y018470D01*
X021674Y018476D01*
X021694Y018478D01*
X021714Y018476D01*
X021732Y018470D01*
X021750Y018461D01*
X021765Y018449D01*
X021777Y018434D01*
X021786Y018416D01*
X021792Y018398D01*
X021794Y018378D01*
X021792Y018358D01*
X021786Y018340D01*
X021777Y018322D01*
X021765Y018307D01*
X021750Y018295D01*
X021732Y018286D01*
X021714Y018280D01*
X021694Y018278D01*
X021674Y018280D01*
X021656Y018286D01*
X021638Y018295D01*
X021623Y018307D01*
X021611Y018322D01*
X021602Y018340D01*
X021596Y018358D01*
X021594Y018378D01*
X019896Y018991D02*
X019896Y017511D01*
X019116Y017511D01*
X019116Y018991D01*
X019896Y018991D01*
X018896Y018991D02*
X018116Y018991D01*
X018116Y017511D01*
X018896Y017511D01*
X018896Y018991D01*
X017896Y018991D02*
X017116Y018991D01*
X017116Y017511D01*
X017896Y017511D01*
X017896Y018991D01*
X017896Y019711D02*
X017116Y019711D01*
X017116Y021191D01*
X017896Y021191D01*
X017896Y019711D01*
X018116Y019711D02*
X018116Y021191D01*
X018896Y021191D01*
X018896Y019711D01*
X018116Y019711D01*
X016896Y019711D02*
X016116Y019711D01*
X016116Y021191D01*
X016896Y021191D01*
X016896Y019711D01*
X015896Y019711D02*
X015116Y019711D01*
X015116Y021191D01*
X015896Y021191D01*
X015896Y019711D01*
X014896Y019711D02*
X014116Y019711D01*
X014116Y021191D01*
X014896Y021191D01*
X014896Y019711D01*
X013896Y019711D02*
X013116Y019711D01*
X013116Y021191D01*
X013896Y021191D01*
X013896Y019711D01*
X013716Y018991D02*
X014496Y018991D01*
X014496Y017511D01*
X013716Y017511D01*
X013716Y018991D01*
X013496Y018991D02*
X012716Y018991D01*
X012716Y017511D01*
X013496Y017511D01*
X013496Y018991D01*
X012896Y019711D02*
X012116Y019711D01*
X012116Y021191D01*
X012896Y021191D01*
X012896Y019711D01*
X011896Y019711D02*
X011116Y019711D01*
X011116Y021191D01*
X011896Y021191D01*
X011896Y019711D01*
X010896Y019711D02*
X010116Y019711D01*
X010116Y021191D01*
X010896Y021191D01*
X010896Y019711D01*
X010696Y018991D02*
X009916Y018991D01*
X009916Y017511D01*
X010696Y017511D01*
X010696Y018991D01*
X011116Y018991D02*
X011896Y018991D01*
X011896Y017511D01*
X011116Y017511D01*
X011116Y018991D01*
X009896Y019711D02*
X009116Y019711D01*
X009116Y021191D01*
X009896Y021191D01*
X009896Y019711D01*
X008896Y019711D02*
X008116Y019711D01*
X008116Y021191D01*
X008896Y021191D01*
X008896Y019711D01*
X011806Y017251D02*
X012406Y017251D01*
X012423Y017249D01*
X012440Y017245D01*
X012456Y017238D01*
X012470Y017228D01*
X012483Y017215D01*
X012493Y017201D01*
X012500Y017185D01*
X012504Y017168D01*
X012506Y017151D01*
X012506Y015001D01*
X012456Y015001D01*
X011756Y015001D01*
X011706Y015001D01*
X011706Y017151D01*
X011708Y017168D01*
X011712Y017185D01*
X011719Y017201D01*
X011729Y017215D01*
X011742Y017228D01*
X011756Y017238D01*
X011772Y017245D01*
X011789Y017249D01*
X011806Y017251D01*
X011496Y016791D02*
X010716Y016791D01*
X010716Y015311D01*
X011496Y015311D01*
X011496Y016791D01*
X012106Y016501D02*
X012106Y016301D01*
X012306Y016301D01*
X012306Y016151D02*
X011906Y016151D01*
X011906Y016001D01*
X012306Y016001D01*
X012306Y016151D01*
X012106Y016301D02*
X011906Y016301D01*
X011906Y015851D02*
X012106Y015851D01*
X012306Y015851D01*
X012106Y015851D02*
X012106Y015651D01*
X012716Y015311D02*
X012716Y016791D01*
X013496Y016791D01*
X013496Y015311D01*
X012716Y015311D01*
X012456Y015001D02*
X012456Y014851D01*
X011756Y014851D01*
X011756Y015001D01*
X013716Y015311D02*
X013716Y016791D01*
X014496Y016791D01*
X014496Y015311D01*
X013716Y015311D01*
X014168Y013537D02*
X014170Y013558D01*
X014176Y013579D01*
X014185Y013599D01*
X014198Y013616D01*
X014213Y013631D01*
X014231Y013643D01*
X014251Y013651D01*
X014272Y013656D01*
X014293Y013657D01*
X014315Y013654D01*
X014335Y013647D01*
X014354Y013637D01*
X014371Y013624D01*
X014385Y013608D01*
X014396Y013589D01*
X014404Y013569D01*
X014408Y013548D01*
X014408Y013526D01*
X014404Y013505D01*
X014396Y013485D01*
X014385Y013466D01*
X014371Y013450D01*
X014354Y013437D01*
X014335Y013427D01*
X014315Y013420D01*
X014293Y013417D01*
X014272Y013418D01*
X014251Y013423D01*
X014231Y013431D01*
X014213Y013443D01*
X014198Y013458D01*
X014185Y013475D01*
X014176Y013495D01*
X014170Y013516D01*
X014168Y013537D01*
X017116Y015311D02*
X017116Y016791D01*
X017896Y016791D01*
X017896Y015311D01*
X017116Y015311D01*
X018116Y015311D02*
X018116Y016791D01*
X018896Y016791D01*
X018896Y015311D01*
X018116Y015311D01*
X019116Y015311D02*
X019116Y016791D01*
X019896Y016791D01*
X019896Y015311D01*
X019116Y015311D01*
X021366Y014961D02*
X021366Y015741D01*
X022846Y015741D01*
X022846Y014961D01*
X021366Y014961D01*
X021366Y014741D02*
X021366Y013961D01*
X022846Y013961D01*
X022846Y014741D01*
X021366Y014741D01*
X021366Y013641D02*
X021366Y012861D01*
X022846Y012861D01*
X022846Y013641D01*
X021366Y013641D01*
X020946Y013641D02*
X020946Y012861D01*
X019466Y012861D01*
X019466Y013641D01*
X020946Y013641D01*
X021621Y012563D02*
X022525Y012563D01*
X022545Y012561D01*
X022565Y012557D01*
X022583Y012549D01*
X022600Y012539D01*
X022616Y012526D01*
X022629Y012510D01*
X022639Y012493D01*
X022647Y012475D01*
X022651Y012455D01*
X022653Y012435D01*
X022653Y011411D01*
X022651Y011391D01*
X022647Y011371D01*
X022639Y011353D01*
X022629Y011336D01*
X022616Y011320D01*
X022600Y011307D01*
X022583Y011297D01*
X022565Y011289D01*
X022545Y011285D01*
X022525Y011283D01*
X021621Y011283D01*
X021601Y011285D01*
X021581Y011289D01*
X021563Y011297D01*
X021546Y011307D01*
X021530Y011320D01*
X021517Y011336D01*
X021507Y011353D01*
X021499Y011371D01*
X021495Y011391D01*
X021493Y011411D01*
X021493Y012451D01*
X021493Y012435D02*
X021495Y012455D01*
X021499Y012475D01*
X021507Y012493D01*
X021517Y012510D01*
X021530Y012526D01*
X021546Y012539D01*
X021563Y012549D01*
X021581Y012557D01*
X021601Y012561D01*
X021621Y012563D01*
X021594Y012364D02*
X021596Y012384D01*
X021602Y012402D01*
X021611Y012420D01*
X021623Y012435D01*
X021638Y012447D01*
X021656Y012456D01*
X021674Y012462D01*
X021694Y012464D01*
X021714Y012462D01*
X021732Y012456D01*
X021750Y012447D01*
X021765Y012435D01*
X021777Y012420D01*
X021786Y012402D01*
X021792Y012384D01*
X021794Y012364D01*
X021792Y012344D01*
X021786Y012326D01*
X021777Y012308D01*
X021765Y012293D01*
X021750Y012281D01*
X021732Y012272D01*
X021714Y012266D01*
X021694Y012264D01*
X021674Y012266D01*
X021656Y012272D01*
X021638Y012281D01*
X021623Y012293D01*
X021611Y012308D01*
X021602Y012326D01*
X021596Y012344D01*
X021594Y012364D01*
X023266Y013461D02*
X023266Y014241D01*
X024746Y014241D01*
X024746Y013461D01*
X023266Y013461D01*
X023266Y014461D02*
X023266Y015241D01*
X024746Y015241D01*
X024746Y014461D01*
X023266Y014461D01*
X023266Y015461D02*
X023266Y016241D01*
X024746Y016241D01*
X024746Y015461D01*
X023266Y015461D01*
X022846Y015961D02*
X021366Y015961D01*
X021366Y016741D01*
X022846Y016741D01*
X022846Y015961D01*
X025166Y016241D02*
X025166Y015461D01*
X026646Y015461D01*
X026646Y016241D01*
X025166Y016241D01*
X025166Y015241D02*
X025166Y014461D01*
X026646Y014461D01*
X026646Y015241D01*
X025166Y015241D01*
X025166Y014241D02*
X025166Y013461D01*
X026646Y013461D01*
X026646Y014241D01*
X025166Y014241D01*
X025192Y012791D02*
X025194Y012811D01*
X025200Y012829D01*
X025209Y012847D01*
X025221Y012862D01*
X025236Y012874D01*
X025254Y012883D01*
X025272Y012889D01*
X025292Y012891D01*
X025312Y012889D01*
X025330Y012883D01*
X025348Y012874D01*
X025363Y012862D01*
X025375Y012847D01*
X025384Y012829D01*
X025390Y012811D01*
X025392Y012791D01*
X025390Y012771D01*
X025384Y012753D01*
X025375Y012735D01*
X025363Y012720D01*
X025348Y012708D01*
X025330Y012699D01*
X025312Y012693D01*
X025292Y012691D01*
X025272Y012693D01*
X025254Y012699D01*
X025236Y012708D01*
X025221Y012720D01*
X025209Y012735D01*
X025200Y012753D01*
X025194Y012771D01*
X025192Y012791D01*
X022846Y009041D02*
X021366Y009041D01*
X021366Y008261D01*
X022846Y008261D01*
X022846Y009041D01*
X033276Y008806D02*
X033376Y008706D01*
X033276Y008606D01*
X033276Y007706D01*
X034276Y007706D01*
X034276Y008606D01*
X034176Y008706D01*
X034276Y008806D01*
X034276Y009606D01*
X034176Y009706D01*
X034276Y009806D01*
X034276Y010706D01*
X033276Y010706D01*
X033276Y009806D01*
X033376Y009706D01*
X033276Y009606D01*
X033276Y008806D01*
X035049Y006612D02*
X034849Y006412D01*
X034849Y004462D01*
X035049Y004262D01*
X039099Y004262D01*
X039099Y006612D01*
X035049Y006612D01*
X035449Y005402D02*
X035451Y005452D01*
X035457Y005502D01*
X035467Y005552D01*
X035480Y005600D01*
X035497Y005648D01*
X035518Y005694D01*
X035542Y005738D01*
X035570Y005780D01*
X035601Y005820D01*
X035635Y005857D01*
X035672Y005892D01*
X035711Y005923D01*
X035752Y005952D01*
X035796Y005977D01*
X035842Y005999D01*
X035889Y006017D01*
X035937Y006031D01*
X035986Y006042D01*
X036036Y006049D01*
X036086Y006052D01*
X036137Y006051D01*
X036187Y006046D01*
X036237Y006037D01*
X036285Y006025D01*
X036333Y006008D01*
X036379Y005988D01*
X036424Y005965D01*
X036467Y005938D01*
X036507Y005908D01*
X036545Y005875D01*
X036580Y005839D01*
X036613Y005800D01*
X036642Y005759D01*
X036668Y005716D01*
X036691Y005671D01*
X036710Y005624D01*
X036725Y005576D01*
X036737Y005527D01*
X036745Y005477D01*
X036749Y005427D01*
X036749Y005377D01*
X036745Y005327D01*
X036737Y005277D01*
X036725Y005228D01*
X036710Y005180D01*
X036691Y005133D01*
X036668Y005088D01*
X036642Y005045D01*
X036613Y005004D01*
X036580Y004965D01*
X036545Y004929D01*
X036507Y004896D01*
X036467Y004866D01*
X036424Y004839D01*
X036379Y004816D01*
X036333Y004796D01*
X036285Y004779D01*
X036237Y004767D01*
X036187Y004758D01*
X036137Y004753D01*
X036086Y004752D01*
X036036Y004755D01*
X035986Y004762D01*
X035937Y004773D01*
X035889Y004787D01*
X035842Y004805D01*
X035796Y004827D01*
X035752Y004852D01*
X035711Y004881D01*
X035672Y004912D01*
X035635Y004947D01*
X035601Y004984D01*
X035570Y005024D01*
X035542Y005066D01*
X035518Y005110D01*
X035497Y005156D01*
X035480Y005204D01*
X035467Y005252D01*
X035457Y005302D01*
X035451Y005352D01*
X035449Y005402D01*
X038799Y006712D02*
X039099Y006712D01*
X039099Y006612D01*
X039099Y006712D02*
X039099Y017262D01*
X038799Y017262D01*
X038799Y006712D01*
X039099Y004262D02*
X040499Y004262D01*
X040499Y019712D01*
X040699Y019712D01*
X040699Y004262D01*
X040499Y004262D01*
X037438Y002120D02*
X037440Y002171D01*
X037446Y002222D01*
X037456Y002272D01*
X037469Y002322D01*
X037487Y002370D01*
X037507Y002417D01*
X037532Y002462D01*
X037560Y002505D01*
X037591Y002546D01*
X037625Y002584D01*
X037662Y002619D01*
X037701Y002652D01*
X037743Y002682D01*
X037787Y002708D01*
X037833Y002730D01*
X037881Y002750D01*
X037930Y002765D01*
X037980Y002777D01*
X038030Y002785D01*
X038081Y002789D01*
X038133Y002789D01*
X038184Y002785D01*
X038234Y002777D01*
X038284Y002765D01*
X038333Y002750D01*
X038381Y002730D01*
X038427Y002708D01*
X038471Y002682D01*
X038513Y002652D01*
X038552Y002619D01*
X038589Y002584D01*
X038623Y002546D01*
X038654Y002505D01*
X038682Y002462D01*
X038707Y002417D01*
X038727Y002370D01*
X038745Y002322D01*
X038758Y002272D01*
X038768Y002222D01*
X038774Y002171D01*
X038776Y002120D01*
X038774Y002069D01*
X038768Y002018D01*
X038758Y001968D01*
X038745Y001918D01*
X038727Y001870D01*
X038707Y001823D01*
X038682Y001778D01*
X038654Y001735D01*
X038623Y001694D01*
X038589Y001656D01*
X038552Y001621D01*
X038513Y001588D01*
X038471Y001558D01*
X038427Y001532D01*
X038381Y001510D01*
X038333Y001490D01*
X038284Y001475D01*
X038234Y001463D01*
X038184Y001455D01*
X038133Y001451D01*
X038081Y001451D01*
X038030Y001455D01*
X037980Y001463D01*
X037930Y001475D01*
X037881Y001490D01*
X037833Y001510D01*
X037787Y001532D01*
X037743Y001558D01*
X037701Y001588D01*
X037662Y001621D01*
X037625Y001656D01*
X037591Y001694D01*
X037560Y001735D01*
X037532Y001778D01*
X037507Y001823D01*
X037487Y001870D01*
X037469Y001918D01*
X037456Y001968D01*
X037446Y002018D01*
X037440Y002069D01*
X037438Y002120D01*
X036757Y002120D02*
X036759Y002193D01*
X036765Y002266D01*
X036775Y002338D01*
X036789Y002410D01*
X036806Y002481D01*
X036828Y002551D01*
X036853Y002620D01*
X036882Y002687D01*
X036914Y002752D01*
X036950Y002816D01*
X036990Y002878D01*
X037032Y002937D01*
X037078Y002994D01*
X037127Y003048D01*
X037179Y003100D01*
X037233Y003149D01*
X037290Y003195D01*
X037349Y003237D01*
X037411Y003277D01*
X037475Y003313D01*
X037540Y003345D01*
X037607Y003374D01*
X037676Y003399D01*
X037746Y003421D01*
X037817Y003438D01*
X037889Y003452D01*
X037961Y003462D01*
X038034Y003468D01*
X038107Y003470D01*
X038180Y003468D01*
X038253Y003462D01*
X038325Y003452D01*
X038397Y003438D01*
X038468Y003421D01*
X038538Y003399D01*
X038607Y003374D01*
X038674Y003345D01*
X038739Y003313D01*
X038803Y003277D01*
X038865Y003237D01*
X038924Y003195D01*
X038981Y003149D01*
X039035Y003100D01*
X039087Y003048D01*
X039136Y002994D01*
X039182Y002937D01*
X039224Y002878D01*
X039264Y002816D01*
X039300Y002752D01*
X039332Y002687D01*
X039361Y002620D01*
X039386Y002551D01*
X039408Y002481D01*
X039425Y002410D01*
X039439Y002338D01*
X039449Y002266D01*
X039455Y002193D01*
X039457Y002120D01*
X039455Y002047D01*
X039449Y001974D01*
X039439Y001902D01*
X039425Y001830D01*
X039408Y001759D01*
X039386Y001689D01*
X039361Y001620D01*
X039332Y001553D01*
X039300Y001488D01*
X039264Y001424D01*
X039224Y001362D01*
X039182Y001303D01*
X039136Y001246D01*
X039087Y001192D01*
X039035Y001140D01*
X038981Y001091D01*
X038924Y001045D01*
X038865Y001003D01*
X038803Y000963D01*
X038739Y000927D01*
X038674Y000895D01*
X038607Y000866D01*
X038538Y000841D01*
X038468Y000819D01*
X038397Y000802D01*
X038325Y000788D01*
X038253Y000778D01*
X038180Y000772D01*
X038107Y000770D01*
X038034Y000772D01*
X037961Y000778D01*
X037889Y000788D01*
X037817Y000802D01*
X037746Y000819D01*
X037676Y000841D01*
X037607Y000866D01*
X037540Y000895D01*
X037475Y000927D01*
X037411Y000963D01*
X037349Y001003D01*
X037290Y001045D01*
X037233Y001091D01*
X037179Y001140D01*
X037127Y001192D01*
X037078Y001246D01*
X037032Y001303D01*
X036990Y001362D01*
X036950Y001424D01*
X036914Y001488D01*
X036882Y001553D01*
X036853Y001620D01*
X036828Y001689D01*
X036806Y001759D01*
X036789Y001830D01*
X036775Y001902D01*
X036765Y001974D01*
X036759Y002047D01*
X036757Y002120D01*
X011251Y013162D02*
X011249Y013221D01*
X011243Y013279D01*
X011234Y013338D01*
X011220Y013395D01*
X011203Y013451D01*
X011182Y013506D01*
X011158Y013560D01*
X011130Y013612D01*
X011099Y013662D01*
X011065Y013710D01*
X011028Y013755D01*
X010987Y013798D01*
X010944Y013839D01*
X010899Y013876D01*
X010851Y013910D01*
X010801Y013941D01*
X010749Y013969D01*
X010695Y013993D01*
X010640Y014014D01*
X010584Y014031D01*
X010527Y014045D01*
X010468Y014054D01*
X010410Y014060D01*
X010351Y014062D01*
X010292Y014060D01*
X010234Y014054D01*
X010175Y014045D01*
X010118Y014031D01*
X010062Y014014D01*
X010007Y013993D01*
X009953Y013969D01*
X009901Y013941D01*
X009851Y013910D01*
X009803Y013876D01*
X009758Y013839D01*
X009715Y013798D01*
X009674Y013755D01*
X009637Y013710D01*
X009603Y013662D01*
X009572Y013612D01*
X009544Y013560D01*
X009520Y013506D01*
X009499Y013451D01*
X009482Y013395D01*
X009468Y013338D01*
X009459Y013279D01*
X009453Y013221D01*
X009451Y013162D01*
X002836Y009161D02*
X002836Y008361D01*
X001976Y008361D01*
X001976Y009161D01*
X002046Y009231D01*
X002766Y009231D01*
X002836Y009161D01*
X003216Y008991D02*
X003996Y008991D01*
X003996Y007511D01*
X003216Y007511D01*
X003216Y008991D01*
X002836Y008361D02*
X002836Y007271D01*
X001976Y007271D01*
X001976Y008361D01*
X002046Y006631D02*
X002766Y006631D01*
X002836Y006561D01*
X002836Y005761D01*
X001976Y005761D01*
X001976Y006561D01*
X002046Y006631D01*
X001976Y005761D02*
X001976Y004671D01*
X002836Y004671D01*
X002836Y005761D01*
X003216Y006391D02*
X003996Y006391D01*
X003996Y004911D01*
X003216Y004911D01*
X003216Y006391D01*
X005886Y004858D02*
X005886Y008944D01*
X002005Y002120D02*
X002007Y002171D01*
X002013Y002222D01*
X002023Y002272D01*
X002036Y002322D01*
X002054Y002370D01*
X002074Y002417D01*
X002099Y002462D01*
X002127Y002505D01*
X002158Y002546D01*
X002192Y002584D01*
X002229Y002619D01*
X002268Y002652D01*
X002310Y002682D01*
X002354Y002708D01*
X002400Y002730D01*
X002448Y002750D01*
X002497Y002765D01*
X002547Y002777D01*
X002597Y002785D01*
X002648Y002789D01*
X002700Y002789D01*
X002751Y002785D01*
X002801Y002777D01*
X002851Y002765D01*
X002900Y002750D01*
X002948Y002730D01*
X002994Y002708D01*
X003038Y002682D01*
X003080Y002652D01*
X003119Y002619D01*
X003156Y002584D01*
X003190Y002546D01*
X003221Y002505D01*
X003249Y002462D01*
X003274Y002417D01*
X003294Y002370D01*
X003312Y002322D01*
X003325Y002272D01*
X003335Y002222D01*
X003341Y002171D01*
X003343Y002120D01*
X003341Y002069D01*
X003335Y002018D01*
X003325Y001968D01*
X003312Y001918D01*
X003294Y001870D01*
X003274Y001823D01*
X003249Y001778D01*
X003221Y001735D01*
X003190Y001694D01*
X003156Y001656D01*
X003119Y001621D01*
X003080Y001588D01*
X003038Y001558D01*
X002994Y001532D01*
X002948Y001510D01*
X002900Y001490D01*
X002851Y001475D01*
X002801Y001463D01*
X002751Y001455D01*
X002700Y001451D01*
X002648Y001451D01*
X002597Y001455D01*
X002547Y001463D01*
X002497Y001475D01*
X002448Y001490D01*
X002400Y001510D01*
X002354Y001532D01*
X002310Y001558D01*
X002268Y001588D01*
X002229Y001621D01*
X002192Y001656D01*
X002158Y001694D01*
X002127Y001735D01*
X002099Y001778D01*
X002074Y001823D01*
X002054Y001870D01*
X002036Y001918D01*
X002023Y001968D01*
X002013Y002018D01*
X002007Y002069D01*
X002005Y002120D01*
X001324Y002120D02*
X001326Y002193D01*
X001332Y002266D01*
X001342Y002338D01*
X001356Y002410D01*
X001373Y002481D01*
X001395Y002551D01*
X001420Y002620D01*
X001449Y002687D01*
X001481Y002752D01*
X001517Y002816D01*
X001557Y002878D01*
X001599Y002937D01*
X001645Y002994D01*
X001694Y003048D01*
X001746Y003100D01*
X001800Y003149D01*
X001857Y003195D01*
X001916Y003237D01*
X001978Y003277D01*
X002042Y003313D01*
X002107Y003345D01*
X002174Y003374D01*
X002243Y003399D01*
X002313Y003421D01*
X002384Y003438D01*
X002456Y003452D01*
X002528Y003462D01*
X002601Y003468D01*
X002674Y003470D01*
X002747Y003468D01*
X002820Y003462D01*
X002892Y003452D01*
X002964Y003438D01*
X003035Y003421D01*
X003105Y003399D01*
X003174Y003374D01*
X003241Y003345D01*
X003306Y003313D01*
X003370Y003277D01*
X003432Y003237D01*
X003491Y003195D01*
X003548Y003149D01*
X003602Y003100D01*
X003654Y003048D01*
X003703Y002994D01*
X003749Y002937D01*
X003791Y002878D01*
X003831Y002816D01*
X003867Y002752D01*
X003899Y002687D01*
X003928Y002620D01*
X003953Y002551D01*
X003975Y002481D01*
X003992Y002410D01*
X004006Y002338D01*
X004016Y002266D01*
X004022Y002193D01*
X004024Y002120D01*
X004022Y002047D01*
X004016Y001974D01*
X004006Y001902D01*
X003992Y001830D01*
X003975Y001759D01*
X003953Y001689D01*
X003928Y001620D01*
X003899Y001553D01*
X003867Y001488D01*
X003831Y001424D01*
X003791Y001362D01*
X003749Y001303D01*
X003703Y001246D01*
X003654Y001192D01*
X003602Y001140D01*
X003548Y001091D01*
X003491Y001045D01*
X003432Y001003D01*
X003370Y000963D01*
X003306Y000927D01*
X003241Y000895D01*
X003174Y000866D01*
X003105Y000841D01*
X003035Y000819D01*
X002964Y000802D01*
X002892Y000788D01*
X002820Y000778D01*
X002747Y000772D01*
X002674Y000770D01*
X002601Y000772D01*
X002528Y000778D01*
X002456Y000788D01*
X002384Y000802D01*
X002313Y000819D01*
X002243Y000841D01*
X002174Y000866D01*
X002107Y000895D01*
X002042Y000927D01*
X001978Y000963D01*
X001916Y001003D01*
X001857Y001045D01*
X001800Y001091D01*
X001746Y001140D01*
X001694Y001192D01*
X001645Y001246D01*
X001599Y001303D01*
X001557Y001362D01*
X001517Y001424D01*
X001481Y001488D01*
X001449Y001553D01*
X001420Y001620D01*
X001395Y001689D01*
X001373Y001759D01*
X001356Y001830D01*
X001342Y001902D01*
X001332Y001974D01*
X001326Y002047D01*
X001324Y002120D01*
X015391Y017720D02*
X016216Y017720D01*
X016231Y017722D01*
X016246Y017726D01*
X016260Y017733D01*
X016272Y017743D01*
X016282Y017755D01*
X016289Y017769D01*
X016293Y017784D01*
X016295Y017799D01*
X016295Y018842D01*
X016293Y018857D01*
X016289Y018872D01*
X016282Y018886D01*
X016272Y018898D01*
X016260Y018908D01*
X016246Y018915D01*
X016231Y018919D01*
X016216Y018921D01*
X015391Y018921D01*
X015376Y018919D01*
X015361Y018915D01*
X015347Y018908D01*
X015335Y018898D01*
X015325Y018886D01*
X015318Y018872D01*
X015314Y018857D01*
X015312Y018842D01*
X015313Y018842D02*
X015313Y017799D01*
X015312Y017799D02*
X015314Y017784D01*
X015318Y017769D01*
X015325Y017755D01*
X015335Y017743D01*
X015347Y017733D01*
X015361Y017726D01*
X015376Y017722D01*
X015391Y017720D01*
X015404Y018760D02*
X015406Y018776D01*
X015411Y018791D01*
X015420Y018805D01*
X015432Y018816D01*
X015446Y018824D01*
X015462Y018829D01*
X015478Y018830D01*
X015494Y018827D01*
X015509Y018821D01*
X015522Y018811D01*
X015532Y018798D01*
X015540Y018784D01*
X015544Y018768D01*
X015544Y018752D01*
X015540Y018736D01*
X015532Y018722D01*
X015522Y018709D01*
X015509Y018699D01*
X015494Y018693D01*
X015478Y018690D01*
X015462Y018691D01*
X015446Y018696D01*
X015432Y018704D01*
X015420Y018715D01*
X015411Y018729D01*
X015406Y018744D01*
X015404Y018760D01*
X019116Y019711D02*
X019116Y021191D01*
X019896Y021191D01*
X019896Y019711D01*
X019116Y019711D01*
X034849Y019462D02*
X034849Y017562D01*
X035049Y017362D01*
X039099Y017362D01*
X039099Y017262D01*
X039099Y017362D02*
X039099Y019712D01*
X035099Y019712D01*
X034849Y019462D01*
X035449Y018522D02*
X035451Y018572D01*
X035457Y018622D01*
X035467Y018672D01*
X035480Y018720D01*
X035497Y018768D01*
X035518Y018814D01*
X035542Y018858D01*
X035570Y018900D01*
X035601Y018940D01*
X035635Y018977D01*
X035672Y019012D01*
X035711Y019043D01*
X035752Y019072D01*
X035796Y019097D01*
X035842Y019119D01*
X035889Y019137D01*
X035937Y019151D01*
X035986Y019162D01*
X036036Y019169D01*
X036086Y019172D01*
X036137Y019171D01*
X036187Y019166D01*
X036237Y019157D01*
X036285Y019145D01*
X036333Y019128D01*
X036379Y019108D01*
X036424Y019085D01*
X036467Y019058D01*
X036507Y019028D01*
X036545Y018995D01*
X036580Y018959D01*
X036613Y018920D01*
X036642Y018879D01*
X036668Y018836D01*
X036691Y018791D01*
X036710Y018744D01*
X036725Y018696D01*
X036737Y018647D01*
X036745Y018597D01*
X036749Y018547D01*
X036749Y018497D01*
X036745Y018447D01*
X036737Y018397D01*
X036725Y018348D01*
X036710Y018300D01*
X036691Y018253D01*
X036668Y018208D01*
X036642Y018165D01*
X036613Y018124D01*
X036580Y018085D01*
X036545Y018049D01*
X036507Y018016D01*
X036467Y017986D01*
X036424Y017959D01*
X036379Y017936D01*
X036333Y017916D01*
X036285Y017899D01*
X036237Y017887D01*
X036187Y017878D01*
X036137Y017873D01*
X036086Y017872D01*
X036036Y017875D01*
X035986Y017882D01*
X035937Y017893D01*
X035889Y017907D01*
X035842Y017925D01*
X035796Y017947D01*
X035752Y017972D01*
X035711Y018001D01*
X035672Y018032D01*
X035635Y018067D01*
X035601Y018104D01*
X035570Y018144D01*
X035542Y018186D01*
X035518Y018230D01*
X035497Y018276D01*
X035480Y018324D01*
X035467Y018372D01*
X035457Y018422D01*
X035451Y018472D01*
X035449Y018522D01*
X039099Y019712D02*
X040499Y019712D01*
X037438Y021805D02*
X037440Y021856D01*
X037446Y021907D01*
X037456Y021957D01*
X037469Y022007D01*
X037487Y022055D01*
X037507Y022102D01*
X037532Y022147D01*
X037560Y022190D01*
X037591Y022231D01*
X037625Y022269D01*
X037662Y022304D01*
X037701Y022337D01*
X037743Y022367D01*
X037787Y022393D01*
X037833Y022415D01*
X037881Y022435D01*
X037930Y022450D01*
X037980Y022462D01*
X038030Y022470D01*
X038081Y022474D01*
X038133Y022474D01*
X038184Y022470D01*
X038234Y022462D01*
X038284Y022450D01*
X038333Y022435D01*
X038381Y022415D01*
X038427Y022393D01*
X038471Y022367D01*
X038513Y022337D01*
X038552Y022304D01*
X038589Y022269D01*
X038623Y022231D01*
X038654Y022190D01*
X038682Y022147D01*
X038707Y022102D01*
X038727Y022055D01*
X038745Y022007D01*
X038758Y021957D01*
X038768Y021907D01*
X038774Y021856D01*
X038776Y021805D01*
X038774Y021754D01*
X038768Y021703D01*
X038758Y021653D01*
X038745Y021603D01*
X038727Y021555D01*
X038707Y021508D01*
X038682Y021463D01*
X038654Y021420D01*
X038623Y021379D01*
X038589Y021341D01*
X038552Y021306D01*
X038513Y021273D01*
X038471Y021243D01*
X038427Y021217D01*
X038381Y021195D01*
X038333Y021175D01*
X038284Y021160D01*
X038234Y021148D01*
X038184Y021140D01*
X038133Y021136D01*
X038081Y021136D01*
X038030Y021140D01*
X037980Y021148D01*
X037930Y021160D01*
X037881Y021175D01*
X037833Y021195D01*
X037787Y021217D01*
X037743Y021243D01*
X037701Y021273D01*
X037662Y021306D01*
X037625Y021341D01*
X037591Y021379D01*
X037560Y021420D01*
X037532Y021463D01*
X037507Y021508D01*
X037487Y021555D01*
X037469Y021603D01*
X037456Y021653D01*
X037446Y021703D01*
X037440Y021754D01*
X037438Y021805D01*
X036757Y021805D02*
X036759Y021878D01*
X036765Y021951D01*
X036775Y022023D01*
X036789Y022095D01*
X036806Y022166D01*
X036828Y022236D01*
X036853Y022305D01*
X036882Y022372D01*
X036914Y022437D01*
X036950Y022501D01*
X036990Y022563D01*
X037032Y022622D01*
X037078Y022679D01*
X037127Y022733D01*
X037179Y022785D01*
X037233Y022834D01*
X037290Y022880D01*
X037349Y022922D01*
X037411Y022962D01*
X037475Y022998D01*
X037540Y023030D01*
X037607Y023059D01*
X037676Y023084D01*
X037746Y023106D01*
X037817Y023123D01*
X037889Y023137D01*
X037961Y023147D01*
X038034Y023153D01*
X038107Y023155D01*
X038180Y023153D01*
X038253Y023147D01*
X038325Y023137D01*
X038397Y023123D01*
X038468Y023106D01*
X038538Y023084D01*
X038607Y023059D01*
X038674Y023030D01*
X038739Y022998D01*
X038803Y022962D01*
X038865Y022922D01*
X038924Y022880D01*
X038981Y022834D01*
X039035Y022785D01*
X039087Y022733D01*
X039136Y022679D01*
X039182Y022622D01*
X039224Y022563D01*
X039264Y022501D01*
X039300Y022437D01*
X039332Y022372D01*
X039361Y022305D01*
X039386Y022236D01*
X039408Y022166D01*
X039425Y022095D01*
X039439Y022023D01*
X039449Y021951D01*
X039455Y021878D01*
X039457Y021805D01*
X039455Y021732D01*
X039449Y021659D01*
X039439Y021587D01*
X039425Y021515D01*
X039408Y021444D01*
X039386Y021374D01*
X039361Y021305D01*
X039332Y021238D01*
X039300Y021173D01*
X039264Y021109D01*
X039224Y021047D01*
X039182Y020988D01*
X039136Y020931D01*
X039087Y020877D01*
X039035Y020825D01*
X038981Y020776D01*
X038924Y020730D01*
X038865Y020688D01*
X038803Y020648D01*
X038739Y020612D01*
X038674Y020580D01*
X038607Y020551D01*
X038538Y020526D01*
X038468Y020504D01*
X038397Y020487D01*
X038325Y020473D01*
X038253Y020463D01*
X038180Y020457D01*
X038107Y020455D01*
X038034Y020457D01*
X037961Y020463D01*
X037889Y020473D01*
X037817Y020487D01*
X037746Y020504D01*
X037676Y020526D01*
X037607Y020551D01*
X037540Y020580D01*
X037475Y020612D01*
X037411Y020648D01*
X037349Y020688D01*
X037290Y020730D01*
X037233Y020776D01*
X037179Y020825D01*
X037127Y020877D01*
X037078Y020931D01*
X037032Y020988D01*
X036990Y021047D01*
X036950Y021109D01*
X036914Y021173D01*
X036882Y021238D01*
X036853Y021305D01*
X036828Y021374D01*
X036806Y021444D01*
X036789Y021515D01*
X036775Y021587D01*
X036765Y021659D01*
X036759Y021732D01*
X036757Y021805D01*
X002005Y021805D02*
X002007Y021856D01*
X002013Y021907D01*
X002023Y021957D01*
X002036Y022007D01*
X002054Y022055D01*
X002074Y022102D01*
X002099Y022147D01*
X002127Y022190D01*
X002158Y022231D01*
X002192Y022269D01*
X002229Y022304D01*
X002268Y022337D01*
X002310Y022367D01*
X002354Y022393D01*
X002400Y022415D01*
X002448Y022435D01*
X002497Y022450D01*
X002547Y022462D01*
X002597Y022470D01*
X002648Y022474D01*
X002700Y022474D01*
X002751Y022470D01*
X002801Y022462D01*
X002851Y022450D01*
X002900Y022435D01*
X002948Y022415D01*
X002994Y022393D01*
X003038Y022367D01*
X003080Y022337D01*
X003119Y022304D01*
X003156Y022269D01*
X003190Y022231D01*
X003221Y022190D01*
X003249Y022147D01*
X003274Y022102D01*
X003294Y022055D01*
X003312Y022007D01*
X003325Y021957D01*
X003335Y021907D01*
X003341Y021856D01*
X003343Y021805D01*
X003341Y021754D01*
X003335Y021703D01*
X003325Y021653D01*
X003312Y021603D01*
X003294Y021555D01*
X003274Y021508D01*
X003249Y021463D01*
X003221Y021420D01*
X003190Y021379D01*
X003156Y021341D01*
X003119Y021306D01*
X003080Y021273D01*
X003038Y021243D01*
X002994Y021217D01*
X002948Y021195D01*
X002900Y021175D01*
X002851Y021160D01*
X002801Y021148D01*
X002751Y021140D01*
X002700Y021136D01*
X002648Y021136D01*
X002597Y021140D01*
X002547Y021148D01*
X002497Y021160D01*
X002448Y021175D01*
X002400Y021195D01*
X002354Y021217D01*
X002310Y021243D01*
X002268Y021273D01*
X002229Y021306D01*
X002192Y021341D01*
X002158Y021379D01*
X002127Y021420D01*
X002099Y021463D01*
X002074Y021508D01*
X002054Y021555D01*
X002036Y021603D01*
X002023Y021653D01*
X002013Y021703D01*
X002007Y021754D01*
X002005Y021805D01*
X001324Y021805D02*
X001326Y021878D01*
X001332Y021951D01*
X001342Y022023D01*
X001356Y022095D01*
X001373Y022166D01*
X001395Y022236D01*
X001420Y022305D01*
X001449Y022372D01*
X001481Y022437D01*
X001517Y022501D01*
X001557Y022563D01*
X001599Y022622D01*
X001645Y022679D01*
X001694Y022733D01*
X001746Y022785D01*
X001800Y022834D01*
X001857Y022880D01*
X001916Y022922D01*
X001978Y022962D01*
X002042Y022998D01*
X002107Y023030D01*
X002174Y023059D01*
X002243Y023084D01*
X002313Y023106D01*
X002384Y023123D01*
X002456Y023137D01*
X002528Y023147D01*
X002601Y023153D01*
X002674Y023155D01*
X002747Y023153D01*
X002820Y023147D01*
X002892Y023137D01*
X002964Y023123D01*
X003035Y023106D01*
X003105Y023084D01*
X003174Y023059D01*
X003241Y023030D01*
X003306Y022998D01*
X003370Y022962D01*
X003432Y022922D01*
X003491Y022880D01*
X003548Y022834D01*
X003602Y022785D01*
X003654Y022733D01*
X003703Y022679D01*
X003749Y022622D01*
X003791Y022563D01*
X003831Y022501D01*
X003867Y022437D01*
X003899Y022372D01*
X003928Y022305D01*
X003953Y022236D01*
X003975Y022166D01*
X003992Y022095D01*
X004006Y022023D01*
X004016Y021951D01*
X004022Y021878D01*
X004024Y021805D01*
X004022Y021732D01*
X004016Y021659D01*
X004006Y021587D01*
X003992Y021515D01*
X003975Y021444D01*
X003953Y021374D01*
X003928Y021305D01*
X003899Y021238D01*
X003867Y021173D01*
X003831Y021109D01*
X003791Y021047D01*
X003749Y020988D01*
X003703Y020931D01*
X003654Y020877D01*
X003602Y020825D01*
X003548Y020776D01*
X003491Y020730D01*
X003432Y020688D01*
X003370Y020648D01*
X003306Y020612D01*
X003241Y020580D01*
X003174Y020551D01*
X003105Y020526D01*
X003035Y020504D01*
X002964Y020487D01*
X002892Y020473D01*
X002820Y020463D01*
X002747Y020457D01*
X002674Y020455D01*
X002601Y020457D01*
X002528Y020463D01*
X002456Y020473D01*
X002384Y020487D01*
X002313Y020504D01*
X002243Y020526D01*
X002174Y020551D01*
X002107Y020580D01*
X002042Y020612D01*
X001978Y020648D01*
X001916Y020688D01*
X001857Y020730D01*
X001800Y020776D01*
X001746Y020825D01*
X001694Y020877D01*
X001645Y020931D01*
X001599Y020988D01*
X001557Y021047D01*
X001517Y021109D01*
X001481Y021173D01*
X001449Y021238D01*
X001420Y021305D01*
X001395Y021374D01*
X001373Y021444D01*
X001356Y021515D01*
X001342Y021587D01*
X001332Y021659D01*
X001326Y021732D01*
X001324Y021805D01*
D15*
X011906Y014716D03*
X012306Y014716D03*
D16*
X012306Y014651D02*
X012306Y014501D01*
X011906Y014501D02*
X011906Y014701D01*
D17*
X005326Y022257D02*
X005026Y022257D01*
X005176Y022257D02*
X005176Y022708D01*
X005026Y022557D01*
X033631Y011072D02*
X033781Y011222D01*
X033781Y010771D01*
X033631Y010771D02*
X033932Y010771D01*
X033857Y007642D02*
X033706Y007642D01*
X033631Y007567D01*
X033781Y007416D02*
X033857Y007416D01*
X033932Y007341D01*
X033932Y007266D01*
X033857Y007191D01*
X033706Y007191D01*
X033631Y007266D01*
X033857Y007416D02*
X033932Y007492D01*
X033932Y007567D01*
X033857Y007642D01*
X035374Y007402D02*
X035449Y007477D01*
X035524Y007477D01*
X035599Y007402D01*
X035599Y007252D01*
X035524Y007177D01*
X035449Y007177D01*
X035374Y007252D01*
X035374Y007402D01*
X035599Y007402D02*
X035674Y007477D01*
X035749Y007477D01*
X035824Y007402D01*
X035824Y007252D01*
X035749Y007177D01*
X035674Y007177D01*
X035599Y007252D01*
X036374Y007177D02*
X036599Y007177D01*
X036524Y007327D01*
X036524Y007402D01*
X036599Y007477D01*
X036749Y007477D01*
X036824Y007402D01*
X036824Y007252D01*
X036749Y007177D01*
X036824Y007017D02*
X036824Y006716D01*
X036824Y006867D02*
X036374Y006867D01*
X036524Y006716D01*
X036374Y007177D02*
X036374Y007477D01*
X036141Y001708D02*
X036216Y001633D01*
X035916Y001332D01*
X035991Y001257D01*
X036141Y001257D01*
X036216Y001332D01*
X036216Y001633D01*
X036141Y001708D02*
X035991Y001708D01*
X035916Y001633D01*
X035916Y001332D01*
X035756Y001332D02*
X035681Y001257D01*
X035531Y001257D01*
X035456Y001332D01*
X035606Y001482D02*
X035681Y001482D01*
X035756Y001407D01*
X035756Y001332D01*
X035681Y001482D02*
X035756Y001557D01*
X035756Y001633D01*
X035681Y001708D01*
X035531Y001708D01*
X035456Y001633D01*
X010471Y003451D02*
X010171Y003451D01*
X010321Y003601D02*
X010321Y003301D01*
X008041Y003451D02*
X007741Y003451D01*
X005176Y001708D02*
X005176Y001257D01*
X005026Y001257D02*
X005326Y001257D01*
X005026Y001557D02*
X005176Y001708D01*
X035374Y016327D02*
X035824Y016327D01*
X035824Y016177D02*
X035824Y016477D01*
X035524Y016177D02*
X035374Y016327D01*
X036374Y016252D02*
X036449Y016177D01*
X036524Y016177D01*
X036599Y016252D01*
X036599Y016477D01*
X036449Y016477D02*
X036374Y016402D01*
X036374Y016252D01*
X036449Y016477D02*
X036749Y016477D01*
X036824Y016402D01*
X036824Y016252D01*
X036749Y016177D01*
X036141Y022257D02*
X035991Y022257D01*
X035916Y022332D01*
X036216Y022633D01*
X036216Y022332D01*
X036141Y022257D01*
X035916Y022332D02*
X035916Y022633D01*
X035991Y022708D01*
X036141Y022708D01*
X036216Y022633D01*
X035756Y022633D02*
X035756Y022557D01*
X035681Y022482D01*
X035756Y022407D01*
X035756Y022332D01*
X035681Y022257D01*
X035531Y022257D01*
X035456Y022332D01*
X035606Y022482D02*
X035681Y022482D01*
X035756Y022633D02*
X035681Y022708D01*
X035531Y022708D01*
X035456Y022633D01*
D18*
X038949Y011987D03*
D19*
X040599Y011987D03*
D20*
X037374Y012502D03*
X037374Y013582D03*
X037374Y014662D03*
X037374Y015742D03*
X037374Y011422D03*
X037374Y010342D03*
X037374Y009262D03*
X037374Y008182D03*
D21*
X037874Y008722D03*
X037874Y009802D03*
X037874Y010882D03*
X037874Y011962D03*
X037874Y013042D03*
X037874Y014122D03*
X037874Y015202D03*
D22*
X028450Y017571D02*
X028450Y017644D01*
X028450Y017607D02*
X028230Y017607D01*
X028230Y017571D02*
X028230Y017644D01*
X028267Y017718D02*
X028413Y017718D01*
X028450Y017755D01*
X028450Y017828D01*
X028413Y017865D01*
X028450Y017939D02*
X028450Y018086D01*
X028450Y018012D02*
X028230Y018012D01*
X028303Y017939D01*
X028267Y017865D02*
X028230Y017828D01*
X028230Y017755D01*
X028267Y017718D01*
X028267Y018160D02*
X028230Y018197D01*
X028230Y018270D01*
X028267Y018307D01*
X028303Y018307D01*
X028450Y018160D01*
X028450Y018307D01*
X028413Y012322D02*
X028450Y012286D01*
X028450Y012212D01*
X028413Y012176D01*
X028450Y012101D02*
X028450Y011955D01*
X028450Y012028D02*
X028230Y012028D01*
X028303Y011955D01*
X028267Y011881D02*
X028230Y011844D01*
X028230Y011770D01*
X028267Y011734D01*
X028413Y011734D01*
X028450Y011770D01*
X028450Y011844D01*
X028413Y011881D01*
X028450Y011660D02*
X028450Y011586D01*
X028450Y011623D02*
X028230Y011623D01*
X028230Y011586D02*
X028230Y011660D01*
X028267Y012176D02*
X028230Y012212D01*
X028230Y012286D01*
X028267Y012322D01*
X028303Y012322D01*
X028340Y012286D01*
X028377Y012322D01*
X028413Y012322D01*
X028340Y012286D02*
X028340Y012249D01*
X028340Y006338D02*
X028340Y006191D01*
X028230Y006302D01*
X028450Y006302D01*
X028450Y006117D02*
X028450Y005970D01*
X028450Y006044D02*
X028230Y006044D01*
X028303Y005970D01*
X028267Y005896D02*
X028230Y005860D01*
X028230Y005786D01*
X028267Y005749D01*
X028413Y005749D01*
X028450Y005786D01*
X028450Y005860D01*
X028413Y005896D01*
X028450Y005676D02*
X028450Y005602D01*
X028450Y005639D02*
X028230Y005639D01*
X028230Y005602D02*
X028230Y005676D01*
M02*
