%
M48
M72
T01C0.0236
T02C0.0354
T03C0.0394
T04C0.1260
%
T01
X11506Y3451
X13506Y3051
X13506Y3851
X13906Y4651
X15386Y4733
X17536Y4679
X19308Y4679
X20282Y4821
X20922Y4566
X22074Y4757
X22585Y5397
X23801Y5205
X24121Y4757
X25336Y5525
X25656Y5141
X26680Y4694
X27576Y5461
X28009Y5948
X27576Y6421
X28663Y6790
X29785Y6790
X30391Y7381
X31798Y7381
X30533Y5948
X29785Y5107
X28663Y5107
X27320Y3670
X26936Y3158
X27768Y3158
X30582Y2902
X31158Y2454
X32822Y2902
X26360Y6549
X25912Y6165
X23993Y6549
X23801Y6037
X22585Y6165
X22649Y6677
X21946Y6997
X20794Y7734
X20282Y7714
X19515Y7828
X18127Y7828
X18028Y9009
X17881Y9502
X18028Y9994
X17044Y10437
X17487Y10683
X17044Y10929
X16552Y11126
X16109Y10880
X16552Y10633
X15026Y10732
X14633Y11421
X14633Y11913
X14633Y12405
X14239Y12799
X14583Y13193
X14977Y13537
X15469Y13389
X15961Y13389
X16454Y13586
X16798Y13193
X17143Y13586
X17487Y13193
X18619Y13931
X18422Y14718
X18767Y15063
X17143Y14817
X16896Y15259
X16700Y15752
X16207Y15899
X16011Y15407
X15814Y14915
X14928Y14915
X14387Y14964
X14928Y15407
X14928Y15899
X13107Y15013
X13993Y14374
X13255Y13980
X12606Y14201
X13009Y13439
X11706Y13401
X11606Y14201
X11106Y15001
X10106Y14551
X9581Y15151
X10406Y15651
X10206Y16151
X10006Y16651
X12456Y17701
X12456Y18201
X12456Y18701
X12406Y19201
X12006Y19551
X11006Y19551
X9706Y19101
X9156Y19351
X8506Y19451
X10906Y18251
X14006Y19651
X15806Y19351
X16306Y19301
X15580Y18448
X15765Y17523
X18006Y19501
X19006Y19501
X21080Y18901
X22016Y17829
X22202Y17041
X21690Y17021
X20676Y16593
X20676Y16017
X19898Y17228
X23481Y17681
X23865Y16913
X23545Y16465
X24505Y16465
X25017Y16465
X25528Y16465
X26040Y16465
X25336Y17233
X25848Y18065
X25400Y18320
X25656Y18832
X26168Y18768
X26552Y19088
X27064Y19536
X27768Y19600
X28663Y18759
X29785Y18759
X30533Y17917
X29785Y17075
X28663Y17075
X28009Y17917
X27640Y17489
X27640Y18384
X23481Y18448
X20706Y21401
X14006Y21301
X12006Y21301
X10006Y21301
X9006Y21301
X8006Y21701
X7456Y21251
X3006Y19151
X3006Y18251
X1806Y16151
X3006Y15651
X4331Y15151
X8406Y14351
X10351Y12912
X13009Y12061
X11706Y10951
X10351Y11012
X11706Y9751
X12713Y9698
X13206Y9698
X13599Y10092
X13993Y9698
X14583Y9108
X15076Y9108
X15961Y8714
X16257Y9108
X15863Y8222
X13506Y8251
X13506Y7451
X15446Y6491
X16946Y6549
X21562Y6037
X19515Y9180
X20282Y9620
X20794Y9620
X20538Y10068
X20666Y11283
X20218Y11667
X19800Y11322
X20218Y12179
X22010Y11283
X22330Y12051
X24185Y12755
X25400Y12435
X25528Y13266
X26424Y12243
X27640Y12499
X28009Y11933
X28663Y11091
X29785Y11091
X30533Y11933
X29785Y12774
X28663Y12774
X27768Y13522
X26814Y14351
X27050Y15351
X30391Y13394
X31606Y13394
X27384Y10515
X27384Y9876
X27128Y9364
X25444Y10431
X24633Y10323
X24185Y10579
X23737Y10323
X23225Y10323
X23097Y10899
X24185Y11091
X25528Y11475
X26040Y11539
X20676Y14226
X20282Y13906
X15863Y12110
X15322Y12110
X15322Y11618
X9706Y6951
X12206Y5651
X17006Y2651
X27384Y7317
X32822Y20880
T02
X32891Y22462
X31891Y22462
X30891Y22462
X29891Y22462
X28891Y22462
X27891Y22462
X26891Y22462
X25891Y22462
X24891Y22462
X23891Y22462
X22891Y22462
X21891Y22462
X20891Y22462
X19891Y22462
X18891Y22462
X17891Y22462
X16891Y22462
X15891Y22462
X14891Y22462
X13891Y22462
X12891Y22462
X11891Y22462
X10891Y22462
X9891Y22462
X8891Y22462
X7891Y22462
X6891Y22462
X5891Y22462
X4761Y12592
X2638Y12651
X2638Y11273
X4761Y11332
X8406Y9551
X10306Y7051
X12106Y6951
X10306Y4451
X9606Y3451
X8606Y3451
X8891Y1462
X9891Y1462
X10891Y1462
X11891Y1462
X12891Y1462
X13891Y1462
X14891Y1462
X15891Y1462
X16891Y1462
X17891Y1462
X18891Y1462
X19891Y1462
X20891Y1462
X21891Y1462
X22891Y1462
X23891Y1462
X24891Y1462
X25891Y1462
X26891Y1462
X27891Y1462
X28891Y1462
X29891Y1462
X30891Y1462
X31891Y1462
X32891Y1462
X33891Y1462
X34891Y1462
X33806Y3051
X33806Y4551
X33806Y6051
X33776Y8206
X33776Y9206
X33776Y10206
X33891Y22462
X34891Y22462
X3606Y7051
X1806Y6951
X3606Y4451
X5891Y1462
X6891Y1462
X7891Y1462
T03
X35599Y8182
X36599Y8722
X35599Y9262
X36599Y9802
X35599Y10342
X36599Y10882
X35599Y11422
X36599Y11962
X35599Y12502
X36599Y13042
X35599Y13582
X36599Y14122
X35599Y14662
X36599Y15202
X35599Y15742
T04
X2674Y2120
X36099Y5402
X38107Y2120
X36099Y18522
X38107Y21805
X2674Y21805
M30
