G75*
G70*
%OFA0B0*%
%FSLAX24Y24*%
%IPPOS*%
%LPD*%
%AMOC8*
5,1,8,0,0,1.08239X$1,22.5*
%
%ADD10R,0.0946X0.1064*%
%ADD11C,0.0434*%
%ADD12R,0.0867X0.0277*%
%ADD13R,0.0474X0.0237*%
%ADD14R,0.0552X0.0631*%
%ADD15R,0.0631X0.0552*%
%ADD16R,0.0552X0.0198*%
%ADD17R,0.0198X0.0552*%
%ADD18C,0.0640*%
%ADD19C,0.0580*%
%ADD20R,0.0710X0.0710*%
%ADD21C,0.0671*%
%ADD22C,0.0500*%
%ADD23R,0.0531X0.0177*%
%ADD24C,0.0680*%
%ADD25C,0.1340*%
%ADD26R,0.1419X0.1025*%
%ADD27R,0.0946X0.0316*%
%ADD28R,0.1419X0.0525*%
%ADD29R,0.0710X0.0789*%
%ADD30R,0.0552X0.0316*%
%ADD31R,0.0434X0.0218*%
%ADD32R,0.0364X0.0197*%
%ADD33R,0.0407X0.0328*%
%ADD34R,0.0740X0.0740*%
%ADD35C,0.0740*%
%ADD36C,0.0476*%
%ADD37C,0.0611*%
D10*
X001339Y010309D03*
X003425Y010309D03*
X003425Y013616D03*
X001339Y013616D03*
D11*
X002638Y012651D03*
X002638Y011273D03*
D12*
X003524Y011332D03*
X003524Y011647D03*
X003524Y011962D03*
X003524Y012277D03*
X003524Y012592D03*
D13*
X021183Y012307D03*
X021183Y012051D03*
X021183Y011795D03*
X021183Y011539D03*
X022964Y011539D03*
X022964Y011795D03*
X022964Y012051D03*
X022964Y012307D03*
X022964Y017553D03*
X022964Y017809D03*
X022964Y018065D03*
X022964Y018321D03*
X021183Y018321D03*
X021183Y018065D03*
X021183Y017809D03*
X021183Y017553D03*
D14*
X021712Y016351D03*
X022499Y016351D03*
X023612Y015851D03*
X024399Y015851D03*
X025512Y015851D03*
X026299Y015851D03*
X026299Y014851D03*
X025512Y014851D03*
X024399Y014851D03*
X023612Y014851D03*
X022499Y014351D03*
X021712Y014351D03*
X021712Y015351D03*
X022499Y015351D03*
X023612Y013851D03*
X024399Y013851D03*
X025512Y013851D03*
X026299Y013851D03*
X022499Y013251D03*
X021712Y013251D03*
X020599Y013251D03*
X019812Y013251D03*
X019812Y010651D03*
X020599Y010651D03*
X021712Y010651D03*
X022499Y010651D03*
X022499Y009651D03*
X021712Y009651D03*
X021712Y008651D03*
X022499Y008651D03*
X023612Y008651D03*
X024399Y008651D03*
X025512Y008651D03*
X026299Y008651D03*
X026299Y007651D03*
X025512Y007651D03*
X024399Y007651D03*
X023612Y007651D03*
X022499Y007651D03*
X021712Y007651D03*
X023612Y009651D03*
X024399Y009651D03*
X025512Y009651D03*
X026299Y009651D03*
X026299Y004151D03*
X025512Y004151D03*
X024399Y004151D03*
X023612Y004151D03*
X022499Y004151D03*
X021712Y004151D03*
X021712Y003151D03*
X022499Y003151D03*
X023612Y003151D03*
X024399Y003151D03*
X025512Y003151D03*
X026299Y003151D03*
X026299Y019751D03*
X025512Y019751D03*
X024399Y019751D03*
X023612Y019751D03*
X022499Y019751D03*
X021712Y019751D03*
X021712Y020751D03*
X022499Y020751D03*
X023612Y020751D03*
X024399Y020751D03*
X025512Y020751D03*
X026299Y020751D03*
D15*
X028706Y020145D03*
X029706Y020145D03*
X029706Y019357D03*
X028706Y019357D03*
X028706Y016445D03*
X029706Y016445D03*
X029706Y015657D03*
X028706Y015657D03*
X028706Y014145D03*
X029706Y014145D03*
X029706Y013357D03*
X028706Y013357D03*
X028706Y010445D03*
X029706Y010445D03*
X029706Y009657D03*
X028706Y009657D03*
X028706Y008145D03*
X029706Y008145D03*
X029706Y007357D03*
X028706Y007357D03*
X028706Y004445D03*
X029706Y004445D03*
X029706Y003657D03*
X028706Y003657D03*
X019506Y003845D03*
X018506Y003845D03*
X017506Y003845D03*
X016306Y003845D03*
X015306Y003845D03*
X014106Y003845D03*
X012906Y003845D03*
X012906Y003057D03*
X014106Y003057D03*
X015306Y003057D03*
X016306Y003057D03*
X017506Y003057D03*
X018506Y003057D03*
X019506Y003057D03*
X019506Y005257D03*
X018506Y005257D03*
X017506Y005257D03*
X017506Y006045D03*
X018506Y006045D03*
X019506Y006045D03*
X017506Y007457D03*
X017506Y008245D03*
X015106Y008245D03*
X014106Y008245D03*
X014106Y007457D03*
X015106Y007457D03*
X014106Y006045D03*
X014106Y005257D03*
X010306Y005257D03*
X010306Y006045D03*
X010306Y007857D03*
X010306Y008645D03*
X008606Y010557D03*
X008606Y011345D03*
X008606Y012557D03*
X008606Y013345D03*
X012106Y012345D03*
X012106Y011557D03*
X013106Y015657D03*
X014106Y015657D03*
X014106Y016445D03*
X013106Y016445D03*
X011106Y016445D03*
X011106Y015657D03*
X011506Y017857D03*
X011506Y018645D03*
X010306Y018645D03*
X010306Y017857D03*
X013106Y017857D03*
X014106Y017857D03*
X014106Y018645D03*
X013106Y018645D03*
X013506Y020057D03*
X014506Y020057D03*
X015506Y020057D03*
X016506Y020057D03*
X017506Y020057D03*
X018506Y020057D03*
X019506Y020057D03*
X019506Y020845D03*
X018506Y020845D03*
X017506Y020845D03*
X016506Y020845D03*
X015506Y020845D03*
X014506Y020845D03*
X013506Y020845D03*
X012506Y020845D03*
X011506Y020845D03*
X010506Y020845D03*
X009506Y020845D03*
X008506Y020845D03*
X008506Y020057D03*
X009506Y020057D03*
X010506Y020057D03*
X011506Y020057D03*
X012506Y020057D03*
X017506Y018645D03*
X018506Y018645D03*
X018506Y017857D03*
X017506Y017857D03*
X019506Y017857D03*
X019506Y018645D03*
X019506Y016445D03*
X019506Y015657D03*
X018506Y015657D03*
X017506Y015657D03*
X017506Y016445D03*
X018506Y016445D03*
X003606Y016045D03*
X002406Y016045D03*
X002406Y015257D03*
X003606Y015257D03*
X003606Y017857D03*
X003606Y018645D03*
X002406Y018645D03*
X002406Y017857D03*
X003606Y008645D03*
X003606Y007857D03*
X003606Y006045D03*
X003606Y005257D03*
D16*
X013619Y010486D03*
X013619Y010683D03*
X013619Y010880D03*
X013619Y011076D03*
X013619Y011273D03*
X013619Y011470D03*
X013619Y011667D03*
X013619Y011864D03*
X013619Y012061D03*
X013619Y012257D03*
X013619Y012454D03*
X013619Y012651D03*
X013619Y012848D03*
X013619Y013045D03*
X013619Y013242D03*
X013619Y013439D03*
X018107Y013439D03*
X018107Y013242D03*
X018107Y013045D03*
X018107Y012848D03*
X018107Y012651D03*
X018107Y012454D03*
X018107Y012257D03*
X018107Y012061D03*
X018107Y011864D03*
X018107Y011667D03*
X018107Y011470D03*
X018107Y011273D03*
X018107Y011076D03*
X018107Y010880D03*
X018107Y010683D03*
X018107Y010486D03*
D17*
X017339Y009718D03*
X017143Y009718D03*
X016946Y009718D03*
X016749Y009718D03*
X016552Y009718D03*
X016355Y009718D03*
X016158Y009718D03*
X015961Y009718D03*
X015765Y009718D03*
X015568Y009718D03*
X015371Y009718D03*
X015174Y009718D03*
X014977Y009718D03*
X014780Y009718D03*
X014583Y009718D03*
X014387Y009718D03*
X014387Y014206D03*
X014583Y014206D03*
X014780Y014206D03*
X014977Y014206D03*
X015174Y014206D03*
X015371Y014206D03*
X015568Y014206D03*
X015765Y014206D03*
X015961Y014206D03*
X016158Y014206D03*
X016355Y014206D03*
X016552Y014206D03*
X016749Y014206D03*
X016946Y014206D03*
X017143Y014206D03*
X017339Y014206D03*
D18*
X010351Y012912D03*
X010351Y011012D03*
D19*
X011606Y014201D03*
X012606Y014201D03*
D20*
X012906Y008802D03*
X011506Y008802D03*
X011506Y007700D03*
X012906Y007700D03*
X012906Y006202D03*
X011506Y006202D03*
X011506Y005100D03*
X012906Y005100D03*
X002406Y005100D03*
X002406Y006202D03*
X002406Y007700D03*
X002406Y008802D03*
D21*
X004052Y003498D03*
X004052Y020427D03*
X036729Y020427D03*
X036729Y003498D03*
D22*
X036373Y003498D02*
X036375Y003535D01*
X036381Y003572D01*
X036390Y003608D01*
X036404Y003643D01*
X036421Y003676D01*
X036441Y003707D01*
X036464Y003736D01*
X036491Y003763D01*
X036520Y003786D01*
X036551Y003806D01*
X036584Y003823D01*
X036619Y003837D01*
X036655Y003846D01*
X036692Y003852D01*
X036729Y003854D01*
X036766Y003852D01*
X036803Y003846D01*
X036839Y003837D01*
X036874Y003823D01*
X036907Y003806D01*
X036938Y003786D01*
X036967Y003763D01*
X036994Y003736D01*
X037017Y003707D01*
X037037Y003676D01*
X037054Y003643D01*
X037068Y003608D01*
X037077Y003572D01*
X037083Y003535D01*
X037085Y003498D01*
X037083Y003461D01*
X037077Y003424D01*
X037068Y003388D01*
X037054Y003353D01*
X037037Y003320D01*
X037017Y003289D01*
X036994Y003260D01*
X036967Y003233D01*
X036938Y003210D01*
X036907Y003190D01*
X036874Y003173D01*
X036839Y003159D01*
X036803Y003150D01*
X036766Y003144D01*
X036729Y003142D01*
X036692Y003144D01*
X036655Y003150D01*
X036619Y003159D01*
X036584Y003173D01*
X036551Y003190D01*
X036520Y003210D01*
X036491Y003233D01*
X036464Y003260D01*
X036441Y003289D01*
X036421Y003320D01*
X036404Y003353D01*
X036390Y003388D01*
X036381Y003424D01*
X036375Y003461D01*
X036373Y003498D01*
X036373Y020427D02*
X036375Y020464D01*
X036381Y020501D01*
X036390Y020537D01*
X036404Y020572D01*
X036421Y020605D01*
X036441Y020636D01*
X036464Y020665D01*
X036491Y020692D01*
X036520Y020715D01*
X036551Y020735D01*
X036584Y020752D01*
X036619Y020766D01*
X036655Y020775D01*
X036692Y020781D01*
X036729Y020783D01*
X036766Y020781D01*
X036803Y020775D01*
X036839Y020766D01*
X036874Y020752D01*
X036907Y020735D01*
X036938Y020715D01*
X036967Y020692D01*
X036994Y020665D01*
X037017Y020636D01*
X037037Y020605D01*
X037054Y020572D01*
X037068Y020537D01*
X037077Y020501D01*
X037083Y020464D01*
X037085Y020427D01*
X037083Y020390D01*
X037077Y020353D01*
X037068Y020317D01*
X037054Y020282D01*
X037037Y020249D01*
X037017Y020218D01*
X036994Y020189D01*
X036967Y020162D01*
X036938Y020139D01*
X036907Y020119D01*
X036874Y020102D01*
X036839Y020088D01*
X036803Y020079D01*
X036766Y020073D01*
X036729Y020071D01*
X036692Y020073D01*
X036655Y020079D01*
X036619Y020088D01*
X036584Y020102D01*
X036551Y020119D01*
X036520Y020139D01*
X036491Y020162D01*
X036464Y020189D01*
X036441Y020218D01*
X036421Y020249D01*
X036404Y020282D01*
X036390Y020317D01*
X036381Y020353D01*
X036375Y020390D01*
X036373Y020427D01*
X003696Y020427D02*
X003698Y020464D01*
X003704Y020501D01*
X003713Y020537D01*
X003727Y020572D01*
X003744Y020605D01*
X003764Y020636D01*
X003787Y020665D01*
X003814Y020692D01*
X003843Y020715D01*
X003874Y020735D01*
X003907Y020752D01*
X003942Y020766D01*
X003978Y020775D01*
X004015Y020781D01*
X004052Y020783D01*
X004089Y020781D01*
X004126Y020775D01*
X004162Y020766D01*
X004197Y020752D01*
X004230Y020735D01*
X004261Y020715D01*
X004290Y020692D01*
X004317Y020665D01*
X004340Y020636D01*
X004360Y020605D01*
X004377Y020572D01*
X004391Y020537D01*
X004400Y020501D01*
X004406Y020464D01*
X004408Y020427D01*
X004406Y020390D01*
X004400Y020353D01*
X004391Y020317D01*
X004377Y020282D01*
X004360Y020249D01*
X004340Y020218D01*
X004317Y020189D01*
X004290Y020162D01*
X004261Y020139D01*
X004230Y020119D01*
X004197Y020102D01*
X004162Y020088D01*
X004126Y020079D01*
X004089Y020073D01*
X004052Y020071D01*
X004015Y020073D01*
X003978Y020079D01*
X003942Y020088D01*
X003907Y020102D01*
X003874Y020119D01*
X003843Y020139D01*
X003814Y020162D01*
X003787Y020189D01*
X003764Y020218D01*
X003744Y020249D01*
X003727Y020282D01*
X003713Y020317D01*
X003704Y020353D01*
X003698Y020390D01*
X003696Y020427D01*
X003696Y003498D02*
X003698Y003535D01*
X003704Y003572D01*
X003713Y003608D01*
X003727Y003643D01*
X003744Y003676D01*
X003764Y003707D01*
X003787Y003736D01*
X003814Y003763D01*
X003843Y003786D01*
X003874Y003806D01*
X003907Y003823D01*
X003942Y003837D01*
X003978Y003846D01*
X004015Y003852D01*
X004052Y003854D01*
X004089Y003852D01*
X004126Y003846D01*
X004162Y003837D01*
X004197Y003823D01*
X004230Y003806D01*
X004261Y003786D01*
X004290Y003763D01*
X004317Y003736D01*
X004340Y003707D01*
X004360Y003676D01*
X004377Y003643D01*
X004391Y003608D01*
X004400Y003572D01*
X004406Y003535D01*
X004408Y003498D01*
X004406Y003461D01*
X004400Y003424D01*
X004391Y003388D01*
X004377Y003353D01*
X004360Y003320D01*
X004340Y003289D01*
X004317Y003260D01*
X004290Y003233D01*
X004261Y003210D01*
X004230Y003190D01*
X004197Y003173D01*
X004162Y003159D01*
X004126Y003150D01*
X004089Y003144D01*
X004052Y003142D01*
X004015Y003144D01*
X003978Y003150D01*
X003942Y003159D01*
X003907Y003173D01*
X003874Y003190D01*
X003843Y003210D01*
X003814Y003233D01*
X003787Y003260D01*
X003764Y003289D01*
X003744Y003320D01*
X003727Y003353D01*
X003713Y003388D01*
X003704Y003424D01*
X003698Y003461D01*
X003696Y003498D01*
D23*
X020922Y005013D03*
X020922Y005269D03*
X020922Y005525D03*
X020922Y005781D03*
X020922Y006037D03*
X020922Y006293D03*
X020922Y006549D03*
X020922Y006805D03*
X023225Y006805D03*
X023225Y006549D03*
X023225Y006293D03*
X023225Y006037D03*
X023225Y005781D03*
X023225Y005525D03*
X023225Y005269D03*
X023225Y005013D03*
X024761Y011027D03*
X024761Y011283D03*
X024761Y011539D03*
X024761Y011795D03*
X024761Y012051D03*
X024761Y012307D03*
X024761Y012563D03*
X024761Y012819D03*
X027064Y012819D03*
X027064Y012563D03*
X027064Y012307D03*
X027064Y012051D03*
X027064Y011795D03*
X027064Y011539D03*
X027064Y011283D03*
X027064Y011027D03*
X027064Y017041D03*
X027064Y017297D03*
X027064Y017553D03*
X027064Y017809D03*
X027064Y018065D03*
X027064Y018320D03*
X027064Y018576D03*
X027064Y018832D03*
X024761Y018832D03*
X024761Y018576D03*
X024761Y018320D03*
X024761Y018065D03*
X024761Y017809D03*
X024761Y017553D03*
X024761Y017297D03*
X024761Y017041D03*
D24*
X035599Y015742D03*
X036599Y015202D03*
X035599Y014662D03*
X036599Y014122D03*
X035599Y013582D03*
X036599Y013042D03*
X035599Y012502D03*
X036599Y011962D03*
X035599Y011422D03*
X036599Y010882D03*
X035599Y010342D03*
X036599Y009802D03*
X035599Y009262D03*
X036599Y008722D03*
X035599Y008182D03*
D25*
X002674Y002120D03*
X036099Y005402D03*
X038107Y002120D03*
X036099Y018522D03*
X038107Y021805D03*
X002674Y021805D03*
D26*
X004908Y007901D03*
X009003Y007901D03*
D27*
X008767Y008651D03*
X008767Y007151D03*
X008767Y006651D03*
X008767Y006151D03*
X008767Y005651D03*
X005144Y005651D03*
X005144Y006151D03*
X005144Y006651D03*
X005144Y007151D03*
X005144Y008651D03*
X005144Y015151D03*
X005144Y015651D03*
X005144Y016151D03*
X005144Y016651D03*
X005144Y017151D03*
X005144Y017651D03*
X005144Y018151D03*
X005144Y018651D03*
X008767Y018651D03*
X008767Y018151D03*
X008767Y017651D03*
X008767Y017151D03*
X008767Y016651D03*
X008767Y016151D03*
X008767Y015651D03*
X008767Y015151D03*
D28*
X009003Y005151D03*
X004908Y005151D03*
D29*
X031154Y005151D03*
X032257Y005151D03*
X032257Y003651D03*
X031154Y003651D03*
X031154Y006651D03*
X032257Y006651D03*
X032257Y008151D03*
X031154Y008151D03*
X031154Y009651D03*
X032257Y009651D03*
X032257Y011151D03*
X031154Y011151D03*
X031154Y012651D03*
X032257Y012651D03*
X032257Y014151D03*
X031154Y014151D03*
X031154Y015651D03*
X032257Y015651D03*
X032257Y017151D03*
X031154Y017151D03*
X031154Y018651D03*
X032257Y018651D03*
X032257Y020151D03*
X031154Y020151D03*
D30*
X029697Y018291D03*
X029697Y017917D03*
X029697Y017543D03*
X028752Y017543D03*
X028752Y017917D03*
X028752Y018291D03*
X028752Y012307D03*
X028752Y011933D03*
X028752Y011559D03*
X029697Y011559D03*
X029697Y011933D03*
X029697Y012307D03*
X029697Y006322D03*
X029697Y005948D03*
X029697Y005574D03*
X028752Y005574D03*
X028752Y005948D03*
X028752Y006322D03*
X016326Y005948D03*
X015381Y005948D03*
X015381Y005574D03*
X015381Y005200D03*
X016326Y005200D03*
D31*
X024780Y005141D03*
X024780Y005397D03*
X024780Y005653D03*
X024780Y005909D03*
X024780Y006165D03*
X024780Y006421D03*
X024780Y006677D03*
X027044Y006677D03*
X027044Y006421D03*
X027044Y006165D03*
X027044Y005909D03*
X027044Y005653D03*
X027044Y005397D03*
X027044Y005141D03*
D32*
X016547Y017937D03*
X016547Y018193D03*
X016547Y018448D03*
X016547Y018704D03*
X015061Y018704D03*
X015061Y018448D03*
X015061Y018193D03*
X015061Y017937D03*
D33*
X012006Y003904D03*
X011006Y003904D03*
X011006Y002998D03*
X012006Y002998D03*
D34*
X009606Y003451D03*
D35*
X008606Y003451D03*
X008891Y001462D03*
X009891Y001462D03*
X010891Y001462D03*
X011891Y001462D03*
X012891Y001462D03*
X013891Y001462D03*
X014891Y001462D03*
X015891Y001462D03*
X016891Y001462D03*
X017891Y001462D03*
X018891Y001462D03*
X019891Y001462D03*
X020891Y001462D03*
X021891Y001462D03*
X022891Y001462D03*
X023891Y001462D03*
X024891Y001462D03*
X025891Y001462D03*
X026891Y001462D03*
X027891Y001462D03*
X028891Y001462D03*
X029891Y001462D03*
X030891Y001462D03*
X031891Y001462D03*
X032891Y001462D03*
X033891Y001462D03*
X034891Y001462D03*
X033776Y008206D03*
X033776Y009206D03*
X033776Y010206D03*
X033891Y022462D03*
X034891Y022462D03*
X032891Y022462D03*
X031891Y022462D03*
X030891Y022462D03*
X029891Y022462D03*
X028891Y022462D03*
X027891Y022462D03*
X026891Y022462D03*
X025891Y022462D03*
X024891Y022462D03*
X023891Y022462D03*
X022891Y022462D03*
X021891Y022462D03*
X020891Y022462D03*
X019891Y022462D03*
X018891Y022462D03*
X017891Y022462D03*
X016891Y022462D03*
X015891Y022462D03*
X014891Y022462D03*
X013891Y022462D03*
X012891Y022462D03*
X011891Y022462D03*
X010891Y022462D03*
X009891Y022462D03*
X008891Y022462D03*
X007891Y022462D03*
X006891Y022462D03*
X005891Y022462D03*
X005891Y001462D03*
X006891Y001462D03*
X007891Y001462D03*
D36*
X011506Y003451D03*
X013506Y003051D03*
X013506Y003851D03*
X013906Y004651D03*
X015386Y004733D03*
X017536Y004679D03*
X019308Y004679D03*
X020282Y004821D03*
X020922Y004566D03*
X022074Y004757D03*
X022585Y005397D03*
X023801Y005205D03*
X024121Y004757D03*
X025336Y005525D03*
X025656Y005141D03*
X026680Y004694D03*
X027576Y005461D03*
X028009Y005948D03*
X027576Y006421D03*
X028663Y006790D03*
X029785Y006790D03*
X030391Y007381D03*
X031798Y007381D03*
X030533Y005948D03*
X029785Y005107D03*
X028663Y005107D03*
X027320Y003670D03*
X026936Y003158D03*
X027768Y003158D03*
X030582Y002902D03*
X031158Y002454D03*
X032822Y002902D03*
X026360Y006549D03*
X025912Y006165D03*
X023993Y006549D03*
X023801Y006037D03*
X022585Y006165D03*
X022649Y006677D03*
X021946Y006997D03*
X020794Y007734D03*
X020282Y007714D03*
X019515Y007828D03*
X018127Y007828D03*
X018028Y009009D03*
X017881Y009502D03*
X018028Y009994D03*
X017044Y010437D03*
X017487Y010683D03*
X017044Y010929D03*
X016552Y011126D03*
X016109Y010880D03*
X016552Y010633D03*
X015026Y010732D03*
X014633Y011421D03*
X014633Y011913D03*
X014633Y012405D03*
X014239Y012799D03*
X014583Y013193D03*
X014977Y013537D03*
X015469Y013389D03*
X015961Y013389D03*
X016454Y013586D03*
X016798Y013193D03*
X017143Y013586D03*
X017487Y013193D03*
X018619Y013931D03*
X018422Y014718D03*
X018767Y015063D03*
X017143Y014817D03*
X016896Y015259D03*
X016700Y015752D03*
X016207Y015899D03*
X016011Y015407D03*
X015814Y014915D03*
X014928Y014915D03*
X014387Y014964D03*
X014928Y015407D03*
X014928Y015899D03*
X013107Y015013D03*
X013993Y014374D03*
X013255Y013980D03*
X013009Y013439D03*
X011706Y013401D03*
X010106Y014551D03*
X011106Y015001D03*
X010406Y015651D03*
X010206Y016151D03*
X010006Y016651D03*
X012456Y017701D03*
X012456Y018201D03*
X012456Y018701D03*
X012406Y019201D03*
X012006Y019551D03*
X011006Y019551D03*
X009706Y019101D03*
X009156Y019351D03*
X008506Y019451D03*
X010906Y018251D03*
X014006Y019651D03*
X015806Y019351D03*
X016306Y019301D03*
X015580Y018448D03*
X015765Y017523D03*
X018006Y019501D03*
X019006Y019501D03*
X021080Y018901D03*
X022016Y017829D03*
X022202Y017041D03*
X021690Y017021D03*
X020676Y016593D03*
X020676Y016017D03*
X019898Y017228D03*
X023481Y017681D03*
X023865Y016913D03*
X023545Y016465D03*
X024505Y016465D03*
X025017Y016465D03*
X025528Y016465D03*
X026040Y016465D03*
X025336Y017233D03*
X025848Y018065D03*
X025400Y018320D03*
X025656Y018832D03*
X026168Y018768D03*
X026552Y019088D03*
X027064Y019536D03*
X027768Y019600D03*
X028663Y018759D03*
X029785Y018759D03*
X030533Y017917D03*
X029785Y017075D03*
X028663Y017075D03*
X028009Y017917D03*
X027640Y017489D03*
X027640Y018384D03*
X023481Y018448D03*
X020706Y021401D03*
X014006Y021301D03*
X012006Y021301D03*
X010006Y021301D03*
X009006Y021301D03*
X008006Y021701D03*
X007456Y021251D03*
X003006Y019151D03*
X003006Y018251D03*
X001806Y016151D03*
X003006Y015651D03*
X004331Y015151D03*
X008406Y014351D03*
X009581Y015151D03*
X013009Y012061D03*
X011706Y010951D03*
X013599Y010092D03*
X013206Y009698D03*
X012713Y009698D03*
X011706Y009751D03*
X013993Y009698D03*
X014583Y009108D03*
X015076Y009108D03*
X015961Y008714D03*
X016257Y009108D03*
X015863Y008222D03*
X013506Y008251D03*
X013506Y007451D03*
X015446Y006491D03*
X016946Y006549D03*
X021562Y006037D03*
X019515Y009180D03*
X020282Y009620D03*
X020794Y009620D03*
X020538Y010068D03*
X020666Y011283D03*
X020218Y011667D03*
X019800Y011322D03*
X020218Y012179D03*
X022010Y011283D03*
X022330Y012051D03*
X024185Y012755D03*
X025400Y012435D03*
X025528Y013266D03*
X026424Y012243D03*
X027640Y012499D03*
X028009Y011933D03*
X028663Y011091D03*
X029785Y011091D03*
X030533Y011933D03*
X029785Y012774D03*
X028663Y012774D03*
X027768Y013522D03*
X026814Y014351D03*
X027050Y015351D03*
X030391Y013394D03*
X031606Y013394D03*
X027384Y010515D03*
X027384Y009876D03*
X027128Y009364D03*
X025444Y010431D03*
X024633Y010323D03*
X024185Y010579D03*
X023737Y010323D03*
X023225Y010323D03*
X023097Y010899D03*
X024185Y011091D03*
X025528Y011475D03*
X026040Y011539D03*
X020676Y014226D03*
X020282Y013906D03*
X015863Y012110D03*
X015322Y012110D03*
X015322Y011618D03*
X009706Y006951D03*
X012206Y005651D03*
X017006Y002651D03*
X027384Y007317D03*
X032822Y020880D03*
D37*
X008406Y009551D03*
X004761Y011332D03*
X004761Y012592D03*
X003606Y007051D03*
X001806Y006951D03*
X003606Y004451D03*
X010306Y004451D03*
X010306Y007051D03*
X012106Y006951D03*
X033806Y006051D03*
X033806Y004551D03*
X033806Y003051D03*
M02*
