G75*
G70*
%OFA0B0*%
%FSLAX24Y24*%
%IPPOS*%
%LPD*%
%AMOC8*
5,1,8,0,0,1.08239X$1,22.5*
%
%ADD10C,0.0000*%
%ADD11C,0.0040*%
%ADD12C,0.0070*%
%ADD13C,0.0060*%
%ADD14R,0.0200X0.0736*%
%ADD15C,0.0050*%
%ADD16R,0.0250X0.0335*%
%ADD17R,0.0150X0.0200*%
%ADD18C,0.0120*%
%ADD19R,0.0200X0.1000*%
%ADD20R,0.0750X0.0300*%
%ADD21R,0.0200X0.0150*%
%ADD22R,0.0200X0.0800*%
%ADD23R,0.0250X0.0200*%
%ADD24C,0.0020*%
%ADD25R,0.1000X0.0200*%
%ADD26R,0.0300X0.0750*%
%ADD27C,0.0100*%
%ADD28C,0.0080*%
D10*
X000151Y000151D02*
X000151Y031647D01*
X039621Y031647D01*
X039621Y000151D01*
X000151Y000151D01*
X001100Y001651D02*
X001102Y001698D01*
X001108Y001744D01*
X001118Y001790D01*
X001131Y001835D01*
X001149Y001878D01*
X001170Y001920D01*
X001194Y001960D01*
X001222Y001997D01*
X001253Y002032D01*
X001287Y002065D01*
X001323Y002094D01*
X001362Y002120D01*
X001403Y002143D01*
X001446Y002162D01*
X001490Y002178D01*
X001535Y002190D01*
X001581Y002198D01*
X001628Y002202D01*
X001674Y002202D01*
X001721Y002198D01*
X001767Y002190D01*
X001812Y002178D01*
X001856Y002162D01*
X001899Y002143D01*
X001940Y002120D01*
X001979Y002094D01*
X002015Y002065D01*
X002049Y002032D01*
X002080Y001997D01*
X002108Y001960D01*
X002132Y001920D01*
X002153Y001878D01*
X002171Y001835D01*
X002184Y001790D01*
X002194Y001744D01*
X002200Y001698D01*
X002202Y001651D01*
X002200Y001604D01*
X002194Y001558D01*
X002184Y001512D01*
X002171Y001467D01*
X002153Y001424D01*
X002132Y001382D01*
X002108Y001342D01*
X002080Y001305D01*
X002049Y001270D01*
X002015Y001237D01*
X001979Y001208D01*
X001940Y001182D01*
X001899Y001159D01*
X001856Y001140D01*
X001812Y001124D01*
X001767Y001112D01*
X001721Y001104D01*
X001674Y001100D01*
X001628Y001100D01*
X001581Y001104D01*
X001535Y001112D01*
X001490Y001124D01*
X001446Y001140D01*
X001403Y001159D01*
X001362Y001182D01*
X001323Y001208D01*
X001287Y001237D01*
X001253Y001270D01*
X001222Y001305D01*
X001194Y001342D01*
X001170Y001382D01*
X001149Y001424D01*
X001131Y001467D01*
X001118Y001512D01*
X001108Y001558D01*
X001102Y001604D01*
X001100Y001651D01*
X001100Y030151D02*
X001102Y030198D01*
X001108Y030244D01*
X001118Y030290D01*
X001131Y030335D01*
X001149Y030378D01*
X001170Y030420D01*
X001194Y030460D01*
X001222Y030497D01*
X001253Y030532D01*
X001287Y030565D01*
X001323Y030594D01*
X001362Y030620D01*
X001403Y030643D01*
X001446Y030662D01*
X001490Y030678D01*
X001535Y030690D01*
X001581Y030698D01*
X001628Y030702D01*
X001674Y030702D01*
X001721Y030698D01*
X001767Y030690D01*
X001812Y030678D01*
X001856Y030662D01*
X001899Y030643D01*
X001940Y030620D01*
X001979Y030594D01*
X002015Y030565D01*
X002049Y030532D01*
X002080Y030497D01*
X002108Y030460D01*
X002132Y030420D01*
X002153Y030378D01*
X002171Y030335D01*
X002184Y030290D01*
X002194Y030244D01*
X002200Y030198D01*
X002202Y030151D01*
X002200Y030104D01*
X002194Y030058D01*
X002184Y030012D01*
X002171Y029967D01*
X002153Y029924D01*
X002132Y029882D01*
X002108Y029842D01*
X002080Y029805D01*
X002049Y029770D01*
X002015Y029737D01*
X001979Y029708D01*
X001940Y029682D01*
X001899Y029659D01*
X001856Y029640D01*
X001812Y029624D01*
X001767Y029612D01*
X001721Y029604D01*
X001674Y029600D01*
X001628Y029600D01*
X001581Y029604D01*
X001535Y029612D01*
X001490Y029624D01*
X001446Y029640D01*
X001403Y029659D01*
X001362Y029682D01*
X001323Y029708D01*
X001287Y029737D01*
X001253Y029770D01*
X001222Y029805D01*
X001194Y029842D01*
X001170Y029882D01*
X001149Y029924D01*
X001131Y029967D01*
X001118Y030012D01*
X001108Y030058D01*
X001102Y030104D01*
X001100Y030151D01*
X037600Y030151D02*
X037602Y030198D01*
X037608Y030244D01*
X037618Y030290D01*
X037631Y030335D01*
X037649Y030378D01*
X037670Y030420D01*
X037694Y030460D01*
X037722Y030497D01*
X037753Y030532D01*
X037787Y030565D01*
X037823Y030594D01*
X037862Y030620D01*
X037903Y030643D01*
X037946Y030662D01*
X037990Y030678D01*
X038035Y030690D01*
X038081Y030698D01*
X038128Y030702D01*
X038174Y030702D01*
X038221Y030698D01*
X038267Y030690D01*
X038312Y030678D01*
X038356Y030662D01*
X038399Y030643D01*
X038440Y030620D01*
X038479Y030594D01*
X038515Y030565D01*
X038549Y030532D01*
X038580Y030497D01*
X038608Y030460D01*
X038632Y030420D01*
X038653Y030378D01*
X038671Y030335D01*
X038684Y030290D01*
X038694Y030244D01*
X038700Y030198D01*
X038702Y030151D01*
X038700Y030104D01*
X038694Y030058D01*
X038684Y030012D01*
X038671Y029967D01*
X038653Y029924D01*
X038632Y029882D01*
X038608Y029842D01*
X038580Y029805D01*
X038549Y029770D01*
X038515Y029737D01*
X038479Y029708D01*
X038440Y029682D01*
X038399Y029659D01*
X038356Y029640D01*
X038312Y029624D01*
X038267Y029612D01*
X038221Y029604D01*
X038174Y029600D01*
X038128Y029600D01*
X038081Y029604D01*
X038035Y029612D01*
X037990Y029624D01*
X037946Y029640D01*
X037903Y029659D01*
X037862Y029682D01*
X037823Y029708D01*
X037787Y029737D01*
X037753Y029770D01*
X037722Y029805D01*
X037694Y029842D01*
X037670Y029882D01*
X037649Y029924D01*
X037631Y029967D01*
X037618Y030012D01*
X037608Y030058D01*
X037602Y030104D01*
X037600Y030151D01*
X037600Y001651D02*
X037602Y001698D01*
X037608Y001744D01*
X037618Y001790D01*
X037631Y001835D01*
X037649Y001878D01*
X037670Y001920D01*
X037694Y001960D01*
X037722Y001997D01*
X037753Y002032D01*
X037787Y002065D01*
X037823Y002094D01*
X037862Y002120D01*
X037903Y002143D01*
X037946Y002162D01*
X037990Y002178D01*
X038035Y002190D01*
X038081Y002198D01*
X038128Y002202D01*
X038174Y002202D01*
X038221Y002198D01*
X038267Y002190D01*
X038312Y002178D01*
X038356Y002162D01*
X038399Y002143D01*
X038440Y002120D01*
X038479Y002094D01*
X038515Y002065D01*
X038549Y002032D01*
X038580Y001997D01*
X038608Y001960D01*
X038632Y001920D01*
X038653Y001878D01*
X038671Y001835D01*
X038684Y001790D01*
X038694Y001744D01*
X038700Y001698D01*
X038702Y001651D01*
X038700Y001604D01*
X038694Y001558D01*
X038684Y001512D01*
X038671Y001467D01*
X038653Y001424D01*
X038632Y001382D01*
X038608Y001342D01*
X038580Y001305D01*
X038549Y001270D01*
X038515Y001237D01*
X038479Y001208D01*
X038440Y001182D01*
X038399Y001159D01*
X038356Y001140D01*
X038312Y001124D01*
X038267Y001112D01*
X038221Y001104D01*
X038174Y001100D01*
X038128Y001100D01*
X038081Y001104D01*
X038035Y001112D01*
X037990Y001124D01*
X037946Y001140D01*
X037903Y001159D01*
X037862Y001182D01*
X037823Y001208D01*
X037787Y001237D01*
X037753Y001270D01*
X037722Y001305D01*
X037694Y001342D01*
X037670Y001382D01*
X037649Y001424D01*
X037631Y001467D01*
X037618Y001512D01*
X037608Y001558D01*
X037602Y001604D01*
X037600Y001651D01*
D11*
X034123Y003740D02*
X034064Y003681D01*
X033948Y003681D01*
X033889Y003740D01*
X034006Y003856D02*
X034064Y003856D01*
X034123Y003798D01*
X034123Y003740D01*
X034064Y003856D02*
X034123Y003915D01*
X034123Y003973D01*
X034064Y004031D01*
X033948Y004031D01*
X033889Y003973D01*
X033764Y003856D02*
X033530Y003856D01*
X033705Y004031D01*
X033705Y003681D01*
X033405Y003681D02*
X033288Y003798D01*
X033346Y003798D02*
X033171Y003798D01*
X033171Y003681D02*
X033171Y004031D01*
X033346Y004031D01*
X033405Y003973D01*
X033405Y003856D01*
X033346Y003798D01*
X030123Y003856D02*
X029889Y003856D01*
X030064Y004031D01*
X030064Y003681D01*
X029764Y003856D02*
X029530Y003856D01*
X029705Y004031D01*
X029705Y003681D01*
X029405Y003681D02*
X029288Y003798D01*
X029346Y003798D02*
X029171Y003798D01*
X029171Y003681D02*
X029171Y004031D01*
X029346Y004031D01*
X029405Y003973D01*
X029405Y003856D01*
X029346Y003798D01*
X026621Y004671D02*
X026271Y004671D01*
X026271Y004846D01*
X026329Y004905D01*
X026446Y004905D01*
X026504Y004846D01*
X026504Y004671D01*
X026504Y004788D02*
X026621Y004905D01*
X026563Y005030D02*
X026621Y005089D01*
X026621Y005205D01*
X026563Y005264D01*
X026504Y005264D01*
X026446Y005205D01*
X026446Y005147D01*
X026446Y005205D02*
X026388Y005264D01*
X026329Y005264D01*
X026271Y005205D01*
X026271Y005089D01*
X026329Y005030D01*
X026271Y005389D02*
X026271Y005623D01*
X026329Y005623D01*
X026563Y005389D01*
X026621Y005389D01*
X023064Y009681D02*
X023123Y009740D01*
X023123Y009798D01*
X023064Y009856D01*
X022889Y009856D01*
X022889Y009740D01*
X022948Y009681D01*
X023064Y009681D01*
X022889Y009856D02*
X023006Y009973D01*
X023123Y010031D01*
X022764Y009973D02*
X022764Y009915D01*
X022705Y009856D01*
X022764Y009798D01*
X022764Y009740D01*
X022705Y009681D01*
X022589Y009681D01*
X022530Y009740D01*
X022405Y009681D02*
X022288Y009798D01*
X022346Y009798D02*
X022171Y009798D01*
X022171Y009681D02*
X022171Y010031D01*
X022346Y010031D01*
X022405Y009973D01*
X022405Y009856D01*
X022346Y009798D01*
X022530Y009973D02*
X022589Y010031D01*
X022705Y010031D01*
X022764Y009973D01*
X022705Y009856D02*
X022647Y009856D01*
X022589Y011181D02*
X022530Y011240D01*
X022589Y011181D02*
X022705Y011181D01*
X022764Y011240D01*
X022764Y011298D01*
X022705Y011356D01*
X022647Y011356D01*
X022705Y011356D02*
X022764Y011415D01*
X022764Y011473D01*
X022705Y011531D01*
X022589Y011531D01*
X022530Y011473D01*
X022405Y011473D02*
X022405Y011356D01*
X022346Y011298D01*
X022171Y011298D01*
X022171Y011181D02*
X022171Y011531D01*
X022346Y011531D01*
X022405Y011473D01*
X022288Y011298D02*
X022405Y011181D01*
X022889Y011240D02*
X022948Y011181D01*
X023064Y011181D01*
X023123Y011240D01*
X023123Y011356D01*
X023064Y011415D01*
X023006Y011415D01*
X022889Y011356D01*
X022889Y011531D01*
X023123Y011531D01*
X023064Y012681D02*
X023064Y013031D01*
X022889Y012856D01*
X023123Y012856D01*
X022764Y012798D02*
X022764Y012740D01*
X022705Y012681D01*
X022589Y012681D01*
X022530Y012740D01*
X022405Y012681D02*
X022288Y012798D01*
X022346Y012798D02*
X022171Y012798D01*
X022171Y012681D02*
X022171Y013031D01*
X022346Y013031D01*
X022405Y012973D01*
X022405Y012856D01*
X022346Y012798D01*
X022530Y012973D02*
X022589Y013031D01*
X022705Y013031D01*
X022764Y012973D01*
X022764Y012915D01*
X022705Y012856D01*
X022764Y012798D01*
X022705Y012856D02*
X022647Y012856D01*
X022589Y014181D02*
X022530Y014240D01*
X022589Y014181D02*
X022705Y014181D01*
X022764Y014240D01*
X022764Y014298D01*
X022705Y014356D01*
X022647Y014356D01*
X022705Y014356D02*
X022764Y014415D01*
X022764Y014473D01*
X022705Y014531D01*
X022589Y014531D01*
X022530Y014473D01*
X022405Y014473D02*
X022405Y014356D01*
X022346Y014298D01*
X022171Y014298D01*
X022171Y014181D02*
X022171Y014531D01*
X022346Y014531D01*
X022405Y014473D01*
X022288Y014298D02*
X022405Y014181D01*
X022889Y014240D02*
X022948Y014181D01*
X023064Y014181D01*
X023123Y014240D01*
X023123Y014298D01*
X023064Y014356D01*
X023006Y014356D01*
X023064Y014356D02*
X023123Y014415D01*
X023123Y014473D01*
X023064Y014531D01*
X022948Y014531D01*
X022889Y014473D01*
X025271Y012705D02*
X025329Y012764D01*
X025388Y012764D01*
X025446Y012705D01*
X025446Y012589D01*
X025388Y012530D01*
X025329Y012530D01*
X025271Y012589D01*
X025271Y012705D01*
X025446Y012705D02*
X025504Y012764D01*
X025563Y012764D01*
X025621Y012705D01*
X025621Y012589D01*
X025563Y012530D01*
X025504Y012530D01*
X025446Y012589D01*
X025446Y012405D02*
X025504Y012346D01*
X025504Y012171D01*
X025504Y012288D02*
X025621Y012405D01*
X025446Y012405D02*
X025329Y012405D01*
X025271Y012346D01*
X025271Y012171D01*
X025621Y012171D01*
X026771Y012171D02*
X026771Y012346D01*
X026829Y012405D01*
X026946Y012405D01*
X027004Y012346D01*
X027004Y012171D01*
X027004Y012288D02*
X027121Y012405D01*
X027121Y012530D02*
X027063Y012530D01*
X026829Y012764D01*
X026771Y012764D01*
X026771Y012530D01*
X026771Y012171D02*
X027121Y012171D01*
X032953Y017771D02*
X032953Y018121D01*
X033128Y018121D01*
X033186Y018063D01*
X033186Y017946D01*
X033128Y017888D01*
X032953Y017888D01*
X033070Y017888D02*
X033186Y017771D01*
X033312Y017830D02*
X033370Y017771D01*
X033487Y017771D01*
X033546Y017830D01*
X033546Y018063D01*
X033487Y018121D01*
X033370Y018121D01*
X033312Y018063D01*
X033312Y018005D01*
X033370Y017946D01*
X033546Y017946D01*
X037271Y017564D02*
X037271Y017448D01*
X037329Y017389D01*
X037388Y017389D01*
X037446Y017448D01*
X037446Y017623D01*
X037563Y017623D02*
X037329Y017623D01*
X037271Y017564D01*
X037563Y017623D02*
X037621Y017564D01*
X037621Y017448D01*
X037563Y017389D01*
X037446Y017264D02*
X037446Y017030D01*
X037271Y017205D01*
X037621Y017205D01*
X037621Y016905D02*
X037504Y016788D01*
X037504Y016846D02*
X037504Y016671D01*
X037621Y016671D02*
X037271Y016671D01*
X037271Y016846D01*
X037329Y016905D01*
X037446Y016905D01*
X037504Y016846D01*
X038671Y016478D02*
X038748Y016478D01*
X038901Y016325D01*
X039131Y016325D01*
X038901Y016325D02*
X038748Y016171D01*
X038671Y016171D01*
X038824Y016708D02*
X038824Y016862D01*
X038901Y016938D01*
X039131Y016938D01*
X039131Y016708D01*
X039054Y016632D01*
X038978Y016708D01*
X038978Y016938D01*
X039131Y017092D02*
X038824Y017092D01*
X038824Y017322D01*
X038901Y017399D01*
X039131Y017399D01*
X039054Y017629D02*
X038748Y017629D01*
X038824Y017552D02*
X038824Y017706D01*
X038824Y017859D02*
X039131Y017859D01*
X038978Y017859D02*
X038824Y018013D01*
X038824Y018089D01*
X038901Y018243D02*
X039054Y018243D01*
X039131Y018319D01*
X039131Y018473D01*
X039054Y018550D01*
X038901Y018550D01*
X038824Y018473D01*
X038824Y018319D01*
X038901Y018243D01*
X038824Y018703D02*
X038824Y018933D01*
X038901Y019010D01*
X039131Y019010D01*
X039131Y019163D02*
X039131Y019317D01*
X039131Y019240D02*
X038824Y019240D01*
X038824Y019163D01*
X038671Y019240D02*
X038594Y019240D01*
X038824Y019470D02*
X039131Y019777D01*
X039131Y019470D02*
X038824Y019777D01*
X038901Y020391D02*
X038901Y020544D01*
X038671Y020391D02*
X039131Y020391D01*
X039131Y020698D01*
X039054Y020851D02*
X039131Y020928D01*
X039131Y021082D01*
X039054Y021158D01*
X039054Y021312D02*
X038748Y021312D01*
X038671Y021388D01*
X038671Y021542D01*
X038748Y021619D01*
X038901Y021619D02*
X038901Y021465D01*
X038901Y021619D02*
X039054Y021619D01*
X039131Y021542D01*
X039131Y021388D01*
X039054Y021312D01*
X038748Y021158D02*
X038671Y021082D01*
X038671Y020928D01*
X038748Y020851D01*
X039054Y020851D01*
X038671Y020698D02*
X038671Y020391D01*
X037621Y021171D02*
X037271Y021171D01*
X037271Y021346D01*
X037329Y021405D01*
X037446Y021405D01*
X037504Y021346D01*
X037504Y021171D01*
X037504Y021288D02*
X037621Y021405D01*
X037446Y021530D02*
X037446Y021764D01*
X037563Y021889D02*
X037621Y021889D01*
X037563Y021889D02*
X037329Y022123D01*
X037271Y022123D01*
X037271Y021889D01*
X037271Y021705D02*
X037446Y021530D01*
X037621Y021705D02*
X037271Y021705D01*
X036121Y021705D02*
X035771Y021705D01*
X035946Y021530D01*
X035946Y021764D01*
X035888Y021889D02*
X035829Y021889D01*
X035771Y021948D01*
X035771Y022064D01*
X035829Y022123D01*
X035888Y022123D01*
X035946Y022064D01*
X035946Y021948D01*
X035888Y021889D01*
X035946Y021948D02*
X036004Y021889D01*
X036063Y021889D01*
X036121Y021948D01*
X036121Y022064D01*
X036063Y022123D01*
X036004Y022123D01*
X035946Y022064D01*
X035946Y021405D02*
X035829Y021405D01*
X035771Y021346D01*
X035771Y021171D01*
X036121Y021171D01*
X036004Y021171D02*
X036004Y021346D01*
X035946Y021405D01*
X036004Y021288D02*
X036121Y021405D01*
X035031Y022094D02*
X034681Y022094D01*
X034681Y022269D01*
X034739Y022327D01*
X034856Y022327D01*
X034914Y022269D01*
X034914Y022094D01*
X034914Y022211D02*
X035031Y022327D01*
X035031Y022453D02*
X035031Y022686D01*
X035031Y022570D02*
X034681Y022570D01*
X034798Y022453D01*
X034798Y022812D02*
X034681Y022929D01*
X035031Y022929D01*
X035031Y022812D02*
X035031Y023046D01*
X038671Y022846D02*
X039131Y022846D01*
X039131Y022693D02*
X039131Y023000D01*
X039131Y023153D02*
X039131Y023230D01*
X039054Y023230D01*
X039054Y023153D01*
X039131Y023153D01*
X039054Y023383D02*
X038748Y023383D01*
X038671Y023460D01*
X038671Y023614D01*
X038748Y023690D01*
X039054Y023383D01*
X039131Y023460D01*
X039131Y023614D01*
X039054Y023690D01*
X038748Y023690D01*
X038671Y022846D02*
X038824Y022693D01*
X038824Y022539D02*
X039131Y022386D01*
X038824Y022232D01*
X038824Y018703D02*
X039131Y018703D01*
X039131Y017706D02*
X039054Y017629D01*
X035987Y013621D02*
X035812Y013446D01*
X036046Y013446D01*
X035987Y013271D02*
X035987Y013621D01*
X035570Y013621D02*
X035570Y013271D01*
X035686Y013271D02*
X035453Y013271D01*
X035327Y013271D02*
X035211Y013388D01*
X035269Y013388D02*
X035094Y013388D01*
X035094Y013271D02*
X035094Y013621D01*
X035269Y013621D01*
X035327Y013563D01*
X035327Y013446D01*
X035269Y013388D01*
X035453Y013505D02*
X035570Y013621D01*
X035570Y011621D02*
X035570Y011271D01*
X035686Y011271D02*
X035453Y011271D01*
X035327Y011271D02*
X035211Y011388D01*
X035269Y011388D02*
X035094Y011388D01*
X035094Y011271D02*
X035094Y011621D01*
X035269Y011621D01*
X035327Y011563D01*
X035327Y011446D01*
X035269Y011388D01*
X035453Y011505D02*
X035570Y011621D01*
X035812Y011563D02*
X035870Y011621D01*
X035987Y011621D01*
X036046Y011563D01*
X036046Y011505D01*
X035987Y011446D01*
X036046Y011388D01*
X036046Y011330D01*
X035987Y011271D01*
X035870Y011271D01*
X035812Y011330D01*
X035929Y011446D02*
X035987Y011446D01*
X035889Y009031D02*
X036123Y009031D01*
X036123Y008973D01*
X035889Y008740D01*
X035889Y008681D01*
X035764Y008681D02*
X035530Y008681D01*
X035647Y008681D02*
X035647Y009031D01*
X035530Y008915D01*
X035405Y008973D02*
X035405Y008856D01*
X035346Y008798D01*
X035171Y008798D01*
X035171Y008681D02*
X035171Y009031D01*
X035346Y009031D01*
X035405Y008973D01*
X035288Y008798D02*
X035405Y008681D01*
X036771Y007123D02*
X036771Y006889D01*
X036946Y006889D01*
X036888Y007006D01*
X036888Y007064D01*
X036946Y007123D01*
X037063Y007123D01*
X037121Y007064D01*
X037121Y006948D01*
X037063Y006889D01*
X037121Y006764D02*
X037121Y006530D01*
X037121Y006647D02*
X036771Y006647D01*
X036888Y006530D01*
X036946Y006405D02*
X037004Y006346D01*
X037004Y006171D01*
X037004Y006288D02*
X037121Y006405D01*
X036946Y006405D02*
X036829Y006405D01*
X036771Y006346D01*
X036771Y006171D01*
X037121Y006171D01*
X038181Y006094D02*
X038181Y006269D01*
X038239Y006327D01*
X038356Y006327D01*
X038414Y006269D01*
X038414Y006094D01*
X038414Y006211D02*
X038531Y006327D01*
X038531Y006453D02*
X038531Y006686D01*
X038531Y006570D02*
X038181Y006570D01*
X038298Y006453D01*
X038356Y006812D02*
X038356Y006987D01*
X038414Y007046D01*
X038473Y007046D01*
X038531Y006987D01*
X038531Y006870D01*
X038473Y006812D01*
X038356Y006812D01*
X038239Y006929D01*
X038181Y007046D01*
X038181Y006094D02*
X038531Y006094D01*
X026531Y018594D02*
X026181Y018594D01*
X026181Y018769D01*
X026239Y018827D01*
X026356Y018827D01*
X026414Y018769D01*
X026414Y018594D01*
X026414Y018711D02*
X026531Y018827D01*
X026531Y018953D02*
X026531Y019186D01*
X026531Y019070D02*
X026181Y019070D01*
X026298Y018953D01*
X026239Y019312D02*
X026181Y019370D01*
X026181Y019487D01*
X026239Y019546D01*
X026473Y019312D01*
X026531Y019370D01*
X026531Y019487D01*
X026473Y019546D01*
X026239Y019546D01*
X026239Y019312D02*
X026473Y019312D01*
X024621Y019264D02*
X024621Y019030D01*
X024388Y019264D01*
X024329Y019264D01*
X024271Y019205D01*
X024271Y019089D01*
X024329Y019030D01*
X024329Y018905D02*
X024446Y018905D01*
X024504Y018846D01*
X024504Y018671D01*
X024504Y018788D02*
X024621Y018905D01*
X024621Y018671D02*
X024271Y018671D01*
X024271Y018846D01*
X024329Y018905D01*
X024329Y019389D02*
X024271Y019448D01*
X024271Y019564D01*
X024329Y019623D01*
X024388Y019623D01*
X024621Y019389D01*
X024621Y019623D01*
X023121Y019564D02*
X023121Y019448D01*
X023063Y019389D01*
X023121Y019264D02*
X023121Y019030D01*
X022888Y019264D01*
X022829Y019264D01*
X022771Y019205D01*
X022771Y019089D01*
X022829Y019030D01*
X022829Y018905D02*
X022946Y018905D01*
X023004Y018846D01*
X023004Y018671D01*
X023004Y018788D02*
X023121Y018905D01*
X023121Y018671D02*
X022771Y018671D01*
X022771Y018846D01*
X022829Y018905D01*
X022829Y019389D02*
X022771Y019448D01*
X022771Y019564D01*
X022829Y019623D01*
X022888Y019623D01*
X022946Y019564D01*
X023004Y019623D01*
X023063Y019623D01*
X023121Y019564D01*
X022946Y019564D02*
X022946Y019506D01*
X021621Y019564D02*
X021271Y019564D01*
X021446Y019389D01*
X021446Y019623D01*
X021388Y019264D02*
X021329Y019264D01*
X021271Y019205D01*
X021271Y019089D01*
X021329Y019030D01*
X021329Y018905D02*
X021446Y018905D01*
X021504Y018846D01*
X021504Y018671D01*
X021504Y018788D02*
X021621Y018905D01*
X021621Y019030D02*
X021388Y019264D01*
X021621Y019264D02*
X021621Y019030D01*
X021329Y018905D02*
X021271Y018846D01*
X021271Y018671D01*
X021621Y018671D01*
X020121Y018671D02*
X019771Y018671D01*
X019771Y018846D01*
X019829Y018905D01*
X019946Y018905D01*
X020004Y018846D01*
X020004Y018671D01*
X020004Y018788D02*
X020121Y018905D01*
X020121Y019030D02*
X019888Y019264D01*
X019829Y019264D01*
X019771Y019205D01*
X019771Y019089D01*
X019829Y019030D01*
X020121Y019030D02*
X020121Y019264D01*
X020063Y019389D02*
X020121Y019448D01*
X020121Y019564D01*
X020063Y019623D01*
X019946Y019623D01*
X019888Y019564D01*
X019888Y019506D01*
X019946Y019389D01*
X019771Y019389D01*
X019771Y019623D01*
X019827Y021771D02*
X019711Y021888D01*
X019769Y021888D02*
X019594Y021888D01*
X019594Y021771D02*
X019594Y022121D01*
X019769Y022121D01*
X019827Y022063D01*
X019827Y021946D01*
X019769Y021888D01*
X019953Y021771D02*
X020186Y022005D01*
X020186Y022063D01*
X020128Y022121D01*
X020011Y022121D01*
X019953Y022063D01*
X019953Y021771D02*
X020186Y021771D01*
X020312Y021830D02*
X020370Y021771D01*
X020487Y021771D01*
X020546Y021830D01*
X020546Y022063D01*
X020487Y022121D01*
X020370Y022121D01*
X020312Y022063D01*
X020312Y022005D01*
X020370Y021946D01*
X020546Y021946D01*
X020487Y023271D02*
X020370Y023271D01*
X020312Y023330D01*
X020312Y023388D01*
X020370Y023446D01*
X020487Y023446D01*
X020546Y023388D01*
X020546Y023330D01*
X020487Y023271D01*
X020487Y023446D02*
X020546Y023505D01*
X020546Y023563D01*
X020487Y023621D01*
X020370Y023621D01*
X020312Y023563D01*
X020312Y023505D01*
X020370Y023446D01*
X020186Y023505D02*
X020186Y023563D01*
X020128Y023621D01*
X020011Y023621D01*
X019953Y023563D01*
X019827Y023563D02*
X019827Y023446D01*
X019769Y023388D01*
X019594Y023388D01*
X019711Y023388D02*
X019827Y023271D01*
X019953Y023271D02*
X020186Y023505D01*
X020186Y023271D02*
X019953Y023271D01*
X019827Y023563D02*
X019769Y023621D01*
X019594Y023621D01*
X019594Y023271D01*
X019594Y024771D02*
X019594Y025121D01*
X019769Y025121D01*
X019827Y025063D01*
X019827Y024946D01*
X019769Y024888D01*
X019594Y024888D01*
X019711Y024888D02*
X019827Y024771D01*
X019953Y024771D02*
X020186Y025005D01*
X020186Y025063D01*
X020128Y025121D01*
X020011Y025121D01*
X019953Y025063D01*
X019953Y024771D02*
X020186Y024771D01*
X020312Y024771D02*
X020312Y024830D01*
X020546Y025063D01*
X020546Y025121D01*
X020312Y025121D01*
X020370Y026271D02*
X020487Y026271D01*
X020546Y026330D01*
X020546Y026388D01*
X020487Y026446D01*
X020312Y026446D01*
X020312Y026330D01*
X020370Y026271D01*
X020186Y026271D02*
X019953Y026271D01*
X020186Y026505D01*
X020186Y026563D01*
X020128Y026621D01*
X020011Y026621D01*
X019953Y026563D01*
X019827Y026563D02*
X019827Y026446D01*
X019769Y026388D01*
X019594Y026388D01*
X019711Y026388D02*
X019827Y026271D01*
X019594Y026271D02*
X019594Y026621D01*
X019769Y026621D01*
X019827Y026563D01*
X020312Y026446D02*
X020429Y026563D01*
X020546Y026621D01*
X020546Y027771D02*
X020312Y027771D01*
X020546Y028005D01*
X020546Y028063D01*
X020487Y028121D01*
X020370Y028121D01*
X020312Y028063D01*
X020186Y028063D02*
X020186Y028005D01*
X020128Y027946D01*
X020186Y027888D01*
X020186Y027830D01*
X020128Y027771D01*
X020011Y027771D01*
X019953Y027830D01*
X019827Y027771D02*
X019711Y027888D01*
X019769Y027888D02*
X019594Y027888D01*
X019594Y027771D02*
X019594Y028121D01*
X019769Y028121D01*
X019827Y028063D01*
X019827Y027946D01*
X019769Y027888D01*
X019953Y028063D02*
X020011Y028121D01*
X020128Y028121D01*
X020186Y028063D01*
X020128Y027946D02*
X020070Y027946D01*
X022681Y027929D02*
X023031Y027929D01*
X023031Y027812D02*
X023031Y028046D01*
X022798Y027812D02*
X022681Y027929D01*
X022739Y027686D02*
X022681Y027628D01*
X022681Y027511D01*
X022739Y027453D01*
X022739Y027327D02*
X022681Y027269D01*
X022681Y027094D01*
X023031Y027094D01*
X022914Y027094D02*
X022914Y027269D01*
X022856Y027327D01*
X022739Y027327D01*
X022914Y027211D02*
X023031Y027327D01*
X022973Y027453D02*
X023031Y027511D01*
X023031Y027628D01*
X022973Y027686D01*
X022914Y027686D01*
X022856Y027628D01*
X022856Y027570D01*
X022856Y027628D02*
X022798Y027686D01*
X022739Y027686D01*
X025739Y024546D02*
X025973Y024312D01*
X026031Y024370D01*
X026031Y024487D01*
X025973Y024546D01*
X025739Y024546D01*
X025681Y024487D01*
X025681Y024370D01*
X025739Y024312D01*
X025973Y024312D01*
X025973Y024186D02*
X026031Y024128D01*
X026031Y024011D01*
X025973Y023953D01*
X026031Y023827D02*
X025914Y023711D01*
X025914Y023769D02*
X025914Y023594D01*
X026031Y023594D02*
X025681Y023594D01*
X025681Y023769D01*
X025739Y023827D01*
X025856Y023827D01*
X025914Y023769D01*
X025739Y023953D02*
X025681Y024011D01*
X025681Y024128D01*
X025739Y024186D01*
X025798Y024186D01*
X025856Y024128D01*
X025914Y024186D01*
X025973Y024186D01*
X025856Y024128D02*
X025856Y024070D01*
X026329Y023623D02*
X026271Y023564D01*
X026271Y023448D01*
X026329Y023389D01*
X026329Y023623D02*
X026388Y023623D01*
X026621Y023389D01*
X026621Y023623D01*
X026621Y023264D02*
X026621Y023030D01*
X026621Y023147D02*
X026271Y023147D01*
X026388Y023030D01*
X026446Y022905D02*
X026504Y022846D01*
X026504Y022671D01*
X026504Y022788D02*
X026621Y022905D01*
X026446Y022905D02*
X026329Y022905D01*
X026271Y022846D01*
X026271Y022671D01*
X026621Y022671D01*
X016031Y026594D02*
X015681Y026594D01*
X015681Y026769D01*
X015739Y026827D01*
X015856Y026827D01*
X015914Y026769D01*
X015914Y026594D01*
X015914Y026711D02*
X016031Y026827D01*
X015973Y026953D02*
X016031Y027011D01*
X016031Y027128D01*
X015973Y027186D01*
X015914Y027186D01*
X015856Y027128D01*
X015856Y027070D01*
X015856Y027128D02*
X015798Y027186D01*
X015739Y027186D01*
X015681Y027128D01*
X015681Y027011D01*
X015739Y026953D01*
X015739Y027312D02*
X015798Y027312D01*
X015856Y027370D01*
X015856Y027487D01*
X015914Y027546D01*
X015973Y027546D01*
X016031Y027487D01*
X016031Y027370D01*
X015973Y027312D01*
X015914Y027312D01*
X015856Y027370D01*
X015856Y027487D02*
X015798Y027546D01*
X015739Y027546D01*
X015681Y027487D01*
X015681Y027370D01*
X015739Y027312D01*
X014531Y027370D02*
X014473Y027312D01*
X014531Y027370D02*
X014531Y027487D01*
X014473Y027546D01*
X014239Y027546D01*
X014181Y027487D01*
X014181Y027370D01*
X014239Y027312D01*
X014298Y027312D01*
X014356Y027370D01*
X014356Y027546D01*
X014298Y027186D02*
X014356Y027128D01*
X014414Y027186D01*
X014473Y027186D01*
X014531Y027128D01*
X014531Y027011D01*
X014473Y026953D01*
X014531Y026827D02*
X014414Y026711D01*
X014414Y026769D02*
X014414Y026594D01*
X014531Y026594D02*
X014181Y026594D01*
X014181Y026769D01*
X014239Y026827D01*
X014356Y026827D01*
X014414Y026769D01*
X014239Y026953D02*
X014181Y027011D01*
X014181Y027128D01*
X014239Y027186D01*
X014298Y027186D01*
X014356Y027128D02*
X014356Y027070D01*
X012121Y026564D02*
X012121Y026448D01*
X012063Y026389D01*
X011829Y026623D01*
X012063Y026623D01*
X012121Y026564D01*
X012063Y026389D02*
X011829Y026389D01*
X011771Y026448D01*
X011771Y026564D01*
X011829Y026623D01*
X011946Y026264D02*
X011946Y026030D01*
X011771Y026205D01*
X012121Y026205D01*
X012121Y025905D02*
X012004Y025788D01*
X012004Y025846D02*
X012004Y025671D01*
X012121Y025671D02*
X011771Y025671D01*
X011771Y025846D01*
X011829Y025905D01*
X011946Y025905D01*
X012004Y025846D01*
X010621Y025905D02*
X010504Y025788D01*
X010504Y025846D02*
X010504Y025671D01*
X010621Y025671D02*
X010271Y025671D01*
X010271Y025846D01*
X010329Y025905D01*
X010446Y025905D01*
X010504Y025846D01*
X010446Y026030D02*
X010446Y026264D01*
X010388Y026389D02*
X010271Y026506D01*
X010621Y026506D01*
X010621Y026389D02*
X010621Y026623D01*
X010621Y026205D02*
X010271Y026205D01*
X010446Y026030D01*
X011953Y023621D02*
X012128Y023621D01*
X012186Y023563D01*
X012186Y023446D01*
X012128Y023388D01*
X011953Y023388D01*
X012070Y023388D02*
X012186Y023271D01*
X012312Y023271D02*
X012546Y023271D01*
X012429Y023271D02*
X012429Y023621D01*
X012312Y023505D01*
X011953Y023621D02*
X011953Y023271D01*
X005621Y027171D02*
X005271Y027171D01*
X005271Y027346D01*
X005329Y027405D01*
X005446Y027405D01*
X005504Y027346D01*
X005504Y027171D01*
X005504Y027288D02*
X005621Y027405D01*
X005563Y027530D02*
X005621Y027589D01*
X005621Y027705D01*
X005563Y027764D01*
X005446Y027764D01*
X005388Y027705D01*
X005388Y027647D01*
X005446Y027530D01*
X005271Y027530D01*
X005271Y027764D01*
X005388Y027889D02*
X005271Y028006D01*
X005621Y028006D01*
X005621Y027889D02*
X005621Y028123D01*
X004121Y028064D02*
X004121Y027948D01*
X004063Y027889D01*
X003829Y028123D01*
X004063Y028123D01*
X004121Y028064D01*
X004063Y027889D02*
X003829Y027889D01*
X003771Y027948D01*
X003771Y028064D01*
X003829Y028123D01*
X003771Y027764D02*
X003771Y027530D01*
X003946Y027530D01*
X003888Y027647D01*
X003888Y027705D01*
X003946Y027764D01*
X004063Y027764D01*
X004121Y027705D01*
X004121Y027589D01*
X004063Y027530D01*
X004121Y027405D02*
X004004Y027288D01*
X004004Y027346D02*
X004004Y027171D01*
X004121Y027171D02*
X003771Y027171D01*
X003771Y027346D01*
X003829Y027405D01*
X003946Y027405D01*
X004004Y027346D01*
X011453Y017621D02*
X011628Y017621D01*
X011686Y017563D01*
X011686Y017446D01*
X011628Y017388D01*
X011453Y017388D01*
X011570Y017388D02*
X011686Y017271D01*
X011812Y017330D02*
X011870Y017271D01*
X011987Y017271D01*
X012046Y017330D01*
X012046Y017388D01*
X011987Y017446D01*
X011929Y017446D01*
X011987Y017446D02*
X012046Y017505D01*
X012046Y017563D01*
X011987Y017621D01*
X011870Y017621D01*
X011812Y017563D01*
X011453Y017621D02*
X011453Y017271D01*
X014953Y015621D02*
X014953Y015271D01*
X014953Y015388D02*
X015128Y015388D01*
X015186Y015446D01*
X015186Y015563D01*
X015128Y015621D01*
X014953Y015621D01*
X015070Y015388D02*
X015186Y015271D01*
X015312Y015330D02*
X015370Y015271D01*
X015487Y015271D01*
X015546Y015330D01*
X015546Y015388D01*
X015487Y015446D01*
X015312Y015446D01*
X015312Y015330D01*
X015312Y015446D02*
X015429Y015563D01*
X015546Y015621D01*
X015453Y017271D02*
X015453Y017621D01*
X015628Y017621D01*
X015686Y017563D01*
X015686Y017446D01*
X015628Y017388D01*
X015453Y017388D01*
X015570Y017388D02*
X015686Y017271D01*
X015812Y017271D02*
X016046Y017505D01*
X016046Y017563D01*
X015987Y017621D01*
X015870Y017621D01*
X015812Y017563D01*
X015812Y017271D02*
X016046Y017271D01*
X014264Y011031D02*
X014030Y011031D01*
X014030Y010856D01*
X014147Y010915D01*
X014205Y010915D01*
X014264Y010856D01*
X014264Y010740D01*
X014205Y010681D01*
X014089Y010681D01*
X014030Y010740D01*
X013905Y010681D02*
X013788Y010798D01*
X013846Y010798D02*
X013671Y010798D01*
X013671Y010681D02*
X013671Y011031D01*
X013846Y011031D01*
X013905Y010973D01*
X013905Y010856D01*
X013846Y010798D01*
X011631Y008188D02*
X011631Y007882D01*
X011631Y008035D02*
X011171Y008035D01*
X011324Y007882D01*
X011631Y007728D02*
X011631Y007421D01*
X011171Y007421D01*
X009768Y007478D02*
X009768Y007555D01*
X009691Y007632D01*
X009537Y007632D01*
X009461Y007555D01*
X009768Y007478D02*
X009461Y007171D01*
X009768Y007171D01*
X009307Y007171D02*
X009000Y007171D01*
X009000Y007632D01*
X006623Y007181D02*
X006389Y007181D01*
X006506Y007181D02*
X006506Y007531D01*
X006389Y007415D01*
X006264Y007415D02*
X006030Y007181D01*
X006264Y007181D01*
X006264Y007415D02*
X006264Y007473D01*
X006205Y007531D01*
X006089Y007531D01*
X006030Y007473D01*
X005905Y007473D02*
X005905Y007356D01*
X005846Y007298D01*
X005671Y007298D01*
X005671Y007181D02*
X005671Y007531D01*
X005846Y007531D01*
X005905Y007473D01*
X005788Y007298D02*
X005905Y007181D01*
X005846Y006031D02*
X005905Y005973D01*
X005905Y005856D01*
X005846Y005798D01*
X005671Y005798D01*
X005671Y005681D02*
X005671Y006031D01*
X005846Y006031D01*
X006030Y005973D02*
X006089Y006031D01*
X006205Y006031D01*
X006264Y005973D01*
X006264Y005915D01*
X006030Y005681D01*
X006264Y005681D01*
X006389Y005740D02*
X006623Y005973D01*
X006623Y005740D01*
X006564Y005681D01*
X006448Y005681D01*
X006389Y005740D01*
X006389Y005973D01*
X006448Y006031D01*
X006564Y006031D01*
X006623Y005973D01*
X005905Y005681D02*
X005788Y005798D01*
X005846Y004531D02*
X005905Y004473D01*
X005905Y004356D01*
X005846Y004298D01*
X005671Y004298D01*
X005671Y004181D02*
X005671Y004531D01*
X005846Y004531D01*
X006030Y004415D02*
X006147Y004531D01*
X006147Y004181D01*
X006030Y004181D02*
X006264Y004181D01*
X006389Y004240D02*
X006448Y004181D01*
X006564Y004181D01*
X006623Y004240D01*
X006623Y004473D01*
X006564Y004531D01*
X006448Y004531D01*
X006389Y004473D01*
X006389Y004415D01*
X006448Y004356D01*
X006623Y004356D01*
X005905Y004181D02*
X005788Y004298D01*
X008671Y010681D02*
X008671Y011031D01*
X008846Y011031D01*
X008905Y010973D01*
X008905Y010856D01*
X008846Y010798D01*
X008671Y010798D01*
X008788Y010798D02*
X008905Y010681D01*
X009030Y010856D02*
X009264Y010856D01*
X009205Y010681D02*
X009205Y011031D01*
X009030Y010856D01*
X005564Y014681D02*
X005448Y014681D01*
X005389Y014740D01*
X005264Y014740D02*
X005205Y014681D01*
X005089Y014681D01*
X005030Y014740D01*
X005030Y014856D02*
X005147Y014915D01*
X005205Y014915D01*
X005264Y014856D01*
X005264Y014740D01*
X005030Y014856D02*
X005030Y015031D01*
X005264Y015031D01*
X005389Y014973D02*
X005448Y015031D01*
X005564Y015031D01*
X005623Y014973D01*
X005623Y014915D01*
X005564Y014856D01*
X005623Y014798D01*
X005623Y014740D01*
X005564Y014681D01*
X005564Y014856D02*
X005506Y014856D01*
X004905Y014856D02*
X004905Y014973D01*
X004846Y015031D01*
X004671Y015031D01*
X004671Y014681D01*
X004671Y014798D02*
X004846Y014798D01*
X004905Y014856D01*
X004788Y014798D02*
X004905Y014681D01*
X004827Y016271D02*
X004711Y016388D01*
X004769Y016388D02*
X004594Y016388D01*
X004594Y016271D02*
X004594Y016621D01*
X004769Y016621D01*
X004827Y016563D01*
X004827Y016446D01*
X004769Y016388D01*
X004953Y016446D02*
X004953Y016621D01*
X005186Y016621D01*
X005128Y016505D02*
X005186Y016446D01*
X005186Y016330D01*
X005128Y016271D01*
X005011Y016271D01*
X004953Y016330D01*
X004953Y016446D02*
X005070Y016505D01*
X005128Y016505D01*
X005312Y016563D02*
X005370Y016621D01*
X005487Y016621D01*
X005546Y016563D01*
X005546Y016505D01*
X005312Y016271D01*
X005546Y016271D01*
X014681Y005487D02*
X014856Y005312D01*
X014856Y005546D01*
X015031Y005487D02*
X014681Y005487D01*
X014681Y005186D02*
X014681Y004953D01*
X014856Y004953D01*
X014798Y005070D01*
X014798Y005128D01*
X014856Y005186D01*
X014973Y005186D01*
X015031Y005128D01*
X015031Y005011D01*
X014973Y004953D01*
X015031Y004827D02*
X014914Y004711D01*
X014914Y004769D02*
X014914Y004594D01*
X015031Y004594D02*
X014681Y004594D01*
X014681Y004769D01*
X014739Y004827D01*
X014856Y004827D01*
X014914Y004769D01*
X016181Y004769D02*
X016239Y004827D01*
X016356Y004827D01*
X016414Y004769D01*
X016414Y004594D01*
X016414Y004711D02*
X016531Y004827D01*
X016531Y004953D02*
X016531Y005186D01*
X016531Y005070D02*
X016181Y005070D01*
X016298Y004953D01*
X016181Y004769D02*
X016181Y004594D01*
X016531Y004594D01*
X016473Y005312D02*
X016414Y005312D01*
X016356Y005370D01*
X016356Y005487D01*
X016414Y005546D01*
X016473Y005546D01*
X016531Y005487D01*
X016531Y005370D01*
X016473Y005312D01*
X016356Y005370D02*
X016298Y005312D01*
X016239Y005312D01*
X016181Y005370D01*
X016181Y005487D01*
X016239Y005546D01*
X016298Y005546D01*
X016356Y005487D01*
D12*
X018950Y014686D02*
X018950Y015081D01*
X019213Y015345D01*
X019213Y015477D01*
X019478Y015213D02*
X019742Y015477D01*
X020005Y015213D01*
X020005Y014686D01*
X020270Y014686D02*
X020270Y015477D01*
X020797Y014686D01*
X020797Y015477D01*
X021062Y015477D02*
X021589Y015477D01*
X021325Y015477D02*
X021325Y014686D01*
X021854Y014686D02*
X021854Y015477D01*
X022249Y015477D01*
X022381Y015345D01*
X022381Y015081D01*
X022249Y014950D01*
X021854Y014950D01*
X022117Y014950D02*
X022381Y014686D01*
X022645Y014818D02*
X022777Y014686D01*
X023041Y014686D01*
X023173Y014818D01*
X023173Y015345D01*
X023041Y015477D01*
X022777Y015477D01*
X022645Y015345D01*
X022645Y014818D01*
X023437Y014686D02*
X023437Y015477D01*
X023964Y014686D01*
X023964Y015477D01*
X024229Y015477D02*
X024493Y015477D01*
X024361Y015477D02*
X024361Y014686D01*
X024229Y014686D02*
X024493Y014686D01*
X024757Y014686D02*
X025284Y015477D01*
X024757Y015477D02*
X025284Y014686D01*
X020005Y015081D02*
X019478Y015081D01*
X019478Y015213D02*
X019478Y014686D01*
X018950Y015081D02*
X018686Y015345D01*
X018686Y015477D01*
D13*
X018901Y016151D02*
X018651Y016401D01*
X018401Y016151D01*
X017901Y016151D01*
X017651Y016401D01*
X017651Y016901D01*
X017901Y017151D01*
X018401Y017151D01*
X018651Y016901D01*
X018901Y017151D01*
X019401Y017151D01*
X019651Y016901D01*
X019901Y017151D01*
X020401Y017151D01*
X020651Y016901D01*
X020901Y017151D01*
X021401Y017151D01*
X021651Y016901D01*
X021901Y017151D01*
X022401Y017151D01*
X022651Y016901D01*
X022901Y017151D01*
X023401Y017151D01*
X023651Y016901D01*
X023901Y017151D01*
X024401Y017151D01*
X024651Y016901D01*
X024901Y017151D01*
X025401Y017151D01*
X025651Y016901D01*
X025651Y016401D01*
X025401Y016151D01*
X024901Y016151D01*
X024651Y016401D01*
X024401Y016151D01*
X023901Y016151D01*
X023651Y016401D01*
X023401Y016151D01*
X022901Y016151D01*
X022651Y016401D01*
X022401Y016151D01*
X021901Y016151D01*
X021651Y016401D01*
X021401Y016151D01*
X020901Y016151D01*
X020651Y016401D01*
X020401Y016151D01*
X019901Y016151D01*
X019651Y016401D01*
X019401Y016151D01*
X018901Y016151D01*
X017651Y015551D02*
X017551Y015651D01*
X016751Y015651D01*
X016651Y015551D01*
X016651Y014751D01*
X016751Y014651D01*
X016651Y014551D01*
X016651Y013751D01*
X016751Y013651D01*
X017551Y013651D01*
X017651Y013751D01*
X017651Y014551D01*
X017551Y014651D01*
X017651Y014751D01*
X017651Y015551D01*
X016151Y014301D02*
X016151Y012001D01*
X012151Y012001D01*
X012151Y012751D01*
X012190Y012753D01*
X012229Y012759D01*
X012267Y012768D01*
X012304Y012781D01*
X012340Y012798D01*
X012373Y012818D01*
X012405Y012842D01*
X012434Y012868D01*
X012460Y012897D01*
X012484Y012929D01*
X012504Y012962D01*
X012521Y012998D01*
X012534Y013035D01*
X012543Y013073D01*
X012549Y013112D01*
X012551Y013151D01*
X012549Y013190D01*
X012543Y013229D01*
X012534Y013267D01*
X012521Y013304D01*
X012504Y013340D01*
X012484Y013373D01*
X012460Y013405D01*
X012434Y013434D01*
X012405Y013460D01*
X012373Y013484D01*
X012340Y013504D01*
X012304Y013521D01*
X012267Y013534D01*
X012229Y013543D01*
X012190Y013549D01*
X012151Y013551D01*
X012151Y014301D01*
X016151Y014301D01*
X015551Y015751D02*
X015401Y015751D01*
X015351Y015801D01*
X013951Y015801D01*
X013901Y015751D01*
X013751Y015751D01*
X013734Y015753D01*
X013717Y015757D01*
X013701Y015764D01*
X013687Y015774D01*
X013674Y015787D01*
X013664Y015801D01*
X013657Y015817D01*
X013653Y015834D01*
X013651Y015851D01*
X013651Y016451D01*
X013653Y016468D01*
X013657Y016485D01*
X013664Y016501D01*
X013674Y016515D01*
X013687Y016528D01*
X013701Y016538D01*
X013717Y016545D01*
X013734Y016549D01*
X013751Y016551D01*
X013901Y016551D01*
X013951Y016501D01*
X015351Y016501D01*
X015401Y016551D01*
X015551Y016551D01*
X015568Y016549D01*
X015585Y016545D01*
X015601Y016538D01*
X015615Y016528D01*
X015628Y016515D01*
X015638Y016501D01*
X015645Y016485D01*
X015649Y016468D01*
X015651Y016451D01*
X015651Y015851D01*
X015649Y015834D01*
X015645Y015817D01*
X015638Y015801D01*
X015628Y015787D01*
X015615Y015774D01*
X015601Y015764D01*
X015585Y015757D01*
X015568Y015753D01*
X015551Y015751D01*
X015901Y017751D02*
X015851Y017801D01*
X014451Y017801D01*
X014401Y017751D01*
X014251Y017751D01*
X014234Y017753D01*
X014217Y017757D01*
X014201Y017764D01*
X014187Y017774D01*
X014174Y017787D01*
X014164Y017801D01*
X014157Y017817D01*
X014153Y017834D01*
X014151Y017851D01*
X014151Y018451D01*
X014153Y018468D01*
X014157Y018485D01*
X014164Y018501D01*
X014174Y018515D01*
X014187Y018528D01*
X014201Y018538D01*
X014217Y018545D01*
X014234Y018549D01*
X014251Y018551D01*
X014401Y018551D01*
X014451Y018501D01*
X015851Y018501D01*
X015901Y018551D01*
X016051Y018551D01*
X016068Y018549D01*
X016085Y018545D01*
X016101Y018538D01*
X016115Y018528D01*
X016128Y018515D01*
X016138Y018501D01*
X016145Y018485D01*
X016149Y018468D01*
X016151Y018451D01*
X016151Y017851D01*
X016149Y017834D01*
X016145Y017817D01*
X016138Y017801D01*
X016128Y017787D01*
X016115Y017774D01*
X016101Y017764D01*
X016085Y017757D01*
X016068Y017753D01*
X016051Y017751D01*
X015901Y017751D01*
X018151Y018251D02*
X018251Y018151D01*
X019051Y018151D01*
X019151Y018251D01*
X019151Y019051D01*
X019051Y019151D01*
X019151Y019251D01*
X019151Y020051D01*
X019051Y020151D01*
X019151Y020251D01*
X019151Y021051D01*
X019051Y021151D01*
X018251Y021151D01*
X018151Y021051D01*
X018151Y020251D01*
X018251Y020151D01*
X018151Y020051D01*
X018151Y019251D01*
X018251Y019151D01*
X018151Y019051D01*
X018151Y018251D01*
X020251Y018751D02*
X020251Y018901D01*
X020301Y018951D01*
X020301Y020351D01*
X020251Y020401D01*
X020251Y020551D01*
X020253Y020568D01*
X020257Y020585D01*
X020264Y020601D01*
X020274Y020615D01*
X020287Y020628D01*
X020301Y020638D01*
X020317Y020645D01*
X020334Y020649D01*
X020351Y020651D01*
X020951Y020651D01*
X020968Y020649D01*
X020985Y020645D01*
X021001Y020638D01*
X021015Y020628D01*
X021028Y020615D01*
X021038Y020601D01*
X021045Y020585D01*
X021049Y020568D01*
X021051Y020551D01*
X021051Y020401D01*
X021001Y020351D01*
X021001Y018951D01*
X021051Y018901D01*
X021051Y018751D01*
X021049Y018734D01*
X021045Y018717D01*
X021038Y018701D01*
X021028Y018687D01*
X021015Y018674D01*
X021001Y018664D01*
X020985Y018657D01*
X020968Y018653D01*
X020951Y018651D01*
X020351Y018651D01*
X020334Y018653D01*
X020317Y018657D01*
X020301Y018664D01*
X020287Y018674D01*
X020274Y018687D01*
X020264Y018701D01*
X020257Y018717D01*
X020253Y018734D01*
X020251Y018751D01*
X021751Y018751D02*
X021751Y018901D01*
X021801Y018951D01*
X021801Y020351D01*
X021751Y020401D01*
X021751Y020551D01*
X021753Y020568D01*
X021757Y020585D01*
X021764Y020601D01*
X021774Y020615D01*
X021787Y020628D01*
X021801Y020638D01*
X021817Y020645D01*
X021834Y020649D01*
X021851Y020651D01*
X022451Y020651D01*
X022468Y020649D01*
X022485Y020645D01*
X022501Y020638D01*
X022515Y020628D01*
X022528Y020615D01*
X022538Y020601D01*
X022545Y020585D01*
X022549Y020568D01*
X022551Y020551D01*
X022551Y020401D01*
X022501Y020351D01*
X022501Y018951D01*
X022551Y018901D01*
X022551Y018751D01*
X022549Y018734D01*
X022545Y018717D01*
X022538Y018701D01*
X022528Y018687D01*
X022515Y018674D01*
X022501Y018664D01*
X022485Y018657D01*
X022468Y018653D01*
X022451Y018651D01*
X021851Y018651D01*
X021834Y018653D01*
X021817Y018657D01*
X021801Y018664D01*
X021787Y018674D01*
X021774Y018687D01*
X021764Y018701D01*
X021757Y018717D01*
X021753Y018734D01*
X021751Y018751D01*
X023251Y018751D02*
X023251Y018901D01*
X023301Y018951D01*
X023301Y020351D01*
X023251Y020401D01*
X023251Y020551D01*
X023253Y020568D01*
X023257Y020585D01*
X023264Y020601D01*
X023274Y020615D01*
X023287Y020628D01*
X023301Y020638D01*
X023317Y020645D01*
X023334Y020649D01*
X023351Y020651D01*
X023951Y020651D01*
X023968Y020649D01*
X023985Y020645D01*
X024001Y020638D01*
X024015Y020628D01*
X024028Y020615D01*
X024038Y020601D01*
X024045Y020585D01*
X024049Y020568D01*
X024051Y020551D01*
X024051Y020401D01*
X024001Y020351D01*
X024001Y018951D01*
X024051Y018901D01*
X024051Y018751D01*
X024049Y018734D01*
X024045Y018717D01*
X024038Y018701D01*
X024028Y018687D01*
X024015Y018674D01*
X024001Y018664D01*
X023985Y018657D01*
X023968Y018653D01*
X023951Y018651D01*
X023351Y018651D01*
X023334Y018653D01*
X023317Y018657D01*
X023301Y018664D01*
X023287Y018674D01*
X023274Y018687D01*
X023264Y018701D01*
X023257Y018717D01*
X023253Y018734D01*
X023251Y018751D01*
X024751Y018751D02*
X024751Y018901D01*
X024801Y018951D01*
X024801Y020351D01*
X024751Y020401D01*
X024751Y020551D01*
X024753Y020568D01*
X024757Y020585D01*
X024764Y020601D01*
X024774Y020615D01*
X024787Y020628D01*
X024801Y020638D01*
X024817Y020645D01*
X024834Y020649D01*
X024851Y020651D01*
X025451Y020651D01*
X025468Y020649D01*
X025485Y020645D01*
X025501Y020638D01*
X025515Y020628D01*
X025528Y020615D01*
X025538Y020601D01*
X025545Y020585D01*
X025549Y020568D01*
X025551Y020551D01*
X025551Y020401D01*
X025501Y020351D01*
X025501Y018951D01*
X025551Y018901D01*
X025551Y018751D01*
X025549Y018734D01*
X025545Y018717D01*
X025538Y018701D01*
X025528Y018687D01*
X025515Y018674D01*
X025501Y018664D01*
X025485Y018657D01*
X025468Y018653D01*
X025451Y018651D01*
X024851Y018651D01*
X024834Y018653D01*
X024817Y018657D01*
X024801Y018664D01*
X024787Y018674D01*
X024774Y018687D01*
X024764Y018701D01*
X024757Y018717D01*
X024753Y018734D01*
X024751Y018751D01*
X026751Y018751D02*
X026751Y018901D01*
X026801Y018951D01*
X026801Y020351D01*
X026751Y020401D01*
X026751Y020551D01*
X026753Y020568D01*
X026757Y020585D01*
X026764Y020601D01*
X026774Y020615D01*
X026787Y020628D01*
X026801Y020638D01*
X026817Y020645D01*
X026834Y020649D01*
X026851Y020651D01*
X027451Y020651D01*
X027468Y020649D01*
X027485Y020645D01*
X027501Y020638D01*
X027515Y020628D01*
X027528Y020615D01*
X027538Y020601D01*
X027545Y020585D01*
X027549Y020568D01*
X027551Y020551D01*
X027551Y020401D01*
X027501Y020351D01*
X027501Y018951D01*
X027551Y018901D01*
X027551Y018751D01*
X027549Y018734D01*
X027545Y018717D01*
X027538Y018701D01*
X027528Y018687D01*
X027515Y018674D01*
X027501Y018664D01*
X027485Y018657D01*
X027468Y018653D01*
X027451Y018651D01*
X026851Y018651D01*
X026834Y018653D01*
X026817Y018657D01*
X026801Y018664D01*
X026787Y018674D01*
X026774Y018687D01*
X026764Y018701D01*
X026757Y018717D01*
X026753Y018734D01*
X026751Y018751D01*
X027701Y019051D02*
X027701Y018251D01*
X027703Y018234D01*
X027707Y018217D01*
X027714Y018201D01*
X027724Y018187D01*
X027737Y018174D01*
X027751Y018164D01*
X027767Y018157D01*
X027784Y018153D01*
X027801Y018151D01*
X030501Y018151D01*
X030518Y018153D01*
X030535Y018157D01*
X030551Y018164D01*
X030565Y018174D01*
X030578Y018187D01*
X030588Y018201D01*
X030595Y018217D01*
X030599Y018234D01*
X030601Y018251D01*
X030601Y019051D01*
X030599Y019068D01*
X030595Y019085D01*
X030588Y019101D01*
X030578Y019115D01*
X030565Y019128D01*
X030551Y019138D01*
X030535Y019145D01*
X030518Y019149D01*
X030501Y019151D01*
X027801Y019151D01*
X027784Y019149D01*
X027767Y019145D01*
X027751Y019138D01*
X027737Y019128D01*
X027724Y019115D01*
X027714Y019101D01*
X027707Y019085D01*
X027703Y019068D01*
X027701Y019051D01*
X028551Y018651D02*
X029021Y018651D01*
X029271Y018651D02*
X029751Y018651D01*
X028651Y020151D02*
X028651Y021151D01*
X028651Y021751D01*
X028690Y021753D01*
X028729Y021759D01*
X028767Y021768D01*
X028804Y021781D01*
X028840Y021798D01*
X028873Y021818D01*
X028905Y021842D01*
X028934Y021868D01*
X028960Y021897D01*
X028984Y021929D01*
X029004Y021962D01*
X029021Y021998D01*
X029034Y022035D01*
X029043Y022073D01*
X029049Y022112D01*
X029051Y022151D01*
X029049Y022190D01*
X029043Y022229D01*
X029034Y022267D01*
X029021Y022304D01*
X029004Y022340D01*
X028984Y022373D01*
X028960Y022405D01*
X028934Y022434D01*
X028905Y022460D01*
X028873Y022484D01*
X028840Y022504D01*
X028804Y022521D01*
X028767Y022534D01*
X028729Y022543D01*
X028690Y022549D01*
X028651Y022551D01*
X028651Y023151D01*
X032651Y023151D01*
X032651Y021151D01*
X032651Y020151D01*
X028651Y020151D01*
X028651Y021151D02*
X032651Y021151D01*
X033751Y021251D02*
X033751Y021401D01*
X033801Y021451D01*
X033801Y022851D01*
X033751Y022901D01*
X033751Y023051D01*
X033753Y023068D01*
X033757Y023085D01*
X033764Y023101D01*
X033774Y023115D01*
X033787Y023128D01*
X033801Y023138D01*
X033817Y023145D01*
X033834Y023149D01*
X033851Y023151D01*
X034451Y023151D01*
X034468Y023149D01*
X034485Y023145D01*
X034501Y023138D01*
X034515Y023128D01*
X034528Y023115D01*
X034538Y023101D01*
X034545Y023085D01*
X034549Y023068D01*
X034551Y023051D01*
X034551Y022901D01*
X034501Y022851D01*
X034501Y021451D01*
X034551Y021401D01*
X034551Y021251D01*
X034549Y021234D01*
X034545Y021217D01*
X034538Y021201D01*
X034528Y021187D01*
X034515Y021174D01*
X034501Y021164D01*
X034485Y021157D01*
X034468Y021153D01*
X034451Y021151D01*
X033851Y021151D01*
X033834Y021153D01*
X033817Y021157D01*
X033801Y021164D01*
X033787Y021174D01*
X033774Y021187D01*
X033764Y021201D01*
X033757Y021217D01*
X033753Y021234D01*
X033751Y021251D01*
X032651Y023151D02*
X032651Y024151D01*
X028651Y024151D01*
X028651Y023151D01*
X027551Y022901D02*
X027551Y022751D01*
X027549Y022734D01*
X027545Y022717D01*
X027538Y022701D01*
X027528Y022687D01*
X027515Y022674D01*
X027501Y022664D01*
X027485Y022657D01*
X027468Y022653D01*
X027451Y022651D01*
X026851Y022651D01*
X026834Y022653D01*
X026817Y022657D01*
X026801Y022664D01*
X026787Y022674D01*
X026774Y022687D01*
X026764Y022701D01*
X026757Y022717D01*
X026753Y022734D01*
X026751Y022751D01*
X026751Y022901D01*
X026801Y022951D01*
X026801Y024351D01*
X026751Y024401D01*
X026751Y024551D01*
X026753Y024568D01*
X026757Y024585D01*
X026764Y024601D01*
X026774Y024615D01*
X026787Y024628D01*
X026801Y024638D01*
X026817Y024645D01*
X026834Y024649D01*
X026851Y024651D01*
X027451Y024651D01*
X027468Y024649D01*
X027485Y024645D01*
X027501Y024638D01*
X027515Y024628D01*
X027528Y024615D01*
X027538Y024601D01*
X027545Y024585D01*
X027549Y024568D01*
X027551Y024551D01*
X027551Y024401D01*
X027501Y024351D01*
X027501Y022951D01*
X027551Y022901D01*
X025551Y022901D02*
X025551Y022751D01*
X025549Y022734D01*
X025545Y022717D01*
X025538Y022701D01*
X025528Y022687D01*
X025515Y022674D01*
X025501Y022664D01*
X025485Y022657D01*
X025468Y022653D01*
X025451Y022651D01*
X024851Y022651D01*
X024834Y022653D01*
X024817Y022657D01*
X024801Y022664D01*
X024787Y022674D01*
X024774Y022687D01*
X024764Y022701D01*
X024757Y022717D01*
X024753Y022734D01*
X024751Y022751D01*
X024751Y022901D01*
X024801Y022951D01*
X024801Y024351D01*
X024751Y024401D01*
X024751Y024551D01*
X024753Y024568D01*
X024757Y024585D01*
X024764Y024601D01*
X024774Y024615D01*
X024787Y024628D01*
X024801Y024638D01*
X024817Y024645D01*
X024834Y024649D01*
X024851Y024651D01*
X025451Y024651D01*
X025468Y024649D01*
X025485Y024645D01*
X025501Y024638D01*
X025515Y024628D01*
X025528Y024615D01*
X025538Y024601D01*
X025545Y024585D01*
X025549Y024568D01*
X025551Y024551D01*
X025551Y024401D01*
X025501Y024351D01*
X025501Y022951D01*
X025551Y022901D01*
X023651Y023351D02*
X022651Y023351D01*
X022651Y024951D01*
X023651Y024951D01*
X023651Y023351D01*
X023151Y023901D02*
X023151Y024151D01*
X022901Y024151D01*
X022901Y024251D01*
X023151Y024151D02*
X022901Y024551D01*
X023401Y024551D01*
X023151Y024151D01*
X023401Y024151D01*
X023151Y024151D02*
X023151Y024751D01*
X022451Y026151D02*
X021851Y026151D01*
X021834Y026153D01*
X021817Y026157D01*
X021801Y026164D01*
X021787Y026174D01*
X021774Y026187D01*
X021764Y026201D01*
X021757Y026217D01*
X021753Y026234D01*
X021751Y026251D01*
X021751Y026401D01*
X021801Y026451D01*
X021801Y027851D01*
X021751Y027901D01*
X021751Y028051D01*
X021753Y028068D01*
X021757Y028085D01*
X021764Y028101D01*
X021774Y028115D01*
X021787Y028128D01*
X021801Y028138D01*
X021817Y028145D01*
X021834Y028149D01*
X021851Y028151D01*
X022451Y028151D01*
X022468Y028149D01*
X022485Y028145D01*
X022501Y028138D01*
X022515Y028128D01*
X022528Y028115D01*
X022538Y028101D01*
X022545Y028085D01*
X022549Y028068D01*
X022551Y028051D01*
X022551Y027901D01*
X022501Y027851D01*
X022501Y026451D01*
X022551Y026401D01*
X022551Y026251D01*
X022549Y026234D01*
X022545Y026217D01*
X022538Y026201D01*
X022528Y026187D01*
X022515Y026174D01*
X022501Y026164D01*
X022485Y026157D01*
X022468Y026153D01*
X022451Y026151D01*
X020651Y025951D02*
X020651Y025351D01*
X020649Y025334D01*
X020645Y025317D01*
X020638Y025301D01*
X020628Y025287D01*
X020615Y025274D01*
X020601Y025264D01*
X020585Y025257D01*
X020568Y025253D01*
X020551Y025251D01*
X020401Y025251D01*
X020351Y025301D01*
X018951Y025301D01*
X018901Y025251D01*
X018751Y025251D01*
X018734Y025253D01*
X018717Y025257D01*
X018701Y025264D01*
X018687Y025274D01*
X018674Y025287D01*
X018664Y025301D01*
X018657Y025317D01*
X018653Y025334D01*
X018651Y025351D01*
X018651Y025951D01*
X018653Y025968D01*
X018657Y025985D01*
X018664Y026001D01*
X018674Y026015D01*
X018687Y026028D01*
X018701Y026038D01*
X018717Y026045D01*
X018734Y026049D01*
X018751Y026051D01*
X018901Y026051D01*
X018951Y026001D01*
X020351Y026001D01*
X020401Y026051D01*
X020551Y026051D01*
X020568Y026049D01*
X020585Y026045D01*
X020601Y026038D01*
X020615Y026028D01*
X020628Y026015D01*
X020638Y026001D01*
X020645Y025985D01*
X020649Y025968D01*
X020651Y025951D01*
X020551Y026751D02*
X020401Y026751D01*
X020351Y026801D01*
X018951Y026801D01*
X018901Y026751D01*
X018751Y026751D01*
X018734Y026753D01*
X018717Y026757D01*
X018701Y026764D01*
X018687Y026774D01*
X018674Y026787D01*
X018664Y026801D01*
X018657Y026817D01*
X018653Y026834D01*
X018651Y026851D01*
X018651Y027451D01*
X018653Y027468D01*
X018657Y027485D01*
X018664Y027501D01*
X018674Y027515D01*
X018687Y027528D01*
X018701Y027538D01*
X018717Y027545D01*
X018734Y027549D01*
X018751Y027551D01*
X018901Y027551D01*
X018951Y027501D01*
X020351Y027501D01*
X020401Y027551D01*
X020551Y027551D01*
X020568Y027549D01*
X020585Y027545D01*
X020601Y027538D01*
X020615Y027528D01*
X020628Y027515D01*
X020638Y027501D01*
X020645Y027485D01*
X020649Y027468D01*
X020651Y027451D01*
X020651Y026851D01*
X020649Y026834D01*
X020645Y026817D01*
X020638Y026801D01*
X020628Y026787D01*
X020615Y026774D01*
X020601Y026764D01*
X020585Y026757D01*
X020568Y026753D01*
X020551Y026751D01*
X020551Y028251D02*
X020401Y028251D01*
X020351Y028301D01*
X018951Y028301D01*
X018901Y028251D01*
X018751Y028251D01*
X018734Y028253D01*
X018717Y028257D01*
X018701Y028264D01*
X018687Y028274D01*
X018674Y028287D01*
X018664Y028301D01*
X018657Y028317D01*
X018653Y028334D01*
X018651Y028351D01*
X018651Y028951D01*
X018653Y028968D01*
X018657Y028985D01*
X018664Y029001D01*
X018674Y029015D01*
X018687Y029028D01*
X018701Y029038D01*
X018717Y029045D01*
X018734Y029049D01*
X018751Y029051D01*
X018901Y029051D01*
X018951Y029001D01*
X020351Y029001D01*
X020401Y029051D01*
X020551Y029051D01*
X020568Y029049D01*
X020585Y029045D01*
X020601Y029038D01*
X020615Y029028D01*
X020628Y029015D01*
X020638Y029001D01*
X020645Y028985D01*
X020649Y028968D01*
X020651Y028951D01*
X020651Y028351D01*
X020649Y028334D01*
X020645Y028317D01*
X020638Y028301D01*
X020628Y028287D01*
X020615Y028274D01*
X020601Y028264D01*
X020585Y028257D01*
X020568Y028253D01*
X020551Y028251D01*
X020401Y029651D02*
X019901Y029651D01*
X019651Y029901D01*
X019401Y029651D01*
X018901Y029651D01*
X018651Y029901D01*
X018401Y029651D01*
X017901Y029651D01*
X017651Y029901D01*
X017651Y030401D01*
X017901Y030651D01*
X018401Y030651D01*
X018651Y030401D01*
X018901Y030651D01*
X019401Y030651D01*
X019651Y030401D01*
X019901Y030651D01*
X020401Y030651D01*
X020651Y030401D01*
X020901Y030651D01*
X021401Y030651D01*
X021651Y030401D01*
X021901Y030651D01*
X022401Y030651D01*
X022651Y030401D01*
X022901Y030651D01*
X023401Y030651D01*
X023651Y030401D01*
X023901Y030651D01*
X024401Y030651D01*
X024651Y030401D01*
X024901Y030651D01*
X025401Y030651D01*
X025651Y030401D01*
X025651Y029901D01*
X025401Y029651D01*
X024901Y029651D01*
X024651Y029901D01*
X024401Y029651D01*
X023901Y029651D01*
X023651Y029901D01*
X023401Y029651D01*
X022901Y029651D01*
X022651Y029901D01*
X022401Y029651D01*
X021901Y029651D01*
X021651Y029901D01*
X021401Y029651D01*
X020901Y029651D01*
X020651Y029901D01*
X020401Y029651D01*
X024651Y029001D02*
X024651Y026301D01*
X024653Y026284D01*
X024657Y026267D01*
X024664Y026251D01*
X024674Y026237D01*
X024687Y026224D01*
X024701Y026214D01*
X024717Y026207D01*
X024734Y026203D01*
X024751Y026201D01*
X025551Y026201D01*
X025568Y026203D01*
X025585Y026207D01*
X025601Y026214D01*
X025615Y026224D01*
X025628Y026237D01*
X025638Y026251D01*
X025645Y026267D01*
X025649Y026284D01*
X025651Y026301D01*
X025651Y029001D01*
X025649Y029018D01*
X025645Y029035D01*
X025638Y029051D01*
X025628Y029065D01*
X025615Y029078D01*
X025601Y029088D01*
X025585Y029095D01*
X025568Y029099D01*
X025551Y029101D01*
X024751Y029101D01*
X024734Y029099D01*
X024717Y029095D01*
X024701Y029088D01*
X024687Y029078D01*
X024674Y029065D01*
X024664Y029051D01*
X024657Y029035D01*
X024653Y029018D01*
X024651Y029001D01*
X025151Y028251D02*
X025151Y027771D01*
X025151Y027521D02*
X025151Y027051D01*
X026651Y026301D02*
X026651Y029001D01*
X026653Y029018D01*
X026657Y029035D01*
X026664Y029051D01*
X026674Y029065D01*
X026687Y029078D01*
X026701Y029088D01*
X026717Y029095D01*
X026734Y029099D01*
X026751Y029101D01*
X027551Y029101D01*
X027568Y029099D01*
X027585Y029095D01*
X027601Y029088D01*
X027615Y029078D01*
X027628Y029065D01*
X027638Y029051D01*
X027645Y029035D01*
X027649Y029018D01*
X027651Y029001D01*
X027651Y026301D01*
X027649Y026284D01*
X027645Y026267D01*
X027638Y026251D01*
X027628Y026237D01*
X027615Y026224D01*
X027601Y026214D01*
X027585Y026207D01*
X027568Y026203D01*
X027551Y026201D01*
X026751Y026201D01*
X026734Y026203D01*
X026717Y026207D01*
X026701Y026214D01*
X026687Y026224D01*
X026674Y026237D01*
X026664Y026251D01*
X026657Y026267D01*
X026653Y026284D01*
X026651Y026301D01*
X027151Y027051D02*
X027151Y027531D01*
X027151Y027781D02*
X027151Y028251D01*
X028651Y029901D02*
X028901Y029651D01*
X029401Y029651D01*
X029651Y029901D01*
X029901Y029651D01*
X030401Y029651D01*
X030651Y029901D01*
X030901Y029651D01*
X031401Y029651D01*
X031651Y029901D01*
X031901Y029651D01*
X032401Y029651D01*
X032651Y029901D01*
X032901Y029651D01*
X033401Y029651D01*
X033651Y029901D01*
X033651Y030401D01*
X033401Y030651D01*
X032901Y030651D01*
X032651Y030401D01*
X032401Y030651D01*
X031901Y030651D01*
X031651Y030401D01*
X031401Y030651D01*
X030901Y030651D01*
X030651Y030401D01*
X030401Y030651D01*
X029901Y030651D01*
X029651Y030401D01*
X029401Y030651D01*
X028901Y030651D01*
X028651Y030401D01*
X028651Y029901D01*
X030251Y028451D02*
X030251Y027851D01*
X030253Y027834D01*
X030257Y027817D01*
X030264Y027801D01*
X030274Y027787D01*
X030287Y027774D01*
X030301Y027764D01*
X030317Y027757D01*
X030334Y027753D01*
X030351Y027751D01*
X031951Y027751D01*
X031968Y027753D01*
X031985Y027757D01*
X032001Y027764D01*
X032015Y027774D01*
X032028Y027787D01*
X032038Y027801D01*
X032045Y027817D01*
X032049Y027834D01*
X032051Y027851D01*
X032051Y028451D01*
X032049Y028468D01*
X032045Y028485D01*
X032038Y028501D01*
X032028Y028515D01*
X032015Y028528D01*
X032001Y028538D01*
X031985Y028545D01*
X031968Y028549D01*
X031951Y028551D01*
X030351Y028551D01*
X030334Y028549D01*
X030317Y028545D01*
X030301Y028538D01*
X030287Y028528D01*
X030274Y028515D01*
X030264Y028501D01*
X030257Y028485D01*
X030253Y028468D01*
X030251Y028451D01*
X030551Y028151D02*
X031151Y028151D01*
X031151Y028401D01*
X031151Y028151D02*
X031151Y027901D01*
X031151Y028151D02*
X030751Y027901D01*
X030751Y028401D01*
X031151Y028151D01*
X031401Y028151D01*
X031001Y026151D02*
X028301Y026151D01*
X028284Y026149D01*
X028267Y026145D01*
X028251Y026138D01*
X028237Y026128D01*
X028224Y026115D01*
X028214Y026101D01*
X028207Y026085D01*
X028203Y026068D01*
X028201Y026051D01*
X028201Y025251D01*
X028203Y025234D01*
X028207Y025217D01*
X028214Y025201D01*
X028224Y025187D01*
X028237Y025174D01*
X028251Y025164D01*
X028267Y025157D01*
X028284Y025153D01*
X028301Y025151D01*
X031001Y025151D01*
X031018Y025153D01*
X031035Y025157D01*
X031051Y025164D01*
X031065Y025174D01*
X031078Y025187D01*
X031088Y025201D01*
X031095Y025217D01*
X031099Y025234D01*
X031101Y025251D01*
X031101Y026051D01*
X031099Y026068D01*
X031095Y026085D01*
X031088Y026101D01*
X031078Y026115D01*
X031065Y026128D01*
X031051Y026138D01*
X031035Y026145D01*
X031018Y026149D01*
X031001Y026151D01*
X031701Y026051D02*
X031701Y025251D01*
X031703Y025234D01*
X031707Y025217D01*
X031714Y025201D01*
X031724Y025187D01*
X031737Y025174D01*
X031751Y025164D01*
X031767Y025157D01*
X031784Y025153D01*
X031801Y025151D01*
X034501Y025151D01*
X034518Y025153D01*
X034535Y025157D01*
X034551Y025164D01*
X034565Y025174D01*
X034578Y025187D01*
X034588Y025201D01*
X034595Y025217D01*
X034599Y025234D01*
X034601Y025251D01*
X034601Y026051D01*
X034599Y026068D01*
X034595Y026085D01*
X034588Y026101D01*
X034578Y026115D01*
X034565Y026128D01*
X034551Y026138D01*
X034535Y026145D01*
X034518Y026149D01*
X034501Y026151D01*
X031801Y026151D01*
X031784Y026149D01*
X031767Y026145D01*
X031751Y026138D01*
X031737Y026128D01*
X031724Y026115D01*
X031714Y026101D01*
X031707Y026085D01*
X031703Y026068D01*
X031701Y026051D01*
X032551Y025651D02*
X033031Y025651D01*
X033281Y025651D02*
X033751Y025651D01*
X035651Y027251D02*
X035751Y027151D01*
X036551Y027151D01*
X036651Y027251D01*
X036751Y027151D01*
X037551Y027151D01*
X037651Y027251D01*
X037751Y027151D01*
X038551Y027151D01*
X038651Y027251D01*
X038651Y028051D01*
X038551Y028151D01*
X037751Y028151D01*
X037651Y028051D01*
X037551Y028151D01*
X036751Y028151D01*
X036651Y028051D01*
X036551Y028151D01*
X035751Y028151D01*
X035651Y028051D01*
X035651Y027251D01*
X036651Y025151D02*
X036653Y025214D01*
X036659Y025276D01*
X036669Y025338D01*
X036682Y025400D01*
X036700Y025460D01*
X036721Y025519D01*
X036746Y025577D01*
X036775Y025633D01*
X036807Y025687D01*
X036842Y025739D01*
X036880Y025788D01*
X036922Y025836D01*
X036966Y025880D01*
X037014Y025922D01*
X037063Y025960D01*
X037115Y025995D01*
X037169Y026027D01*
X037225Y026056D01*
X037283Y026081D01*
X037342Y026102D01*
X037402Y026120D01*
X037464Y026133D01*
X037526Y026143D01*
X037588Y026149D01*
X037651Y026151D01*
X037714Y026149D01*
X037776Y026143D01*
X037838Y026133D01*
X037900Y026120D01*
X037960Y026102D01*
X038019Y026081D01*
X038077Y026056D01*
X038133Y026027D01*
X038187Y025995D01*
X038239Y025960D01*
X038288Y025922D01*
X038336Y025880D01*
X038380Y025836D01*
X038422Y025788D01*
X038460Y025739D01*
X038495Y025687D01*
X038527Y025633D01*
X038556Y025577D01*
X038581Y025519D01*
X038602Y025460D01*
X038620Y025400D01*
X038633Y025338D01*
X038643Y025276D01*
X038649Y025214D01*
X038651Y025151D01*
X038649Y025088D01*
X038643Y025026D01*
X038633Y024964D01*
X038620Y024902D01*
X038602Y024842D01*
X038581Y024783D01*
X038556Y024725D01*
X038527Y024669D01*
X038495Y024615D01*
X038460Y024563D01*
X038422Y024514D01*
X038380Y024466D01*
X038336Y024422D01*
X038288Y024380D01*
X038239Y024342D01*
X038187Y024307D01*
X038133Y024275D01*
X038077Y024246D01*
X038019Y024221D01*
X037960Y024200D01*
X037900Y024182D01*
X037838Y024169D01*
X037776Y024159D01*
X037714Y024153D01*
X037651Y024151D01*
X037588Y024153D01*
X037526Y024159D01*
X037464Y024169D01*
X037402Y024182D01*
X037342Y024200D01*
X037283Y024221D01*
X037225Y024246D01*
X037169Y024275D01*
X037115Y024307D01*
X037063Y024342D01*
X037014Y024380D01*
X036966Y024422D01*
X036922Y024466D01*
X036880Y024514D01*
X036842Y024563D01*
X036807Y024615D01*
X036775Y024669D01*
X036746Y024725D01*
X036721Y024783D01*
X036700Y024842D01*
X036682Y024902D01*
X036669Y024964D01*
X036659Y025026D01*
X036653Y025088D01*
X036651Y025151D01*
X038101Y024651D02*
X038201Y024651D01*
X038201Y024551D01*
X038201Y024651D02*
X038201Y024751D01*
X038201Y024651D02*
X038301Y024651D01*
X038451Y023151D02*
X037851Y023151D01*
X037834Y023149D01*
X037817Y023145D01*
X037801Y023138D01*
X037787Y023128D01*
X037774Y023115D01*
X037764Y023101D01*
X037757Y023085D01*
X037753Y023068D01*
X037751Y023051D01*
X037751Y022901D01*
X037801Y022851D01*
X037801Y021451D01*
X037751Y021401D01*
X037751Y021251D01*
X037753Y021234D01*
X037757Y021217D01*
X037764Y021201D01*
X037774Y021187D01*
X037787Y021174D01*
X037801Y021164D01*
X037817Y021157D01*
X037834Y021153D01*
X037851Y021151D01*
X038451Y021151D01*
X038468Y021153D01*
X038485Y021157D01*
X038501Y021164D01*
X038515Y021174D01*
X038528Y021187D01*
X038538Y021201D01*
X038545Y021217D01*
X038549Y021234D01*
X038551Y021251D01*
X038551Y021401D01*
X038501Y021451D01*
X038501Y022851D01*
X038551Y022901D01*
X038551Y023051D01*
X038549Y023068D01*
X038545Y023085D01*
X038538Y023101D01*
X038528Y023115D01*
X038515Y023128D01*
X038501Y023138D01*
X038485Y023145D01*
X038468Y023149D01*
X038451Y023151D01*
X037051Y023051D02*
X037051Y022901D01*
X037001Y022851D01*
X037001Y021451D01*
X037051Y021401D01*
X037051Y021251D01*
X037049Y021234D01*
X037045Y021217D01*
X037038Y021201D01*
X037028Y021187D01*
X037015Y021174D01*
X037001Y021164D01*
X036985Y021157D01*
X036968Y021153D01*
X036951Y021151D01*
X036351Y021151D01*
X036334Y021153D01*
X036317Y021157D01*
X036301Y021164D01*
X036287Y021174D01*
X036274Y021187D01*
X036264Y021201D01*
X036257Y021217D01*
X036253Y021234D01*
X036251Y021251D01*
X036251Y021401D01*
X036301Y021451D01*
X036301Y022851D01*
X036251Y022901D01*
X036251Y023051D01*
X036253Y023068D01*
X036257Y023085D01*
X036264Y023101D01*
X036274Y023115D01*
X036287Y023128D01*
X036301Y023138D01*
X036317Y023145D01*
X036334Y023149D01*
X036351Y023151D01*
X036951Y023151D01*
X036968Y023149D01*
X036985Y023145D01*
X037001Y023138D01*
X037015Y023128D01*
X037028Y023115D01*
X037038Y023101D01*
X037045Y023085D01*
X037049Y023068D01*
X037051Y023051D01*
X033551Y019051D02*
X033401Y019051D01*
X033351Y019001D01*
X031951Y019001D01*
X031901Y019051D01*
X031751Y019051D01*
X031734Y019049D01*
X031717Y019045D01*
X031701Y019038D01*
X031687Y019028D01*
X031674Y019015D01*
X031664Y019001D01*
X031657Y018985D01*
X031653Y018968D01*
X031651Y018951D01*
X031651Y018351D01*
X031653Y018334D01*
X031657Y018317D01*
X031664Y018301D01*
X031674Y018287D01*
X031687Y018274D01*
X031701Y018264D01*
X031717Y018257D01*
X031734Y018253D01*
X031751Y018251D01*
X031901Y018251D01*
X031951Y018301D01*
X033351Y018301D01*
X033401Y018251D01*
X033551Y018251D01*
X033568Y018253D01*
X033585Y018257D01*
X033601Y018264D01*
X033615Y018274D01*
X033628Y018287D01*
X033638Y018301D01*
X033645Y018317D01*
X033649Y018334D01*
X033651Y018351D01*
X033651Y018951D01*
X033649Y018968D01*
X033645Y018985D01*
X033638Y019001D01*
X033628Y019015D01*
X033615Y019028D01*
X033601Y019038D01*
X033585Y019045D01*
X033568Y019049D01*
X033551Y019051D01*
X032601Y017251D02*
X032601Y017151D01*
X032701Y017151D01*
X032601Y017151D02*
X032601Y017051D01*
X032601Y017151D02*
X032501Y017151D01*
X032151Y016651D02*
X032153Y016714D01*
X032159Y016776D01*
X032169Y016838D01*
X032182Y016900D01*
X032200Y016960D01*
X032221Y017019D01*
X032246Y017077D01*
X032275Y017133D01*
X032307Y017187D01*
X032342Y017239D01*
X032380Y017288D01*
X032422Y017336D01*
X032466Y017380D01*
X032514Y017422D01*
X032563Y017460D01*
X032615Y017495D01*
X032669Y017527D01*
X032725Y017556D01*
X032783Y017581D01*
X032842Y017602D01*
X032902Y017620D01*
X032964Y017633D01*
X033026Y017643D01*
X033088Y017649D01*
X033151Y017651D01*
X033214Y017649D01*
X033276Y017643D01*
X033338Y017633D01*
X033400Y017620D01*
X033460Y017602D01*
X033519Y017581D01*
X033577Y017556D01*
X033633Y017527D01*
X033687Y017495D01*
X033739Y017460D01*
X033788Y017422D01*
X033836Y017380D01*
X033880Y017336D01*
X033922Y017288D01*
X033960Y017239D01*
X033995Y017187D01*
X034027Y017133D01*
X034056Y017077D01*
X034081Y017019D01*
X034102Y016960D01*
X034120Y016900D01*
X034133Y016838D01*
X034143Y016776D01*
X034149Y016714D01*
X034151Y016651D01*
X034149Y016588D01*
X034143Y016526D01*
X034133Y016464D01*
X034120Y016402D01*
X034102Y016342D01*
X034081Y016283D01*
X034056Y016225D01*
X034027Y016169D01*
X033995Y016115D01*
X033960Y016063D01*
X033922Y016014D01*
X033880Y015966D01*
X033836Y015922D01*
X033788Y015880D01*
X033739Y015842D01*
X033687Y015807D01*
X033633Y015775D01*
X033577Y015746D01*
X033519Y015721D01*
X033460Y015700D01*
X033400Y015682D01*
X033338Y015669D01*
X033276Y015659D01*
X033214Y015653D01*
X033151Y015651D01*
X033088Y015653D01*
X033026Y015659D01*
X032964Y015669D01*
X032902Y015682D01*
X032842Y015700D01*
X032783Y015721D01*
X032725Y015746D01*
X032669Y015775D01*
X032615Y015807D01*
X032563Y015842D01*
X032514Y015880D01*
X032466Y015922D01*
X032422Y015966D01*
X032380Y016014D01*
X032342Y016063D01*
X032307Y016115D01*
X032275Y016169D01*
X032246Y016225D01*
X032221Y016283D01*
X032200Y016342D01*
X032182Y016402D01*
X032169Y016464D01*
X032159Y016526D01*
X032153Y016588D01*
X032151Y016651D01*
X031101Y016251D02*
X031101Y017051D01*
X031099Y017068D01*
X031095Y017085D01*
X031088Y017101D01*
X031078Y017115D01*
X031065Y017128D01*
X031051Y017138D01*
X031035Y017145D01*
X031018Y017149D01*
X031001Y017151D01*
X028301Y017151D01*
X028284Y017149D01*
X028267Y017145D01*
X028251Y017138D01*
X028237Y017128D01*
X028224Y017115D01*
X028214Y017101D01*
X028207Y017085D01*
X028203Y017068D01*
X028201Y017051D01*
X028201Y016251D01*
X028203Y016234D01*
X028207Y016217D01*
X028214Y016201D01*
X028224Y016187D01*
X028237Y016174D01*
X028251Y016164D01*
X028267Y016157D01*
X028284Y016153D01*
X028301Y016151D01*
X031001Y016151D01*
X031018Y016153D01*
X031035Y016157D01*
X031051Y016164D01*
X031065Y016174D01*
X031078Y016187D01*
X031088Y016201D01*
X031095Y016217D01*
X031099Y016234D01*
X031101Y016251D01*
X030251Y016651D02*
X029781Y016651D01*
X029531Y016651D02*
X029051Y016651D01*
X028651Y014301D02*
X028651Y013551D01*
X028690Y013549D01*
X028729Y013543D01*
X028767Y013534D01*
X028804Y013521D01*
X028840Y013504D01*
X028873Y013484D01*
X028905Y013460D01*
X028934Y013434D01*
X028960Y013405D01*
X028984Y013373D01*
X029004Y013340D01*
X029021Y013304D01*
X029034Y013267D01*
X029043Y013229D01*
X029049Y013190D01*
X029051Y013151D01*
X029049Y013112D01*
X029043Y013073D01*
X029034Y013035D01*
X029021Y012998D01*
X029004Y012962D01*
X028984Y012929D01*
X028960Y012897D01*
X028934Y012868D01*
X028905Y012842D01*
X028873Y012818D01*
X028840Y012798D01*
X028804Y012781D01*
X028767Y012768D01*
X028729Y012759D01*
X028690Y012753D01*
X028651Y012751D01*
X028651Y012001D01*
X032651Y012001D01*
X032651Y014301D01*
X028651Y014301D01*
X028051Y014051D02*
X028051Y013901D01*
X028001Y013851D01*
X028001Y012451D01*
X028051Y012401D01*
X028051Y012251D01*
X028049Y012234D01*
X028045Y012217D01*
X028038Y012201D01*
X028028Y012187D01*
X028015Y012174D01*
X028001Y012164D01*
X027985Y012157D01*
X027968Y012153D01*
X027951Y012151D01*
X027351Y012151D01*
X027334Y012153D01*
X027317Y012157D01*
X027301Y012164D01*
X027287Y012174D01*
X027274Y012187D01*
X027264Y012201D01*
X027257Y012217D01*
X027253Y012234D01*
X027251Y012251D01*
X027251Y012401D01*
X027301Y012451D01*
X027301Y013851D01*
X027251Y013901D01*
X027251Y014051D01*
X027253Y014068D01*
X027257Y014085D01*
X027264Y014101D01*
X027274Y014115D01*
X027287Y014128D01*
X027301Y014138D01*
X027317Y014145D01*
X027334Y014149D01*
X027351Y014151D01*
X027951Y014151D01*
X027968Y014149D01*
X027985Y014145D01*
X028001Y014138D01*
X028015Y014128D01*
X028028Y014115D01*
X028038Y014101D01*
X028045Y014085D01*
X028049Y014068D01*
X028051Y014051D01*
X026551Y014051D02*
X026551Y013901D01*
X026501Y013851D01*
X026501Y012451D01*
X026551Y012401D01*
X026551Y012251D01*
X026549Y012234D01*
X026545Y012217D01*
X026538Y012201D01*
X026528Y012187D01*
X026515Y012174D01*
X026501Y012164D01*
X026485Y012157D01*
X026468Y012153D01*
X026451Y012151D01*
X025851Y012151D01*
X025834Y012153D01*
X025817Y012157D01*
X025801Y012164D01*
X025787Y012174D01*
X025774Y012187D01*
X025764Y012201D01*
X025757Y012217D01*
X025753Y012234D01*
X025751Y012251D01*
X025751Y012401D01*
X025801Y012451D01*
X025801Y013851D01*
X025751Y013901D01*
X025751Y014051D01*
X025753Y014068D01*
X025757Y014085D01*
X025764Y014101D01*
X025774Y014115D01*
X025787Y014128D01*
X025801Y014138D01*
X025817Y014145D01*
X025834Y014149D01*
X025851Y014151D01*
X026451Y014151D01*
X026468Y014149D01*
X026485Y014145D01*
X026501Y014138D01*
X026515Y014128D01*
X026528Y014115D01*
X026538Y014101D01*
X026545Y014085D01*
X026549Y014068D01*
X026551Y014051D01*
X024151Y013951D02*
X024151Y013351D01*
X024149Y013334D01*
X024145Y013317D01*
X024138Y013301D01*
X024128Y013287D01*
X024115Y013274D01*
X024101Y013264D01*
X024085Y013257D01*
X024068Y013253D01*
X024051Y013251D01*
X023901Y013251D01*
X023851Y013301D01*
X022451Y013301D01*
X022401Y013251D01*
X022251Y013251D01*
X022234Y013253D01*
X022217Y013257D01*
X022201Y013264D01*
X022187Y013274D01*
X022174Y013287D01*
X022164Y013301D01*
X022157Y013317D01*
X022153Y013334D01*
X022151Y013351D01*
X022151Y013951D01*
X022153Y013968D01*
X022157Y013985D01*
X022164Y014001D01*
X022174Y014015D01*
X022187Y014028D01*
X022201Y014038D01*
X022217Y014045D01*
X022234Y014049D01*
X022251Y014051D01*
X022401Y014051D01*
X022451Y014001D01*
X023851Y014001D01*
X023901Y014051D01*
X024051Y014051D01*
X024068Y014049D01*
X024085Y014045D01*
X024101Y014038D01*
X024115Y014028D01*
X024128Y014015D01*
X024138Y014001D01*
X024145Y013985D01*
X024149Y013968D01*
X024151Y013951D01*
X024051Y012551D02*
X023901Y012551D01*
X023851Y012501D01*
X022451Y012501D01*
X022401Y012551D01*
X022251Y012551D01*
X022234Y012549D01*
X022217Y012545D01*
X022201Y012538D01*
X022187Y012528D01*
X022174Y012515D01*
X022164Y012501D01*
X022157Y012485D01*
X022153Y012468D01*
X022151Y012451D01*
X022151Y011851D01*
X022153Y011834D01*
X022157Y011817D01*
X022164Y011801D01*
X022174Y011787D01*
X022187Y011774D01*
X022201Y011764D01*
X022217Y011757D01*
X022234Y011753D01*
X022251Y011751D01*
X022401Y011751D01*
X022451Y011801D01*
X023851Y011801D01*
X023901Y011751D01*
X024051Y011751D01*
X024068Y011753D01*
X024085Y011757D01*
X024101Y011764D01*
X024115Y011774D01*
X024128Y011787D01*
X024138Y011801D01*
X024145Y011817D01*
X024149Y011834D01*
X024151Y011851D01*
X024151Y012451D01*
X024149Y012468D01*
X024145Y012485D01*
X024138Y012501D01*
X024128Y012515D01*
X024115Y012528D01*
X024101Y012538D01*
X024085Y012545D01*
X024068Y012549D01*
X024051Y012551D01*
X024051Y011051D02*
X023901Y011051D01*
X023851Y011001D01*
X022451Y011001D01*
X022401Y011051D01*
X022251Y011051D01*
X022234Y011049D01*
X022217Y011045D01*
X022201Y011038D01*
X022187Y011028D01*
X022174Y011015D01*
X022164Y011001D01*
X022157Y010985D01*
X022153Y010968D01*
X022151Y010951D01*
X022151Y010351D01*
X022153Y010334D01*
X022157Y010317D01*
X022164Y010301D01*
X022174Y010287D01*
X022187Y010274D01*
X022201Y010264D01*
X022217Y010257D01*
X022234Y010253D01*
X022251Y010251D01*
X022401Y010251D01*
X022451Y010301D01*
X023851Y010301D01*
X023901Y010251D01*
X024051Y010251D01*
X024068Y010253D01*
X024085Y010257D01*
X024101Y010264D01*
X024115Y010274D01*
X024128Y010287D01*
X024138Y010301D01*
X024145Y010317D01*
X024149Y010334D01*
X024151Y010351D01*
X024151Y010951D01*
X024149Y010968D01*
X024145Y010985D01*
X024138Y011001D01*
X024128Y011015D01*
X024115Y011028D01*
X024101Y011038D01*
X024085Y011045D01*
X024068Y011049D01*
X024051Y011051D01*
X024051Y009551D02*
X023901Y009551D01*
X023851Y009501D01*
X022451Y009501D01*
X022401Y009551D01*
X022251Y009551D01*
X022234Y009549D01*
X022217Y009545D01*
X022201Y009538D01*
X022187Y009528D01*
X022174Y009515D01*
X022164Y009501D01*
X022157Y009485D01*
X022153Y009468D01*
X022151Y009451D01*
X022151Y008851D01*
X022153Y008834D01*
X022157Y008817D01*
X022164Y008801D01*
X022174Y008787D01*
X022187Y008774D01*
X022201Y008764D01*
X022217Y008757D01*
X022234Y008753D01*
X022251Y008751D01*
X022401Y008751D01*
X022451Y008801D01*
X023851Y008801D01*
X023901Y008751D01*
X024051Y008751D01*
X024068Y008753D01*
X024085Y008757D01*
X024101Y008764D01*
X024115Y008774D01*
X024128Y008787D01*
X024138Y008801D01*
X024145Y008817D01*
X024149Y008834D01*
X024151Y008851D01*
X024151Y009451D01*
X024149Y009468D01*
X024145Y009485D01*
X024138Y009501D01*
X024128Y009515D01*
X024115Y009528D01*
X024101Y009538D01*
X024085Y009545D01*
X024068Y009549D01*
X024051Y009551D01*
X022651Y007151D02*
X022651Y006751D01*
X022351Y006951D02*
X022353Y006985D01*
X022359Y007019D01*
X022368Y007052D01*
X022382Y007083D01*
X022399Y007113D01*
X022419Y007141D01*
X022442Y007166D01*
X022468Y007189D01*
X022496Y007208D01*
X022526Y007224D01*
X022558Y007236D01*
X022591Y007245D01*
X022625Y007250D01*
X022660Y007251D01*
X022694Y007248D01*
X022727Y007241D01*
X022760Y007231D01*
X022791Y007216D01*
X022820Y007199D01*
X022847Y007178D01*
X022872Y007154D01*
X022894Y007127D01*
X022912Y007099D01*
X022927Y007068D01*
X022939Y007036D01*
X022947Y007002D01*
X022951Y006968D01*
X022951Y006934D01*
X022947Y006900D01*
X022939Y006866D01*
X022927Y006834D01*
X022912Y006803D01*
X022894Y006775D01*
X022872Y006748D01*
X022847Y006724D01*
X022820Y006703D01*
X022791Y006686D01*
X022760Y006671D01*
X022727Y006661D01*
X022694Y006654D01*
X022660Y006651D01*
X022625Y006652D01*
X022591Y006657D01*
X022558Y006666D01*
X022526Y006678D01*
X022496Y006694D01*
X022468Y006713D01*
X022442Y006736D01*
X022419Y006761D01*
X022399Y006789D01*
X022382Y006819D01*
X022368Y006850D01*
X022359Y006883D01*
X022353Y006917D01*
X022351Y006951D01*
X022451Y006951D02*
X022851Y006951D01*
X021251Y005651D02*
X021254Y005769D01*
X021263Y005886D01*
X021277Y006003D01*
X021297Y006119D01*
X021323Y006234D01*
X021354Y006348D01*
X021391Y006460D01*
X021434Y006569D01*
X021481Y006677D01*
X021534Y006782D01*
X021592Y006885D01*
X021655Y006984D01*
X021723Y007081D01*
X021796Y007174D01*
X021873Y007263D01*
X021954Y007348D01*
X022039Y007429D01*
X022128Y007506D01*
X022221Y007579D01*
X022318Y007647D01*
X022417Y007710D01*
X022520Y007768D01*
X022625Y007821D01*
X022733Y007868D01*
X022842Y007911D01*
X022954Y007948D01*
X023068Y007979D01*
X023183Y008005D01*
X023299Y008025D01*
X023416Y008039D01*
X023533Y008048D01*
X023651Y008051D01*
X023769Y008048D01*
X023886Y008039D01*
X024003Y008025D01*
X024119Y008005D01*
X024234Y007979D01*
X024348Y007948D01*
X024460Y007911D01*
X024569Y007868D01*
X024677Y007821D01*
X024782Y007768D01*
X024885Y007710D01*
X024984Y007647D01*
X025081Y007579D01*
X025174Y007506D01*
X025263Y007429D01*
X025348Y007348D01*
X025429Y007263D01*
X025506Y007174D01*
X025579Y007081D01*
X025647Y006984D01*
X025710Y006885D01*
X025768Y006782D01*
X025821Y006677D01*
X025868Y006569D01*
X025911Y006460D01*
X025948Y006348D01*
X025979Y006234D01*
X026005Y006119D01*
X026025Y006003D01*
X026039Y005886D01*
X026048Y005769D01*
X026051Y005651D01*
X026048Y005533D01*
X026039Y005416D01*
X026025Y005299D01*
X026005Y005183D01*
X025979Y005068D01*
X025948Y004954D01*
X025911Y004842D01*
X025868Y004733D01*
X025821Y004625D01*
X025768Y004520D01*
X025710Y004417D01*
X025647Y004318D01*
X025579Y004221D01*
X025506Y004128D01*
X025429Y004039D01*
X025348Y003954D01*
X025263Y003873D01*
X025174Y003796D01*
X025081Y003723D01*
X024984Y003655D01*
X024885Y003592D01*
X024782Y003534D01*
X024677Y003481D01*
X024569Y003434D01*
X024460Y003391D01*
X024348Y003354D01*
X024234Y003323D01*
X024119Y003297D01*
X024003Y003277D01*
X023886Y003263D01*
X023769Y003254D01*
X023651Y003251D01*
X023533Y003254D01*
X023416Y003263D01*
X023299Y003277D01*
X023183Y003297D01*
X023068Y003323D01*
X022954Y003354D01*
X022842Y003391D01*
X022733Y003434D01*
X022625Y003481D01*
X022520Y003534D01*
X022417Y003592D01*
X022318Y003655D01*
X022221Y003723D01*
X022128Y003796D01*
X022039Y003873D01*
X021954Y003954D01*
X021873Y004039D01*
X021796Y004128D01*
X021723Y004221D01*
X021655Y004318D01*
X021592Y004417D01*
X021534Y004520D01*
X021481Y004625D01*
X021434Y004733D01*
X021391Y004842D01*
X021354Y004954D01*
X021323Y005068D01*
X021297Y005183D01*
X021277Y005299D01*
X021263Y005416D01*
X021254Y005533D01*
X021251Y005651D01*
X020151Y006401D02*
X020151Y006901D01*
X019901Y007151D01*
X020151Y007401D01*
X020151Y007901D01*
X019901Y008151D01*
X020151Y008401D01*
X020151Y008901D01*
X019901Y009151D01*
X020151Y009401D01*
X020151Y009901D01*
X019901Y010151D01*
X020151Y010401D01*
X020151Y010901D01*
X019901Y011151D01*
X020151Y011401D01*
X020151Y011901D01*
X019901Y012151D01*
X020151Y012401D01*
X020151Y012901D01*
X019901Y013151D01*
X020151Y013401D01*
X020151Y013901D01*
X019901Y014151D01*
X019401Y014151D01*
X019151Y013901D01*
X019151Y013401D01*
X019401Y013151D01*
X019151Y012901D01*
X019151Y012401D01*
X019401Y012151D01*
X019151Y011901D01*
X019151Y011401D01*
X019401Y011151D01*
X019151Y010901D01*
X019151Y010401D01*
X019401Y010151D01*
X019151Y009901D01*
X019151Y009401D01*
X019401Y009151D01*
X019151Y008901D01*
X019151Y008401D01*
X019401Y008151D01*
X019151Y007901D01*
X019151Y007401D01*
X019401Y007151D01*
X019151Y006901D01*
X019151Y006401D01*
X019401Y006151D01*
X019901Y006151D01*
X020151Y006401D01*
X018151Y006301D02*
X018151Y009001D01*
X018149Y009018D01*
X018145Y009035D01*
X018138Y009051D01*
X018128Y009065D01*
X018115Y009078D01*
X018101Y009088D01*
X018085Y009095D01*
X018068Y009099D01*
X018051Y009101D01*
X017251Y009101D01*
X017234Y009099D01*
X017217Y009095D01*
X017201Y009088D01*
X017187Y009078D01*
X017174Y009065D01*
X017164Y009051D01*
X017157Y009035D01*
X017153Y009018D01*
X017151Y009001D01*
X017151Y006301D01*
X017153Y006284D01*
X017157Y006267D01*
X017164Y006251D01*
X017174Y006237D01*
X017187Y006224D01*
X017201Y006214D01*
X017217Y006207D01*
X017234Y006203D01*
X017251Y006201D01*
X018051Y006201D01*
X018068Y006203D01*
X018085Y006207D01*
X018101Y006214D01*
X018115Y006224D01*
X018128Y006237D01*
X018138Y006251D01*
X018145Y006267D01*
X018149Y006284D01*
X018151Y006301D01*
X017651Y007051D02*
X017651Y007521D01*
X017651Y007771D02*
X017651Y008251D01*
X016651Y008551D02*
X016651Y007751D01*
X016551Y007651D01*
X015751Y007651D01*
X015651Y007751D01*
X015551Y007651D01*
X014751Y007651D01*
X014651Y007751D01*
X014551Y007651D01*
X013751Y007651D01*
X013651Y007751D01*
X013651Y008551D01*
X013751Y008651D01*
X014551Y008651D01*
X014651Y008551D01*
X014751Y008651D01*
X015551Y008651D01*
X015651Y008551D01*
X015751Y008651D01*
X016551Y008651D01*
X016651Y008551D01*
X015551Y009751D02*
X015401Y009751D01*
X015351Y009801D01*
X013951Y009801D01*
X013901Y009751D01*
X013751Y009751D01*
X013734Y009753D01*
X013717Y009757D01*
X013701Y009764D01*
X013687Y009774D01*
X013674Y009787D01*
X013664Y009801D01*
X013657Y009817D01*
X013653Y009834D01*
X013651Y009851D01*
X013651Y010451D01*
X013653Y010468D01*
X013657Y010485D01*
X013664Y010501D01*
X013674Y010515D01*
X013687Y010528D01*
X013701Y010538D01*
X013717Y010545D01*
X013734Y010549D01*
X013751Y010551D01*
X013901Y010551D01*
X013951Y010501D01*
X015351Y010501D01*
X015401Y010551D01*
X015551Y010551D01*
X015568Y010549D01*
X015585Y010545D01*
X015601Y010538D01*
X015615Y010528D01*
X015628Y010515D01*
X015638Y010501D01*
X015645Y010485D01*
X015649Y010468D01*
X015651Y010451D01*
X015651Y009851D01*
X015649Y009834D01*
X015645Y009817D01*
X015638Y009801D01*
X015628Y009787D01*
X015615Y009774D01*
X015601Y009764D01*
X015585Y009757D01*
X015568Y009753D01*
X015551Y009751D01*
X016651Y010751D02*
X016651Y011551D01*
X016751Y011651D01*
X016651Y011751D01*
X016651Y012551D01*
X016751Y012651D01*
X017551Y012651D01*
X017651Y012551D01*
X017651Y011751D01*
X017551Y011651D01*
X017651Y011551D01*
X017651Y010751D01*
X017551Y010651D01*
X016751Y010651D01*
X016651Y010751D01*
X011251Y006201D02*
X011151Y006201D01*
X011151Y006101D01*
X011151Y006201D02*
X011051Y006201D01*
X011151Y006201D02*
X011151Y006301D01*
X009651Y005651D02*
X009653Y005714D01*
X009659Y005776D01*
X009669Y005838D01*
X009682Y005900D01*
X009700Y005960D01*
X009721Y006019D01*
X009746Y006077D01*
X009775Y006133D01*
X009807Y006187D01*
X009842Y006239D01*
X009880Y006288D01*
X009922Y006336D01*
X009966Y006380D01*
X010014Y006422D01*
X010063Y006460D01*
X010115Y006495D01*
X010169Y006527D01*
X010225Y006556D01*
X010283Y006581D01*
X010342Y006602D01*
X010402Y006620D01*
X010464Y006633D01*
X010526Y006643D01*
X010588Y006649D01*
X010651Y006651D01*
X010714Y006649D01*
X010776Y006643D01*
X010838Y006633D01*
X010900Y006620D01*
X010960Y006602D01*
X011019Y006581D01*
X011077Y006556D01*
X011133Y006527D01*
X011187Y006495D01*
X011239Y006460D01*
X011288Y006422D01*
X011336Y006380D01*
X011380Y006336D01*
X011422Y006288D01*
X011460Y006239D01*
X011495Y006187D01*
X011527Y006133D01*
X011556Y006077D01*
X011581Y006019D01*
X011602Y005960D01*
X011620Y005900D01*
X011633Y005838D01*
X011643Y005776D01*
X011649Y005714D01*
X011651Y005651D01*
X011649Y005588D01*
X011643Y005526D01*
X011633Y005464D01*
X011620Y005402D01*
X011602Y005342D01*
X011581Y005283D01*
X011556Y005225D01*
X011527Y005169D01*
X011495Y005115D01*
X011460Y005063D01*
X011422Y005014D01*
X011380Y004966D01*
X011336Y004922D01*
X011288Y004880D01*
X011239Y004842D01*
X011187Y004807D01*
X011133Y004775D01*
X011077Y004746D01*
X011019Y004721D01*
X010960Y004700D01*
X010900Y004682D01*
X010838Y004669D01*
X010776Y004659D01*
X010714Y004653D01*
X010651Y004651D01*
X010588Y004653D01*
X010526Y004659D01*
X010464Y004669D01*
X010402Y004682D01*
X010342Y004700D01*
X010283Y004721D01*
X010225Y004746D01*
X010169Y004775D01*
X010115Y004807D01*
X010063Y004842D01*
X010014Y004880D01*
X009966Y004922D01*
X009922Y004966D01*
X009880Y005014D01*
X009842Y005063D01*
X009807Y005115D01*
X009775Y005169D01*
X009746Y005225D01*
X009721Y005283D01*
X009700Y005342D01*
X009682Y005402D01*
X009669Y005464D01*
X009659Y005526D01*
X009653Y005588D01*
X009651Y005651D01*
X007651Y005451D02*
X007651Y004851D01*
X007649Y004834D01*
X007645Y004817D01*
X007638Y004801D01*
X007628Y004787D01*
X007615Y004774D01*
X007601Y004764D01*
X007585Y004757D01*
X007568Y004753D01*
X007551Y004751D01*
X007401Y004751D01*
X007351Y004801D01*
X005951Y004801D01*
X005901Y004751D01*
X005751Y004751D01*
X005734Y004753D01*
X005717Y004757D01*
X005701Y004764D01*
X005687Y004774D01*
X005674Y004787D01*
X005664Y004801D01*
X005657Y004817D01*
X005653Y004834D01*
X005651Y004851D01*
X005651Y005451D01*
X005653Y005468D01*
X005657Y005485D01*
X005664Y005501D01*
X005674Y005515D01*
X005687Y005528D01*
X005701Y005538D01*
X005717Y005545D01*
X005734Y005549D01*
X005751Y005551D01*
X005901Y005551D01*
X005951Y005501D01*
X007351Y005501D01*
X007401Y005551D01*
X007551Y005551D01*
X007568Y005549D01*
X007585Y005545D01*
X007601Y005538D01*
X007615Y005528D01*
X007628Y005515D01*
X007638Y005501D01*
X007645Y005485D01*
X007649Y005468D01*
X007651Y005451D01*
X007551Y006251D02*
X007401Y006251D01*
X007351Y006301D01*
X005951Y006301D01*
X005901Y006251D01*
X005751Y006251D01*
X005734Y006253D01*
X005717Y006257D01*
X005701Y006264D01*
X005687Y006274D01*
X005674Y006287D01*
X005664Y006301D01*
X005657Y006317D01*
X005653Y006334D01*
X005651Y006351D01*
X005651Y006951D01*
X005653Y006968D01*
X005657Y006985D01*
X005664Y007001D01*
X005674Y007015D01*
X005687Y007028D01*
X005701Y007038D01*
X005717Y007045D01*
X005734Y007049D01*
X005751Y007051D01*
X005901Y007051D01*
X005951Y007001D01*
X007351Y007001D01*
X007401Y007051D01*
X007551Y007051D01*
X007568Y007049D01*
X007585Y007045D01*
X007601Y007038D01*
X007615Y007028D01*
X007628Y007015D01*
X007638Y007001D01*
X007645Y006985D01*
X007649Y006968D01*
X007651Y006951D01*
X007651Y006351D01*
X007649Y006334D01*
X007645Y006317D01*
X007638Y006301D01*
X007628Y006287D01*
X007615Y006274D01*
X007601Y006264D01*
X007585Y006257D01*
X007568Y006253D01*
X007551Y006251D01*
X007551Y004051D02*
X007401Y004051D01*
X007351Y004001D01*
X005951Y004001D01*
X005901Y004051D01*
X005751Y004051D01*
X005734Y004049D01*
X005717Y004045D01*
X005701Y004038D01*
X005687Y004028D01*
X005674Y004015D01*
X005664Y004001D01*
X005657Y003985D01*
X005653Y003968D01*
X005651Y003951D01*
X005651Y003351D01*
X005653Y003334D01*
X005657Y003317D01*
X005664Y003301D01*
X005674Y003287D01*
X005687Y003274D01*
X005701Y003264D01*
X005717Y003257D01*
X005734Y003253D01*
X005751Y003251D01*
X005901Y003251D01*
X005951Y003301D01*
X007351Y003301D01*
X007401Y003251D01*
X007551Y003251D01*
X007568Y003253D01*
X007585Y003257D01*
X007601Y003264D01*
X007615Y003274D01*
X007628Y003287D01*
X007638Y003301D01*
X007645Y003317D01*
X007649Y003334D01*
X007651Y003351D01*
X007651Y003951D01*
X007649Y003968D01*
X007645Y003985D01*
X007638Y004001D01*
X007628Y004015D01*
X007615Y004028D01*
X007601Y004038D01*
X007585Y004045D01*
X007568Y004049D01*
X007551Y004051D01*
X007401Y002151D02*
X006901Y002151D01*
X006651Y001901D01*
X006401Y002151D01*
X005901Y002151D01*
X005651Y001901D01*
X005401Y002151D01*
X004901Y002151D01*
X004651Y001901D01*
X004651Y001401D01*
X004901Y001151D01*
X005401Y001151D01*
X005651Y001401D01*
X005901Y001151D01*
X006401Y001151D01*
X006651Y001401D01*
X006901Y001151D01*
X007401Y001151D01*
X007651Y001401D01*
X007901Y001151D01*
X008401Y001151D01*
X008651Y001401D01*
X008651Y001901D01*
X008401Y002151D01*
X007901Y002151D01*
X007651Y001901D01*
X007401Y002151D01*
X010651Y001901D02*
X010651Y001401D01*
X010901Y001151D01*
X011401Y001151D01*
X011651Y001401D01*
X011901Y001151D01*
X012401Y001151D01*
X012651Y001401D01*
X012901Y001151D01*
X013401Y001151D01*
X013651Y001401D01*
X013901Y001151D01*
X014401Y001151D01*
X014651Y001401D01*
X014901Y001151D01*
X015401Y001151D01*
X015651Y001401D01*
X015901Y001151D01*
X016401Y001151D01*
X016651Y001401D01*
X016901Y001151D01*
X017401Y001151D01*
X017651Y001401D01*
X017651Y001901D01*
X017401Y002151D01*
X016901Y002151D01*
X016651Y001901D01*
X016401Y002151D01*
X015901Y002151D01*
X015651Y001901D01*
X015401Y002151D01*
X014901Y002151D01*
X014651Y001901D01*
X014401Y002151D01*
X013901Y002151D01*
X013651Y001901D01*
X013401Y002151D01*
X012901Y002151D01*
X012651Y001901D01*
X012401Y002151D01*
X011901Y002151D01*
X011651Y001901D01*
X011401Y002151D01*
X010901Y002151D01*
X010651Y001901D01*
X013751Y003751D02*
X013751Y003901D01*
X013801Y003951D01*
X013801Y005351D01*
X013751Y005401D01*
X013751Y005551D01*
X013753Y005568D01*
X013757Y005585D01*
X013764Y005601D01*
X013774Y005615D01*
X013787Y005628D01*
X013801Y005638D01*
X013817Y005645D01*
X013834Y005649D01*
X013851Y005651D01*
X014451Y005651D01*
X014468Y005649D01*
X014485Y005645D01*
X014501Y005638D01*
X014515Y005628D01*
X014528Y005615D01*
X014538Y005601D01*
X014545Y005585D01*
X014549Y005568D01*
X014551Y005551D01*
X014551Y005401D01*
X014501Y005351D01*
X014501Y003951D01*
X014551Y003901D01*
X014551Y003751D01*
X014549Y003734D01*
X014545Y003717D01*
X014538Y003701D01*
X014528Y003687D01*
X014515Y003674D01*
X014501Y003664D01*
X014485Y003657D01*
X014468Y003653D01*
X014451Y003651D01*
X013851Y003651D01*
X013834Y003653D01*
X013817Y003657D01*
X013801Y003664D01*
X013787Y003674D01*
X013774Y003687D01*
X013764Y003701D01*
X013757Y003717D01*
X013753Y003734D01*
X013751Y003751D01*
X015251Y003751D02*
X015251Y003901D01*
X015301Y003951D01*
X015301Y005351D01*
X015251Y005401D01*
X015251Y005551D01*
X015253Y005568D01*
X015257Y005585D01*
X015264Y005601D01*
X015274Y005615D01*
X015287Y005628D01*
X015301Y005638D01*
X015317Y005645D01*
X015334Y005649D01*
X015351Y005651D01*
X015951Y005651D01*
X015968Y005649D01*
X015985Y005645D01*
X016001Y005638D01*
X016015Y005628D01*
X016028Y005615D01*
X016038Y005601D01*
X016045Y005585D01*
X016049Y005568D01*
X016051Y005551D01*
X016051Y005401D01*
X016001Y005351D01*
X016001Y003951D01*
X016051Y003901D01*
X016051Y003751D01*
X016049Y003734D01*
X016045Y003717D01*
X016038Y003701D01*
X016028Y003687D01*
X016015Y003674D01*
X016001Y003664D01*
X015985Y003657D01*
X015968Y003653D01*
X015951Y003651D01*
X015351Y003651D01*
X015334Y003653D01*
X015317Y003657D01*
X015301Y003664D01*
X015287Y003674D01*
X015274Y003687D01*
X015264Y003701D01*
X015257Y003717D01*
X015253Y003734D01*
X015251Y003751D01*
X017009Y004851D02*
X018293Y004851D01*
X017009Y004851D02*
X016965Y004808D01*
X016925Y004763D01*
X016887Y004715D01*
X016852Y004665D01*
X016821Y004613D01*
X016793Y004559D01*
X016769Y004503D01*
X016748Y004446D01*
X016731Y004388D01*
X016718Y004328D01*
X016708Y004268D01*
X016703Y004208D01*
X016701Y004147D01*
X016703Y004086D01*
X016709Y004025D01*
X016719Y003965D01*
X016733Y003906D01*
X016751Y003848D01*
X016772Y003791D01*
X016797Y003735D01*
X016825Y003682D01*
X016857Y003630D01*
X016892Y003580D01*
X016930Y003532D01*
X016971Y003488D01*
X017015Y003445D01*
X017061Y003406D01*
X017110Y003370D01*
X017161Y003337D01*
X017215Y003307D01*
X017269Y003281D01*
X018033Y003281D02*
X018087Y003307D01*
X018141Y003337D01*
X018192Y003370D01*
X018241Y003406D01*
X018287Y003445D01*
X018331Y003488D01*
X018372Y003532D01*
X018410Y003580D01*
X018445Y003630D01*
X018477Y003682D01*
X018505Y003735D01*
X018530Y003791D01*
X018551Y003848D01*
X018569Y003906D01*
X018583Y003965D01*
X018593Y004025D01*
X018599Y004086D01*
X018601Y004147D01*
X018599Y004208D01*
X018594Y004268D01*
X018584Y004328D01*
X018571Y004388D01*
X018554Y004446D01*
X018533Y004503D01*
X018509Y004559D01*
X018481Y004613D01*
X018450Y004665D01*
X018415Y004715D01*
X018377Y004763D01*
X018337Y004808D01*
X018293Y004851D01*
X019401Y002151D02*
X019151Y001901D01*
X019151Y001401D01*
X019401Y001151D01*
X019901Y001151D01*
X020151Y001401D01*
X020401Y001151D01*
X020901Y001151D01*
X021151Y001401D01*
X021401Y001151D01*
X021901Y001151D01*
X022151Y001401D01*
X022401Y001151D01*
X022901Y001151D01*
X023151Y001401D01*
X023401Y001151D01*
X023901Y001151D01*
X024151Y001401D01*
X024401Y001151D01*
X024901Y001151D01*
X025151Y001401D01*
X025401Y001151D01*
X025901Y001151D01*
X026151Y001401D01*
X026401Y001151D01*
X026901Y001151D01*
X027151Y001401D01*
X027151Y001901D01*
X026901Y002151D01*
X026401Y002151D01*
X026151Y001901D01*
X025901Y002151D01*
X025401Y002151D01*
X025151Y001901D01*
X024901Y002151D01*
X024401Y002151D01*
X024151Y001901D01*
X023901Y002151D01*
X023401Y002151D01*
X023151Y001901D01*
X022901Y002151D01*
X022401Y002151D01*
X022151Y001901D01*
X021901Y002151D01*
X021401Y002151D01*
X021151Y001901D01*
X020901Y002151D01*
X020401Y002151D01*
X020151Y001901D01*
X019901Y002151D01*
X019401Y002151D01*
X023151Y005651D02*
X023153Y005695D01*
X023159Y005739D01*
X023169Y005782D01*
X023182Y005824D01*
X023199Y005865D01*
X023220Y005904D01*
X023244Y005941D01*
X023271Y005976D01*
X023301Y006008D01*
X023334Y006038D01*
X023370Y006064D01*
X023407Y006088D01*
X023447Y006107D01*
X023488Y006124D01*
X023531Y006136D01*
X023574Y006145D01*
X023618Y006150D01*
X023662Y006151D01*
X023706Y006148D01*
X023750Y006141D01*
X023793Y006130D01*
X023835Y006116D01*
X023875Y006098D01*
X023914Y006076D01*
X023950Y006052D01*
X023984Y006024D01*
X024016Y005993D01*
X024045Y005959D01*
X024071Y005923D01*
X024093Y005885D01*
X024112Y005845D01*
X024127Y005803D01*
X024139Y005761D01*
X024147Y005717D01*
X024151Y005673D01*
X024151Y005629D01*
X024147Y005585D01*
X024139Y005541D01*
X024127Y005499D01*
X024112Y005457D01*
X024093Y005417D01*
X024071Y005379D01*
X024045Y005343D01*
X024016Y005309D01*
X023984Y005278D01*
X023950Y005250D01*
X023914Y005226D01*
X023875Y005204D01*
X023835Y005186D01*
X023793Y005172D01*
X023750Y005161D01*
X023706Y005154D01*
X023662Y005151D01*
X023618Y005152D01*
X023574Y005157D01*
X023531Y005166D01*
X023488Y005178D01*
X023447Y005195D01*
X023407Y005214D01*
X023370Y005238D01*
X023334Y005264D01*
X023301Y005294D01*
X023271Y005326D01*
X023244Y005361D01*
X023220Y005398D01*
X023199Y005437D01*
X023182Y005478D01*
X023169Y005520D01*
X023159Y005563D01*
X023153Y005607D01*
X023151Y005651D01*
X026751Y004901D02*
X026751Y004751D01*
X026753Y004734D01*
X026757Y004717D01*
X026764Y004701D01*
X026774Y004687D01*
X026787Y004674D01*
X026801Y004664D01*
X026817Y004657D01*
X026834Y004653D01*
X026851Y004651D01*
X027451Y004651D01*
X027468Y004653D01*
X027485Y004657D01*
X027501Y004664D01*
X027515Y004674D01*
X027528Y004687D01*
X027538Y004701D01*
X027545Y004717D01*
X027549Y004734D01*
X027551Y004751D01*
X027551Y004901D01*
X027501Y004951D01*
X027501Y006351D01*
X027551Y006401D01*
X027551Y006551D01*
X027549Y006568D01*
X027545Y006585D01*
X027538Y006601D01*
X027528Y006615D01*
X027515Y006628D01*
X027501Y006638D01*
X027485Y006645D01*
X027468Y006649D01*
X027451Y006651D01*
X026851Y006651D01*
X026834Y006649D01*
X026817Y006645D01*
X026801Y006638D01*
X026787Y006628D01*
X026774Y006615D01*
X026764Y006601D01*
X026757Y006585D01*
X026753Y006568D01*
X026751Y006551D01*
X026751Y006401D01*
X026801Y006351D01*
X026801Y004951D01*
X026751Y004901D01*
X028651Y005151D02*
X028651Y004151D01*
X032651Y004151D01*
X032651Y005151D01*
X028651Y005151D01*
X028651Y005751D01*
X028690Y005753D01*
X028729Y005759D01*
X028767Y005768D01*
X028804Y005781D01*
X028840Y005798D01*
X028873Y005818D01*
X028905Y005842D01*
X028934Y005868D01*
X028960Y005897D01*
X028984Y005929D01*
X029004Y005962D01*
X029021Y005998D01*
X029034Y006035D01*
X029043Y006073D01*
X029049Y006112D01*
X029051Y006151D01*
X029049Y006190D01*
X029043Y006229D01*
X029034Y006267D01*
X029021Y006304D01*
X029004Y006340D01*
X028984Y006373D01*
X028960Y006405D01*
X028934Y006434D01*
X028905Y006460D01*
X028873Y006484D01*
X028840Y006504D01*
X028804Y006521D01*
X028767Y006534D01*
X028729Y006543D01*
X028690Y006549D01*
X028651Y006551D01*
X028651Y007151D01*
X032651Y007151D01*
X032651Y005151D01*
X033651Y004801D02*
X033651Y007501D01*
X033653Y007518D01*
X033657Y007535D01*
X033664Y007551D01*
X033674Y007565D01*
X033687Y007578D01*
X033701Y007588D01*
X033717Y007595D01*
X033734Y007599D01*
X033751Y007601D01*
X034551Y007601D01*
X034568Y007599D01*
X034585Y007595D01*
X034601Y007588D01*
X034615Y007578D01*
X034628Y007565D01*
X034638Y007551D01*
X034645Y007535D01*
X034649Y007518D01*
X034651Y007501D01*
X034651Y004801D01*
X034649Y004784D01*
X034645Y004767D01*
X034638Y004751D01*
X034628Y004737D01*
X034615Y004724D01*
X034601Y004714D01*
X034585Y004707D01*
X034568Y004703D01*
X034551Y004701D01*
X033751Y004701D01*
X033734Y004703D01*
X033717Y004707D01*
X033701Y004714D01*
X033687Y004724D01*
X033674Y004737D01*
X033664Y004751D01*
X033657Y004767D01*
X033653Y004784D01*
X033651Y004801D01*
X034151Y005551D02*
X034151Y006021D01*
X034151Y006271D02*
X034151Y006751D01*
X032651Y007151D02*
X032651Y008151D01*
X028651Y008151D01*
X028651Y007151D01*
X028301Y009151D02*
X031001Y009151D01*
X031018Y009153D01*
X031035Y009157D01*
X031051Y009164D01*
X031065Y009174D01*
X031078Y009187D01*
X031088Y009201D01*
X031095Y009217D01*
X031099Y009234D01*
X031101Y009251D01*
X031101Y010051D01*
X031099Y010068D01*
X031095Y010085D01*
X031088Y010101D01*
X031078Y010115D01*
X031065Y010128D01*
X031051Y010138D01*
X031035Y010145D01*
X031018Y010149D01*
X031001Y010151D01*
X028301Y010151D01*
X028284Y010149D01*
X028267Y010145D01*
X028251Y010138D01*
X028237Y010128D01*
X028224Y010115D01*
X028214Y010101D01*
X028207Y010085D01*
X028203Y010068D01*
X028201Y010051D01*
X028201Y009251D01*
X028203Y009234D01*
X028207Y009217D01*
X028214Y009201D01*
X028224Y009187D01*
X028237Y009174D01*
X028251Y009164D01*
X028267Y009157D01*
X028284Y009153D01*
X028301Y009151D01*
X029051Y009651D02*
X029531Y009651D01*
X029781Y009651D02*
X030251Y009651D01*
X034151Y009351D02*
X034151Y009951D01*
X034153Y009968D01*
X034157Y009985D01*
X034164Y010001D01*
X034174Y010015D01*
X034187Y010028D01*
X034201Y010038D01*
X034217Y010045D01*
X034234Y010049D01*
X034251Y010051D01*
X034401Y010051D01*
X034451Y010001D01*
X035851Y010001D01*
X035901Y010051D01*
X036051Y010051D01*
X036068Y010049D01*
X036085Y010045D01*
X036101Y010038D01*
X036115Y010028D01*
X036128Y010015D01*
X036138Y010001D01*
X036145Y009985D01*
X036149Y009968D01*
X036151Y009951D01*
X036151Y009351D01*
X036149Y009334D01*
X036145Y009317D01*
X036138Y009301D01*
X036128Y009287D01*
X036115Y009274D01*
X036101Y009264D01*
X036085Y009257D01*
X036068Y009253D01*
X036051Y009251D01*
X035901Y009251D01*
X035851Y009301D01*
X034451Y009301D01*
X034401Y009251D01*
X034251Y009251D01*
X034234Y009253D01*
X034217Y009257D01*
X034201Y009264D01*
X034187Y009274D01*
X034174Y009287D01*
X034164Y009301D01*
X034157Y009317D01*
X034153Y009334D01*
X034151Y009351D01*
X034251Y011751D02*
X034401Y011751D01*
X034451Y011801D01*
X035851Y011801D01*
X035901Y011751D01*
X036051Y011751D01*
X036068Y011753D01*
X036085Y011757D01*
X036101Y011764D01*
X036115Y011774D01*
X036128Y011787D01*
X036138Y011801D01*
X036145Y011817D01*
X036149Y011834D01*
X036151Y011851D01*
X036151Y012451D01*
X036149Y012468D01*
X036145Y012485D01*
X036138Y012501D01*
X036128Y012515D01*
X036115Y012528D01*
X036101Y012538D01*
X036085Y012545D01*
X036068Y012549D01*
X036051Y012551D01*
X035901Y012551D01*
X035851Y012501D01*
X034451Y012501D01*
X034401Y012551D01*
X034251Y012551D01*
X034234Y012549D01*
X034217Y012545D01*
X034201Y012538D01*
X034187Y012528D01*
X034174Y012515D01*
X034164Y012501D01*
X034157Y012485D01*
X034153Y012468D01*
X034151Y012451D01*
X034151Y011851D01*
X034153Y011834D01*
X034157Y011817D01*
X034164Y011801D01*
X034174Y011787D01*
X034187Y011774D01*
X034201Y011764D01*
X034217Y011757D01*
X034234Y011753D01*
X034251Y011751D01*
X034251Y013751D02*
X034401Y013751D01*
X034451Y013801D01*
X035851Y013801D01*
X035901Y013751D01*
X036051Y013751D01*
X036068Y013753D01*
X036085Y013757D01*
X036101Y013764D01*
X036115Y013774D01*
X036128Y013787D01*
X036138Y013801D01*
X036145Y013817D01*
X036149Y013834D01*
X036151Y013851D01*
X036151Y014451D01*
X036149Y014468D01*
X036145Y014485D01*
X036138Y014501D01*
X036128Y014515D01*
X036115Y014528D01*
X036101Y014538D01*
X036085Y014545D01*
X036068Y014549D01*
X036051Y014551D01*
X035901Y014551D01*
X035851Y014501D01*
X034451Y014501D01*
X034401Y014551D01*
X034251Y014551D01*
X034234Y014549D01*
X034217Y014545D01*
X034201Y014538D01*
X034187Y014528D01*
X034174Y014515D01*
X034164Y014501D01*
X034157Y014485D01*
X034153Y014468D01*
X034151Y014451D01*
X034151Y013851D01*
X034153Y013834D01*
X034157Y013817D01*
X034164Y013801D01*
X034174Y013787D01*
X034187Y013774D01*
X034201Y013764D01*
X034217Y013757D01*
X034234Y013753D01*
X034251Y013751D01*
X037651Y013901D02*
X037651Y013401D01*
X037901Y013151D01*
X037651Y012901D01*
X037651Y012401D01*
X037901Y012151D01*
X037651Y011901D01*
X037651Y011401D01*
X037901Y011151D01*
X037651Y010901D01*
X037651Y010401D01*
X037901Y010151D01*
X038401Y010151D01*
X038651Y010401D01*
X038651Y010901D01*
X038401Y011151D01*
X038651Y011401D01*
X038651Y011901D01*
X038401Y012151D01*
X038651Y012401D01*
X038651Y012901D01*
X038401Y013151D01*
X038651Y013401D01*
X038651Y013901D01*
X038401Y014151D01*
X038651Y014401D01*
X038651Y014901D01*
X038401Y015151D01*
X037901Y015151D01*
X037651Y014901D01*
X037651Y014401D01*
X037901Y014151D01*
X037651Y013901D01*
X037851Y016651D02*
X038451Y016651D01*
X038468Y016653D01*
X038485Y016657D01*
X038501Y016664D01*
X038515Y016674D01*
X038528Y016687D01*
X038538Y016701D01*
X038545Y016717D01*
X038549Y016734D01*
X038551Y016751D01*
X038551Y016901D01*
X038501Y016951D01*
X038501Y018351D01*
X038551Y018401D01*
X038551Y018551D01*
X038549Y018568D01*
X038545Y018585D01*
X038538Y018601D01*
X038528Y018615D01*
X038515Y018628D01*
X038501Y018638D01*
X038485Y018645D01*
X038468Y018649D01*
X038451Y018651D01*
X037851Y018651D01*
X037834Y018649D01*
X037817Y018645D01*
X037801Y018638D01*
X037787Y018628D01*
X037774Y018615D01*
X037764Y018601D01*
X037757Y018585D01*
X037753Y018568D01*
X037751Y018551D01*
X037751Y018401D01*
X037801Y018351D01*
X037801Y016951D01*
X037751Y016901D01*
X037751Y016751D01*
X037753Y016734D01*
X037757Y016717D01*
X037764Y016701D01*
X037774Y016687D01*
X037787Y016674D01*
X037801Y016664D01*
X037817Y016657D01*
X037834Y016653D01*
X037851Y016651D01*
X030251Y025651D02*
X029781Y025651D01*
X029531Y025651D02*
X029051Y025651D01*
X020651Y024451D02*
X020651Y023851D01*
X020649Y023834D01*
X020645Y023817D01*
X020638Y023801D01*
X020628Y023787D01*
X020615Y023774D01*
X020601Y023764D01*
X020585Y023757D01*
X020568Y023753D01*
X020551Y023751D01*
X020401Y023751D01*
X020351Y023801D01*
X018951Y023801D01*
X018901Y023751D01*
X018751Y023751D01*
X018734Y023753D01*
X018717Y023757D01*
X018701Y023764D01*
X018687Y023774D01*
X018674Y023787D01*
X018664Y023801D01*
X018657Y023817D01*
X018653Y023834D01*
X018651Y023851D01*
X018651Y024451D01*
X018653Y024468D01*
X018657Y024485D01*
X018664Y024501D01*
X018674Y024515D01*
X018687Y024528D01*
X018701Y024538D01*
X018717Y024545D01*
X018734Y024549D01*
X018751Y024551D01*
X018901Y024551D01*
X018951Y024501D01*
X020351Y024501D01*
X020401Y024551D01*
X020551Y024551D01*
X020568Y024549D01*
X020585Y024545D01*
X020601Y024538D01*
X020615Y024528D01*
X020628Y024515D01*
X020638Y024501D01*
X020645Y024485D01*
X020649Y024468D01*
X020651Y024451D01*
X020551Y023051D02*
X020401Y023051D01*
X020351Y023001D01*
X018951Y023001D01*
X018901Y023051D01*
X018751Y023051D01*
X018734Y023049D01*
X018717Y023045D01*
X018701Y023038D01*
X018687Y023028D01*
X018674Y023015D01*
X018664Y023001D01*
X018657Y022985D01*
X018653Y022968D01*
X018651Y022951D01*
X018651Y022351D01*
X018653Y022334D01*
X018657Y022317D01*
X018664Y022301D01*
X018674Y022287D01*
X018687Y022274D01*
X018701Y022264D01*
X018717Y022257D01*
X018734Y022253D01*
X018751Y022251D01*
X018901Y022251D01*
X018951Y022301D01*
X020351Y022301D01*
X020401Y022251D01*
X020551Y022251D01*
X020568Y022253D01*
X020585Y022257D01*
X020601Y022264D01*
X020615Y022274D01*
X020628Y022287D01*
X020638Y022301D01*
X020645Y022317D01*
X020649Y022334D01*
X020651Y022351D01*
X020651Y022951D01*
X020649Y022968D01*
X020645Y022985D01*
X020638Y023001D01*
X020628Y023015D01*
X020615Y023028D01*
X020601Y023038D01*
X020585Y023045D01*
X020568Y023049D01*
X020551Y023051D01*
X016651Y022301D02*
X016651Y020001D01*
X009651Y020001D01*
X009651Y020751D01*
X009690Y020753D01*
X009729Y020759D01*
X009767Y020768D01*
X009804Y020781D01*
X009840Y020798D01*
X009873Y020818D01*
X009905Y020842D01*
X009934Y020868D01*
X009960Y020897D01*
X009984Y020929D01*
X010004Y020962D01*
X010021Y020998D01*
X010034Y021035D01*
X010043Y021073D01*
X010049Y021112D01*
X010051Y021151D01*
X010049Y021190D01*
X010043Y021229D01*
X010034Y021267D01*
X010021Y021304D01*
X010004Y021340D01*
X009984Y021373D01*
X009960Y021405D01*
X009934Y021434D01*
X009905Y021460D01*
X009873Y021484D01*
X009840Y021504D01*
X009804Y021521D01*
X009767Y021534D01*
X009729Y021543D01*
X009690Y021549D01*
X009651Y021551D01*
X009651Y022301D01*
X016651Y022301D01*
X015451Y025651D02*
X014851Y025651D01*
X014834Y025653D01*
X014817Y025657D01*
X014801Y025664D01*
X014787Y025674D01*
X014774Y025687D01*
X014764Y025701D01*
X014757Y025717D01*
X014753Y025734D01*
X014751Y025751D01*
X014751Y025901D01*
X014801Y025951D01*
X014801Y027351D01*
X014751Y027401D01*
X014751Y027551D01*
X014753Y027568D01*
X014757Y027585D01*
X014764Y027601D01*
X014774Y027615D01*
X014787Y027628D01*
X014801Y027638D01*
X014817Y027645D01*
X014834Y027649D01*
X014851Y027651D01*
X015451Y027651D01*
X015468Y027649D01*
X015485Y027645D01*
X015501Y027638D01*
X015515Y027628D01*
X015528Y027615D01*
X015538Y027601D01*
X015545Y027585D01*
X015549Y027568D01*
X015551Y027551D01*
X015551Y027401D01*
X015501Y027351D01*
X015501Y025951D01*
X015551Y025901D01*
X015551Y025751D01*
X015549Y025734D01*
X015545Y025717D01*
X015538Y025701D01*
X015528Y025687D01*
X015515Y025674D01*
X015501Y025664D01*
X015485Y025657D01*
X015468Y025653D01*
X015451Y025651D01*
X014051Y025751D02*
X014051Y025901D01*
X014001Y025951D01*
X014001Y027351D01*
X014051Y027401D01*
X014051Y027551D01*
X014049Y027568D01*
X014045Y027585D01*
X014038Y027601D01*
X014028Y027615D01*
X014015Y027628D01*
X014001Y027638D01*
X013985Y027645D01*
X013968Y027649D01*
X013951Y027651D01*
X013351Y027651D01*
X013334Y027649D01*
X013317Y027645D01*
X013301Y027638D01*
X013287Y027628D01*
X013274Y027615D01*
X013264Y027601D01*
X013257Y027585D01*
X013253Y027568D01*
X013251Y027551D01*
X013251Y027401D01*
X013301Y027351D01*
X013301Y025951D01*
X013251Y025901D01*
X013251Y025751D01*
X013253Y025734D01*
X013257Y025717D01*
X013264Y025701D01*
X013274Y025687D01*
X013287Y025674D01*
X013301Y025664D01*
X013317Y025657D01*
X013334Y025653D01*
X013351Y025651D01*
X013951Y025651D01*
X013968Y025653D01*
X013985Y025657D01*
X014001Y025664D01*
X014015Y025674D01*
X014028Y025687D01*
X014038Y025701D01*
X014045Y025717D01*
X014049Y025734D01*
X014051Y025751D01*
X013051Y025751D02*
X013051Y025901D01*
X013001Y025951D01*
X013001Y027351D01*
X013051Y027401D01*
X013051Y027551D01*
X013049Y027568D01*
X013045Y027585D01*
X013038Y027601D01*
X013028Y027615D01*
X013015Y027628D01*
X013001Y027638D01*
X012985Y027645D01*
X012968Y027649D01*
X012951Y027651D01*
X012351Y027651D01*
X012334Y027649D01*
X012317Y027645D01*
X012301Y027638D01*
X012287Y027628D01*
X012274Y027615D01*
X012264Y027601D01*
X012257Y027585D01*
X012253Y027568D01*
X012251Y027551D01*
X012251Y027401D01*
X012301Y027351D01*
X012301Y025951D01*
X012251Y025901D01*
X012251Y025751D01*
X012253Y025734D01*
X012257Y025717D01*
X012264Y025701D01*
X012274Y025687D01*
X012287Y025674D01*
X012301Y025664D01*
X012317Y025657D01*
X012334Y025653D01*
X012351Y025651D01*
X012951Y025651D01*
X012968Y025653D01*
X012985Y025657D01*
X013001Y025664D01*
X013015Y025674D01*
X013028Y025687D01*
X013038Y025701D01*
X013045Y025717D01*
X013049Y025734D01*
X013051Y025751D01*
X012551Y024551D02*
X012401Y024551D01*
X012351Y024501D01*
X010951Y024501D01*
X010901Y024551D01*
X010751Y024551D01*
X010734Y024549D01*
X010717Y024545D01*
X010701Y024538D01*
X010687Y024528D01*
X010674Y024515D01*
X010664Y024501D01*
X010657Y024485D01*
X010653Y024468D01*
X010651Y024451D01*
X010651Y023851D01*
X010653Y023834D01*
X010657Y023817D01*
X010664Y023801D01*
X010674Y023787D01*
X010687Y023774D01*
X010701Y023764D01*
X010717Y023757D01*
X010734Y023753D01*
X010751Y023751D01*
X010901Y023751D01*
X010951Y023801D01*
X012351Y023801D01*
X012401Y023751D01*
X012551Y023751D01*
X012568Y023753D01*
X012585Y023757D01*
X012601Y023764D01*
X012615Y023774D01*
X012628Y023787D01*
X012638Y023801D01*
X012645Y023817D01*
X012649Y023834D01*
X012651Y023851D01*
X012651Y024451D01*
X012649Y024468D01*
X012645Y024485D01*
X012638Y024501D01*
X012628Y024515D01*
X012615Y024528D01*
X012601Y024538D01*
X012585Y024545D01*
X012568Y024549D01*
X012551Y024551D01*
X011451Y025651D02*
X010851Y025651D01*
X010834Y025653D01*
X010817Y025657D01*
X010801Y025664D01*
X010787Y025674D01*
X010774Y025687D01*
X010764Y025701D01*
X010757Y025717D01*
X010753Y025734D01*
X010751Y025751D01*
X010751Y025901D01*
X010801Y025951D01*
X010801Y027351D01*
X010751Y027401D01*
X010751Y027551D01*
X010753Y027568D01*
X010757Y027585D01*
X010764Y027601D01*
X010774Y027615D01*
X010787Y027628D01*
X010801Y027638D01*
X010817Y027645D01*
X010834Y027649D01*
X010851Y027651D01*
X011451Y027651D01*
X011468Y027649D01*
X011485Y027645D01*
X011501Y027638D01*
X011515Y027628D01*
X011528Y027615D01*
X011538Y027601D01*
X011545Y027585D01*
X011549Y027568D01*
X011551Y027551D01*
X011551Y027401D01*
X011501Y027351D01*
X011501Y025951D01*
X011551Y025901D01*
X011551Y025751D01*
X011549Y025734D01*
X011545Y025717D01*
X011538Y025701D01*
X011528Y025687D01*
X011515Y025674D01*
X011501Y025664D01*
X011485Y025657D01*
X011468Y025653D01*
X011451Y025651D01*
X008651Y026301D02*
X008651Y029001D01*
X008649Y029018D01*
X008645Y029035D01*
X008638Y029051D01*
X008628Y029065D01*
X008615Y029078D01*
X008601Y029088D01*
X008585Y029095D01*
X008568Y029099D01*
X008551Y029101D01*
X007751Y029101D01*
X007734Y029099D01*
X007717Y029095D01*
X007701Y029088D01*
X007687Y029078D01*
X007674Y029065D01*
X007664Y029051D01*
X007657Y029035D01*
X007653Y029018D01*
X007651Y029001D01*
X007651Y026301D01*
X007653Y026284D01*
X007657Y026267D01*
X007664Y026251D01*
X007674Y026237D01*
X007687Y026224D01*
X007701Y026214D01*
X007717Y026207D01*
X007734Y026203D01*
X007751Y026201D01*
X008551Y026201D01*
X008568Y026203D01*
X008585Y026207D01*
X008601Y026214D01*
X008615Y026224D01*
X008628Y026237D01*
X008638Y026251D01*
X008645Y026267D01*
X008649Y026284D01*
X008651Y026301D01*
X008151Y027051D02*
X008151Y027521D01*
X008151Y027771D02*
X008151Y028251D01*
X006551Y028051D02*
X006551Y027901D01*
X006501Y027851D01*
X006501Y026451D01*
X006551Y026401D01*
X006551Y026251D01*
X006549Y026234D01*
X006545Y026217D01*
X006538Y026201D01*
X006528Y026187D01*
X006515Y026174D01*
X006501Y026164D01*
X006485Y026157D01*
X006468Y026153D01*
X006451Y026151D01*
X005851Y026151D01*
X005834Y026153D01*
X005817Y026157D01*
X005801Y026164D01*
X005787Y026174D01*
X005774Y026187D01*
X005764Y026201D01*
X005757Y026217D01*
X005753Y026234D01*
X005751Y026251D01*
X005751Y026401D01*
X005801Y026451D01*
X005801Y027851D01*
X005751Y027901D01*
X005751Y028051D01*
X005753Y028068D01*
X005757Y028085D01*
X005764Y028101D01*
X005774Y028115D01*
X005787Y028128D01*
X005801Y028138D01*
X005817Y028145D01*
X005834Y028149D01*
X005851Y028151D01*
X006451Y028151D01*
X006468Y028149D01*
X006485Y028145D01*
X006501Y028138D01*
X006515Y028128D01*
X006528Y028115D01*
X006538Y028101D01*
X006545Y028085D01*
X006549Y028068D01*
X006551Y028051D01*
X005051Y028051D02*
X005051Y027901D01*
X005001Y027851D01*
X005001Y026451D01*
X005051Y026401D01*
X005051Y026251D01*
X005049Y026234D01*
X005045Y026217D01*
X005038Y026201D01*
X005028Y026187D01*
X005015Y026174D01*
X005001Y026164D01*
X004985Y026157D01*
X004968Y026153D01*
X004951Y026151D01*
X004351Y026151D01*
X004334Y026153D01*
X004317Y026157D01*
X004301Y026164D01*
X004287Y026174D01*
X004274Y026187D01*
X004264Y026201D01*
X004257Y026217D01*
X004253Y026234D01*
X004251Y026251D01*
X004251Y026401D01*
X004301Y026451D01*
X004301Y027851D01*
X004251Y027901D01*
X004251Y028051D01*
X004253Y028068D01*
X004257Y028085D01*
X004264Y028101D01*
X004274Y028115D01*
X004287Y028128D01*
X004301Y028138D01*
X004317Y028145D01*
X004334Y028149D01*
X004351Y028151D01*
X004951Y028151D01*
X004968Y028149D01*
X004985Y028145D01*
X005001Y028138D01*
X005015Y028128D01*
X005028Y028115D01*
X005038Y028101D01*
X005045Y028085D01*
X005049Y028068D01*
X005051Y028051D01*
X005901Y029651D02*
X006401Y029651D01*
X006651Y029901D01*
X006901Y029651D01*
X007401Y029651D01*
X007651Y029901D01*
X007901Y029651D01*
X008401Y029651D01*
X008651Y029901D01*
X008651Y030401D01*
X008401Y030651D01*
X007901Y030651D01*
X007651Y030401D01*
X007401Y030651D01*
X006901Y030651D01*
X006651Y030401D01*
X006401Y030651D01*
X005901Y030651D01*
X005651Y030401D01*
X005651Y029901D01*
X005901Y029651D01*
X000501Y030151D02*
X000503Y030218D01*
X000509Y030286D01*
X000519Y030353D01*
X000533Y030419D01*
X000550Y030484D01*
X000572Y030548D01*
X000597Y030611D01*
X000626Y030672D01*
X000658Y030731D01*
X000694Y030788D01*
X000733Y030843D01*
X000775Y030896D01*
X000820Y030946D01*
X000868Y030993D01*
X000919Y031038D01*
X000972Y031079D01*
X001028Y031118D01*
X001086Y031153D01*
X001146Y031184D01*
X001207Y031212D01*
X001270Y031236D01*
X001334Y031257D01*
X001400Y031273D01*
X001466Y031286D01*
X001533Y031295D01*
X001600Y031300D01*
X001668Y031301D01*
X001735Y031298D01*
X001802Y031291D01*
X001869Y031280D01*
X001935Y031265D01*
X002000Y031247D01*
X002064Y031224D01*
X002126Y031198D01*
X002187Y031169D01*
X002245Y031135D01*
X002302Y031099D01*
X002357Y031059D01*
X002409Y031016D01*
X002458Y030970D01*
X002505Y030921D01*
X002549Y030870D01*
X002589Y030816D01*
X002627Y030760D01*
X002661Y030701D01*
X002691Y030641D01*
X002718Y030579D01*
X002742Y030516D01*
X002761Y030451D01*
X002777Y030386D01*
X002789Y030319D01*
X002797Y030252D01*
X002801Y030185D01*
X002801Y030117D01*
X002797Y030050D01*
X002789Y029983D01*
X002777Y029916D01*
X002761Y029851D01*
X002742Y029786D01*
X002718Y029723D01*
X002691Y029661D01*
X002661Y029601D01*
X002627Y029542D01*
X002589Y029486D01*
X002549Y029432D01*
X002505Y029381D01*
X002458Y029332D01*
X002409Y029286D01*
X002357Y029243D01*
X002302Y029203D01*
X002245Y029167D01*
X002187Y029133D01*
X002126Y029104D01*
X002064Y029078D01*
X002000Y029055D01*
X001935Y029037D01*
X001869Y029022D01*
X001802Y029011D01*
X001735Y029004D01*
X001668Y029001D01*
X001600Y029002D01*
X001533Y029007D01*
X001466Y029016D01*
X001400Y029029D01*
X001334Y029045D01*
X001270Y029066D01*
X001207Y029090D01*
X001146Y029118D01*
X001086Y029149D01*
X001028Y029184D01*
X000972Y029223D01*
X000919Y029264D01*
X000868Y029309D01*
X000820Y029356D01*
X000775Y029406D01*
X000733Y029459D01*
X000694Y029514D01*
X000658Y029571D01*
X000626Y029630D01*
X000597Y029691D01*
X000572Y029754D01*
X000550Y029818D01*
X000533Y029883D01*
X000519Y029949D01*
X000509Y030016D01*
X000503Y030084D01*
X000501Y030151D01*
X003831Y024513D02*
X003831Y023789D01*
X005471Y023789D01*
X005471Y024513D01*
X003831Y024513D01*
X004251Y024401D02*
X004651Y024151D01*
X004651Y024401D01*
X004651Y024151D02*
X004251Y023901D01*
X004251Y024401D01*
X004051Y024151D02*
X004651Y024151D01*
X004651Y023901D01*
X004651Y024151D02*
X004901Y024151D01*
X007151Y023051D02*
X007251Y023151D01*
X008051Y023151D01*
X008151Y023051D01*
X008151Y022251D01*
X008051Y022151D01*
X008151Y022051D01*
X008151Y021251D01*
X008051Y021151D01*
X008151Y021051D01*
X008151Y020251D01*
X008051Y020151D01*
X007251Y020151D01*
X007151Y020251D01*
X007151Y021051D01*
X007251Y021151D01*
X007151Y021251D01*
X007151Y022051D01*
X007251Y022151D01*
X007151Y022251D01*
X007151Y023051D01*
X004151Y021651D02*
X004153Y021714D01*
X004159Y021776D01*
X004169Y021838D01*
X004182Y021900D01*
X004200Y021960D01*
X004221Y022019D01*
X004246Y022077D01*
X004275Y022133D01*
X004307Y022187D01*
X004342Y022239D01*
X004380Y022288D01*
X004422Y022336D01*
X004466Y022380D01*
X004514Y022422D01*
X004563Y022460D01*
X004615Y022495D01*
X004669Y022527D01*
X004725Y022556D01*
X004783Y022581D01*
X004842Y022602D01*
X004902Y022620D01*
X004964Y022633D01*
X005026Y022643D01*
X005088Y022649D01*
X005151Y022651D01*
X005214Y022649D01*
X005276Y022643D01*
X005338Y022633D01*
X005400Y022620D01*
X005460Y022602D01*
X005519Y022581D01*
X005577Y022556D01*
X005633Y022527D01*
X005687Y022495D01*
X005739Y022460D01*
X005788Y022422D01*
X005836Y022380D01*
X005880Y022336D01*
X005922Y022288D01*
X005960Y022239D01*
X005995Y022187D01*
X006027Y022133D01*
X006056Y022077D01*
X006081Y022019D01*
X006102Y021960D01*
X006120Y021900D01*
X006133Y021838D01*
X006143Y021776D01*
X006149Y021714D01*
X006151Y021651D01*
X006149Y021588D01*
X006143Y021526D01*
X006133Y021464D01*
X006120Y021402D01*
X006102Y021342D01*
X006081Y021283D01*
X006056Y021225D01*
X006027Y021169D01*
X005995Y021115D01*
X005960Y021063D01*
X005922Y021014D01*
X005880Y020966D01*
X005836Y020922D01*
X005788Y020880D01*
X005739Y020842D01*
X005687Y020807D01*
X005633Y020775D01*
X005577Y020746D01*
X005519Y020721D01*
X005460Y020700D01*
X005400Y020682D01*
X005338Y020669D01*
X005276Y020659D01*
X005214Y020653D01*
X005151Y020651D01*
X005088Y020653D01*
X005026Y020659D01*
X004964Y020669D01*
X004902Y020682D01*
X004842Y020700D01*
X004783Y020721D01*
X004725Y020746D01*
X004669Y020775D01*
X004615Y020807D01*
X004563Y020842D01*
X004514Y020880D01*
X004466Y020922D01*
X004422Y020966D01*
X004380Y021014D01*
X004342Y021063D01*
X004307Y021115D01*
X004275Y021169D01*
X004246Y021225D01*
X004221Y021283D01*
X004200Y021342D01*
X004182Y021402D01*
X004169Y021464D01*
X004159Y021526D01*
X004153Y021588D01*
X004151Y021651D01*
X005601Y021151D02*
X005701Y021151D01*
X005701Y021051D01*
X005701Y021151D02*
X005701Y021251D01*
X005701Y021151D02*
X005801Y021151D01*
X005471Y019513D02*
X003831Y019513D01*
X003831Y018789D01*
X005471Y018789D01*
X005471Y019513D01*
X004901Y019151D02*
X004651Y019151D01*
X004651Y019401D01*
X004651Y019151D02*
X004651Y018901D01*
X004651Y019151D02*
X004051Y019151D01*
X004251Y018901D02*
X004251Y019401D01*
X004651Y019151D01*
X004251Y018901D01*
X003901Y017551D02*
X003751Y017551D01*
X003734Y017549D01*
X003717Y017545D01*
X003701Y017538D01*
X003687Y017528D01*
X003674Y017515D01*
X003664Y017501D01*
X003657Y017485D01*
X003653Y017468D01*
X003651Y017451D01*
X003651Y016851D01*
X003653Y016834D01*
X003657Y016817D01*
X003664Y016801D01*
X003674Y016787D01*
X003687Y016774D01*
X003701Y016764D01*
X003717Y016757D01*
X003734Y016753D01*
X003751Y016751D01*
X003901Y016751D01*
X003951Y016801D01*
X005351Y016801D01*
X005401Y016751D01*
X005551Y016751D01*
X005568Y016753D01*
X005585Y016757D01*
X005601Y016764D01*
X005615Y016774D01*
X005628Y016787D01*
X005638Y016801D01*
X005645Y016817D01*
X005649Y016834D01*
X005651Y016851D01*
X005651Y017451D01*
X005649Y017468D01*
X005645Y017485D01*
X005638Y017501D01*
X005628Y017515D01*
X005615Y017528D01*
X005601Y017538D01*
X005585Y017545D01*
X005568Y017549D01*
X005551Y017551D01*
X005401Y017551D01*
X005351Y017501D01*
X003951Y017501D01*
X003901Y017551D01*
X002151Y017401D02*
X002151Y016901D01*
X001901Y016651D01*
X002151Y016401D01*
X002151Y015901D01*
X001901Y015651D01*
X002151Y015401D01*
X002151Y014901D01*
X001901Y014651D01*
X002151Y014401D01*
X002151Y013901D01*
X001901Y013651D01*
X001401Y013651D01*
X001151Y013901D01*
X001151Y014401D01*
X001401Y014651D01*
X001151Y014901D01*
X001151Y015401D01*
X001401Y015651D01*
X001151Y015901D01*
X001151Y016401D01*
X001401Y016651D01*
X001151Y016901D01*
X001151Y017401D01*
X001401Y017651D01*
X001901Y017651D01*
X002151Y017401D01*
X003651Y015951D02*
X003651Y015351D01*
X003653Y015334D01*
X003657Y015317D01*
X003664Y015301D01*
X003674Y015287D01*
X003687Y015274D01*
X003701Y015264D01*
X003717Y015257D01*
X003734Y015253D01*
X003751Y015251D01*
X003901Y015251D01*
X003951Y015301D01*
X005351Y015301D01*
X005401Y015251D01*
X005551Y015251D01*
X005568Y015253D01*
X005585Y015257D01*
X005601Y015264D01*
X005615Y015274D01*
X005628Y015287D01*
X005638Y015301D01*
X005645Y015317D01*
X005649Y015334D01*
X005651Y015351D01*
X005651Y015951D01*
X005649Y015968D01*
X005645Y015985D01*
X005638Y016001D01*
X005628Y016015D01*
X005615Y016028D01*
X005601Y016038D01*
X005585Y016045D01*
X005568Y016049D01*
X005551Y016051D01*
X005401Y016051D01*
X005351Y016001D01*
X003951Y016001D01*
X003901Y016051D01*
X003751Y016051D01*
X003734Y016049D01*
X003717Y016045D01*
X003701Y016038D01*
X003687Y016028D01*
X003674Y016015D01*
X003664Y016001D01*
X003657Y015985D01*
X003653Y015968D01*
X003651Y015951D01*
X002801Y014151D02*
X005501Y014151D01*
X005518Y014149D01*
X005535Y014145D01*
X005551Y014138D01*
X005565Y014128D01*
X005578Y014115D01*
X005588Y014101D01*
X005595Y014085D01*
X005599Y014068D01*
X005601Y014051D01*
X005601Y013251D01*
X005599Y013234D01*
X005595Y013217D01*
X005588Y013201D01*
X005578Y013187D01*
X005565Y013174D01*
X005551Y013164D01*
X005535Y013157D01*
X005518Y013153D01*
X005501Y013151D01*
X002801Y013151D01*
X002784Y013153D01*
X002767Y013157D01*
X002751Y013164D01*
X002737Y013174D01*
X002724Y013187D01*
X002714Y013201D01*
X002707Y013217D01*
X002703Y013234D01*
X002701Y013251D01*
X002701Y014051D01*
X002703Y014068D01*
X002707Y014085D01*
X002714Y014101D01*
X002724Y014115D01*
X002737Y014128D01*
X002751Y014138D01*
X002767Y014145D01*
X002784Y014149D01*
X002801Y014151D01*
X003551Y013651D02*
X004031Y013651D01*
X004281Y013651D02*
X004751Y013651D01*
X003251Y011651D02*
X003051Y011651D01*
X003051Y010801D01*
X003051Y010651D01*
X003051Y010501D01*
X003051Y009801D01*
X003051Y009651D01*
X003051Y009501D01*
X003051Y008801D01*
X003051Y008651D01*
X000151Y008651D01*
X000151Y008801D01*
X000151Y009501D01*
X000151Y009651D01*
X000151Y009801D01*
X000151Y010501D01*
X000151Y010651D01*
X000151Y010801D01*
X000151Y011651D01*
X003051Y011651D01*
X003251Y011651D02*
X003251Y004651D01*
X003051Y004651D01*
X003051Y005501D01*
X003051Y005651D01*
X000151Y005651D01*
X000151Y005801D01*
X000151Y006501D01*
X000151Y006651D01*
X003051Y006651D01*
X003051Y006801D01*
X003051Y007501D01*
X003051Y007651D01*
X000151Y007651D01*
X000151Y007801D01*
X000151Y008501D01*
X000151Y008651D01*
X000151Y007651D02*
X000151Y007501D01*
X000151Y006801D01*
X000151Y006651D01*
X000151Y005651D02*
X000151Y005501D01*
X000151Y004651D01*
X003051Y004651D01*
X003051Y005651D02*
X003051Y005801D01*
X003051Y006501D01*
X003051Y006651D01*
X003051Y007651D02*
X003051Y007801D01*
X003051Y008501D01*
X003051Y008651D01*
X003051Y009651D02*
X000151Y009651D01*
X000151Y010651D02*
X003051Y010651D01*
X005001Y011151D02*
X005101Y011151D01*
X005101Y011251D01*
X005101Y011151D02*
X005201Y011151D01*
X005101Y011151D02*
X005101Y011051D01*
X004651Y010651D02*
X004653Y010714D01*
X004659Y010776D01*
X004669Y010838D01*
X004682Y010900D01*
X004700Y010960D01*
X004721Y011019D01*
X004746Y011077D01*
X004775Y011133D01*
X004807Y011187D01*
X004842Y011239D01*
X004880Y011288D01*
X004922Y011336D01*
X004966Y011380D01*
X005014Y011422D01*
X005063Y011460D01*
X005115Y011495D01*
X005169Y011527D01*
X005225Y011556D01*
X005283Y011581D01*
X005342Y011602D01*
X005402Y011620D01*
X005464Y011633D01*
X005526Y011643D01*
X005588Y011649D01*
X005651Y011651D01*
X005714Y011649D01*
X005776Y011643D01*
X005838Y011633D01*
X005900Y011620D01*
X005960Y011602D01*
X006019Y011581D01*
X006077Y011556D01*
X006133Y011527D01*
X006187Y011495D01*
X006239Y011460D01*
X006288Y011422D01*
X006336Y011380D01*
X006380Y011336D01*
X006422Y011288D01*
X006460Y011239D01*
X006495Y011187D01*
X006527Y011133D01*
X006556Y011077D01*
X006581Y011019D01*
X006602Y010960D01*
X006620Y010900D01*
X006633Y010838D01*
X006643Y010776D01*
X006649Y010714D01*
X006651Y010651D01*
X006649Y010588D01*
X006643Y010526D01*
X006633Y010464D01*
X006620Y010402D01*
X006602Y010342D01*
X006581Y010283D01*
X006556Y010225D01*
X006527Y010169D01*
X006495Y010115D01*
X006460Y010063D01*
X006422Y010014D01*
X006380Y009966D01*
X006336Y009922D01*
X006288Y009880D01*
X006239Y009842D01*
X006187Y009807D01*
X006133Y009775D01*
X006077Y009746D01*
X006019Y009721D01*
X005960Y009700D01*
X005900Y009682D01*
X005838Y009669D01*
X005776Y009659D01*
X005714Y009653D01*
X005651Y009651D01*
X005588Y009653D01*
X005526Y009659D01*
X005464Y009669D01*
X005402Y009682D01*
X005342Y009700D01*
X005283Y009721D01*
X005225Y009746D01*
X005169Y009775D01*
X005115Y009807D01*
X005063Y009842D01*
X005014Y009880D01*
X004966Y009922D01*
X004922Y009966D01*
X004880Y010014D01*
X004842Y010063D01*
X004807Y010115D01*
X004775Y010169D01*
X004746Y010225D01*
X004721Y010283D01*
X004700Y010342D01*
X004682Y010402D01*
X004669Y010464D01*
X004659Y010526D01*
X004653Y010588D01*
X004651Y010651D01*
X007151Y012151D02*
X007153Y012214D01*
X007159Y012276D01*
X007169Y012338D01*
X007182Y012400D01*
X007200Y012460D01*
X007221Y012519D01*
X007246Y012577D01*
X007275Y012633D01*
X007307Y012687D01*
X007342Y012739D01*
X007380Y012788D01*
X007422Y012836D01*
X007466Y012880D01*
X007514Y012922D01*
X007563Y012960D01*
X007615Y012995D01*
X007669Y013027D01*
X007725Y013056D01*
X007783Y013081D01*
X007842Y013102D01*
X007902Y013120D01*
X007964Y013133D01*
X008026Y013143D01*
X008088Y013149D01*
X008151Y013151D01*
X008214Y013149D01*
X008276Y013143D01*
X008338Y013133D01*
X008400Y013120D01*
X008460Y013102D01*
X008519Y013081D01*
X008577Y013056D01*
X008633Y013027D01*
X008687Y012995D01*
X008739Y012960D01*
X008788Y012922D01*
X008836Y012880D01*
X008880Y012836D01*
X008922Y012788D01*
X008960Y012739D01*
X008995Y012687D01*
X009027Y012633D01*
X009056Y012577D01*
X009081Y012519D01*
X009102Y012460D01*
X009120Y012400D01*
X009133Y012338D01*
X009143Y012276D01*
X009149Y012214D01*
X009151Y012151D01*
X009149Y012088D01*
X009143Y012026D01*
X009133Y011964D01*
X009120Y011902D01*
X009102Y011842D01*
X009081Y011783D01*
X009056Y011725D01*
X009027Y011669D01*
X008995Y011615D01*
X008960Y011563D01*
X008922Y011514D01*
X008880Y011466D01*
X008836Y011422D01*
X008788Y011380D01*
X008739Y011342D01*
X008687Y011307D01*
X008633Y011275D01*
X008577Y011246D01*
X008519Y011221D01*
X008460Y011200D01*
X008400Y011182D01*
X008338Y011169D01*
X008276Y011159D01*
X008214Y011153D01*
X008151Y011151D01*
X008088Y011153D01*
X008026Y011159D01*
X007964Y011169D01*
X007902Y011182D01*
X007842Y011200D01*
X007783Y011221D01*
X007725Y011246D01*
X007669Y011275D01*
X007615Y011307D01*
X007563Y011342D01*
X007514Y011380D01*
X007466Y011422D01*
X007422Y011466D01*
X007380Y011514D01*
X007342Y011563D01*
X007307Y011615D01*
X007275Y011669D01*
X007246Y011725D01*
X007221Y011783D01*
X007200Y011842D01*
X007182Y011902D01*
X007169Y011964D01*
X007159Y012026D01*
X007153Y012088D01*
X007151Y012151D01*
X008601Y011651D02*
X008701Y011651D01*
X008701Y011551D01*
X008701Y011651D02*
X008701Y011751D01*
X008701Y011651D02*
X008801Y011651D01*
X009651Y011801D02*
X009651Y014501D01*
X009653Y014518D01*
X009657Y014535D01*
X009664Y014551D01*
X009674Y014565D01*
X009687Y014578D01*
X009701Y014588D01*
X009717Y014595D01*
X009734Y014599D01*
X009751Y014601D01*
X010551Y014601D01*
X010568Y014599D01*
X010585Y014595D01*
X010601Y014588D01*
X010615Y014578D01*
X010628Y014565D01*
X010638Y014551D01*
X010645Y014535D01*
X010649Y014518D01*
X010651Y014501D01*
X010651Y011801D01*
X010649Y011784D01*
X010645Y011767D01*
X010638Y011751D01*
X010628Y011737D01*
X010615Y011724D01*
X010601Y011714D01*
X010585Y011707D01*
X010568Y011703D01*
X010551Y011701D01*
X009751Y011701D01*
X009734Y011703D01*
X009717Y011707D01*
X009701Y011714D01*
X009687Y011724D01*
X009674Y011737D01*
X009664Y011751D01*
X009657Y011767D01*
X009653Y011784D01*
X009651Y011801D01*
X010151Y012551D02*
X010151Y013031D01*
X010151Y013281D02*
X010151Y013751D01*
X008801Y013651D02*
X008701Y013651D01*
X008701Y013551D01*
X008701Y013651D02*
X008601Y013651D01*
X008701Y013651D02*
X008701Y013751D01*
X007151Y014151D02*
X007153Y014214D01*
X007159Y014276D01*
X007169Y014338D01*
X007182Y014400D01*
X007200Y014460D01*
X007221Y014519D01*
X007246Y014577D01*
X007275Y014633D01*
X007307Y014687D01*
X007342Y014739D01*
X007380Y014788D01*
X007422Y014836D01*
X007466Y014880D01*
X007514Y014922D01*
X007563Y014960D01*
X007615Y014995D01*
X007669Y015027D01*
X007725Y015056D01*
X007783Y015081D01*
X007842Y015102D01*
X007902Y015120D01*
X007964Y015133D01*
X008026Y015143D01*
X008088Y015149D01*
X008151Y015151D01*
X008214Y015149D01*
X008276Y015143D01*
X008338Y015133D01*
X008400Y015120D01*
X008460Y015102D01*
X008519Y015081D01*
X008577Y015056D01*
X008633Y015027D01*
X008687Y014995D01*
X008739Y014960D01*
X008788Y014922D01*
X008836Y014880D01*
X008880Y014836D01*
X008922Y014788D01*
X008960Y014739D01*
X008995Y014687D01*
X009027Y014633D01*
X009056Y014577D01*
X009081Y014519D01*
X009102Y014460D01*
X009120Y014400D01*
X009133Y014338D01*
X009143Y014276D01*
X009149Y014214D01*
X009151Y014151D01*
X009149Y014088D01*
X009143Y014026D01*
X009133Y013964D01*
X009120Y013902D01*
X009102Y013842D01*
X009081Y013783D01*
X009056Y013725D01*
X009027Y013669D01*
X008995Y013615D01*
X008960Y013563D01*
X008922Y013514D01*
X008880Y013466D01*
X008836Y013422D01*
X008788Y013380D01*
X008739Y013342D01*
X008687Y013307D01*
X008633Y013275D01*
X008577Y013246D01*
X008519Y013221D01*
X008460Y013200D01*
X008400Y013182D01*
X008338Y013169D01*
X008276Y013159D01*
X008214Y013153D01*
X008151Y013151D01*
X008088Y013153D01*
X008026Y013159D01*
X007964Y013169D01*
X007902Y013182D01*
X007842Y013200D01*
X007783Y013221D01*
X007725Y013246D01*
X007669Y013275D01*
X007615Y013307D01*
X007563Y013342D01*
X007514Y013380D01*
X007466Y013422D01*
X007422Y013466D01*
X007380Y013514D01*
X007342Y013563D01*
X007307Y013615D01*
X007275Y013669D01*
X007246Y013725D01*
X007221Y013783D01*
X007200Y013842D01*
X007182Y013902D01*
X007169Y013964D01*
X007159Y014026D01*
X007153Y014088D01*
X007151Y014151D01*
X009351Y015651D02*
X009351Y016651D01*
X010951Y016651D01*
X010951Y015651D01*
X009351Y015651D01*
X009901Y016151D02*
X010151Y016151D01*
X010151Y016401D01*
X010251Y016401D01*
X010151Y016151D02*
X010151Y015901D01*
X010151Y016151D02*
X010551Y016401D01*
X010551Y015901D01*
X010151Y016151D01*
X010751Y016151D01*
X010401Y017751D02*
X010251Y017751D01*
X010234Y017753D01*
X010217Y017757D01*
X010201Y017764D01*
X010187Y017774D01*
X010174Y017787D01*
X010164Y017801D01*
X010157Y017817D01*
X010153Y017834D01*
X010151Y017851D01*
X010151Y018451D01*
X010153Y018468D01*
X010157Y018485D01*
X010164Y018501D01*
X010174Y018515D01*
X010187Y018528D01*
X010201Y018538D01*
X010217Y018545D01*
X010234Y018549D01*
X010251Y018551D01*
X010401Y018551D01*
X010451Y018501D01*
X011851Y018501D01*
X011901Y018551D01*
X012051Y018551D01*
X012068Y018549D01*
X012085Y018545D01*
X012101Y018538D01*
X012115Y018528D01*
X012128Y018515D01*
X012138Y018501D01*
X012145Y018485D01*
X012149Y018468D01*
X012151Y018451D01*
X012151Y017851D01*
X012149Y017834D01*
X012145Y017817D01*
X012138Y017801D01*
X012128Y017787D01*
X012115Y017774D01*
X012101Y017764D01*
X012085Y017757D01*
X012068Y017753D01*
X012051Y017751D01*
X011901Y017751D01*
X011851Y017801D01*
X010451Y017801D01*
X010401Y017751D01*
X002151Y019901D02*
X002151Y020401D01*
X001901Y020651D01*
X002151Y020901D01*
X002151Y021401D01*
X001901Y021651D01*
X002151Y021901D01*
X002151Y022401D01*
X001901Y022651D01*
X002151Y022901D01*
X002151Y023401D01*
X001901Y023651D01*
X001401Y023651D01*
X001151Y023401D01*
X001151Y022901D01*
X001401Y022651D01*
X001151Y022401D01*
X001151Y021901D01*
X001401Y021651D01*
X001151Y021401D01*
X001151Y020901D01*
X001401Y020651D01*
X001151Y020401D01*
X001151Y019901D01*
X001401Y019651D01*
X001901Y019651D01*
X002151Y019901D01*
X011151Y028901D02*
X011401Y028651D01*
X011901Y028651D01*
X012151Y028901D01*
X012401Y028651D01*
X012901Y028651D01*
X013151Y028901D01*
X013401Y028651D01*
X013901Y028651D01*
X014151Y028901D01*
X014401Y028651D01*
X014901Y028651D01*
X015151Y028901D01*
X015151Y030401D01*
X014901Y030651D01*
X014401Y030651D01*
X014151Y030401D01*
X013901Y030651D01*
X013401Y030651D01*
X013151Y030401D01*
X012901Y030651D01*
X012401Y030651D01*
X012151Y030401D01*
X011901Y030651D01*
X011401Y030651D01*
X011151Y030401D01*
X011151Y028901D01*
X010551Y010551D02*
X010401Y010551D01*
X010351Y010501D01*
X008951Y010501D01*
X008901Y010551D01*
X008751Y010551D01*
X008734Y010549D01*
X008717Y010545D01*
X008701Y010538D01*
X008687Y010528D01*
X008674Y010515D01*
X008664Y010501D01*
X008657Y010485D01*
X008653Y010468D01*
X008651Y010451D01*
X008651Y009851D01*
X008653Y009834D01*
X008657Y009817D01*
X008664Y009801D01*
X008674Y009787D01*
X008687Y009774D01*
X008701Y009764D01*
X008717Y009757D01*
X008734Y009753D01*
X008751Y009751D01*
X008901Y009751D01*
X008951Y009801D01*
X010351Y009801D01*
X010401Y009751D01*
X010551Y009751D01*
X010568Y009753D01*
X010585Y009757D01*
X010601Y009764D01*
X010615Y009774D01*
X010628Y009787D01*
X010638Y009801D01*
X010645Y009817D01*
X010649Y009834D01*
X010651Y009851D01*
X010651Y010451D01*
X010649Y010468D01*
X010645Y010485D01*
X010638Y010501D01*
X010628Y010515D01*
X010615Y010528D01*
X010601Y010538D01*
X010585Y010545D01*
X010568Y010549D01*
X010551Y010551D01*
X000501Y001651D02*
X000503Y001718D01*
X000509Y001786D01*
X000519Y001853D01*
X000533Y001919D01*
X000550Y001984D01*
X000572Y002048D01*
X000597Y002111D01*
X000626Y002172D01*
X000658Y002231D01*
X000694Y002288D01*
X000733Y002343D01*
X000775Y002396D01*
X000820Y002446D01*
X000868Y002493D01*
X000919Y002538D01*
X000972Y002579D01*
X001028Y002618D01*
X001086Y002653D01*
X001146Y002684D01*
X001207Y002712D01*
X001270Y002736D01*
X001334Y002757D01*
X001400Y002773D01*
X001466Y002786D01*
X001533Y002795D01*
X001600Y002800D01*
X001668Y002801D01*
X001735Y002798D01*
X001802Y002791D01*
X001869Y002780D01*
X001935Y002765D01*
X002000Y002747D01*
X002064Y002724D01*
X002126Y002698D01*
X002187Y002669D01*
X002245Y002635D01*
X002302Y002599D01*
X002357Y002559D01*
X002409Y002516D01*
X002458Y002470D01*
X002505Y002421D01*
X002549Y002370D01*
X002589Y002316D01*
X002627Y002260D01*
X002661Y002201D01*
X002691Y002141D01*
X002718Y002079D01*
X002742Y002016D01*
X002761Y001951D01*
X002777Y001886D01*
X002789Y001819D01*
X002797Y001752D01*
X002801Y001685D01*
X002801Y001617D01*
X002797Y001550D01*
X002789Y001483D01*
X002777Y001416D01*
X002761Y001351D01*
X002742Y001286D01*
X002718Y001223D01*
X002691Y001161D01*
X002661Y001101D01*
X002627Y001042D01*
X002589Y000986D01*
X002549Y000932D01*
X002505Y000881D01*
X002458Y000832D01*
X002409Y000786D01*
X002357Y000743D01*
X002302Y000703D01*
X002245Y000667D01*
X002187Y000633D01*
X002126Y000604D01*
X002064Y000578D01*
X002000Y000555D01*
X001935Y000537D01*
X001869Y000522D01*
X001802Y000511D01*
X001735Y000504D01*
X001668Y000501D01*
X001600Y000502D01*
X001533Y000507D01*
X001466Y000516D01*
X001400Y000529D01*
X001334Y000545D01*
X001270Y000566D01*
X001207Y000590D01*
X001146Y000618D01*
X001086Y000649D01*
X001028Y000684D01*
X000972Y000723D01*
X000919Y000764D01*
X000868Y000809D01*
X000820Y000856D01*
X000775Y000906D01*
X000733Y000959D01*
X000694Y001014D01*
X000658Y001071D01*
X000626Y001130D01*
X000597Y001191D01*
X000572Y001254D01*
X000550Y001318D01*
X000533Y001383D01*
X000519Y001449D01*
X000509Y001516D01*
X000503Y001584D01*
X000501Y001651D01*
X028651Y001401D02*
X028901Y001151D01*
X029401Y001151D01*
X029651Y001401D01*
X029901Y001151D01*
X030401Y001151D01*
X030651Y001401D01*
X030901Y001151D01*
X031401Y001151D01*
X031651Y001401D01*
X031651Y001901D01*
X031401Y002151D01*
X030901Y002151D01*
X030651Y001901D01*
X030401Y002151D01*
X029901Y002151D01*
X029651Y001901D01*
X029401Y002151D01*
X028901Y002151D01*
X028651Y001901D01*
X028651Y001401D01*
X029251Y002751D02*
X029401Y002751D01*
X029451Y002801D01*
X030851Y002801D01*
X030901Y002751D01*
X031051Y002751D01*
X031068Y002753D01*
X031085Y002757D01*
X031101Y002764D01*
X031115Y002774D01*
X031128Y002787D01*
X031138Y002801D01*
X031145Y002817D01*
X031149Y002834D01*
X031151Y002851D01*
X031151Y003451D01*
X031149Y003468D01*
X031145Y003485D01*
X031138Y003501D01*
X031128Y003515D01*
X031115Y003528D01*
X031101Y003538D01*
X031085Y003545D01*
X031068Y003549D01*
X031051Y003551D01*
X030901Y003551D01*
X030851Y003501D01*
X029451Y003501D01*
X029401Y003551D01*
X029251Y003551D01*
X029234Y003549D01*
X029217Y003545D01*
X029201Y003538D01*
X029187Y003528D01*
X029174Y003515D01*
X029164Y003501D01*
X029157Y003485D01*
X029153Y003468D01*
X029151Y003451D01*
X029151Y002851D01*
X029153Y002834D01*
X029157Y002817D01*
X029164Y002801D01*
X029174Y002787D01*
X029187Y002774D01*
X029201Y002764D01*
X029217Y002757D01*
X029234Y002753D01*
X029251Y002751D01*
X033151Y002851D02*
X033151Y003451D01*
X033153Y003468D01*
X033157Y003485D01*
X033164Y003501D01*
X033174Y003515D01*
X033187Y003528D01*
X033201Y003538D01*
X033217Y003545D01*
X033234Y003549D01*
X033251Y003551D01*
X033401Y003551D01*
X033451Y003501D01*
X034851Y003501D01*
X034901Y003551D01*
X035051Y003551D01*
X035068Y003549D01*
X035085Y003545D01*
X035101Y003538D01*
X035115Y003528D01*
X035128Y003515D01*
X035138Y003501D01*
X035145Y003485D01*
X035149Y003468D01*
X035151Y003451D01*
X035151Y002851D01*
X035149Y002834D01*
X035145Y002817D01*
X035138Y002801D01*
X035128Y002787D01*
X035115Y002774D01*
X035101Y002764D01*
X035085Y002757D01*
X035068Y002753D01*
X035051Y002751D01*
X034901Y002751D01*
X034851Y002801D01*
X033451Y002801D01*
X033401Y002751D01*
X033251Y002751D01*
X033234Y002753D01*
X033217Y002757D01*
X033201Y002764D01*
X033187Y002774D01*
X033174Y002787D01*
X033164Y002801D01*
X033157Y002817D01*
X033153Y002834D01*
X033151Y002851D01*
X033151Y002251D02*
X033196Y002249D01*
X033242Y002244D01*
X033286Y002236D01*
X033330Y002224D01*
X033373Y002208D01*
X033415Y002190D01*
X033455Y002168D01*
X033493Y002144D01*
X033529Y002117D01*
X033564Y002087D01*
X033595Y002054D01*
X033625Y002019D01*
X033151Y002251D02*
X033106Y002249D01*
X033060Y002244D01*
X033016Y002236D01*
X032972Y002224D01*
X032929Y002208D01*
X032887Y002190D01*
X032847Y002168D01*
X032809Y002144D01*
X032773Y002117D01*
X032738Y002087D01*
X032707Y002054D01*
X032677Y002019D01*
X033151Y001051D02*
X033197Y001053D01*
X033243Y001058D01*
X033289Y001067D01*
X033334Y001079D01*
X033377Y001095D01*
X033419Y001114D01*
X033460Y001137D01*
X033499Y001162D01*
X033535Y001190D01*
X033570Y001221D01*
X033602Y001255D01*
X033631Y001291D01*
X033151Y001051D02*
X033104Y001053D01*
X033056Y001059D01*
X033010Y001068D01*
X032964Y001081D01*
X032920Y001097D01*
X032876Y001117D01*
X032835Y001141D01*
X032796Y001167D01*
X032759Y001197D01*
X032724Y001230D01*
X032692Y001265D01*
X032663Y001302D01*
X035151Y002251D02*
X035196Y002249D01*
X035242Y002244D01*
X035286Y002236D01*
X035330Y002224D01*
X035373Y002208D01*
X035415Y002190D01*
X035455Y002168D01*
X035493Y002144D01*
X035529Y002117D01*
X035564Y002087D01*
X035595Y002054D01*
X035625Y002019D01*
X035151Y002251D02*
X035106Y002249D01*
X035060Y002244D01*
X035016Y002236D01*
X034972Y002224D01*
X034929Y002208D01*
X034887Y002190D01*
X034847Y002168D01*
X034809Y002144D01*
X034773Y002117D01*
X034738Y002087D01*
X034707Y002054D01*
X034677Y002019D01*
X035151Y001051D02*
X035197Y001053D01*
X035243Y001058D01*
X035289Y001067D01*
X035334Y001079D01*
X035377Y001095D01*
X035419Y001114D01*
X035460Y001137D01*
X035499Y001162D01*
X035535Y001190D01*
X035570Y001221D01*
X035602Y001255D01*
X035631Y001291D01*
X035151Y001051D02*
X035104Y001053D01*
X035056Y001059D01*
X035010Y001068D01*
X034964Y001081D01*
X034920Y001097D01*
X034876Y001117D01*
X034835Y001141D01*
X034796Y001167D01*
X034759Y001197D01*
X034724Y001230D01*
X034692Y001265D01*
X034663Y001302D01*
X037001Y001651D02*
X037003Y001718D01*
X037009Y001786D01*
X037019Y001853D01*
X037033Y001919D01*
X037050Y001984D01*
X037072Y002048D01*
X037097Y002111D01*
X037126Y002172D01*
X037158Y002231D01*
X037194Y002288D01*
X037233Y002343D01*
X037275Y002396D01*
X037320Y002446D01*
X037368Y002493D01*
X037419Y002538D01*
X037472Y002579D01*
X037528Y002618D01*
X037586Y002653D01*
X037646Y002684D01*
X037707Y002712D01*
X037770Y002736D01*
X037834Y002757D01*
X037900Y002773D01*
X037966Y002786D01*
X038033Y002795D01*
X038100Y002800D01*
X038168Y002801D01*
X038235Y002798D01*
X038302Y002791D01*
X038369Y002780D01*
X038435Y002765D01*
X038500Y002747D01*
X038564Y002724D01*
X038626Y002698D01*
X038687Y002669D01*
X038745Y002635D01*
X038802Y002599D01*
X038857Y002559D01*
X038909Y002516D01*
X038958Y002470D01*
X039005Y002421D01*
X039049Y002370D01*
X039089Y002316D01*
X039127Y002260D01*
X039161Y002201D01*
X039191Y002141D01*
X039218Y002079D01*
X039242Y002016D01*
X039261Y001951D01*
X039277Y001886D01*
X039289Y001819D01*
X039297Y001752D01*
X039301Y001685D01*
X039301Y001617D01*
X039297Y001550D01*
X039289Y001483D01*
X039277Y001416D01*
X039261Y001351D01*
X039242Y001286D01*
X039218Y001223D01*
X039191Y001161D01*
X039161Y001101D01*
X039127Y001042D01*
X039089Y000986D01*
X039049Y000932D01*
X039005Y000881D01*
X038958Y000832D01*
X038909Y000786D01*
X038857Y000743D01*
X038802Y000703D01*
X038745Y000667D01*
X038687Y000633D01*
X038626Y000604D01*
X038564Y000578D01*
X038500Y000555D01*
X038435Y000537D01*
X038369Y000522D01*
X038302Y000511D01*
X038235Y000504D01*
X038168Y000501D01*
X038100Y000502D01*
X038033Y000507D01*
X037966Y000516D01*
X037900Y000529D01*
X037834Y000545D01*
X037770Y000566D01*
X037707Y000590D01*
X037646Y000618D01*
X037586Y000649D01*
X037528Y000684D01*
X037472Y000723D01*
X037419Y000764D01*
X037368Y000809D01*
X037320Y000856D01*
X037275Y000906D01*
X037233Y000959D01*
X037194Y001014D01*
X037158Y001071D01*
X037126Y001130D01*
X037097Y001191D01*
X037072Y001254D01*
X037050Y001318D01*
X037033Y001383D01*
X037019Y001449D01*
X037009Y001516D01*
X037003Y001584D01*
X037001Y001651D01*
X037351Y005151D02*
X037951Y005151D01*
X037968Y005153D01*
X037985Y005157D01*
X038001Y005164D01*
X038015Y005174D01*
X038028Y005187D01*
X038038Y005201D01*
X038045Y005217D01*
X038049Y005234D01*
X038051Y005251D01*
X038051Y005401D01*
X038001Y005451D01*
X038001Y006851D01*
X038051Y006901D01*
X038051Y007051D01*
X038049Y007068D01*
X038045Y007085D01*
X038038Y007101D01*
X038028Y007115D01*
X038015Y007128D01*
X038001Y007138D01*
X037985Y007145D01*
X037968Y007149D01*
X037951Y007151D01*
X037351Y007151D01*
X037334Y007149D01*
X037317Y007145D01*
X037301Y007138D01*
X037287Y007128D01*
X037274Y007115D01*
X037264Y007101D01*
X037257Y007085D01*
X037253Y007068D01*
X037251Y007051D01*
X037251Y006901D01*
X037301Y006851D01*
X037301Y005451D01*
X037251Y005401D01*
X037251Y005251D01*
X037253Y005234D01*
X037257Y005217D01*
X037264Y005201D01*
X037274Y005187D01*
X037287Y005174D01*
X037301Y005164D01*
X037317Y005157D01*
X037334Y005153D01*
X037351Y005151D01*
X036551Y005251D02*
X036551Y005401D01*
X036501Y005451D01*
X036501Y006851D01*
X036551Y006901D01*
X036551Y007051D01*
X036549Y007068D01*
X036545Y007085D01*
X036538Y007101D01*
X036528Y007115D01*
X036515Y007128D01*
X036501Y007138D01*
X036485Y007145D01*
X036468Y007149D01*
X036451Y007151D01*
X035851Y007151D01*
X035834Y007149D01*
X035817Y007145D01*
X035801Y007138D01*
X035787Y007128D01*
X035774Y007115D01*
X035764Y007101D01*
X035757Y007085D01*
X035753Y007068D01*
X035751Y007051D01*
X035751Y006901D01*
X035801Y006851D01*
X035801Y005451D01*
X035751Y005401D01*
X035751Y005251D01*
X035753Y005234D01*
X035757Y005217D01*
X035764Y005201D01*
X035774Y005187D01*
X035787Y005174D01*
X035801Y005164D01*
X035817Y005157D01*
X035834Y005153D01*
X035851Y005151D01*
X036451Y005151D01*
X036468Y005153D01*
X036485Y005157D01*
X036501Y005164D01*
X036515Y005174D01*
X036528Y005187D01*
X036538Y005201D01*
X036545Y005217D01*
X036549Y005234D01*
X036551Y005251D01*
X037001Y030151D02*
X037003Y030218D01*
X037009Y030286D01*
X037019Y030353D01*
X037033Y030419D01*
X037050Y030484D01*
X037072Y030548D01*
X037097Y030611D01*
X037126Y030672D01*
X037158Y030731D01*
X037194Y030788D01*
X037233Y030843D01*
X037275Y030896D01*
X037320Y030946D01*
X037368Y030993D01*
X037419Y031038D01*
X037472Y031079D01*
X037528Y031118D01*
X037586Y031153D01*
X037646Y031184D01*
X037707Y031212D01*
X037770Y031236D01*
X037834Y031257D01*
X037900Y031273D01*
X037966Y031286D01*
X038033Y031295D01*
X038100Y031300D01*
X038168Y031301D01*
X038235Y031298D01*
X038302Y031291D01*
X038369Y031280D01*
X038435Y031265D01*
X038500Y031247D01*
X038564Y031224D01*
X038626Y031198D01*
X038687Y031169D01*
X038745Y031135D01*
X038802Y031099D01*
X038857Y031059D01*
X038909Y031016D01*
X038958Y030970D01*
X039005Y030921D01*
X039049Y030870D01*
X039089Y030816D01*
X039127Y030760D01*
X039161Y030701D01*
X039191Y030641D01*
X039218Y030579D01*
X039242Y030516D01*
X039261Y030451D01*
X039277Y030386D01*
X039289Y030319D01*
X039297Y030252D01*
X039301Y030185D01*
X039301Y030117D01*
X039297Y030050D01*
X039289Y029983D01*
X039277Y029916D01*
X039261Y029851D01*
X039242Y029786D01*
X039218Y029723D01*
X039191Y029661D01*
X039161Y029601D01*
X039127Y029542D01*
X039089Y029486D01*
X039049Y029432D01*
X039005Y029381D01*
X038958Y029332D01*
X038909Y029286D01*
X038857Y029243D01*
X038802Y029203D01*
X038745Y029167D01*
X038687Y029133D01*
X038626Y029104D01*
X038564Y029078D01*
X038500Y029055D01*
X038435Y029037D01*
X038369Y029022D01*
X038302Y029011D01*
X038235Y029004D01*
X038168Y029001D01*
X038100Y029002D01*
X038033Y029007D01*
X037966Y029016D01*
X037900Y029029D01*
X037834Y029045D01*
X037770Y029066D01*
X037707Y029090D01*
X037646Y029118D01*
X037586Y029149D01*
X037528Y029184D01*
X037472Y029223D01*
X037419Y029264D01*
X037368Y029309D01*
X037320Y029356D01*
X037275Y029406D01*
X037233Y029459D01*
X037194Y029514D01*
X037158Y029571D01*
X037126Y029630D01*
X037097Y029691D01*
X037072Y029754D01*
X037050Y029818D01*
X037033Y029883D01*
X037019Y029949D01*
X037009Y030016D01*
X037003Y030084D01*
X037001Y030151D01*
D14*
X005201Y024157D03*
X005201Y019157D03*
D15*
X005166Y018477D02*
X005166Y018026D01*
X005016Y018026D02*
X005316Y018026D01*
X005016Y018326D02*
X005166Y018477D01*
X004856Y018401D02*
X004781Y018477D01*
X004555Y018477D01*
X004555Y018026D01*
X004781Y018026D01*
X004856Y018101D01*
X004856Y018401D01*
X006901Y020276D02*
X006976Y020351D01*
X006976Y020426D01*
X006901Y020501D01*
X006526Y020501D01*
X006526Y020426D02*
X006526Y020576D01*
X006526Y020737D02*
X006526Y020962D01*
X006601Y021037D01*
X006751Y021037D01*
X006826Y020962D01*
X006826Y020737D01*
X006976Y020737D02*
X006526Y020737D01*
X006676Y021197D02*
X006526Y021347D01*
X006976Y021347D01*
X006976Y021197D02*
X006976Y021497D01*
X008336Y021733D02*
X008393Y021676D01*
X008336Y021733D02*
X008336Y021846D01*
X008393Y021903D01*
X008449Y021903D01*
X008676Y021676D01*
X008676Y021903D01*
X009476Y021044D02*
X009476Y020743D01*
X009476Y020894D02*
X009026Y020894D01*
X009176Y020743D01*
X009101Y020583D02*
X009026Y020508D01*
X009026Y020358D01*
X009101Y020283D01*
X009401Y020283D01*
X009476Y020358D01*
X009476Y020508D01*
X009401Y020583D01*
X009476Y020126D02*
X009476Y019976D01*
X009476Y020051D02*
X009026Y020051D01*
X009026Y019976D02*
X009026Y020126D01*
X008676Y020676D02*
X008676Y020903D01*
X008676Y020790D02*
X008336Y020790D01*
X008449Y020676D01*
X008393Y022676D02*
X008336Y022733D01*
X008336Y022846D01*
X008393Y022903D01*
X008449Y022903D01*
X008506Y022846D01*
X008563Y022903D01*
X008619Y022903D01*
X008676Y022846D01*
X008676Y022733D01*
X008619Y022676D01*
X008506Y022790D02*
X008506Y022846D01*
X005316Y023026D02*
X005016Y023026D01*
X005316Y023326D01*
X005316Y023401D01*
X005241Y023477D01*
X005091Y023477D01*
X005016Y023401D01*
X004856Y023401D02*
X004781Y023477D01*
X004555Y023477D01*
X004555Y023026D01*
X004781Y023026D01*
X004856Y023101D01*
X004856Y023401D01*
X003916Y021127D02*
X003916Y020676D01*
X003766Y020676D02*
X004066Y020676D01*
X003766Y020976D02*
X003916Y021127D01*
X003606Y021051D02*
X003531Y021127D01*
X003380Y021127D01*
X003305Y021051D01*
X003305Y020751D01*
X003380Y020676D01*
X003531Y020676D01*
X003606Y020751D01*
X001876Y019526D02*
X001876Y019226D01*
X001876Y019376D02*
X001426Y019376D01*
X001576Y019226D01*
X000976Y019676D02*
X000526Y019676D01*
X000526Y019901D01*
X000601Y019976D01*
X000751Y019976D01*
X000826Y019901D01*
X000826Y019676D01*
X000976Y020137D02*
X000976Y020287D01*
X000976Y020212D02*
X000526Y020212D01*
X000526Y020137D02*
X000526Y020287D01*
X001426Y018001D02*
X001651Y017776D01*
X001651Y018076D01*
X001876Y018001D02*
X001426Y018001D01*
X002901Y014777D02*
X002826Y014701D01*
X002826Y014401D01*
X002901Y014326D01*
X003051Y014326D01*
X003126Y014401D01*
X003287Y014326D02*
X003587Y014326D01*
X003437Y014326D02*
X003437Y014777D01*
X003287Y014626D01*
X003126Y014701D02*
X003051Y014777D01*
X002901Y014777D01*
X003747Y014701D02*
X003747Y014626D01*
X003822Y014551D01*
X004047Y014551D01*
X004047Y014401D02*
X004047Y014701D01*
X003972Y014777D01*
X003822Y014777D01*
X003747Y014701D01*
X003747Y014401D02*
X003822Y014326D01*
X003972Y014326D01*
X004047Y014401D01*
X006305Y014051D02*
X006305Y013751D01*
X006380Y013676D01*
X006531Y013676D01*
X006606Y013751D01*
X006766Y013901D02*
X007066Y013901D01*
X006991Y013676D02*
X006991Y014127D01*
X006766Y013901D01*
X006606Y014051D02*
X006531Y014127D01*
X006380Y014127D01*
X006305Y014051D01*
X006380Y013127D02*
X006305Y013051D01*
X006305Y012751D01*
X006380Y012676D01*
X006531Y012676D01*
X006606Y012751D01*
X006766Y012751D02*
X006841Y012676D01*
X006991Y012676D01*
X007066Y012751D01*
X007066Y012826D01*
X006991Y012901D01*
X006916Y012901D01*
X006991Y012901D02*
X007066Y012976D01*
X007066Y013051D01*
X006991Y013127D01*
X006841Y013127D01*
X006766Y013051D01*
X006606Y013051D02*
X006531Y013127D01*
X006380Y013127D01*
X009026Y013051D02*
X009026Y012901D01*
X009101Y012826D01*
X009401Y012826D01*
X009476Y012901D01*
X009476Y013051D01*
X009401Y013126D01*
X009476Y013287D02*
X009176Y013587D01*
X009101Y013587D01*
X009026Y013512D01*
X009026Y013362D01*
X009101Y013287D01*
X009101Y013126D02*
X009026Y013051D01*
X009476Y013287D02*
X009476Y013587D01*
X011576Y013019D02*
X011576Y012868D01*
X011651Y012793D01*
X011651Y012633D02*
X011576Y012558D01*
X011576Y012408D01*
X011651Y012333D01*
X011951Y012333D01*
X012026Y012408D01*
X012026Y012558D01*
X011951Y012633D01*
X012026Y012793D02*
X011726Y013094D01*
X011651Y013094D01*
X011576Y013019D01*
X012026Y013094D02*
X012026Y012793D01*
X012026Y012176D02*
X012026Y012026D01*
X012026Y012101D02*
X011576Y012101D01*
X011576Y012026D02*
X011576Y012176D01*
X013926Y009277D02*
X014076Y009277D01*
X014001Y009277D02*
X014001Y008901D01*
X013926Y008826D01*
X013851Y008826D01*
X013776Y008901D01*
X014237Y008826D02*
X014237Y009277D01*
X014462Y009277D01*
X014537Y009201D01*
X014537Y009051D01*
X014462Y008976D01*
X014237Y008976D01*
X014697Y008901D02*
X014772Y008826D01*
X014922Y008826D01*
X014997Y008901D01*
X014997Y008976D01*
X014922Y009051D01*
X014697Y009051D01*
X014697Y008901D01*
X014697Y009051D02*
X014847Y009201D01*
X014997Y009277D01*
X016145Y009401D02*
X016145Y009101D01*
X016220Y009026D01*
X016370Y009026D01*
X016445Y009101D01*
X016605Y009026D02*
X016906Y009026D01*
X016756Y009026D02*
X016756Y009477D01*
X016605Y009326D01*
X016445Y009401D02*
X016370Y009477D01*
X016220Y009477D01*
X016145Y009401D01*
X017066Y009251D02*
X017366Y009251D01*
X017291Y009026D02*
X017291Y009477D01*
X017066Y009251D01*
X018526Y009163D02*
X018526Y009013D01*
X018601Y008938D01*
X018676Y008938D01*
X018751Y009013D01*
X018751Y009163D01*
X018826Y009239D01*
X018901Y009239D01*
X018976Y009163D01*
X018976Y009013D01*
X018901Y008938D01*
X018976Y008778D02*
X018526Y008778D01*
X018526Y008478D02*
X018976Y008778D01*
X018976Y008478D02*
X018526Y008478D01*
X018601Y008318D02*
X018526Y008243D01*
X018526Y008093D01*
X018601Y008018D01*
X018901Y008018D01*
X018976Y008093D01*
X018976Y008243D01*
X018901Y008318D01*
X018601Y008318D01*
X018526Y007857D02*
X018526Y007557D01*
X018526Y007707D02*
X018976Y007707D01*
X018526Y007397D02*
X018526Y007097D01*
X018526Y007247D02*
X018976Y007247D01*
X018901Y006937D02*
X018526Y006937D01*
X018526Y006637D02*
X018901Y006637D01*
X018976Y006712D01*
X018976Y006862D01*
X018901Y006937D01*
X018901Y006476D02*
X018976Y006401D01*
X018976Y006176D01*
X018526Y006176D01*
X018526Y006401D01*
X018601Y006476D01*
X018676Y006476D01*
X018751Y006401D01*
X018751Y006176D01*
X018751Y006401D02*
X018826Y006476D01*
X018901Y006476D01*
X020326Y006626D02*
X020776Y006626D01*
X020776Y006476D02*
X020776Y006776D01*
X020476Y006476D02*
X020326Y006626D01*
X021176Y007301D02*
X021251Y007226D01*
X021326Y007226D01*
X021401Y007301D01*
X021401Y007451D01*
X021476Y007526D01*
X021551Y007526D01*
X021626Y007451D01*
X021626Y007301D01*
X021551Y007226D01*
X021176Y007301D02*
X021176Y007451D01*
X021251Y007526D01*
X021176Y007687D02*
X021176Y007912D01*
X021251Y007987D01*
X021401Y007987D01*
X021476Y007912D01*
X021476Y007687D01*
X021626Y007687D02*
X021176Y007687D01*
X018601Y009239D02*
X018526Y009163D01*
X016403Y007410D02*
X016403Y007353D01*
X016346Y007296D01*
X016403Y007240D01*
X016403Y007183D01*
X016346Y007126D01*
X016233Y007126D01*
X016176Y007183D01*
X016290Y007296D02*
X016346Y007296D01*
X016403Y007410D02*
X016346Y007466D01*
X016233Y007466D01*
X016176Y007410D01*
X015403Y007410D02*
X015346Y007466D01*
X015233Y007466D01*
X015176Y007410D01*
X015403Y007410D02*
X015403Y007353D01*
X015176Y007126D01*
X015403Y007126D01*
X014403Y007126D02*
X014176Y007126D01*
X014290Y007126D02*
X014290Y007466D01*
X014176Y007353D01*
X011566Y007051D02*
X011566Y006976D01*
X011491Y006901D01*
X011566Y006826D01*
X011566Y006751D01*
X011491Y006676D01*
X011341Y006676D01*
X011266Y006751D01*
X011106Y006676D02*
X010805Y006676D01*
X010956Y006676D02*
X010956Y007127D01*
X010805Y006976D01*
X010645Y007051D02*
X010570Y007127D01*
X010420Y007127D01*
X010345Y007051D01*
X010345Y006751D01*
X010420Y006676D01*
X010570Y006676D01*
X010645Y006751D01*
X011266Y007051D02*
X011341Y007127D01*
X011491Y007127D01*
X011566Y007051D01*
X011491Y006901D02*
X011416Y006901D01*
X007847Y010251D02*
X007772Y010176D01*
X007622Y010176D01*
X007547Y010251D01*
X007547Y010401D02*
X007697Y010476D01*
X007772Y010476D01*
X007847Y010401D01*
X007847Y010251D01*
X007547Y010401D02*
X007547Y010627D01*
X007847Y010627D01*
X007237Y010627D02*
X007237Y010176D01*
X007087Y010176D02*
X007387Y010176D01*
X007087Y010476D02*
X007237Y010627D01*
X006926Y010551D02*
X006851Y010627D01*
X006701Y010627D01*
X006626Y010551D01*
X006626Y010251D01*
X006701Y010176D01*
X006851Y010176D01*
X006926Y010251D01*
X002516Y010377D02*
X002366Y010301D01*
X002216Y010151D01*
X002441Y010151D01*
X002516Y010076D01*
X002516Y010001D01*
X002441Y009926D01*
X002291Y009926D01*
X002216Y010001D01*
X002216Y010151D01*
X002216Y009377D02*
X002216Y009151D01*
X002366Y009226D01*
X002441Y009226D01*
X002516Y009151D01*
X002516Y009001D01*
X002441Y008926D01*
X002291Y008926D01*
X002216Y009001D01*
X002216Y009377D02*
X002516Y009377D01*
X002441Y008377D02*
X002216Y008151D01*
X002516Y008151D01*
X002441Y007926D02*
X002441Y008377D01*
X002441Y007377D02*
X002291Y007377D01*
X002216Y007301D01*
X002366Y007151D02*
X002441Y007151D01*
X002516Y007076D01*
X002516Y007001D01*
X002441Y006926D01*
X002291Y006926D01*
X002216Y007001D01*
X002441Y007151D02*
X002516Y007226D01*
X002516Y007301D01*
X002441Y007377D01*
X002441Y006377D02*
X002291Y006377D01*
X002216Y006301D01*
X002441Y006377D02*
X002516Y006301D01*
X002516Y006226D01*
X002216Y005926D01*
X002516Y005926D01*
X002480Y004627D02*
X002255Y004627D01*
X002255Y004176D01*
X002255Y004326D02*
X002480Y004326D01*
X002556Y004401D01*
X002556Y004551D01*
X002480Y004627D01*
X002716Y004627D02*
X002941Y004627D01*
X003016Y004551D01*
X003016Y004251D01*
X002941Y004176D01*
X002716Y004176D01*
X002716Y004627D01*
X002405Y004326D02*
X002556Y004176D01*
X002095Y004176D02*
X002095Y004476D01*
X001945Y004627D01*
X001795Y004476D01*
X001795Y004176D01*
X001635Y004251D02*
X001560Y004176D01*
X001410Y004176D01*
X001335Y004251D01*
X001335Y004551D01*
X001410Y004627D01*
X001560Y004627D01*
X001635Y004551D01*
X001795Y004401D02*
X002095Y004401D01*
X001174Y004251D02*
X001174Y004551D01*
X001099Y004627D01*
X000874Y004627D01*
X000874Y004176D01*
X001099Y004176D01*
X001174Y004251D01*
X000714Y004251D02*
X000639Y004176D01*
X000489Y004176D01*
X000414Y004251D01*
X000489Y004401D02*
X000639Y004401D01*
X000714Y004326D01*
X000714Y004251D01*
X000489Y004401D02*
X000414Y004476D01*
X000414Y004551D01*
X000489Y004627D01*
X000639Y004627D01*
X000714Y004551D01*
X004226Y001726D02*
X004376Y001877D01*
X004376Y001426D01*
X004226Y001426D02*
X004526Y001426D01*
X004751Y002326D02*
X004676Y002401D01*
X004751Y002326D02*
X004901Y002326D01*
X004976Y002401D01*
X004976Y002476D01*
X004901Y002551D01*
X004751Y002551D01*
X004676Y002626D01*
X004676Y002701D01*
X004751Y002777D01*
X004901Y002777D01*
X004976Y002701D01*
X005137Y002777D02*
X005362Y002777D01*
X005437Y002701D01*
X005437Y002401D01*
X005362Y002326D01*
X005137Y002326D01*
X005137Y002777D01*
X005597Y002701D02*
X005597Y002401D01*
X005672Y002326D01*
X005822Y002326D01*
X005897Y002401D01*
X005897Y002701D02*
X005822Y002777D01*
X005672Y002777D01*
X005597Y002701D01*
X008776Y001651D02*
X009076Y001651D01*
X009001Y001426D02*
X009001Y001877D01*
X008776Y001651D01*
X010676Y002326D02*
X010976Y002326D01*
X011137Y002401D02*
X011212Y002326D01*
X011362Y002326D01*
X011437Y002401D01*
X011597Y002326D02*
X011597Y002777D01*
X011822Y002777D01*
X011897Y002701D01*
X011897Y002401D01*
X011822Y002326D01*
X011597Y002326D01*
X011437Y002701D02*
X011362Y002777D01*
X011212Y002777D01*
X011137Y002701D01*
X011137Y002401D01*
X010676Y002326D02*
X010676Y002777D01*
X011076Y000977D02*
X011076Y000526D01*
X010926Y000526D02*
X011226Y000526D01*
X010926Y000826D02*
X011076Y000977D01*
X017026Y002326D02*
X017026Y002401D01*
X017326Y002701D01*
X017326Y002777D01*
X017026Y002777D01*
X018176Y003001D02*
X018251Y002926D01*
X018401Y002926D01*
X018476Y003001D01*
X018476Y003301D01*
X018401Y003377D01*
X018251Y003377D01*
X018176Y003301D01*
X018176Y003001D01*
X018326Y003076D02*
X018476Y002926D01*
X018637Y002926D02*
X018937Y002926D01*
X018787Y002926D02*
X018787Y003377D01*
X018637Y003226D01*
X019176Y002777D02*
X019401Y002777D01*
X019476Y002701D01*
X019476Y002626D01*
X019401Y002551D01*
X019176Y002551D01*
X019176Y002326D02*
X019176Y002777D01*
X019401Y002551D02*
X019476Y002476D01*
X019476Y002401D01*
X019401Y002326D01*
X019176Y002326D01*
X019637Y002326D02*
X019637Y002777D01*
X019862Y002777D01*
X019937Y002701D01*
X019937Y002551D01*
X019862Y002476D01*
X019637Y002476D01*
X019626Y000977D02*
X019626Y000526D01*
X019476Y000526D02*
X019776Y000526D01*
X019476Y000826D02*
X019626Y000977D01*
X026426Y002401D02*
X026426Y002476D01*
X026501Y002551D01*
X026651Y002551D01*
X026726Y002476D01*
X026726Y002401D01*
X026651Y002326D01*
X026501Y002326D01*
X026426Y002401D01*
X026501Y002551D02*
X026426Y002626D01*
X026426Y002701D01*
X026501Y002777D01*
X026651Y002777D01*
X026726Y002701D01*
X026726Y002626D01*
X026651Y002551D01*
X028176Y001726D02*
X028326Y001877D01*
X028326Y001426D01*
X028176Y001426D02*
X028476Y001426D01*
X028751Y002326D02*
X028901Y002326D01*
X028976Y002401D01*
X029137Y002326D02*
X029137Y002777D01*
X029437Y002326D01*
X029437Y002777D01*
X029597Y002701D02*
X029672Y002777D01*
X029822Y002777D01*
X029897Y002701D01*
X029897Y002626D01*
X029597Y002326D01*
X029897Y002326D01*
X028976Y002701D02*
X028901Y002777D01*
X028751Y002777D01*
X028676Y002701D01*
X028676Y002401D01*
X028751Y002326D01*
X031085Y000977D02*
X031085Y000526D01*
X031385Y000526D01*
X031545Y000526D02*
X031845Y000526D01*
X032005Y000526D02*
X032231Y000526D01*
X032306Y000601D01*
X032306Y000901D01*
X032231Y000977D01*
X032005Y000977D01*
X032005Y000526D01*
X031695Y000751D02*
X031545Y000751D01*
X031545Y000526D02*
X031545Y000977D01*
X031845Y000977D01*
X032466Y000901D02*
X032541Y000977D01*
X032691Y000977D01*
X032766Y000901D01*
X032766Y000826D01*
X032466Y000526D01*
X032766Y000526D01*
X033585Y000526D02*
X033585Y000977D01*
X034045Y000977D02*
X034045Y000526D01*
X034345Y000526D01*
X034505Y000526D02*
X034731Y000526D01*
X034806Y000601D01*
X034806Y000901D01*
X034731Y000977D01*
X034505Y000977D01*
X034505Y000526D01*
X034195Y000751D02*
X034045Y000751D01*
X034045Y000977D02*
X034345Y000977D01*
X034966Y000826D02*
X035116Y000977D01*
X035116Y000526D01*
X034966Y000526D02*
X035266Y000526D01*
X033885Y000526D02*
X033585Y000526D01*
X028376Y004676D02*
X028376Y004826D01*
X028376Y004751D02*
X027926Y004751D01*
X027926Y004676D02*
X027926Y004826D01*
X028001Y004983D02*
X028301Y004983D01*
X028376Y005058D01*
X028376Y005208D01*
X028301Y005283D01*
X028301Y005443D02*
X028376Y005518D01*
X028376Y005669D01*
X028301Y005744D01*
X028151Y005744D01*
X028076Y005669D01*
X028076Y005594D01*
X028151Y005443D01*
X027926Y005443D01*
X027926Y005744D01*
X028001Y005283D02*
X027926Y005208D01*
X027926Y005058D01*
X028001Y004983D01*
X028401Y010326D02*
X028551Y010326D01*
X028626Y010401D01*
X028787Y010326D02*
X029087Y010326D01*
X028937Y010326D02*
X028937Y010777D01*
X028787Y010626D01*
X028626Y010701D02*
X028551Y010777D01*
X028401Y010777D01*
X028326Y010701D01*
X028326Y010401D01*
X028401Y010326D01*
X029247Y010326D02*
X029547Y010326D01*
X029397Y010326D02*
X029397Y010777D01*
X029247Y010626D01*
X028526Y012026D02*
X028526Y012176D01*
X028526Y012101D02*
X028076Y012101D01*
X028076Y012026D02*
X028076Y012176D01*
X028151Y012333D02*
X028451Y012333D01*
X028526Y012408D01*
X028526Y012558D01*
X028451Y012633D01*
X028451Y012793D02*
X028526Y012868D01*
X028526Y013019D01*
X028451Y013094D01*
X028376Y013094D01*
X028301Y013019D01*
X028301Y012944D01*
X028301Y013019D02*
X028226Y013094D01*
X028151Y013094D01*
X028076Y013019D01*
X028076Y012868D01*
X028151Y012793D01*
X028151Y012633D02*
X028076Y012558D01*
X028076Y012408D01*
X028151Y012333D01*
X028401Y017326D02*
X028551Y017326D01*
X028626Y017401D01*
X028787Y017401D02*
X028862Y017326D01*
X029012Y017326D01*
X029087Y017401D01*
X029087Y017551D01*
X029012Y017626D01*
X028937Y017626D01*
X028787Y017551D01*
X028787Y017777D01*
X029087Y017777D01*
X029605Y017901D02*
X029605Y017601D01*
X029680Y017526D01*
X029831Y017526D01*
X029906Y017601D01*
X030066Y017601D02*
X030066Y017676D01*
X030141Y017751D01*
X030291Y017751D01*
X030366Y017676D01*
X030366Y017601D01*
X030291Y017526D01*
X030141Y017526D01*
X030066Y017601D01*
X030141Y017751D02*
X030066Y017826D01*
X030066Y017901D01*
X030141Y017977D01*
X030291Y017977D01*
X030366Y017901D01*
X030366Y017826D01*
X030291Y017751D01*
X029906Y017901D02*
X029831Y017977D01*
X029680Y017977D01*
X029605Y017901D01*
X028626Y017701D02*
X028551Y017777D01*
X028401Y017777D01*
X028326Y017701D01*
X028326Y017401D01*
X028401Y017326D01*
X025226Y017401D02*
X025151Y017326D01*
X025001Y017326D01*
X024926Y017401D01*
X024926Y017476D01*
X025001Y017551D01*
X025151Y017551D01*
X025226Y017476D01*
X025226Y017401D01*
X025151Y017551D02*
X025226Y017626D01*
X025226Y017701D01*
X025151Y017777D01*
X025001Y017777D01*
X024926Y017701D01*
X024926Y017626D01*
X025001Y017551D01*
X027926Y020676D02*
X027926Y020826D01*
X027926Y020751D02*
X028376Y020751D01*
X028376Y020676D02*
X028376Y020826D01*
X028301Y020983D02*
X028376Y021058D01*
X028376Y021208D01*
X028301Y021283D01*
X028151Y021443D02*
X028151Y021744D01*
X027926Y021669D02*
X028151Y021443D01*
X028001Y021283D02*
X027926Y021208D01*
X027926Y021058D01*
X028001Y020983D01*
X028301Y020983D01*
X028376Y021669D02*
X027926Y021669D01*
X028401Y026326D02*
X028551Y026326D01*
X028626Y026401D01*
X028787Y026401D02*
X028787Y026326D01*
X028787Y026401D02*
X029087Y026701D01*
X029087Y026777D01*
X028787Y026777D01*
X028626Y026701D02*
X028551Y026777D01*
X028401Y026777D01*
X028326Y026701D01*
X028326Y026401D01*
X028401Y026326D01*
X028201Y028145D02*
X028276Y028220D01*
X028276Y028370D01*
X028201Y028445D01*
X028276Y028605D02*
X028276Y028906D01*
X028276Y028756D02*
X027826Y028756D01*
X027976Y028605D01*
X027901Y028445D02*
X027826Y028370D01*
X027826Y028220D01*
X027901Y028145D01*
X028201Y028145D01*
X028201Y029066D02*
X027901Y029366D01*
X028201Y029366D01*
X028276Y029291D01*
X028276Y029141D01*
X028201Y029066D01*
X027901Y029066D01*
X027826Y029141D01*
X027826Y029291D01*
X027901Y029366D01*
X028926Y029326D02*
X029076Y029477D01*
X029076Y029026D01*
X028926Y029026D02*
X029226Y029026D01*
X029212Y030826D02*
X029362Y030826D01*
X029437Y030901D01*
X029437Y031201D01*
X029362Y031277D01*
X029212Y031277D01*
X029137Y031201D01*
X029137Y030901D01*
X029212Y030826D01*
X028976Y030826D02*
X028976Y031126D01*
X028826Y031277D01*
X028676Y031126D01*
X028676Y030826D01*
X028676Y031051D02*
X028976Y031051D01*
X026276Y029291D02*
X026276Y029141D01*
X026201Y029066D01*
X026051Y029066D01*
X026051Y029291D01*
X026126Y029366D01*
X026201Y029366D01*
X026276Y029291D01*
X026051Y029066D02*
X025901Y029216D01*
X025826Y029366D01*
X025826Y028756D02*
X026276Y028756D01*
X026276Y028906D02*
X026276Y028605D01*
X026201Y028445D02*
X026276Y028370D01*
X026276Y028220D01*
X026201Y028145D01*
X025901Y028145D01*
X025826Y028220D01*
X025826Y028370D01*
X025901Y028445D01*
X025976Y028605D02*
X025826Y028756D01*
X025151Y030826D02*
X025001Y030826D01*
X024926Y030901D01*
X024926Y030976D01*
X025001Y031051D01*
X025151Y031051D01*
X025226Y030976D01*
X025226Y030901D01*
X025151Y030826D01*
X025151Y031051D02*
X025226Y031126D01*
X025226Y031201D01*
X025151Y031277D01*
X025001Y031277D01*
X024926Y031201D01*
X024926Y031126D01*
X025001Y031051D01*
X018437Y031051D02*
X018362Y030976D01*
X018137Y030976D01*
X018137Y030826D02*
X018137Y031277D01*
X018362Y031277D01*
X018437Y031201D01*
X018437Y031051D01*
X017976Y030826D02*
X017751Y031051D01*
X017676Y030976D02*
X017976Y031277D01*
X017676Y031277D02*
X017676Y030826D01*
X018126Y029477D02*
X018126Y029026D01*
X017976Y029026D02*
X018276Y029026D01*
X017976Y029326D02*
X018126Y029477D01*
X014976Y030901D02*
X014901Y030826D01*
X014751Y030826D01*
X014676Y030901D01*
X014676Y030976D01*
X014751Y031051D01*
X014901Y031051D01*
X014976Y030976D01*
X014976Y030901D01*
X014901Y031051D02*
X014976Y031126D01*
X014976Y031201D01*
X014901Y031277D01*
X014751Y031277D01*
X014676Y031201D01*
X014676Y031126D01*
X014751Y031051D01*
X012397Y030901D02*
X012397Y031201D01*
X012322Y031277D01*
X012097Y031277D01*
X012097Y030826D01*
X012322Y030826D01*
X012397Y030901D01*
X011937Y030901D02*
X011862Y030826D01*
X011712Y030826D01*
X011637Y030901D01*
X011637Y031277D01*
X011476Y031201D02*
X011476Y031051D01*
X011401Y030976D01*
X011176Y030976D01*
X011176Y030826D02*
X011176Y031277D01*
X011401Y031277D01*
X011476Y031201D01*
X011937Y031277D02*
X011937Y030901D01*
X009276Y028791D02*
X009276Y028641D01*
X009201Y028566D01*
X009126Y028566D01*
X009051Y028641D01*
X009051Y028791D01*
X009126Y028866D01*
X009201Y028866D01*
X009276Y028791D01*
X009051Y028791D02*
X008976Y028866D01*
X008901Y028866D01*
X008826Y028791D01*
X008826Y028641D01*
X008901Y028566D01*
X008976Y028566D01*
X009051Y028641D01*
X009276Y028406D02*
X009276Y028105D01*
X009276Y028256D02*
X008826Y028256D01*
X008976Y028105D01*
X008901Y027945D02*
X008826Y027870D01*
X008826Y027720D01*
X008901Y027645D01*
X009201Y027645D01*
X009276Y027720D01*
X009276Y027870D01*
X009201Y027945D01*
X011476Y028026D02*
X011776Y028026D01*
X011626Y028026D02*
X011626Y028477D01*
X011476Y028326D01*
X006897Y030826D02*
X006597Y030826D01*
X006747Y030826D02*
X006747Y031277D01*
X006597Y031126D01*
X006437Y031277D02*
X006437Y030826D01*
X006137Y031277D01*
X006137Y030826D01*
X005976Y030901D02*
X005901Y030826D01*
X005751Y030826D01*
X005676Y030901D01*
X005676Y031201D01*
X005751Y031277D01*
X005901Y031277D01*
X005976Y031201D01*
X005326Y030377D02*
X005326Y029926D01*
X005176Y029926D02*
X005476Y029926D01*
X005176Y030226D02*
X005326Y030377D01*
X001876Y024001D02*
X001426Y024001D01*
X001651Y023776D01*
X001651Y024076D01*
X009426Y017277D02*
X009651Y017277D01*
X009726Y017201D01*
X009726Y016901D01*
X009651Y016826D01*
X009426Y016826D01*
X009426Y017277D01*
X009887Y017201D02*
X009962Y017277D01*
X010112Y017277D01*
X010187Y017201D01*
X010187Y017126D01*
X010112Y017051D01*
X010187Y016976D01*
X010187Y016901D01*
X010112Y016826D01*
X009962Y016826D01*
X009887Y016901D01*
X010037Y017051D02*
X010112Y017051D01*
X017676Y017326D02*
X017676Y017777D01*
X017751Y017551D02*
X017976Y017326D01*
X018137Y017326D02*
X018437Y017326D01*
X018287Y017551D02*
X018137Y017551D01*
X018137Y017326D02*
X018137Y017777D01*
X018437Y017777D01*
X018597Y017777D02*
X018597Y017701D01*
X018747Y017551D01*
X018747Y017326D01*
X018747Y017551D02*
X018897Y017701D01*
X018897Y017777D01*
X019057Y017777D02*
X019282Y017777D01*
X019357Y017701D01*
X019357Y017551D01*
X019282Y017476D01*
X019057Y017476D01*
X019057Y017326D02*
X019057Y017777D01*
X019518Y017626D02*
X019518Y017326D01*
X019518Y017551D02*
X019818Y017551D01*
X019818Y017626D02*
X019818Y017326D01*
X019978Y017326D02*
X019978Y017777D01*
X020203Y017777D01*
X020278Y017701D01*
X020278Y017401D01*
X020203Y017326D01*
X019978Y017326D01*
X019818Y017626D02*
X019668Y017777D01*
X019518Y017626D01*
X017976Y017777D02*
X017676Y017476D01*
X017683Y018317D02*
X017626Y018374D01*
X017626Y018487D01*
X017683Y018544D01*
X017739Y018544D01*
X017796Y018487D01*
X017853Y018544D01*
X017909Y018544D01*
X017966Y018487D01*
X017966Y018374D01*
X017909Y018317D01*
X017796Y018431D02*
X017796Y018487D01*
X017683Y019317D02*
X017626Y019374D01*
X017626Y019487D01*
X017683Y019544D01*
X017739Y019544D01*
X017966Y019317D01*
X017966Y019544D01*
X017966Y020317D02*
X017966Y020544D01*
X017966Y020431D02*
X017626Y020431D01*
X017739Y020317D01*
X019326Y020381D02*
X019326Y020155D01*
X019776Y020155D01*
X019626Y020155D02*
X019626Y020381D01*
X019551Y020456D01*
X019401Y020456D01*
X019326Y020381D01*
X019551Y020616D02*
X019326Y020841D01*
X019776Y020841D01*
X019551Y020916D02*
X019551Y020616D01*
X019326Y019995D02*
X019326Y019845D01*
X019326Y019920D02*
X019701Y019920D01*
X019776Y019845D01*
X019776Y019770D01*
X019701Y019695D01*
X018126Y015977D02*
X018126Y015526D01*
X017976Y015526D02*
X018276Y015526D01*
X018276Y015516D02*
X018276Y015216D01*
X017976Y015516D01*
X017901Y015516D01*
X017826Y015441D01*
X017826Y015291D01*
X017901Y015216D01*
X017901Y015056D02*
X018051Y015056D01*
X018126Y014981D01*
X018126Y014755D01*
X018276Y014755D02*
X017826Y014755D01*
X017826Y014981D01*
X017901Y015056D01*
X017826Y014595D02*
X017826Y014445D01*
X017826Y014520D02*
X018201Y014520D01*
X018276Y014445D01*
X018276Y014370D01*
X018201Y014295D01*
X018601Y013726D02*
X018676Y013726D01*
X018751Y013651D01*
X018751Y013501D01*
X018676Y013426D01*
X018601Y013426D01*
X018526Y013501D01*
X018526Y013651D01*
X018601Y013726D01*
X018751Y013651D02*
X018826Y013726D01*
X018901Y013726D01*
X018976Y013651D01*
X018976Y013501D01*
X018901Y013426D01*
X018826Y013426D01*
X018751Y013501D01*
X018201Y012516D02*
X018276Y012441D01*
X018276Y012291D01*
X018201Y012216D01*
X018051Y012366D02*
X018051Y012441D01*
X018126Y012516D01*
X018201Y012516D01*
X018051Y012441D02*
X017976Y012516D01*
X017901Y012516D01*
X017826Y012441D01*
X017826Y012291D01*
X017901Y012216D01*
X017901Y012056D02*
X018051Y012056D01*
X018126Y011981D01*
X018126Y011755D01*
X018276Y011755D02*
X017826Y011755D01*
X017826Y011981D01*
X017901Y012056D01*
X017826Y011595D02*
X017826Y011445D01*
X017826Y011520D02*
X018201Y011520D01*
X018276Y011445D01*
X018276Y011370D01*
X018201Y011295D01*
X017976Y015826D02*
X018126Y015977D01*
X022026Y023426D02*
X022026Y023651D01*
X022101Y023726D01*
X022401Y023726D01*
X022476Y023651D01*
X022476Y023426D01*
X022026Y023426D01*
X022026Y023887D02*
X022251Y023887D01*
X022176Y024037D01*
X022176Y024112D01*
X022251Y024187D01*
X022401Y024187D01*
X022476Y024112D01*
X022476Y023962D01*
X022401Y023887D01*
X022026Y023887D02*
X022026Y024187D01*
X031155Y027176D02*
X031381Y027176D01*
X031456Y027251D01*
X031456Y027551D01*
X031381Y027627D01*
X031155Y027627D01*
X031155Y027176D01*
X031616Y027401D02*
X031916Y027401D01*
X031841Y027176D02*
X031841Y027627D01*
X031616Y027401D01*
X031901Y026777D02*
X031826Y026701D01*
X031826Y026401D01*
X031901Y026326D01*
X032051Y026326D01*
X032126Y026401D01*
X032287Y026401D02*
X032362Y026326D01*
X032512Y026326D01*
X032587Y026401D01*
X032587Y026701D01*
X032512Y026777D01*
X032362Y026777D01*
X032287Y026701D01*
X032287Y026626D01*
X032362Y026551D01*
X032587Y026551D01*
X032126Y026701D02*
X032051Y026777D01*
X031901Y026777D01*
X035345Y024551D02*
X035345Y024251D01*
X035420Y024176D01*
X035570Y024176D01*
X035645Y024251D01*
X035805Y024176D02*
X036106Y024176D01*
X035956Y024176D02*
X035956Y024627D01*
X035805Y024476D01*
X035645Y024551D02*
X035570Y024627D01*
X035420Y024627D01*
X035345Y024551D01*
X036266Y024627D02*
X036566Y024627D01*
X036566Y024551D01*
X036266Y024251D01*
X036266Y024176D01*
X036290Y026626D02*
X036290Y026966D01*
X036176Y026853D01*
X036176Y026626D02*
X036403Y026626D01*
X037176Y026626D02*
X037403Y026853D01*
X037403Y026910D01*
X037346Y026966D01*
X037233Y026966D01*
X037176Y026910D01*
X037176Y026626D02*
X037403Y026626D01*
X038176Y026683D02*
X038233Y026626D01*
X038346Y026626D01*
X038403Y026683D01*
X038403Y026740D01*
X038346Y026796D01*
X038290Y026796D01*
X038346Y026796D02*
X038403Y026853D01*
X038403Y026910D01*
X038346Y026966D01*
X038233Y026966D01*
X038176Y026910D01*
X036922Y028326D02*
X036772Y028326D01*
X036697Y028401D01*
X036697Y028551D02*
X036847Y028626D01*
X036922Y028626D01*
X036997Y028551D01*
X036997Y028401D01*
X036922Y028326D01*
X036697Y028551D02*
X036697Y028777D01*
X036997Y028777D01*
X036537Y028701D02*
X036537Y028551D01*
X036462Y028476D01*
X036237Y028476D01*
X036237Y028326D02*
X036237Y028777D01*
X036462Y028777D01*
X036537Y028701D01*
X036076Y028777D02*
X035926Y028777D01*
X036001Y028777D02*
X036001Y028401D01*
X035926Y028326D01*
X035851Y028326D01*
X035776Y028401D01*
X033226Y030901D02*
X033151Y030826D01*
X033001Y030826D01*
X032926Y030901D01*
X032926Y031051D02*
X033076Y031126D01*
X033151Y031126D01*
X033226Y031051D01*
X033226Y030901D01*
X032926Y031051D02*
X032926Y031277D01*
X033226Y031277D01*
X034201Y017627D02*
X034126Y017551D01*
X034126Y017251D01*
X034201Y017176D01*
X034351Y017176D01*
X034426Y017251D01*
X034587Y017251D02*
X034662Y017176D01*
X034812Y017176D01*
X034887Y017251D01*
X034887Y017326D01*
X034812Y017401D01*
X034587Y017401D01*
X034587Y017251D01*
X034587Y017401D02*
X034737Y017551D01*
X034887Y017627D01*
X034426Y017551D02*
X034351Y017627D01*
X034201Y017627D01*
X037026Y014726D02*
X037026Y014426D01*
X037251Y014426D01*
X037176Y014576D01*
X037176Y014651D01*
X037251Y014726D01*
X037401Y014726D01*
X037476Y014651D01*
X037476Y014501D01*
X037401Y014426D01*
X037476Y010937D02*
X037476Y010637D01*
X037026Y010637D01*
X037026Y010476D02*
X037026Y010176D01*
X037476Y010176D01*
X037476Y010476D01*
X037251Y010326D02*
X037251Y010176D01*
X038826Y010576D02*
X038976Y010426D01*
X038826Y010576D02*
X039276Y010576D01*
X039276Y010426D02*
X039276Y010726D01*
X035276Y007366D02*
X035276Y007066D01*
X034976Y007366D01*
X034901Y007366D01*
X034826Y007291D01*
X034826Y007141D01*
X034901Y007066D01*
X034826Y006756D02*
X035276Y006756D01*
X035276Y006906D02*
X035276Y006605D01*
X035201Y006445D02*
X035276Y006370D01*
X035276Y006220D01*
X035201Y006145D01*
X034901Y006145D01*
X034826Y006220D01*
X034826Y006370D01*
X034901Y006445D01*
X034976Y006605D02*
X034826Y006756D01*
X002516Y011301D02*
X002216Y011001D01*
X002216Y010926D01*
X002216Y011377D02*
X002516Y011377D01*
X002516Y011301D01*
X001876Y013226D02*
X001876Y013526D01*
X001876Y013376D02*
X001426Y013376D01*
X001576Y013226D01*
X000976Y013676D02*
X000526Y013676D01*
X000526Y013901D01*
X000601Y013976D01*
X000751Y013976D01*
X000826Y013901D01*
X000826Y013676D01*
X000901Y014137D02*
X000601Y014137D01*
X000526Y014212D01*
X000526Y014362D01*
X000601Y014437D01*
X000901Y014437D01*
X000976Y014362D01*
X000976Y014212D01*
X000901Y014137D01*
D16*
X003706Y019151D03*
X005596Y019151D03*
X005596Y024151D03*
X003706Y024151D03*
D17*
X010576Y024151D03*
X012726Y024151D03*
X018576Y024151D03*
X018576Y022651D03*
X020726Y022651D03*
X020726Y024151D03*
X020726Y025651D03*
X020726Y027151D03*
X020726Y028651D03*
X018576Y028651D03*
X018576Y027151D03*
X018576Y025651D03*
X016226Y018151D03*
X014076Y018151D03*
X012226Y018151D03*
X010076Y018151D03*
X013576Y016151D03*
X015726Y016151D03*
X022076Y013651D03*
X022076Y012151D03*
X022076Y010651D03*
X022076Y009151D03*
X024226Y009151D03*
X024226Y010651D03*
X024226Y012151D03*
X024226Y013651D03*
X031576Y018651D03*
X033726Y018651D03*
X034076Y014151D03*
X036226Y014151D03*
X036226Y012151D03*
X034076Y012151D03*
X034076Y009651D03*
X036226Y009651D03*
X035226Y003151D03*
X033076Y003151D03*
X031226Y003151D03*
X029076Y003151D03*
X015726Y010151D03*
X013576Y010151D03*
X010726Y010151D03*
X008576Y010151D03*
X007726Y006651D03*
X007726Y005151D03*
X007726Y003651D03*
X005576Y003651D03*
X005576Y005151D03*
X005576Y006651D03*
X005726Y015651D03*
X005726Y017151D03*
X003576Y017151D03*
X003576Y015651D03*
D18*
X004031Y013901D02*
X004031Y013651D01*
X004031Y013401D01*
X004281Y013401D02*
X004281Y013651D01*
X004281Y013901D01*
X009901Y013281D02*
X010151Y013281D01*
X010401Y013281D01*
X010401Y013031D02*
X010151Y013031D01*
X009901Y013031D01*
X017401Y007771D02*
X017651Y007771D01*
X017901Y007771D01*
X017901Y007521D02*
X017651Y007521D01*
X017401Y007521D01*
X029531Y009401D02*
X029531Y009651D01*
X029531Y009901D01*
X029781Y009901D02*
X029781Y009651D01*
X029781Y009401D01*
X033901Y006271D02*
X034151Y006271D01*
X034401Y006271D01*
X034401Y006021D02*
X034151Y006021D01*
X033901Y006021D01*
X029781Y016401D02*
X029781Y016651D01*
X029781Y016901D01*
X029531Y016901D02*
X029531Y016651D01*
X029531Y016401D01*
X029271Y018401D02*
X029271Y018651D01*
X029271Y018901D01*
X029021Y018901D02*
X029021Y018651D01*
X029021Y018401D01*
X029531Y025401D02*
X029531Y025651D01*
X029531Y025901D01*
X029781Y025901D02*
X029781Y025651D01*
X029781Y025401D01*
X027401Y027531D02*
X027151Y027531D01*
X026901Y027531D01*
X026901Y027781D02*
X027151Y027781D01*
X027401Y027781D01*
X025401Y027771D02*
X025151Y027771D01*
X024901Y027771D01*
X024901Y027521D02*
X025151Y027521D01*
X025401Y027521D01*
X033031Y025901D02*
X033031Y025651D01*
X033031Y025401D01*
X033281Y025401D02*
X033281Y025651D01*
X033281Y025901D01*
X008401Y027521D02*
X008151Y027521D01*
X007901Y027521D01*
X007901Y027771D02*
X008151Y027771D01*
X008401Y027771D01*
D19*
X009601Y016151D03*
D20*
X008976Y016151D03*
X011326Y016151D03*
D21*
X020651Y018576D03*
X022151Y018576D03*
X023651Y018576D03*
X025151Y018576D03*
X027151Y018576D03*
X027151Y020726D03*
X027151Y022576D03*
X025151Y022576D03*
X025151Y020726D03*
X023651Y020726D03*
X022151Y020726D03*
X020651Y020726D03*
X025151Y024726D03*
X027151Y024726D03*
X022151Y026076D03*
X022151Y028226D03*
X015151Y027726D03*
X013651Y027726D03*
X012651Y027726D03*
X011151Y027726D03*
X011151Y025576D03*
X012651Y025576D03*
X013651Y025576D03*
X015151Y025576D03*
X006151Y026076D03*
X004651Y026076D03*
X004651Y028226D03*
X006151Y028226D03*
X026151Y014226D03*
X027651Y014226D03*
X027651Y012076D03*
X026151Y012076D03*
X027151Y006726D03*
X027151Y004576D03*
X036151Y005076D03*
X037651Y005076D03*
X037651Y007226D03*
X036151Y007226D03*
X038151Y016576D03*
X038151Y018726D03*
X038151Y021076D03*
X036651Y021076D03*
X036651Y023226D03*
X038151Y023226D03*
X034151Y023226D03*
X034151Y021076D03*
X015651Y005726D03*
X014151Y005726D03*
X014151Y003576D03*
X015651Y003576D03*
D22*
X031801Y028151D03*
D23*
X032176Y028151D03*
X030126Y028151D03*
D24*
X003051Y010801D02*
X000151Y010801D01*
X000151Y010501D02*
X003051Y010501D01*
X003051Y009801D02*
X000151Y009801D01*
X000151Y009501D02*
X003051Y009501D01*
X003051Y008801D02*
X000151Y008801D01*
X000151Y008501D02*
X003051Y008501D01*
X003051Y007801D02*
X000151Y007801D01*
X000151Y007501D02*
X003051Y007501D01*
X003051Y006801D02*
X000151Y006801D01*
X000151Y006501D02*
X003051Y006501D01*
X003051Y005801D02*
X000151Y005801D01*
X000151Y005501D02*
X003051Y005501D01*
D25*
X023151Y023601D03*
D26*
X023151Y022976D03*
X023151Y025326D03*
D27*
X033857Y001275D02*
X033830Y001228D01*
X033800Y001183D01*
X033767Y001140D01*
X033731Y001100D01*
X033692Y001062D01*
X033651Y001027D01*
X033608Y000994D01*
X033563Y000965D01*
X033515Y000939D01*
X033466Y000916D01*
X033416Y000896D01*
X033365Y000880D01*
X033312Y000867D01*
X033259Y000858D01*
X033205Y000853D01*
X033151Y000851D01*
X033846Y002048D02*
X033816Y002096D01*
X033783Y002141D01*
X033747Y002184D01*
X033709Y002225D01*
X033667Y002262D01*
X033623Y002297D01*
X033577Y002328D01*
X033528Y002357D01*
X033478Y002381D01*
X033426Y002402D01*
X033372Y002420D01*
X033318Y002433D01*
X033263Y002443D01*
X033207Y002449D01*
X033151Y002451D01*
X033098Y002449D01*
X033044Y002444D01*
X032992Y002435D01*
X032940Y002423D01*
X032889Y002407D01*
X032839Y002388D01*
X032790Y002365D01*
X032743Y002339D01*
X032698Y002311D01*
X032655Y002279D01*
X032615Y002245D01*
X032576Y002207D01*
X032540Y002168D01*
X032536Y001139D02*
X032572Y001099D01*
X032611Y001061D01*
X032652Y001026D01*
X032695Y000994D01*
X032740Y000964D01*
X032787Y000938D01*
X032836Y000916D01*
X032887Y000896D01*
X032938Y000880D01*
X032990Y000867D01*
X033044Y000858D01*
X033097Y000853D01*
X033151Y000851D01*
X035151Y000851D02*
X035205Y000853D01*
X035259Y000858D01*
X035312Y000867D01*
X035365Y000880D01*
X035416Y000896D01*
X035466Y000916D01*
X035515Y000939D01*
X035563Y000965D01*
X035608Y000994D01*
X035651Y001027D01*
X035692Y001062D01*
X035731Y001100D01*
X035767Y001140D01*
X035800Y001183D01*
X035830Y001228D01*
X035857Y001275D01*
X035846Y002048D02*
X035816Y002096D01*
X035783Y002141D01*
X035747Y002184D01*
X035709Y002225D01*
X035667Y002262D01*
X035623Y002297D01*
X035577Y002328D01*
X035528Y002357D01*
X035478Y002381D01*
X035426Y002402D01*
X035372Y002420D01*
X035318Y002433D01*
X035263Y002443D01*
X035207Y002449D01*
X035151Y002451D01*
X035098Y002449D01*
X035044Y002444D01*
X034992Y002435D01*
X034940Y002423D01*
X034889Y002407D01*
X034839Y002388D01*
X034790Y002365D01*
X034743Y002339D01*
X034698Y002311D01*
X034655Y002279D01*
X034615Y002245D01*
X034576Y002207D01*
X034540Y002168D01*
X034536Y001139D02*
X034572Y001099D01*
X034611Y001061D01*
X034652Y001026D01*
X034695Y000994D01*
X034740Y000964D01*
X034787Y000938D01*
X034836Y000916D01*
X034887Y000896D01*
X034938Y000880D01*
X034990Y000867D01*
X035044Y000858D01*
X035097Y000853D01*
X035151Y000851D01*
D28*
X037560Y001651D02*
X037562Y001699D01*
X037568Y001747D01*
X037578Y001794D01*
X037591Y001840D01*
X037609Y001885D01*
X037629Y001929D01*
X037654Y001971D01*
X037682Y002010D01*
X037712Y002047D01*
X037746Y002081D01*
X037783Y002113D01*
X037821Y002142D01*
X037862Y002167D01*
X037905Y002189D01*
X037950Y002207D01*
X037996Y002221D01*
X038043Y002232D01*
X038091Y002239D01*
X038139Y002242D01*
X038187Y002241D01*
X038235Y002236D01*
X038283Y002227D01*
X038329Y002215D01*
X038374Y002198D01*
X038418Y002178D01*
X038460Y002155D01*
X038500Y002128D01*
X038538Y002098D01*
X038573Y002065D01*
X038605Y002029D01*
X038635Y001991D01*
X038661Y001950D01*
X038683Y001907D01*
X038703Y001863D01*
X038718Y001818D01*
X038730Y001771D01*
X038738Y001723D01*
X038742Y001675D01*
X038742Y001627D01*
X038738Y001579D01*
X038730Y001531D01*
X038718Y001484D01*
X038703Y001439D01*
X038683Y001395D01*
X038661Y001352D01*
X038635Y001311D01*
X038605Y001273D01*
X038573Y001237D01*
X038538Y001204D01*
X038500Y001174D01*
X038460Y001147D01*
X038418Y001124D01*
X038374Y001104D01*
X038329Y001087D01*
X038283Y001075D01*
X038235Y001066D01*
X038187Y001061D01*
X038139Y001060D01*
X038091Y001063D01*
X038043Y001070D01*
X037996Y001081D01*
X037950Y001095D01*
X037905Y001113D01*
X037862Y001135D01*
X037821Y001160D01*
X037783Y001189D01*
X037746Y001221D01*
X037712Y001255D01*
X037682Y001292D01*
X037654Y001331D01*
X037629Y001373D01*
X037609Y001417D01*
X037591Y001462D01*
X037578Y001508D01*
X037568Y001555D01*
X037562Y001603D01*
X037560Y001651D01*
X037560Y030151D02*
X037562Y030199D01*
X037568Y030247D01*
X037578Y030294D01*
X037591Y030340D01*
X037609Y030385D01*
X037629Y030429D01*
X037654Y030471D01*
X037682Y030510D01*
X037712Y030547D01*
X037746Y030581D01*
X037783Y030613D01*
X037821Y030642D01*
X037862Y030667D01*
X037905Y030689D01*
X037950Y030707D01*
X037996Y030721D01*
X038043Y030732D01*
X038091Y030739D01*
X038139Y030742D01*
X038187Y030741D01*
X038235Y030736D01*
X038283Y030727D01*
X038329Y030715D01*
X038374Y030698D01*
X038418Y030678D01*
X038460Y030655D01*
X038500Y030628D01*
X038538Y030598D01*
X038573Y030565D01*
X038605Y030529D01*
X038635Y030491D01*
X038661Y030450D01*
X038683Y030407D01*
X038703Y030363D01*
X038718Y030318D01*
X038730Y030271D01*
X038738Y030223D01*
X038742Y030175D01*
X038742Y030127D01*
X038738Y030079D01*
X038730Y030031D01*
X038718Y029984D01*
X038703Y029939D01*
X038683Y029895D01*
X038661Y029852D01*
X038635Y029811D01*
X038605Y029773D01*
X038573Y029737D01*
X038538Y029704D01*
X038500Y029674D01*
X038460Y029647D01*
X038418Y029624D01*
X038374Y029604D01*
X038329Y029587D01*
X038283Y029575D01*
X038235Y029566D01*
X038187Y029561D01*
X038139Y029560D01*
X038091Y029563D01*
X038043Y029570D01*
X037996Y029581D01*
X037950Y029595D01*
X037905Y029613D01*
X037862Y029635D01*
X037821Y029660D01*
X037783Y029689D01*
X037746Y029721D01*
X037712Y029755D01*
X037682Y029792D01*
X037654Y029831D01*
X037629Y029873D01*
X037609Y029917D01*
X037591Y029962D01*
X037578Y030008D01*
X037568Y030055D01*
X037562Y030103D01*
X037560Y030151D01*
X001060Y030151D02*
X001062Y030199D01*
X001068Y030247D01*
X001078Y030294D01*
X001091Y030340D01*
X001109Y030385D01*
X001129Y030429D01*
X001154Y030471D01*
X001182Y030510D01*
X001212Y030547D01*
X001246Y030581D01*
X001283Y030613D01*
X001321Y030642D01*
X001362Y030667D01*
X001405Y030689D01*
X001450Y030707D01*
X001496Y030721D01*
X001543Y030732D01*
X001591Y030739D01*
X001639Y030742D01*
X001687Y030741D01*
X001735Y030736D01*
X001783Y030727D01*
X001829Y030715D01*
X001874Y030698D01*
X001918Y030678D01*
X001960Y030655D01*
X002000Y030628D01*
X002038Y030598D01*
X002073Y030565D01*
X002105Y030529D01*
X002135Y030491D01*
X002161Y030450D01*
X002183Y030407D01*
X002203Y030363D01*
X002218Y030318D01*
X002230Y030271D01*
X002238Y030223D01*
X002242Y030175D01*
X002242Y030127D01*
X002238Y030079D01*
X002230Y030031D01*
X002218Y029984D01*
X002203Y029939D01*
X002183Y029895D01*
X002161Y029852D01*
X002135Y029811D01*
X002105Y029773D01*
X002073Y029737D01*
X002038Y029704D01*
X002000Y029674D01*
X001960Y029647D01*
X001918Y029624D01*
X001874Y029604D01*
X001829Y029587D01*
X001783Y029575D01*
X001735Y029566D01*
X001687Y029561D01*
X001639Y029560D01*
X001591Y029563D01*
X001543Y029570D01*
X001496Y029581D01*
X001450Y029595D01*
X001405Y029613D01*
X001362Y029635D01*
X001321Y029660D01*
X001283Y029689D01*
X001246Y029721D01*
X001212Y029755D01*
X001182Y029792D01*
X001154Y029831D01*
X001129Y029873D01*
X001109Y029917D01*
X001091Y029962D01*
X001078Y030008D01*
X001068Y030055D01*
X001062Y030103D01*
X001060Y030151D01*
X001060Y001651D02*
X001062Y001699D01*
X001068Y001747D01*
X001078Y001794D01*
X001091Y001840D01*
X001109Y001885D01*
X001129Y001929D01*
X001154Y001971D01*
X001182Y002010D01*
X001212Y002047D01*
X001246Y002081D01*
X001283Y002113D01*
X001321Y002142D01*
X001362Y002167D01*
X001405Y002189D01*
X001450Y002207D01*
X001496Y002221D01*
X001543Y002232D01*
X001591Y002239D01*
X001639Y002242D01*
X001687Y002241D01*
X001735Y002236D01*
X001783Y002227D01*
X001829Y002215D01*
X001874Y002198D01*
X001918Y002178D01*
X001960Y002155D01*
X002000Y002128D01*
X002038Y002098D01*
X002073Y002065D01*
X002105Y002029D01*
X002135Y001991D01*
X002161Y001950D01*
X002183Y001907D01*
X002203Y001863D01*
X002218Y001818D01*
X002230Y001771D01*
X002238Y001723D01*
X002242Y001675D01*
X002242Y001627D01*
X002238Y001579D01*
X002230Y001531D01*
X002218Y001484D01*
X002203Y001439D01*
X002183Y001395D01*
X002161Y001352D01*
X002135Y001311D01*
X002105Y001273D01*
X002073Y001237D01*
X002038Y001204D01*
X002000Y001174D01*
X001960Y001147D01*
X001918Y001124D01*
X001874Y001104D01*
X001829Y001087D01*
X001783Y001075D01*
X001735Y001066D01*
X001687Y001061D01*
X001639Y001060D01*
X001591Y001063D01*
X001543Y001070D01*
X001496Y001081D01*
X001450Y001095D01*
X001405Y001113D01*
X001362Y001135D01*
X001321Y001160D01*
X001283Y001189D01*
X001246Y001221D01*
X001212Y001255D01*
X001182Y001292D01*
X001154Y001331D01*
X001129Y001373D01*
X001109Y001417D01*
X001091Y001462D01*
X001078Y001508D01*
X001068Y001555D01*
X001062Y001603D01*
X001060Y001651D01*
M02*
