%
M48
M72
T01C0.0240
T02C0.0315
T03C0.0320
T04C0.0360
T05C0.0400
T06C0.0433
T07C0.0440
T08C0.1102
%
T01
X16651Y25651
X17151Y26151
X33151Y4651
T02
X12651Y3151
X11151Y8651
X12651Y9151
X5151Y8651
T03
X3651Y8151
X3651Y7151
X3651Y6151
X3651Y5151
X5151Y5151
X5151Y6651
X3651Y9151
X3651Y10151
X5151Y10651
X6151Y10651
X8151Y10151
X7651Y12151
X8651Y12151
X10151Y12151
X10151Y14151
X8651Y14151
X7651Y14151
X6151Y15651
X6151Y17151
X3151Y17151
X3151Y15651
X3151Y13651
X5151Y13651
X3651Y11151
X8151Y6651
X8151Y5151
X8151Y3651
X10651Y5151
X10651Y6151
X14151Y6151
X15651Y6151
X17651Y6651
X17651Y8651
X16151Y10151
X15651Y11651
X14651Y11651
X13651Y11651
X12651Y11651
X13151Y10151
X11151Y10151
X12651Y14651
X13651Y14651
X14651Y14651
X15651Y14651
X16151Y16151
X16651Y18151
X16151Y19651
X15151Y19651
X14151Y19651
X13151Y19651
X12151Y19651
X11151Y19651
X10151Y19651
X9651Y18151
X12651Y18151
X13651Y18151
X13151Y16151
X20651Y18151
X22151Y18151
X23651Y18151
X25151Y18151
X27151Y18151
X28151Y18651
X30151Y18651
X31151Y18651
X31151Y20651
X32151Y20651
X30151Y20651
X29151Y20651
X27151Y21151
X27151Y22151
X25151Y22151
X25151Y21151
X23651Y21151
X22151Y21151
X20651Y21151
X21151Y22651
X21151Y24151
X21151Y25651
X22151Y25651
X21151Y27151
X21151Y28651
X22151Y28651
X25151Y28651
X27151Y28651
X29651Y28151
X27151Y26651
X28651Y25651
X27151Y25151
X25151Y25151
X25151Y26651
X29151Y23651
X30151Y23651
X31151Y23651
X32151Y23651
X34151Y23651
X34151Y25651
X32151Y25651
X30651Y25651
X32651Y28151
X37151Y25151
X38151Y25151
X38151Y23651
X36651Y23651
X36651Y20651
X38151Y20651
X38151Y19151
X38151Y16151
X36651Y14151
X36651Y12151
X36651Y9651
X36151Y7651
X37651Y7651
X34151Y7151
X32151Y7651
X31151Y7651
X30151Y7651
X29151Y7651
X27151Y7151
X24651Y9151
X24651Y10651
X26151Y11651
X27651Y11651
X29151Y11651
X30151Y11651
X31151Y11651
X32151Y11651
X33651Y12151
X33651Y14151
X32151Y14651
X31151Y14651
X30151Y14651
X29151Y14651
X27651Y14651
X26151Y14651
X24651Y13651
X24651Y12151
X21651Y12151
X21651Y13651
X21651Y10651
X21651Y9151
X18151Y4151
X17151Y4151
X17651Y3401
X15651Y3151
X14151Y3151
X5151Y3651
X27151Y4151
X28651Y3151
X29151Y4651
X30151Y4651
X31151Y4651
X32151Y4651
X31651Y3151
X32651Y3151
X32651Y1651
X33651Y1651
X34651Y1651
X35651Y1651
X35651Y3151
X36151Y4651
X37651Y4651
X34151Y5151
X33651Y9651
X30651Y9651
X28651Y9651
X28651Y16651
X30651Y16651
X32651Y16651
X33651Y16651
X34151Y18651
X34151Y20651
X18151Y22651
X18151Y24151
X18151Y25651
X18151Y27151
X18151Y28651
X15151Y28151
X13651Y28151
X12651Y28151
X11151Y28151
X8151Y28651
X6151Y28651
X4651Y28651
X8151Y26651
X6151Y25651
X4651Y25651
X4651Y21651
X5651Y21651
X10151Y22651
X11151Y22651
X12151Y22651
X13151Y22651
X14151Y22651
X15151Y22651
X16151Y22651
X13151Y24151
X12651Y25151
X13651Y25151
X15151Y25151
X11151Y25151
X10151Y24151
T04
X7651Y22651
X7651Y21651
X7651Y20651
X17151Y15151
X17151Y14151
X17151Y12151
X17151Y11151
X16151Y8151
X15151Y8151
X14151Y8151
X23651Y6931
X23651Y4371
X18651Y18651
X18651Y19651
X18651Y20651
X36151Y27651
X37151Y27651
X38151Y27651
T05
X33151Y30151
X32151Y30151
X31151Y30151
X30151Y30151
X29151Y30151
X25151Y30151
X24151Y30151
X23151Y30151
X22151Y30151
X21151Y30151
X20151Y30151
X19151Y30151
X18151Y30151
X14651Y30151
X13651Y30151
X13651Y29151
X14651Y29151
X12651Y29151
X11651Y29151
X11651Y30151
X12651Y30151
X8151Y30151
X7151Y30151
X6151Y30151
X1651Y23151
X1651Y22151
X1651Y21151
X1651Y20151
X1651Y17151
X1651Y16151
X1651Y15151
X1651Y14151
X5151Y1651
X6151Y1651
X7151Y1651
X8151Y1651
X11151Y1651
X12151Y1651
X13151Y1651
X14151Y1651
X15151Y1651
X16151Y1651
X17151Y1651
X19651Y1651
X20651Y1651
X21651Y1651
X22651Y1651
X23651Y1651
X24651Y1651
X25651Y1651
X26651Y1651
X29151Y1651
X30151Y1651
X31151Y1651
X38151Y10651
X38151Y11651
X38151Y12651
X38151Y13651
X38151Y14651
X25151Y16651
X24151Y16651
X23151Y16651
X22151Y16651
X21151Y16651
X20151Y16651
X19151Y16651
X18151Y16651
X19651Y13651
X19651Y12651
X19651Y11651
X19651Y10651
X19651Y9651
X19651Y8651
X19651Y7651
X19651Y6651
T06
X6151Y19151
X3151Y19151
X3151Y24151
X6151Y24151
T07
X8151Y16151
X12151Y16151
X23151Y22151
X23151Y26151
T08
X1651Y1651
X1651Y30151
X38151Y30151
X38151Y1651
M30
