%
M48
M72
T01C0.0236
T02C0.0354
T03C0.0472
T04C0.0984
%
T01
X3364Y1085
X2921Y2365
X3517Y2826
X2872Y3300
X3442Y3701
X5726Y4038
X5726Y4579
X5334Y6256
X7542Y6251
X9192Y6951
X10042Y7801
X10542Y8351
X11140Y8311
X12942Y7601
X11542Y6851
X11140Y5957
X11490Y4577
X10842Y3751
X10842Y1951
X13846Y4282
X17342Y5101
X18226Y7040
X18472Y7532
X18620Y8172
X19063Y8516
X19900Y7237
X20442Y7201
X20992Y7301
X21376Y8664
X21376Y9156
X22163Y9943
X22114Y10829
X21868Y11518
X22311Y11764
X22065Y12207
X21917Y13093
X23000Y12945
X23000Y12453
X23000Y11961
X23000Y11469
X23742Y10701
X24592Y11351
X26223Y11351
X26992Y10251
X27542Y8951
X28955Y10189
X28942Y10801
X25142Y9851
X24492Y8851
X24092Y8301
X24542Y7901
X23892Y6501
X24592Y5251
X25342Y5254
X26242Y5751
X27429Y5809
X31242Y5001
X34742Y7051
X26192Y13701
X26592Y14101
X27042Y14451
X25092Y14101
X24692Y13701
X23742Y13551
X24992Y14701
X25092Y16301
X24292Y16301
X21892Y16801
X19949Y16439
X18842Y17601
X18142Y16701
X17242Y16390
X16842Y16801
X15224Y16735
X14142Y17079
X15692Y18001
X16842Y18501
X17734Y19097
X18392Y19301
X19092Y18601
X19742Y19301
X20342Y19251
X22892Y18401
X26992Y18551
X27442Y19151
X28142Y19151
X28142Y18551
X29890Y18605
X30185Y19441
X30492Y17051
X30382Y16243
X30628Y15554
X30283Y15111
X29939Y14668
X29348Y14323
X27242Y16251
X21671Y14520
X21277Y14865
X21277Y15357
X20392Y15258
X19949Y14865
X19506Y15160
X18964Y14766
X18276Y15800
X16602Y14126
X15372Y14176
X13092Y14851
X13092Y15851
X11317Y17601
X11742Y17901
X10392Y17601
X9892Y16751
X8692Y16351
X6464Y16341
X5333Y17030
X7692Y18101
X8942Y18851
X9542Y19351
X10661Y19851
X11364Y19851
X13842Y19251
X14142Y18113
X19092Y21301
X17242Y22051
X13092Y22101
X8542Y22101
X6711Y20967
X5192Y19201
X3892Y20051
X8728Y14323
X6415Y14077
X6366Y10239
X4693Y9845
X3842Y8251
X6792Y8801
X8792Y10251
X14634Y10386
X14634Y10878
X14634Y11370
X14880Y11813
X17242Y11961
X17242Y12502
X18915Y11715
X19407Y11715
X19457Y11223
X19998Y11174
X19949Y11666
X19161Y12158
X20490Y10681
X19506Y10534
X18423Y10239
X17587Y10681
X16356Y9254
X17045Y8959
X16455Y8565
X15569Y7926
X15224Y8319
X15224Y8861
X15569Y7384
X21692Y3751
X22042Y6001
X22606Y7729
X16292Y1951
X21792Y1451
X6169Y1085
X5726Y1823
X33892Y15601
X33942Y22651
X28642Y22651
T02
X31592Y22601
X32592Y22601
X32592Y21601
X31592Y21601
X31592Y20601
X32592Y20601
X32592Y19601
X31592Y19601
X31592Y18601
X32592Y18601
X32592Y17601
X31592Y17601
X31592Y16601
X32592Y16601
X32592Y15601
X31592Y15601
X31592Y14601
X32592Y14601
X32592Y13601
X31592Y13601
X31592Y12601
X32592Y12601
X32592Y11601
X31592Y11601
X31592Y10601
X32592Y10601
X32592Y9101
X32592Y8101
X32592Y7101
X32592Y6101
X32592Y5101
X32062Y3741
X30342Y2851
X29342Y2851
X28342Y2851
X27342Y2851
X25622Y3741
X23062Y3741
X20372Y3741
X17812Y3741
X17812Y1961
X20372Y1961
X23062Y1961
X25622Y1961
X32062Y1961
X34622Y1961
X34622Y3741
X15122Y3741
X12562Y3741
X9872Y3741
X7312Y3741
X7312Y1961
X9872Y1961
X12562Y1961
X15122Y1961
X3842Y9829
X2842Y9829
X2842Y10829
X3842Y10829
X3842Y11829
X2842Y11829
X2842Y12829
X3842Y12829
X3842Y13829
X2842Y13829
X2842Y14829
X3842Y14829
X3842Y15829
X2842Y15829
X2842Y16829
X3842Y16829
X3842Y17829
X2842Y17829
X2592Y22601
X3592Y22601
X10153Y21851
X11531Y21851
X19342Y22601
X20342Y22601
X21342Y22601
X11342Y12801
X11342Y10901
T03
X23874Y20132
X24858Y20132
X25842Y20132
X26827Y20132
X27811Y20132
X27811Y22101
X27811Y23085
X25842Y22101
X23874Y22101
X23874Y23085
T04
X30008Y21050
X30008Y6601
X2842Y6601
X2842Y21050
M30
