G75*
G70*
%OFA0B0*%
%FSLAX24Y24*%
%IPPOS*%
%LPD*%
%AMOC8*
5,1,8,0,0,1.08239X$1,22.5*
%
%ADD10R,0.0407X0.0328*%
%ADD11R,0.0328X0.0407*%
%ADD12R,0.0631X0.0710*%
%ADD13R,0.0197X0.0364*%
%ADD14R,0.0474X0.0552*%
%ADD15R,0.0552X0.0474*%
%ADD16R,0.0237X0.0474*%
%ADD17R,0.0680X0.0680*%
%ADD18C,0.0680*%
%ADD19R,0.1064X0.0946*%
%ADD20C,0.0434*%
%ADD21R,0.0277X0.0867*%
%ADD22R,0.0316X0.0552*%
%ADD23R,0.0474X0.0631*%
%ADD24C,0.0552*%
%ADD25C,0.0940*%
%ADD26C,0.0820*%
%ADD27C,0.1064*%
%ADD28R,0.0552X0.0198*%
%ADD29R,0.0198X0.0552*%
%ADD30C,0.0634*%
%ADD31C,0.0516*%
%ADD32C,0.0671*%
%ADD33C,0.0500*%
%ADD34C,0.0476*%
D10*
X007342Y021398D03*
X007342Y022304D03*
D11*
X010390Y016601D03*
X011295Y016601D03*
D12*
X008144Y019101D03*
X007041Y019101D03*
X003894Y019351D03*
X002791Y019351D03*
X013791Y007601D03*
X014894Y007601D03*
X028791Y012601D03*
X029894Y012601D03*
D13*
X007990Y010594D03*
X007734Y010594D03*
X007478Y010594D03*
X007222Y010594D03*
X007222Y009108D03*
X007478Y009108D03*
X007734Y009108D03*
X007990Y009108D03*
D14*
X007986Y007851D03*
X007199Y007851D03*
X007199Y012101D03*
X007986Y012101D03*
X007986Y013101D03*
X007199Y013101D03*
X012699Y017101D03*
X013486Y017101D03*
X013486Y018101D03*
X012699Y018101D03*
X014449Y019101D03*
X015236Y019101D03*
X016449Y019101D03*
X017236Y019101D03*
X017236Y015851D03*
X016449Y015851D03*
X015236Y015851D03*
X014449Y015851D03*
X014449Y014851D03*
X015236Y014851D03*
X008986Y017601D03*
X008199Y017601D03*
X006986Y017601D03*
X006199Y017601D03*
X005986Y022601D03*
X005199Y022601D03*
X014449Y022601D03*
X015236Y022601D03*
X016449Y022601D03*
X017236Y022601D03*
X024449Y017601D03*
X025236Y017601D03*
X026449Y017601D03*
X027236Y017601D03*
X028949Y013851D03*
X029736Y013851D03*
X029736Y011351D03*
X028949Y011351D03*
X026236Y012101D03*
X025449Y012101D03*
X025449Y013101D03*
X026236Y013101D03*
X029449Y009351D03*
X030236Y009351D03*
X030236Y008351D03*
X029449Y008351D03*
X026236Y007601D03*
X025449Y007601D03*
X023486Y005851D03*
X022699Y005851D03*
X021236Y007851D03*
X020449Y007851D03*
X017236Y007851D03*
X016449Y007851D03*
X014736Y008851D03*
X013949Y008851D03*
X013949Y006351D03*
X014736Y006351D03*
X014236Y000851D03*
X013449Y000851D03*
X008986Y000851D03*
X008199Y000851D03*
X018699Y000851D03*
X019486Y000851D03*
X023949Y000851D03*
X024736Y000851D03*
X032949Y000851D03*
X033736Y000851D03*
D15*
X030342Y004207D03*
X029342Y004207D03*
X028342Y004207D03*
X027342Y004207D03*
X027342Y004994D03*
X028342Y004994D03*
X029342Y004994D03*
X030342Y004994D03*
X027592Y009457D03*
X027592Y010244D03*
X024092Y010244D03*
X024092Y009457D03*
X024092Y012207D03*
X024092Y012994D03*
X022842Y013457D03*
X022842Y014244D03*
X024092Y014957D03*
X024092Y015744D03*
X021342Y017207D03*
X020342Y017207D03*
X020342Y017994D03*
X021342Y017994D03*
X019342Y017994D03*
X019342Y017207D03*
X018342Y017207D03*
X018342Y017994D03*
X017342Y017994D03*
X016342Y017994D03*
X016342Y017207D03*
X017342Y017207D03*
X021092Y019457D03*
X022092Y019457D03*
X022092Y020244D03*
X021092Y020244D03*
X027592Y015744D03*
X027592Y014957D03*
X021342Y006494D03*
X020342Y006494D03*
X020342Y005707D03*
X021342Y005707D03*
X019342Y005707D03*
X019342Y006494D03*
X018342Y006494D03*
X018342Y005707D03*
X017342Y005707D03*
X016342Y005707D03*
X016342Y006494D03*
X017342Y006494D03*
X012342Y006207D03*
X012342Y006994D03*
X012342Y008207D03*
X012342Y008994D03*
X013342Y010457D03*
X013342Y011244D03*
X013342Y012457D03*
X013342Y013244D03*
X009342Y012994D03*
X009342Y012207D03*
X009342Y010244D03*
X009342Y009457D03*
X005842Y009457D03*
X005842Y010244D03*
X005842Y012207D03*
X005842Y012994D03*
X005842Y014957D03*
X005842Y015744D03*
X009342Y015744D03*
X009342Y014957D03*
X004342Y003244D03*
X004342Y002457D03*
D16*
X007223Y014460D03*
X007479Y014460D03*
X007735Y014460D03*
X007990Y014460D03*
X007990Y016242D03*
X007735Y016242D03*
X007479Y016242D03*
X007223Y016242D03*
X025456Y016242D03*
X025712Y016242D03*
X025968Y016242D03*
X026224Y016242D03*
X026224Y014460D03*
X025968Y014460D03*
X025712Y014460D03*
X025456Y014460D03*
X025456Y010742D03*
X025712Y010742D03*
X025968Y010742D03*
X026224Y010742D03*
X026224Y008960D03*
X025968Y008960D03*
X025712Y008960D03*
X025456Y008960D03*
D17*
X031592Y010601D03*
X032592Y005101D03*
X002842Y009829D03*
X002592Y022601D03*
D18*
X003592Y022601D03*
X003842Y017829D03*
X002842Y017829D03*
X002842Y016829D03*
X003842Y016829D03*
X003842Y015829D03*
X002842Y015829D03*
X002842Y014829D03*
X003842Y014829D03*
X003842Y013829D03*
X002842Y013829D03*
X002842Y012829D03*
X003842Y012829D03*
X003842Y011829D03*
X002842Y011829D03*
X002842Y010829D03*
X003842Y010829D03*
X003842Y009829D03*
X019342Y022601D03*
X020342Y022601D03*
X021342Y022601D03*
X031592Y022601D03*
X032592Y022601D03*
X032592Y021601D03*
X031592Y021601D03*
X031592Y020601D03*
X032592Y020601D03*
X032592Y019601D03*
X031592Y019601D03*
X031592Y018601D03*
X032592Y018601D03*
X032592Y017601D03*
X031592Y017601D03*
X031592Y016601D03*
X032592Y016601D03*
X032592Y015601D03*
X031592Y015601D03*
X031592Y014601D03*
X032592Y014601D03*
X032592Y013601D03*
X031592Y013601D03*
X031592Y012601D03*
X032592Y012601D03*
X032592Y011601D03*
X031592Y011601D03*
X032592Y010601D03*
X032592Y009101D03*
X032592Y008101D03*
X032592Y007101D03*
X032592Y006101D03*
X030342Y002851D03*
X029342Y002851D03*
X028342Y002851D03*
X027342Y002851D03*
D19*
X012496Y021063D03*
X012496Y023150D03*
X009189Y023150D03*
X009189Y021063D03*
D20*
X010153Y021851D03*
X011531Y021851D03*
D21*
X011472Y020965D03*
X011157Y020965D03*
X010842Y020965D03*
X010527Y020965D03*
X010213Y020965D03*
D22*
X010475Y019073D03*
X010849Y019073D03*
X011223Y019073D03*
X011223Y018128D03*
X010849Y018128D03*
X010475Y018128D03*
D23*
X014842Y020418D03*
X014468Y021284D03*
X015216Y021284D03*
X016468Y020418D03*
X017216Y020418D03*
X016842Y021284D03*
X005966Y021284D03*
X005218Y021284D03*
X005592Y020418D03*
X023092Y008034D03*
X022718Y007168D03*
X023466Y007168D03*
D24*
X025842Y020132D03*
X023874Y022101D03*
X023874Y023085D03*
X027811Y023085D03*
X027811Y022101D03*
D25*
X025842Y022101D03*
X024858Y020132D03*
X023874Y020132D03*
X026827Y020132D03*
X027811Y020132D03*
D26*
X025622Y003741D03*
X023062Y003741D03*
X020372Y003741D03*
X017812Y003741D03*
X017812Y001961D03*
X020372Y001961D03*
X023062Y001961D03*
X025622Y001961D03*
X032062Y001961D03*
X034622Y001961D03*
X034622Y003741D03*
X032062Y003741D03*
X015122Y003741D03*
X012562Y003741D03*
X009872Y003741D03*
X007312Y003741D03*
X007312Y001961D03*
X009872Y001961D03*
X012562Y001961D03*
X015122Y001961D03*
D27*
X002842Y006601D03*
X002842Y021050D03*
X030008Y021050D03*
X030008Y006601D03*
D28*
X021110Y010386D03*
X021110Y010583D03*
X021110Y010780D03*
X021110Y010977D03*
X021110Y011174D03*
X021110Y011370D03*
X021110Y011567D03*
X021110Y011764D03*
X021110Y011961D03*
X021110Y012158D03*
X021110Y012355D03*
X021110Y012552D03*
X021110Y012748D03*
X021110Y012945D03*
X021110Y013142D03*
X021110Y013339D03*
X016622Y013339D03*
X016622Y013142D03*
X016622Y012945D03*
X016622Y012748D03*
X016622Y012552D03*
X016622Y012355D03*
X016622Y012158D03*
X016622Y011961D03*
X016622Y011764D03*
X016622Y011567D03*
X016622Y011370D03*
X016622Y011174D03*
X016622Y010977D03*
X016622Y010780D03*
X016622Y010583D03*
X016622Y010386D03*
D29*
X017390Y009619D03*
X017587Y009619D03*
X017783Y009619D03*
X017980Y009619D03*
X018177Y009619D03*
X018374Y009619D03*
X018571Y009619D03*
X018768Y009619D03*
X018964Y009619D03*
X019161Y009619D03*
X019358Y009619D03*
X019555Y009619D03*
X019752Y009619D03*
X019949Y009619D03*
X020146Y009619D03*
X020342Y009619D03*
X020342Y014107D03*
X020146Y014107D03*
X019949Y014107D03*
X019752Y014107D03*
X019555Y014107D03*
X019358Y014107D03*
X019161Y014107D03*
X018964Y014107D03*
X018768Y014107D03*
X018571Y014107D03*
X018374Y014107D03*
X018177Y014107D03*
X017980Y014107D03*
X017783Y014107D03*
X017587Y014107D03*
X017390Y014107D03*
D30*
X011342Y012801D03*
X011342Y010901D03*
D31*
X013092Y014851D03*
X013092Y015851D03*
D32*
X002592Y001101D03*
X035092Y022601D03*
D33*
X002236Y001101D02*
X002238Y001138D01*
X002244Y001175D01*
X002253Y001211D01*
X002267Y001246D01*
X002284Y001279D01*
X002304Y001310D01*
X002327Y001339D01*
X002354Y001366D01*
X002383Y001389D01*
X002414Y001409D01*
X002447Y001426D01*
X002482Y001440D01*
X002518Y001449D01*
X002555Y001455D01*
X002592Y001457D01*
X002629Y001455D01*
X002666Y001449D01*
X002702Y001440D01*
X002737Y001426D01*
X002770Y001409D01*
X002801Y001389D01*
X002830Y001366D01*
X002857Y001339D01*
X002880Y001310D01*
X002900Y001279D01*
X002917Y001246D01*
X002931Y001211D01*
X002940Y001175D01*
X002946Y001138D01*
X002948Y001101D01*
X002946Y001064D01*
X002940Y001027D01*
X002931Y000991D01*
X002917Y000956D01*
X002900Y000923D01*
X002880Y000892D01*
X002857Y000863D01*
X002830Y000836D01*
X002801Y000813D01*
X002770Y000793D01*
X002737Y000776D01*
X002702Y000762D01*
X002666Y000753D01*
X002629Y000747D01*
X002592Y000745D01*
X002555Y000747D01*
X002518Y000753D01*
X002482Y000762D01*
X002447Y000776D01*
X002414Y000793D01*
X002383Y000813D01*
X002354Y000836D01*
X002327Y000863D01*
X002304Y000892D01*
X002284Y000923D01*
X002267Y000956D01*
X002253Y000991D01*
X002244Y001027D01*
X002238Y001064D01*
X002236Y001101D01*
X034736Y022601D02*
X034738Y022638D01*
X034744Y022675D01*
X034753Y022711D01*
X034767Y022746D01*
X034784Y022779D01*
X034804Y022810D01*
X034827Y022839D01*
X034854Y022866D01*
X034883Y022889D01*
X034914Y022909D01*
X034947Y022926D01*
X034982Y022940D01*
X035018Y022949D01*
X035055Y022955D01*
X035092Y022957D01*
X035129Y022955D01*
X035166Y022949D01*
X035202Y022940D01*
X035237Y022926D01*
X035270Y022909D01*
X035301Y022889D01*
X035330Y022866D01*
X035357Y022839D01*
X035380Y022810D01*
X035400Y022779D01*
X035417Y022746D01*
X035431Y022711D01*
X035440Y022675D01*
X035446Y022638D01*
X035448Y022601D01*
X035446Y022564D01*
X035440Y022527D01*
X035431Y022491D01*
X035417Y022456D01*
X035400Y022423D01*
X035380Y022392D01*
X035357Y022363D01*
X035330Y022336D01*
X035301Y022313D01*
X035270Y022293D01*
X035237Y022276D01*
X035202Y022262D01*
X035166Y022253D01*
X035129Y022247D01*
X035092Y022245D01*
X035055Y022247D01*
X035018Y022253D01*
X034982Y022262D01*
X034947Y022276D01*
X034914Y022293D01*
X034883Y022313D01*
X034854Y022336D01*
X034827Y022363D01*
X034804Y022392D01*
X034784Y022423D01*
X034767Y022456D01*
X034753Y022491D01*
X034744Y022527D01*
X034738Y022564D01*
X034736Y022601D01*
D34*
X033942Y022651D03*
X030185Y019441D03*
X029890Y018605D03*
X028142Y018551D03*
X028142Y019151D03*
X027442Y019151D03*
X026992Y018551D03*
X027242Y016251D03*
X025092Y016301D03*
X024292Y016301D03*
X024992Y014701D03*
X025092Y014101D03*
X024692Y013701D03*
X023742Y013551D03*
X023000Y012945D03*
X023000Y012453D03*
X023000Y011961D03*
X023000Y011469D03*
X022311Y011764D03*
X021868Y011518D03*
X022065Y012207D03*
X021917Y013093D03*
X019949Y011666D03*
X019998Y011174D03*
X019457Y011223D03*
X019407Y011715D03*
X018915Y011715D03*
X019161Y012158D03*
X017242Y011961D03*
X017242Y012502D03*
X016602Y014126D03*
X015372Y014176D03*
X018276Y015800D03*
X017242Y016390D03*
X016842Y016801D03*
X018142Y016701D03*
X018842Y017601D03*
X019092Y018601D03*
X019742Y019301D03*
X020342Y019251D03*
X018392Y019301D03*
X017734Y019097D03*
X016842Y018501D03*
X015692Y018001D03*
X014142Y018113D03*
X013842Y019251D03*
X011742Y017901D03*
X011317Y017601D03*
X010392Y017601D03*
X009892Y016751D03*
X008692Y016351D03*
X006464Y016341D03*
X005333Y017030D03*
X007692Y018101D03*
X008942Y018851D03*
X009542Y019351D03*
X010661Y019851D03*
X011364Y019851D03*
X013092Y022101D03*
X017242Y022051D03*
X019092Y021301D03*
X022892Y018401D03*
X021892Y016801D03*
X019949Y016439D03*
X020392Y015258D03*
X019949Y014865D03*
X019506Y015160D03*
X018964Y014766D03*
X021277Y014865D03*
X021671Y014520D03*
X021277Y015357D03*
X026192Y013701D03*
X026592Y014101D03*
X027042Y014451D03*
X029348Y014323D03*
X029939Y014668D03*
X030283Y015111D03*
X030628Y015554D03*
X030382Y016243D03*
X030492Y017051D03*
X033892Y015601D03*
X028942Y010801D03*
X028955Y010189D03*
X027542Y008951D03*
X026992Y010251D03*
X026223Y011351D03*
X024592Y011351D03*
X023742Y010701D03*
X022114Y010829D03*
X022163Y009943D03*
X021376Y009156D03*
X021376Y008664D03*
X022606Y007729D03*
X024092Y008301D03*
X024542Y007901D03*
X024492Y008851D03*
X025142Y009851D03*
X020992Y007301D03*
X020442Y007201D03*
X019900Y007237D03*
X018620Y008172D03*
X019063Y008516D03*
X018472Y007532D03*
X018226Y007040D03*
X016455Y008565D03*
X017045Y008959D03*
X016356Y009254D03*
X015224Y008861D03*
X015224Y008319D03*
X015569Y007926D03*
X015569Y007384D03*
X012942Y007601D03*
X011542Y006851D03*
X011140Y005957D03*
X009192Y006951D03*
X010042Y007801D03*
X010542Y008351D03*
X011140Y008311D03*
X008792Y010251D03*
X006792Y008801D03*
X006366Y010239D03*
X004693Y009845D03*
X003842Y008251D03*
X005334Y006256D03*
X007542Y006251D03*
X005726Y004579D03*
X005726Y004038D03*
X003442Y003701D03*
X002872Y003300D03*
X003517Y002826D03*
X002921Y002365D03*
X003364Y001085D03*
X005726Y001823D03*
X006169Y001085D03*
X010842Y001951D03*
X010842Y003751D03*
X011490Y004577D03*
X013846Y004282D03*
X017342Y005101D03*
X021692Y003751D03*
X024592Y005251D03*
X025342Y005254D03*
X026242Y005751D03*
X027429Y005809D03*
X023892Y006501D03*
X022042Y006001D03*
X018423Y010239D03*
X017587Y010681D03*
X019506Y010534D03*
X020490Y010681D03*
X014880Y011813D03*
X014634Y011370D03*
X014634Y010878D03*
X014634Y010386D03*
X008728Y014323D03*
X006415Y014077D03*
X005192Y019201D03*
X003892Y020051D03*
X006711Y020967D03*
X008542Y022101D03*
X014142Y017079D03*
X015224Y016735D03*
X028642Y022651D03*
X034742Y007051D03*
X031242Y005001D03*
X021792Y001451D03*
X016292Y001951D03*
M02*
