G75*
G70*
%OFA0B0*%
%FSLAX24Y24*%
%IPPOS*%
%LPD*%
%AMOC8*
5,1,8,0,0,1.08239X$1,22.5*
%
%ADD10C,0.0000*%
%ADD11C,0.0070*%
%ADD12C,0.0050*%
%ADD13C,0.0040*%
%ADD14C,0.0030*%
%ADD15C,0.0080*%
%ADD16R,0.0591X0.0531*%
%ADD17C,0.0020*%
%ADD18C,0.0060*%
%ADD19C,0.0160*%
%ADD20C,0.0100*%
%ADD21R,0.0230X0.0160*%
%ADD22R,0.0320X0.0260*%
D10*
X001592Y000101D02*
X001592Y023601D01*
X036092Y023601D01*
X036092Y000101D01*
X001592Y000101D01*
X002350Y006601D02*
X002352Y006645D01*
X002358Y006689D01*
X002368Y006732D01*
X002381Y006774D01*
X002399Y006814D01*
X002420Y006853D01*
X002444Y006890D01*
X002471Y006925D01*
X002502Y006957D01*
X002535Y006986D01*
X002571Y007012D01*
X002609Y007034D01*
X002649Y007053D01*
X002690Y007069D01*
X002733Y007081D01*
X002776Y007089D01*
X002820Y007093D01*
X002864Y007093D01*
X002908Y007089D01*
X002951Y007081D01*
X002994Y007069D01*
X003035Y007053D01*
X003075Y007034D01*
X003113Y007012D01*
X003149Y006986D01*
X003182Y006957D01*
X003213Y006925D01*
X003240Y006890D01*
X003264Y006853D01*
X003285Y006814D01*
X003303Y006774D01*
X003316Y006732D01*
X003326Y006689D01*
X003332Y006645D01*
X003334Y006601D01*
X003332Y006557D01*
X003326Y006513D01*
X003316Y006470D01*
X003303Y006428D01*
X003285Y006388D01*
X003264Y006349D01*
X003240Y006312D01*
X003213Y006277D01*
X003182Y006245D01*
X003149Y006216D01*
X003113Y006190D01*
X003075Y006168D01*
X003035Y006149D01*
X002994Y006133D01*
X002951Y006121D01*
X002908Y006113D01*
X002864Y006109D01*
X002820Y006109D01*
X002776Y006113D01*
X002733Y006121D01*
X002690Y006133D01*
X002649Y006149D01*
X002609Y006168D01*
X002571Y006190D01*
X002535Y006216D01*
X002502Y006245D01*
X002471Y006277D01*
X002444Y006312D01*
X002420Y006349D01*
X002399Y006388D01*
X002381Y006428D01*
X002368Y006470D01*
X002358Y006513D01*
X002352Y006557D01*
X002350Y006601D01*
X002350Y021050D02*
X002352Y021094D01*
X002358Y021138D01*
X002368Y021181D01*
X002381Y021223D01*
X002399Y021263D01*
X002420Y021302D01*
X002444Y021339D01*
X002471Y021374D01*
X002502Y021406D01*
X002535Y021435D01*
X002571Y021461D01*
X002609Y021483D01*
X002649Y021502D01*
X002690Y021518D01*
X002733Y021530D01*
X002776Y021538D01*
X002820Y021542D01*
X002864Y021542D01*
X002908Y021538D01*
X002951Y021530D01*
X002994Y021518D01*
X003035Y021502D01*
X003075Y021483D01*
X003113Y021461D01*
X003149Y021435D01*
X003182Y021406D01*
X003213Y021374D01*
X003240Y021339D01*
X003264Y021302D01*
X003285Y021263D01*
X003303Y021223D01*
X003316Y021181D01*
X003326Y021138D01*
X003332Y021094D01*
X003334Y021050D01*
X003332Y021006D01*
X003326Y020962D01*
X003316Y020919D01*
X003303Y020877D01*
X003285Y020837D01*
X003264Y020798D01*
X003240Y020761D01*
X003213Y020726D01*
X003182Y020694D01*
X003149Y020665D01*
X003113Y020639D01*
X003075Y020617D01*
X003035Y020598D01*
X002994Y020582D01*
X002951Y020570D01*
X002908Y020562D01*
X002864Y020558D01*
X002820Y020558D01*
X002776Y020562D01*
X002733Y020570D01*
X002690Y020582D01*
X002649Y020598D01*
X002609Y020617D01*
X002571Y020639D01*
X002535Y020665D01*
X002502Y020694D01*
X002471Y020726D01*
X002444Y020761D01*
X002420Y020798D01*
X002399Y020837D01*
X002381Y020877D01*
X002368Y020919D01*
X002358Y020962D01*
X002352Y021006D01*
X002350Y021050D01*
X009976Y021851D02*
X009978Y021877D01*
X009984Y021903D01*
X009994Y021928D01*
X010007Y021951D01*
X010023Y021971D01*
X010043Y021989D01*
X010065Y022004D01*
X010088Y022016D01*
X010114Y022024D01*
X010140Y022028D01*
X010166Y022028D01*
X010192Y022024D01*
X010218Y022016D01*
X010242Y022004D01*
X010263Y021989D01*
X010283Y021971D01*
X010299Y021951D01*
X010312Y021928D01*
X010322Y021903D01*
X010328Y021877D01*
X010330Y021851D01*
X010328Y021825D01*
X010322Y021799D01*
X010312Y021774D01*
X010299Y021751D01*
X010283Y021731D01*
X010263Y021713D01*
X010241Y021698D01*
X010218Y021686D01*
X010192Y021678D01*
X010166Y021674D01*
X010140Y021674D01*
X010114Y021678D01*
X010088Y021686D01*
X010064Y021698D01*
X010043Y021713D01*
X010023Y021731D01*
X010007Y021751D01*
X009994Y021774D01*
X009984Y021799D01*
X009978Y021825D01*
X009976Y021851D01*
X011354Y021851D02*
X011356Y021877D01*
X011362Y021903D01*
X011372Y021928D01*
X011385Y021951D01*
X011401Y021971D01*
X011421Y021989D01*
X011443Y022004D01*
X011466Y022016D01*
X011492Y022024D01*
X011518Y022028D01*
X011544Y022028D01*
X011570Y022024D01*
X011596Y022016D01*
X011620Y022004D01*
X011641Y021989D01*
X011661Y021971D01*
X011677Y021951D01*
X011690Y021928D01*
X011700Y021903D01*
X011706Y021877D01*
X011708Y021851D01*
X011706Y021825D01*
X011700Y021799D01*
X011690Y021774D01*
X011677Y021751D01*
X011661Y021731D01*
X011641Y021713D01*
X011619Y021698D01*
X011596Y021686D01*
X011570Y021678D01*
X011544Y021674D01*
X011518Y021674D01*
X011492Y021678D01*
X011466Y021686D01*
X011442Y021698D01*
X011421Y021713D01*
X011401Y021731D01*
X011385Y021751D01*
X011372Y021774D01*
X011362Y021799D01*
X011356Y021825D01*
X011354Y021851D01*
X023638Y022101D02*
X023640Y022131D01*
X023646Y022161D01*
X023655Y022190D01*
X023668Y022217D01*
X023685Y022242D01*
X023704Y022265D01*
X023727Y022286D01*
X023752Y022303D01*
X023778Y022317D01*
X023807Y022327D01*
X023836Y022334D01*
X023866Y022337D01*
X023897Y022336D01*
X023927Y022331D01*
X023956Y022322D01*
X023983Y022310D01*
X024009Y022295D01*
X024033Y022276D01*
X024054Y022254D01*
X024072Y022230D01*
X024087Y022203D01*
X024098Y022175D01*
X024106Y022146D01*
X024110Y022116D01*
X024110Y022086D01*
X024106Y022056D01*
X024098Y022027D01*
X024087Y021999D01*
X024072Y021972D01*
X024054Y021948D01*
X024033Y021926D01*
X024009Y021907D01*
X023983Y021892D01*
X023956Y021880D01*
X023927Y021871D01*
X023897Y021866D01*
X023866Y021865D01*
X023836Y021868D01*
X023807Y021875D01*
X023778Y021885D01*
X023752Y021899D01*
X023727Y021916D01*
X023704Y021937D01*
X023685Y021960D01*
X023668Y021985D01*
X023655Y022012D01*
X023646Y022041D01*
X023640Y022071D01*
X023638Y022101D01*
X023638Y023085D02*
X023640Y023115D01*
X023646Y023145D01*
X023655Y023174D01*
X023668Y023201D01*
X023685Y023226D01*
X023704Y023249D01*
X023727Y023270D01*
X023752Y023287D01*
X023778Y023301D01*
X023807Y023311D01*
X023836Y023318D01*
X023866Y023321D01*
X023897Y023320D01*
X023927Y023315D01*
X023956Y023306D01*
X023983Y023294D01*
X024009Y023279D01*
X024033Y023260D01*
X024054Y023238D01*
X024072Y023214D01*
X024087Y023187D01*
X024098Y023159D01*
X024106Y023130D01*
X024110Y023100D01*
X024110Y023070D01*
X024106Y023040D01*
X024098Y023011D01*
X024087Y022983D01*
X024072Y022956D01*
X024054Y022932D01*
X024033Y022910D01*
X024009Y022891D01*
X023983Y022876D01*
X023956Y022864D01*
X023927Y022855D01*
X023897Y022850D01*
X023866Y022849D01*
X023836Y022852D01*
X023807Y022859D01*
X023778Y022869D01*
X023752Y022883D01*
X023727Y022900D01*
X023704Y022921D01*
X023685Y022944D01*
X023668Y022969D01*
X023655Y022996D01*
X023646Y023025D01*
X023640Y023055D01*
X023638Y023085D01*
X027575Y023085D02*
X027577Y023115D01*
X027583Y023145D01*
X027592Y023174D01*
X027605Y023201D01*
X027622Y023226D01*
X027641Y023249D01*
X027664Y023270D01*
X027689Y023287D01*
X027715Y023301D01*
X027744Y023311D01*
X027773Y023318D01*
X027803Y023321D01*
X027834Y023320D01*
X027864Y023315D01*
X027893Y023306D01*
X027920Y023294D01*
X027946Y023279D01*
X027970Y023260D01*
X027991Y023238D01*
X028009Y023214D01*
X028024Y023187D01*
X028035Y023159D01*
X028043Y023130D01*
X028047Y023100D01*
X028047Y023070D01*
X028043Y023040D01*
X028035Y023011D01*
X028024Y022983D01*
X028009Y022956D01*
X027991Y022932D01*
X027970Y022910D01*
X027946Y022891D01*
X027920Y022876D01*
X027893Y022864D01*
X027864Y022855D01*
X027834Y022850D01*
X027803Y022849D01*
X027773Y022852D01*
X027744Y022859D01*
X027715Y022869D01*
X027689Y022883D01*
X027664Y022900D01*
X027641Y022921D01*
X027622Y022944D01*
X027605Y022969D01*
X027592Y022996D01*
X027583Y023025D01*
X027577Y023055D01*
X027575Y023085D01*
X027575Y022101D02*
X027577Y022131D01*
X027583Y022161D01*
X027592Y022190D01*
X027605Y022217D01*
X027622Y022242D01*
X027641Y022265D01*
X027664Y022286D01*
X027689Y022303D01*
X027715Y022317D01*
X027744Y022327D01*
X027773Y022334D01*
X027803Y022337D01*
X027834Y022336D01*
X027864Y022331D01*
X027893Y022322D01*
X027920Y022310D01*
X027946Y022295D01*
X027970Y022276D01*
X027991Y022254D01*
X028009Y022230D01*
X028024Y022203D01*
X028035Y022175D01*
X028043Y022146D01*
X028047Y022116D01*
X028047Y022086D01*
X028043Y022056D01*
X028035Y022027D01*
X028024Y021999D01*
X028009Y021972D01*
X027991Y021948D01*
X027970Y021926D01*
X027946Y021907D01*
X027920Y021892D01*
X027893Y021880D01*
X027864Y021871D01*
X027834Y021866D01*
X027803Y021865D01*
X027773Y021868D01*
X027744Y021875D01*
X027715Y021885D01*
X027689Y021899D01*
X027664Y021916D01*
X027641Y021937D01*
X027622Y021960D01*
X027605Y021985D01*
X027592Y022012D01*
X027583Y022041D01*
X027577Y022071D01*
X027575Y022101D01*
X029516Y021050D02*
X029518Y021094D01*
X029524Y021138D01*
X029534Y021181D01*
X029547Y021223D01*
X029565Y021263D01*
X029586Y021302D01*
X029610Y021339D01*
X029637Y021374D01*
X029668Y021406D01*
X029701Y021435D01*
X029737Y021461D01*
X029775Y021483D01*
X029815Y021502D01*
X029856Y021518D01*
X029899Y021530D01*
X029942Y021538D01*
X029986Y021542D01*
X030030Y021542D01*
X030074Y021538D01*
X030117Y021530D01*
X030160Y021518D01*
X030201Y021502D01*
X030241Y021483D01*
X030279Y021461D01*
X030315Y021435D01*
X030348Y021406D01*
X030379Y021374D01*
X030406Y021339D01*
X030430Y021302D01*
X030451Y021263D01*
X030469Y021223D01*
X030482Y021181D01*
X030492Y021138D01*
X030498Y021094D01*
X030500Y021050D01*
X030498Y021006D01*
X030492Y020962D01*
X030482Y020919D01*
X030469Y020877D01*
X030451Y020837D01*
X030430Y020798D01*
X030406Y020761D01*
X030379Y020726D01*
X030348Y020694D01*
X030315Y020665D01*
X030279Y020639D01*
X030241Y020617D01*
X030201Y020598D01*
X030160Y020582D01*
X030117Y020570D01*
X030074Y020562D01*
X030030Y020558D01*
X029986Y020558D01*
X029942Y020562D01*
X029899Y020570D01*
X029856Y020582D01*
X029815Y020598D01*
X029775Y020617D01*
X029737Y020639D01*
X029701Y020665D01*
X029668Y020694D01*
X029637Y020726D01*
X029610Y020761D01*
X029586Y020798D01*
X029565Y020837D01*
X029547Y020877D01*
X029534Y020919D01*
X029524Y020962D01*
X029518Y021006D01*
X029516Y021050D01*
X025606Y020132D02*
X025608Y020162D01*
X025614Y020192D01*
X025623Y020221D01*
X025636Y020248D01*
X025653Y020273D01*
X025672Y020296D01*
X025695Y020317D01*
X025720Y020334D01*
X025746Y020348D01*
X025775Y020358D01*
X025804Y020365D01*
X025834Y020368D01*
X025865Y020367D01*
X025895Y020362D01*
X025924Y020353D01*
X025951Y020341D01*
X025977Y020326D01*
X026001Y020307D01*
X026022Y020285D01*
X026040Y020261D01*
X026055Y020234D01*
X026066Y020206D01*
X026074Y020177D01*
X026078Y020147D01*
X026078Y020117D01*
X026074Y020087D01*
X026066Y020058D01*
X026055Y020030D01*
X026040Y020003D01*
X026022Y019979D01*
X026001Y019957D01*
X025977Y019938D01*
X025951Y019923D01*
X025924Y019911D01*
X025895Y019902D01*
X025865Y019897D01*
X025834Y019896D01*
X025804Y019899D01*
X025775Y019906D01*
X025746Y019916D01*
X025720Y019930D01*
X025695Y019947D01*
X025672Y019968D01*
X025653Y019991D01*
X025636Y020016D01*
X025623Y020043D01*
X025614Y020072D01*
X025608Y020102D01*
X025606Y020132D01*
X029516Y006601D02*
X029518Y006645D01*
X029524Y006689D01*
X029534Y006732D01*
X029547Y006774D01*
X029565Y006814D01*
X029586Y006853D01*
X029610Y006890D01*
X029637Y006925D01*
X029668Y006957D01*
X029701Y006986D01*
X029737Y007012D01*
X029775Y007034D01*
X029815Y007053D01*
X029856Y007069D01*
X029899Y007081D01*
X029942Y007089D01*
X029986Y007093D01*
X030030Y007093D01*
X030074Y007089D01*
X030117Y007081D01*
X030160Y007069D01*
X030201Y007053D01*
X030241Y007034D01*
X030279Y007012D01*
X030315Y006986D01*
X030348Y006957D01*
X030379Y006925D01*
X030406Y006890D01*
X030430Y006853D01*
X030451Y006814D01*
X030469Y006774D01*
X030482Y006732D01*
X030492Y006689D01*
X030498Y006645D01*
X030500Y006601D01*
X030498Y006557D01*
X030492Y006513D01*
X030482Y006470D01*
X030469Y006428D01*
X030451Y006388D01*
X030430Y006349D01*
X030406Y006312D01*
X030379Y006277D01*
X030348Y006245D01*
X030315Y006216D01*
X030279Y006190D01*
X030241Y006168D01*
X030201Y006149D01*
X030160Y006133D01*
X030117Y006121D01*
X030074Y006113D01*
X030030Y006109D01*
X029986Y006109D01*
X029942Y006113D01*
X029899Y006121D01*
X029856Y006133D01*
X029815Y006149D01*
X029775Y006168D01*
X029737Y006190D01*
X029701Y006216D01*
X029668Y006245D01*
X029637Y006277D01*
X029610Y006312D01*
X029586Y006349D01*
X029565Y006388D01*
X029547Y006428D01*
X029534Y006470D01*
X029524Y006513D01*
X029518Y006557D01*
X029516Y006601D01*
D11*
X029464Y001626D02*
X029366Y001528D01*
X029366Y001134D01*
X029464Y001036D01*
X029661Y001036D01*
X029760Y001134D01*
X029760Y001528D01*
X029661Y001626D01*
X029464Y001626D01*
X029152Y001528D02*
X029152Y001331D01*
X029054Y001233D01*
X028758Y001233D01*
X028955Y001233D02*
X029152Y001036D01*
X028758Y001036D02*
X028758Y001626D01*
X029054Y001626D01*
X029152Y001528D01*
X028544Y001626D02*
X028151Y001626D01*
X028347Y001626D02*
X028347Y001036D01*
X027937Y001036D02*
X027937Y001626D01*
X027543Y001626D02*
X027937Y001036D01*
X027543Y001036D02*
X027543Y001626D01*
X027329Y001429D02*
X027329Y001036D01*
X027329Y001331D02*
X026935Y001331D01*
X026935Y001429D02*
X027132Y001626D01*
X027329Y001429D01*
X026935Y001429D02*
X026935Y001036D01*
X026524Y001036D02*
X026524Y001331D01*
X026721Y001528D01*
X026721Y001626D01*
X026524Y001331D02*
X026327Y001528D01*
X026327Y001626D01*
X029974Y001626D02*
X029974Y001036D01*
X030367Y001036D02*
X030367Y001626D01*
X030581Y001626D02*
X030778Y001626D01*
X030680Y001626D02*
X030680Y001036D01*
X030778Y001036D02*
X030581Y001036D01*
X030367Y001036D02*
X029974Y001626D01*
X030987Y001626D02*
X031380Y001036D01*
X030987Y001036D02*
X031380Y001626D01*
D12*
X030146Y000951D02*
X030146Y000876D01*
X030146Y000726D02*
X030071Y000726D01*
X030146Y000726D02*
X030146Y000426D01*
X030071Y000426D02*
X030221Y000426D01*
X030378Y000426D02*
X030678Y000726D01*
X030838Y000501D02*
X030838Y000426D01*
X030913Y000426D01*
X030913Y000501D01*
X030838Y000501D01*
X030678Y000426D02*
X030378Y000726D01*
X029911Y000651D02*
X029911Y000426D01*
X029911Y000651D02*
X029836Y000726D01*
X029611Y000726D01*
X029611Y000426D01*
X029450Y000501D02*
X029375Y000426D01*
X029225Y000426D01*
X029150Y000501D01*
X029150Y000651D01*
X029225Y000726D01*
X029375Y000726D01*
X029450Y000651D01*
X029450Y000501D01*
X028992Y000726D02*
X028917Y000726D01*
X028767Y000576D01*
X028767Y000426D02*
X028767Y000726D01*
X028610Y000726D02*
X028460Y000726D01*
X028535Y000801D02*
X028535Y000501D01*
X028610Y000426D01*
X028300Y000426D02*
X028300Y000651D01*
X028225Y000726D01*
X027999Y000726D01*
X027999Y000426D01*
X027839Y000426D02*
X027839Y000651D01*
X027764Y000726D01*
X027614Y000726D01*
X027614Y000576D02*
X027839Y000576D01*
X027839Y000426D02*
X027614Y000426D01*
X027539Y000501D01*
X027614Y000576D01*
X027379Y000726D02*
X027379Y000351D01*
X027304Y000276D01*
X027229Y000276D01*
X027154Y000426D02*
X027379Y000426D01*
X027154Y000426D02*
X027079Y000501D01*
X027079Y000726D01*
X026924Y000501D02*
X026924Y000426D01*
X026849Y000426D01*
X026849Y000501D01*
X026924Y000501D01*
X026688Y000501D02*
X026613Y000426D01*
X026538Y000501D01*
X026463Y000426D01*
X026388Y000501D01*
X026388Y000726D01*
X026228Y000726D02*
X026228Y000501D01*
X026153Y000426D01*
X026078Y000501D01*
X026003Y000426D01*
X025928Y000501D01*
X025928Y000726D01*
X025768Y000726D02*
X025768Y000501D01*
X025693Y000426D01*
X025618Y000501D01*
X025542Y000426D01*
X025467Y000501D01*
X025467Y000726D01*
X025012Y000541D02*
X023672Y000541D01*
X023672Y001161D01*
X025012Y001161D01*
X025012Y000541D01*
X026688Y000501D02*
X026688Y000726D01*
X031068Y000651D02*
X031068Y000501D01*
X031143Y000426D01*
X031369Y000426D01*
X031529Y000501D02*
X031604Y000426D01*
X031754Y000426D01*
X031829Y000501D01*
X031829Y000651D01*
X031754Y000726D01*
X031604Y000726D01*
X031529Y000651D01*
X031529Y000501D01*
X031369Y000726D02*
X031143Y000726D01*
X031068Y000651D01*
X031989Y000726D02*
X031989Y000426D01*
X032139Y000426D02*
X032139Y000651D01*
X032214Y000726D01*
X032289Y000651D01*
X032289Y000426D01*
X032139Y000651D02*
X032064Y000726D01*
X031989Y000726D01*
X032672Y000541D02*
X032672Y001161D01*
X034012Y001161D01*
X034012Y000541D01*
X032672Y000541D01*
X030652Y003931D02*
X030032Y003931D01*
X030032Y005271D01*
X030652Y005271D01*
X030652Y003931D01*
X029652Y003931D02*
X029032Y003931D01*
X029032Y005271D01*
X029652Y005271D01*
X029652Y003931D01*
X028652Y003931D02*
X028032Y003931D01*
X028032Y005271D01*
X028652Y005271D01*
X028652Y003931D01*
X027652Y003931D02*
X027032Y003931D01*
X027032Y005271D01*
X027652Y005271D01*
X027652Y003931D01*
X023762Y005541D02*
X023762Y006161D01*
X022422Y006161D01*
X022422Y005541D01*
X023762Y005541D01*
X021652Y005431D02*
X021032Y005431D01*
X021032Y006771D01*
X021652Y006771D01*
X021652Y005431D01*
X020652Y005431D02*
X020032Y005431D01*
X020032Y006771D01*
X020652Y006771D01*
X020652Y005431D01*
X019652Y005431D02*
X019032Y005431D01*
X019032Y006771D01*
X019652Y006771D01*
X019652Y005431D01*
X018652Y005431D02*
X018032Y005431D01*
X018032Y006771D01*
X018652Y006771D01*
X018652Y005431D01*
X017652Y005431D02*
X017032Y005431D01*
X017032Y006771D01*
X017652Y006771D01*
X017652Y005431D01*
X016652Y005431D02*
X016032Y005431D01*
X016032Y006771D01*
X016652Y006771D01*
X016652Y005431D01*
X015012Y006041D02*
X013672Y006041D01*
X013672Y006661D01*
X015012Y006661D01*
X015012Y006041D01*
X015202Y007181D02*
X014502Y007181D01*
X014502Y008021D01*
X015202Y008021D01*
X015282Y007941D01*
X015282Y007261D01*
X015202Y007181D01*
X014502Y007181D02*
X013402Y007181D01*
X013402Y008021D01*
X014502Y008021D01*
X015012Y008541D02*
X015012Y009161D01*
X013672Y009161D01*
X013672Y008541D01*
X015012Y008541D01*
X016172Y008161D02*
X017512Y008161D01*
X017512Y007541D01*
X016172Y007541D01*
X016172Y008161D01*
X013652Y010181D02*
X013032Y010181D01*
X013032Y011521D01*
X013652Y011521D01*
X013652Y010181D01*
X012652Y009271D02*
X012032Y009271D01*
X012032Y007931D01*
X012652Y007931D01*
X012652Y009271D01*
X012652Y007271D02*
X012032Y007271D01*
X012032Y005931D01*
X012652Y005931D01*
X012652Y007271D01*
X009652Y009181D02*
X009032Y009181D01*
X009032Y010521D01*
X009652Y010521D01*
X009652Y009181D01*
X008262Y008161D02*
X008262Y007541D01*
X006922Y007541D01*
X006922Y008161D01*
X008262Y008161D01*
X006152Y009181D02*
X005532Y009181D01*
X005532Y010521D01*
X006152Y010521D01*
X006152Y009181D01*
X004472Y009199D02*
X002213Y009199D01*
X002213Y018459D01*
X004472Y018459D01*
X004472Y009199D01*
X006922Y011791D02*
X006922Y012411D01*
X008262Y012411D01*
X008262Y011791D01*
X006922Y011791D01*
X006152Y011931D02*
X005532Y011931D01*
X005532Y013271D01*
X006152Y013271D01*
X006152Y011931D01*
X006922Y012791D02*
X006922Y013411D01*
X008262Y013411D01*
X008262Y012791D01*
X006922Y012791D01*
X009032Y013271D02*
X009032Y011931D01*
X009652Y011931D01*
X009652Y013271D01*
X009032Y013271D01*
X009032Y014681D02*
X009652Y014681D01*
X009652Y016021D01*
X009032Y016021D01*
X009032Y014681D01*
X006152Y014681D02*
X005532Y014681D01*
X005532Y016021D01*
X006152Y016021D01*
X006152Y014681D01*
X005922Y017291D02*
X005922Y017911D01*
X007262Y017911D01*
X007262Y017291D01*
X005922Y017291D01*
X007922Y017291D02*
X007922Y017911D01*
X009262Y017911D01*
X009262Y017291D01*
X007922Y017291D01*
X007752Y018681D02*
X006652Y018681D01*
X006652Y019521D01*
X007752Y019521D01*
X007752Y018681D01*
X008452Y018681D01*
X008532Y018761D01*
X008532Y019441D01*
X008452Y019521D01*
X007752Y019521D01*
X010211Y018920D02*
X010211Y018282D01*
X010289Y018282D01*
X010289Y018920D02*
X010211Y018920D01*
X011409Y018920D02*
X011488Y018920D01*
X011488Y018282D01*
X011409Y018282D01*
X012422Y018411D02*
X012422Y017791D01*
X013762Y017791D01*
X013762Y018411D01*
X012422Y018411D01*
X012422Y017411D02*
X012422Y016791D01*
X013762Y016791D01*
X013762Y017411D01*
X012422Y017411D01*
X014172Y016161D02*
X014172Y015541D01*
X015512Y015541D01*
X015512Y016161D01*
X014172Y016161D01*
X014172Y015161D02*
X014172Y014541D01*
X015512Y014541D01*
X015512Y015161D01*
X014172Y015161D01*
X016172Y015541D02*
X016172Y016161D01*
X017512Y016161D01*
X017512Y015541D01*
X016172Y015541D01*
X016032Y016931D02*
X016652Y016931D01*
X016652Y018271D01*
X016032Y018271D01*
X016032Y016931D01*
X017032Y016931D02*
X017032Y018271D01*
X017652Y018271D01*
X017652Y016931D01*
X017032Y016931D01*
X018032Y016931D02*
X018652Y016931D01*
X018652Y018271D01*
X018032Y018271D01*
X018032Y016931D01*
X019032Y016931D02*
X019652Y016931D01*
X019652Y018271D01*
X019032Y018271D01*
X019032Y016931D01*
X020032Y016931D02*
X020032Y018271D01*
X020652Y018271D01*
X020652Y016931D01*
X020032Y016931D01*
X021032Y016931D02*
X021652Y016931D01*
X021652Y018271D01*
X021032Y018271D01*
X021032Y016931D01*
X023782Y016021D02*
X024402Y016021D01*
X024402Y014681D01*
X023782Y014681D01*
X023782Y016021D01*
X024172Y017291D02*
X024172Y017911D01*
X025512Y017911D01*
X025512Y017291D01*
X024172Y017291D01*
X026172Y017291D02*
X026172Y017911D01*
X027512Y017911D01*
X027512Y017291D01*
X026172Y017291D01*
X027282Y016021D02*
X027902Y016021D01*
X027902Y014681D01*
X027282Y014681D01*
X027282Y016021D01*
X028672Y014161D02*
X030012Y014161D01*
X030012Y013541D01*
X028672Y013541D01*
X028672Y014161D01*
X028482Y013021D02*
X029182Y013021D01*
X029182Y012181D01*
X028482Y012181D01*
X028402Y012261D01*
X028402Y012941D01*
X028482Y013021D01*
X029182Y013021D02*
X030282Y013021D01*
X030282Y012181D01*
X029182Y012181D01*
X028672Y011661D02*
X028672Y011041D01*
X030012Y011041D01*
X030012Y011661D01*
X028672Y011661D01*
X027902Y010521D02*
X027282Y010521D01*
X027282Y009181D01*
X027902Y009181D01*
X027902Y010521D01*
X029172Y009661D02*
X030512Y009661D01*
X030512Y009041D01*
X029172Y009041D01*
X029172Y009661D01*
X029172Y008661D02*
X030512Y008661D01*
X030512Y008041D01*
X029172Y008041D01*
X029172Y008661D01*
X026512Y007911D02*
X026512Y007291D01*
X025172Y007291D01*
X025172Y007911D01*
X026512Y007911D01*
X024402Y009181D02*
X023782Y009181D01*
X023782Y010521D01*
X024402Y010521D01*
X024402Y009181D01*
X021512Y008161D02*
X021512Y007541D01*
X020172Y007541D01*
X020172Y008161D01*
X021512Y008161D01*
X025172Y011791D02*
X025172Y012411D01*
X026512Y012411D01*
X026512Y011791D01*
X025172Y011791D01*
X024402Y011931D02*
X023782Y011931D01*
X023782Y013271D01*
X024402Y013271D01*
X024402Y011931D01*
X025172Y012791D02*
X025172Y013411D01*
X026512Y013411D01*
X026512Y012791D01*
X025172Y012791D01*
X023152Y013181D02*
X022532Y013181D01*
X022532Y014521D01*
X023152Y014521D01*
X023152Y013181D01*
X017512Y018791D02*
X016172Y018791D01*
X016172Y019411D01*
X017512Y019411D01*
X017512Y018791D01*
X015512Y018791D02*
X014172Y018791D01*
X014172Y019411D01*
X015512Y019411D01*
X015512Y018791D01*
X015402Y020591D02*
X015122Y020591D01*
X015402Y020591D02*
X015402Y020931D01*
X014942Y021111D02*
X014742Y021111D01*
X014282Y020931D02*
X014282Y020591D01*
X014562Y020591D01*
X016282Y020771D02*
X016282Y021111D01*
X016562Y021111D01*
X016742Y020591D02*
X016942Y020591D01*
X017402Y020771D02*
X017402Y021111D01*
X017122Y021111D01*
X017512Y022291D02*
X016172Y022291D01*
X016172Y022911D01*
X017512Y022911D01*
X017512Y022291D01*
X015512Y022291D02*
X014172Y022291D01*
X014172Y022911D01*
X015512Y022911D01*
X015512Y022291D01*
X020782Y020521D02*
X020782Y019181D01*
X021402Y019181D01*
X021402Y020521D01*
X020782Y020521D01*
X021782Y020521D02*
X022402Y020521D01*
X022402Y019181D01*
X021782Y019181D01*
X021782Y020521D01*
X013652Y013521D02*
X013032Y013521D01*
X013032Y012181D01*
X013652Y012181D01*
X013652Y013521D01*
X004282Y018931D02*
X004282Y019771D01*
X003182Y019771D01*
X003182Y018931D01*
X002482Y018931D01*
X002402Y019011D01*
X002402Y019691D01*
X002482Y019771D01*
X003182Y019771D01*
X003182Y018931D02*
X004282Y018931D01*
X004092Y022101D02*
X002092Y022101D01*
X002092Y023101D01*
X004092Y023101D01*
X004092Y022101D01*
X004922Y022291D02*
X004922Y022911D01*
X006262Y022911D01*
X006262Y022291D01*
X004922Y022291D01*
X004652Y003521D02*
X004032Y003521D01*
X004032Y002181D01*
X004652Y002181D01*
X004652Y003521D01*
X007922Y001161D02*
X007922Y000541D01*
X009262Y000541D01*
X009262Y001161D01*
X007922Y001161D01*
X013172Y001161D02*
X013172Y000541D01*
X014512Y000541D01*
X014512Y001161D01*
X013172Y001161D01*
X018422Y001161D02*
X018422Y000541D01*
X019762Y000541D01*
X019762Y001161D01*
X018422Y001161D01*
D13*
X026502Y002681D02*
X026743Y002681D01*
X026623Y002681D02*
X026623Y003041D01*
X026502Y002921D01*
X026922Y002181D02*
X026862Y002121D01*
X026862Y002061D01*
X026922Y002001D01*
X027043Y002001D01*
X027103Y001941D01*
X027103Y001881D01*
X027043Y001821D01*
X026922Y001821D01*
X026862Y001881D01*
X026922Y002181D02*
X027043Y002181D01*
X027103Y002121D01*
X027231Y002121D02*
X027231Y001881D01*
X027291Y001821D01*
X027411Y001821D01*
X027471Y001881D01*
X027471Y002001D01*
X027351Y002001D01*
X027471Y002121D02*
X027411Y002181D01*
X027291Y002181D01*
X027231Y002121D01*
X027599Y002181D02*
X027839Y001821D01*
X027839Y002181D01*
X027967Y002061D02*
X028087Y002181D01*
X028087Y001821D01*
X027967Y001821D02*
X028208Y001821D01*
X028336Y001881D02*
X028576Y002121D01*
X028576Y001881D01*
X028516Y001821D01*
X028396Y001821D01*
X028336Y001881D01*
X028336Y002121D01*
X028396Y002181D01*
X028516Y002181D01*
X028576Y002121D01*
X028704Y002061D02*
X028824Y002181D01*
X028824Y001821D01*
X028704Y001821D02*
X028944Y001821D01*
X029072Y002001D02*
X029312Y002001D01*
X029441Y001941D02*
X029561Y001821D01*
X029681Y001941D01*
X029681Y002181D01*
X029809Y002001D02*
X030049Y002001D01*
X030177Y001941D02*
X030357Y001941D01*
X030417Y002001D01*
X030417Y002121D01*
X030357Y002181D01*
X030177Y002181D01*
X030177Y001821D01*
X029989Y001821D02*
X029989Y002181D01*
X029809Y002001D01*
X029441Y001941D02*
X029441Y002181D01*
X030546Y002121D02*
X030546Y001881D01*
X030786Y002121D01*
X030786Y001881D01*
X030726Y001821D01*
X030606Y001821D01*
X030546Y001881D01*
X030546Y002121D02*
X030606Y002181D01*
X030726Y002181D01*
X030786Y002121D01*
X031123Y002681D02*
X031123Y003041D01*
X030942Y002861D01*
X031183Y002861D01*
X031862Y004921D02*
X032103Y004921D01*
X031983Y004921D02*
X031983Y005281D01*
X031862Y005161D01*
X027599Y002181D02*
X027599Y001821D01*
X031922Y008921D02*
X031862Y008981D01*
X031922Y008921D02*
X032043Y008921D01*
X032103Y008981D01*
X032103Y009101D01*
X032043Y009161D01*
X031983Y009161D01*
X031862Y009101D01*
X031862Y009281D01*
X032103Y009281D01*
X031034Y010421D02*
X030794Y010421D01*
X030914Y010421D02*
X030914Y010781D01*
X030794Y010661D01*
X030854Y022421D02*
X030794Y022481D01*
X030854Y022421D02*
X030974Y022421D01*
X031034Y022481D01*
X031034Y022601D01*
X030974Y022661D01*
X030914Y022661D01*
X030794Y022601D01*
X030794Y022781D01*
X031034Y022781D01*
X030666Y022721D02*
X030606Y022781D01*
X030486Y022781D01*
X030426Y022721D01*
X030666Y022721D02*
X030666Y022661D01*
X030426Y022421D01*
X030666Y022421D01*
X022183Y022491D02*
X022123Y022431D01*
X022002Y022431D01*
X021942Y022491D01*
X022063Y022611D02*
X022123Y022611D01*
X022183Y022551D01*
X022183Y022491D01*
X022123Y022611D02*
X022183Y022671D01*
X022183Y022731D01*
X022123Y022791D01*
X022002Y022791D01*
X021942Y022731D01*
X018743Y022431D02*
X018502Y022431D01*
X018623Y022431D02*
X018623Y022791D01*
X018502Y022671D01*
X005151Y017951D02*
X005151Y017891D01*
X005091Y017831D01*
X004971Y017831D01*
X004911Y017891D01*
X004911Y017951D01*
X004971Y018011D01*
X005091Y018011D01*
X005151Y017951D01*
X005091Y017831D02*
X005151Y017771D01*
X005151Y017711D01*
X005091Y017651D01*
X004971Y017651D01*
X004911Y017711D01*
X004911Y017771D01*
X004971Y017831D01*
X004783Y017651D02*
X004542Y017651D01*
X004663Y017651D02*
X004663Y018011D01*
X004542Y017891D01*
X002594Y021761D02*
X002594Y022001D01*
X002474Y021881D02*
X002714Y021881D01*
X003474Y021881D02*
X003714Y021881D01*
X007085Y010402D02*
X008128Y010402D01*
X008143Y010400D01*
X008158Y010396D01*
X008172Y010389D01*
X008184Y010379D01*
X008194Y010367D01*
X008201Y010353D01*
X008205Y010338D01*
X008207Y010323D01*
X008207Y009378D01*
X008205Y009363D01*
X008201Y009348D01*
X008194Y009334D01*
X008184Y009322D01*
X008172Y009312D01*
X008158Y009305D01*
X008143Y009301D01*
X008128Y009299D01*
X008128Y009300D02*
X007085Y009300D01*
X007085Y009299D02*
X007070Y009301D01*
X007055Y009305D01*
X007041Y009312D01*
X007029Y009322D01*
X007019Y009334D01*
X007012Y009348D01*
X007008Y009363D01*
X007006Y009378D01*
X007006Y010323D01*
X007008Y010338D01*
X007012Y010353D01*
X007019Y010367D01*
X007029Y010379D01*
X007041Y010389D01*
X007055Y010396D01*
X007070Y010400D01*
X007085Y010402D01*
X002144Y009651D02*
X001904Y009651D01*
X002024Y009651D02*
X002024Y010011D01*
X001904Y009891D01*
D14*
X005199Y009609D02*
X005247Y009657D01*
X005296Y009657D01*
X005344Y009609D01*
X005393Y009657D01*
X005441Y009657D01*
X005489Y009609D01*
X005489Y009512D01*
X005441Y009464D01*
X005489Y009363D02*
X005393Y009266D01*
X005393Y009314D02*
X005393Y009169D01*
X005489Y009169D02*
X005199Y009169D01*
X005199Y009314D01*
X005247Y009363D01*
X005344Y009363D01*
X005393Y009314D01*
X005247Y009464D02*
X005199Y009512D01*
X005199Y009609D01*
X005344Y009609D02*
X005344Y009561D01*
X006644Y009573D02*
X006934Y009573D01*
X006934Y009525D02*
X006934Y009621D01*
X006886Y009721D02*
X006692Y009721D01*
X006644Y009769D01*
X006644Y009866D01*
X006692Y009914D01*
X006741Y010016D02*
X006644Y010112D01*
X006934Y010112D01*
X006934Y010016D02*
X006934Y010209D01*
X006886Y009914D02*
X006934Y009866D01*
X006934Y009769D01*
X006886Y009721D01*
X006644Y009621D02*
X006644Y009525D01*
X006911Y008494D02*
X007056Y008494D01*
X007104Y008446D01*
X007104Y008349D01*
X007056Y008301D01*
X006911Y008301D01*
X007008Y008301D02*
X007104Y008204D01*
X007206Y008204D02*
X007399Y008397D01*
X007399Y008446D01*
X007351Y008494D01*
X007254Y008494D01*
X007206Y008446D01*
X007206Y008204D02*
X007399Y008204D01*
X006911Y008204D02*
X006911Y008494D01*
X008699Y009169D02*
X008699Y009314D01*
X008747Y009363D01*
X008844Y009363D01*
X008893Y009314D01*
X008893Y009169D01*
X008989Y009169D02*
X008699Y009169D01*
X008893Y009266D02*
X008989Y009363D01*
X008989Y009464D02*
X008796Y009657D01*
X008747Y009657D01*
X008699Y009609D01*
X008699Y009512D01*
X008747Y009464D01*
X008989Y009464D02*
X008989Y009657D01*
X008989Y009759D02*
X008941Y009759D01*
X008747Y009952D01*
X008699Y009952D01*
X008699Y009759D01*
X010043Y010717D02*
X010043Y010813D01*
X010091Y010862D01*
X010285Y010862D01*
X010333Y010813D01*
X010333Y010717D01*
X010285Y010668D01*
X010091Y010668D01*
X010043Y010717D01*
X010236Y010765D02*
X010333Y010862D01*
X010285Y010963D02*
X010333Y011011D01*
X010333Y011108D01*
X010285Y011156D01*
X010188Y011156D01*
X010139Y011108D01*
X010139Y011060D01*
X010188Y010963D01*
X010043Y010963D01*
X010043Y011156D01*
X008989Y011919D02*
X008699Y011919D01*
X008699Y012064D01*
X008747Y012113D01*
X008844Y012113D01*
X008893Y012064D01*
X008893Y011919D01*
X008893Y012016D02*
X008989Y012113D01*
X008844Y012214D02*
X008844Y012407D01*
X008747Y012509D02*
X008699Y012557D01*
X008699Y012654D01*
X008747Y012702D01*
X008796Y012702D01*
X008844Y012654D01*
X008893Y012702D01*
X008941Y012702D01*
X008989Y012654D01*
X008989Y012557D01*
X008941Y012509D01*
X008844Y012605D02*
X008844Y012654D01*
X008699Y012359D02*
X008844Y012214D01*
X008989Y012359D02*
X008699Y012359D01*
X007399Y012454D02*
X007206Y012454D01*
X007302Y012454D02*
X007302Y012744D01*
X007206Y012647D01*
X007104Y012599D02*
X007056Y012551D01*
X006911Y012551D01*
X007008Y012551D02*
X007104Y012454D01*
X007104Y012599D02*
X007104Y012696D01*
X007056Y012744D01*
X006911Y012744D01*
X006911Y012454D01*
X006959Y013454D02*
X007056Y013454D01*
X007104Y013502D01*
X007206Y013599D02*
X007399Y013599D01*
X007351Y013454D02*
X007351Y013744D01*
X007206Y013599D01*
X007104Y013696D02*
X007056Y013744D01*
X006959Y013744D01*
X006911Y013696D01*
X006911Y013502D01*
X006959Y013454D01*
X005489Y012359D02*
X005441Y012407D01*
X005344Y012407D01*
X005296Y012359D01*
X005296Y012311D01*
X005344Y012214D01*
X005199Y012214D01*
X005199Y012407D01*
X005489Y012359D02*
X005489Y012262D01*
X005441Y012214D01*
X005489Y012113D02*
X005393Y012016D01*
X005393Y012064D02*
X005393Y011919D01*
X005489Y011919D02*
X005199Y011919D01*
X005199Y012064D01*
X005247Y012113D01*
X005344Y012113D01*
X005393Y012064D01*
X005393Y014669D02*
X005393Y014814D01*
X005344Y014863D01*
X005247Y014863D01*
X005199Y014814D01*
X005199Y014669D01*
X005489Y014669D01*
X005393Y014766D02*
X005489Y014863D01*
X005344Y014964D02*
X005344Y015157D01*
X005199Y015109D02*
X005344Y014964D01*
X005489Y015109D02*
X005199Y015109D01*
X006603Y015125D02*
X006603Y015028D01*
X006603Y015077D02*
X006894Y015077D01*
X006894Y015125D02*
X006894Y015028D01*
X006845Y015225D02*
X006894Y015273D01*
X006894Y015370D01*
X006845Y015418D01*
X006894Y015519D02*
X006700Y015713D01*
X006652Y015713D01*
X006603Y015664D01*
X006603Y015568D01*
X006652Y015519D01*
X006652Y015418D02*
X006603Y015370D01*
X006603Y015273D01*
X006652Y015225D01*
X006845Y015225D01*
X006894Y015519D02*
X006894Y015713D01*
X008699Y015157D02*
X008747Y015061D01*
X008844Y014964D01*
X008844Y015109D01*
X008893Y015157D01*
X008941Y015157D01*
X008989Y015109D01*
X008989Y015012D01*
X008941Y014964D01*
X008844Y014964D01*
X008844Y014863D02*
X008893Y014814D01*
X008893Y014669D01*
X008989Y014669D02*
X008699Y014669D01*
X008699Y014814D01*
X008747Y014863D01*
X008844Y014863D01*
X008893Y014766D02*
X008989Y014863D01*
X010269Y015901D02*
X010317Y015853D01*
X010414Y015853D01*
X010462Y015901D01*
X010462Y016095D01*
X010414Y016143D01*
X010317Y016143D01*
X010269Y016095D01*
X010269Y015901D01*
X010366Y015949D02*
X010462Y015853D01*
X010564Y015901D02*
X010612Y015853D01*
X010709Y015853D01*
X010757Y015901D01*
X010757Y015949D01*
X010709Y015998D01*
X010564Y015998D01*
X010564Y015901D01*
X010564Y015998D02*
X010660Y016095D01*
X010757Y016143D01*
X010604Y016942D02*
X010410Y016942D01*
X010604Y017136D01*
X010604Y017184D01*
X010555Y017233D01*
X010459Y017233D01*
X010410Y017184D01*
X010309Y017184D02*
X010261Y017233D01*
X010116Y017233D01*
X010116Y016942D01*
X010261Y016942D01*
X010309Y016991D01*
X010309Y017184D01*
X010140Y018254D02*
X010140Y018351D01*
X010140Y018302D02*
X009850Y018302D01*
X009850Y018254D02*
X009850Y018351D01*
X009898Y018451D02*
X010092Y018451D01*
X010140Y018499D01*
X010140Y018596D01*
X010092Y018644D01*
X010092Y018745D02*
X010140Y018794D01*
X010140Y018890D01*
X010092Y018939D01*
X010043Y018939D01*
X009995Y018890D01*
X009995Y018842D01*
X009995Y018890D02*
X009947Y018939D01*
X009898Y018939D01*
X009850Y018890D01*
X009850Y018794D01*
X009898Y018745D01*
X009898Y018644D02*
X009850Y018596D01*
X009850Y018499D01*
X009898Y018451D01*
X008399Y018196D02*
X008351Y018244D01*
X008254Y018244D01*
X008206Y018196D01*
X008104Y018196D02*
X008056Y018244D01*
X007959Y018244D01*
X007911Y018196D01*
X007911Y018002D01*
X007959Y017954D01*
X008056Y017954D01*
X008104Y018002D01*
X008206Y017954D02*
X008399Y018147D01*
X008399Y018196D01*
X008399Y017954D02*
X008206Y017954D01*
X006399Y018002D02*
X006351Y017954D01*
X006254Y017954D01*
X006206Y018002D01*
X006104Y018002D02*
X006056Y017954D01*
X005959Y017954D01*
X005911Y018002D01*
X005911Y018196D01*
X005959Y018244D01*
X006056Y018244D01*
X006104Y018196D01*
X006206Y018196D02*
X006254Y018244D01*
X006351Y018244D01*
X006399Y018196D01*
X006399Y018147D01*
X006351Y018099D01*
X006399Y018051D01*
X006399Y018002D01*
X006351Y018099D02*
X006302Y018099D01*
X006696Y019563D02*
X006793Y019563D01*
X006841Y019611D01*
X006942Y019563D02*
X007136Y019563D01*
X007039Y019563D02*
X007039Y019853D01*
X006942Y019756D01*
X006841Y019805D02*
X006793Y019853D01*
X006696Y019853D01*
X006648Y019805D01*
X006648Y019611D01*
X006696Y019563D01*
X004943Y020653D02*
X004895Y020604D01*
X004701Y020604D01*
X004653Y020653D01*
X004653Y020750D01*
X004701Y020798D01*
X004895Y020798D01*
X004943Y020750D01*
X004943Y020653D01*
X004846Y020701D02*
X004943Y020798D01*
X004943Y020899D02*
X004943Y021093D01*
X004943Y020996D02*
X004653Y020996D01*
X004750Y020899D01*
X003132Y020103D02*
X003132Y019813D01*
X003180Y019958D02*
X002987Y019958D01*
X003132Y020103D01*
X002789Y020103D02*
X002692Y020006D01*
X002591Y020055D02*
X002543Y020103D01*
X002446Y020103D01*
X002398Y020055D01*
X002398Y019861D01*
X002446Y019813D01*
X002543Y019813D01*
X002591Y019861D01*
X002692Y019813D02*
X002886Y019813D01*
X002789Y019813D02*
X002789Y020103D01*
X002838Y018801D02*
X002935Y018801D01*
X002984Y018752D01*
X002984Y018704D01*
X002935Y018656D01*
X002984Y018607D01*
X002984Y018559D01*
X002935Y018510D01*
X002838Y018510D01*
X002790Y018559D01*
X002689Y018510D02*
X002689Y018801D01*
X002790Y018752D02*
X002838Y018801D01*
X002887Y018656D02*
X002935Y018656D01*
X002689Y018510D02*
X002495Y018801D01*
X002495Y018510D01*
X002394Y018559D02*
X002346Y018510D01*
X002249Y018510D01*
X002201Y018559D01*
X002201Y018752D01*
X002249Y018801D01*
X002346Y018801D01*
X002394Y018752D01*
X006711Y021124D02*
X006711Y021269D01*
X006759Y021317D01*
X006952Y021317D01*
X007001Y021269D01*
X007001Y021124D01*
X006711Y021124D01*
X006807Y021419D02*
X006711Y021515D01*
X007001Y021515D01*
X007001Y021419D02*
X007001Y021612D01*
X005694Y022954D02*
X005500Y022954D01*
X005694Y023147D01*
X005694Y023196D01*
X005645Y023244D01*
X005549Y023244D01*
X005500Y023196D01*
X005399Y023099D02*
X005206Y023099D01*
X005351Y023244D01*
X005351Y022954D01*
X005104Y022954D02*
X005008Y023051D01*
X005056Y023051D02*
X004911Y023051D01*
X004911Y022954D02*
X004911Y023244D01*
X005056Y023244D01*
X005104Y023196D01*
X005104Y023099D01*
X005056Y023051D01*
X003155Y023155D02*
X002961Y023155D01*
X003058Y023155D02*
X003058Y023445D01*
X002961Y023348D01*
X002860Y023445D02*
X002667Y023445D01*
X002764Y023445D02*
X002764Y023155D01*
X002566Y023155D02*
X002566Y023348D01*
X002469Y023445D01*
X002372Y023348D01*
X002372Y023155D01*
X002271Y023203D02*
X002223Y023155D01*
X002078Y023155D01*
X002078Y023445D01*
X002223Y023445D01*
X002271Y023397D01*
X002271Y023348D01*
X002223Y023300D01*
X002078Y023300D01*
X002223Y023300D02*
X002271Y023252D01*
X002271Y023203D01*
X002372Y023300D02*
X002566Y023300D01*
X008669Y020382D02*
X008669Y020189D01*
X008718Y020141D01*
X008815Y020141D01*
X008863Y020189D01*
X008964Y020141D02*
X008964Y020431D01*
X009158Y020141D01*
X009158Y020431D01*
X009259Y020334D02*
X009355Y020431D01*
X009355Y020141D01*
X009259Y020141D02*
X009452Y020141D01*
X008863Y020382D02*
X008815Y020431D01*
X008718Y020431D01*
X008669Y020382D01*
X012411Y018744D02*
X012411Y018454D01*
X012411Y018551D02*
X012556Y018551D01*
X012604Y018599D01*
X012604Y018696D01*
X012556Y018744D01*
X012411Y018744D01*
X012508Y018551D02*
X012604Y018454D01*
X012706Y018454D02*
X012706Y018502D01*
X012899Y018696D01*
X012899Y018744D01*
X012706Y018744D01*
X012754Y017744D02*
X012851Y017744D01*
X012899Y017696D01*
X012899Y017647D01*
X012851Y017599D01*
X012754Y017599D01*
X012706Y017647D01*
X012706Y017696D01*
X012754Y017744D01*
X012754Y017599D02*
X012706Y017551D01*
X012706Y017502D01*
X012754Y017454D01*
X012851Y017454D01*
X012899Y017502D01*
X012899Y017551D01*
X012851Y017599D01*
X012604Y017599D02*
X012604Y017696D01*
X012556Y017744D01*
X012411Y017744D01*
X012411Y017454D01*
X012411Y017551D02*
X012556Y017551D01*
X012604Y017599D01*
X012508Y017551D02*
X012604Y017454D01*
X014161Y016446D02*
X014161Y016252D01*
X014209Y016204D01*
X014306Y016204D01*
X014354Y016252D01*
X014456Y016204D02*
X014649Y016397D01*
X014649Y016446D01*
X014601Y016494D01*
X014504Y016494D01*
X014456Y016446D01*
X014354Y016446D02*
X014306Y016494D01*
X014209Y016494D01*
X014161Y016446D01*
X014456Y016204D02*
X014649Y016204D01*
X014750Y016349D02*
X014944Y016349D01*
X014895Y016204D02*
X014895Y016494D01*
X014750Y016349D01*
X014750Y015494D02*
X014750Y015349D01*
X014847Y015397D01*
X014895Y015397D01*
X014944Y015349D01*
X014944Y015252D01*
X014895Y015204D01*
X014799Y015204D01*
X014750Y015252D01*
X014649Y015204D02*
X014456Y015204D01*
X014649Y015397D01*
X014649Y015446D01*
X014601Y015494D01*
X014504Y015494D01*
X014456Y015446D01*
X014354Y015446D02*
X014306Y015494D01*
X014209Y015494D01*
X014161Y015446D01*
X014161Y015252D01*
X014209Y015204D01*
X014306Y015204D01*
X014354Y015252D01*
X014750Y015494D02*
X014944Y015494D01*
X016161Y016252D02*
X016209Y016204D01*
X016306Y016204D01*
X016354Y016252D01*
X016456Y016204D02*
X016649Y016204D01*
X016552Y016204D02*
X016552Y016494D01*
X016456Y016397D01*
X016354Y016446D02*
X016306Y016494D01*
X016209Y016494D01*
X016161Y016446D01*
X016161Y016252D01*
X016750Y016252D02*
X016750Y016204D01*
X016750Y016252D02*
X016944Y016446D01*
X016944Y016494D01*
X016750Y016494D01*
X016699Y016919D02*
X016699Y017064D01*
X016747Y017113D01*
X016844Y017113D01*
X016893Y017064D01*
X016893Y016919D01*
X016989Y016919D02*
X016699Y016919D01*
X016893Y017016D02*
X016989Y017113D01*
X016941Y017214D02*
X016989Y017262D01*
X016989Y017359D01*
X016941Y017407D01*
X016893Y017407D01*
X016844Y017359D01*
X016844Y017311D01*
X016844Y017359D02*
X016796Y017407D01*
X016747Y017407D01*
X016699Y017359D01*
X016699Y017262D01*
X016747Y017214D01*
X016796Y017509D02*
X016699Y017605D01*
X016989Y017605D01*
X016989Y017509D02*
X016989Y017702D01*
X017699Y017654D02*
X017699Y017557D01*
X017747Y017509D01*
X017844Y017605D02*
X017844Y017654D01*
X017893Y017702D01*
X017941Y017702D01*
X017989Y017654D01*
X017989Y017557D01*
X017941Y017509D01*
X017989Y017407D02*
X017989Y017214D01*
X017989Y017311D02*
X017699Y017311D01*
X017796Y017214D01*
X017747Y017113D02*
X017699Y017064D01*
X017699Y016968D01*
X017747Y016919D01*
X017941Y016919D01*
X017989Y016968D01*
X017989Y017064D01*
X017941Y017113D01*
X018699Y017064D02*
X018747Y017113D01*
X018844Y017113D01*
X018893Y017064D01*
X018893Y016919D01*
X018989Y016919D02*
X018699Y016919D01*
X018699Y017064D01*
X018747Y017214D02*
X018699Y017262D01*
X018699Y017359D01*
X018747Y017407D01*
X018796Y017407D01*
X018989Y017214D01*
X018989Y017407D01*
X018941Y017509D02*
X018989Y017557D01*
X018989Y017654D01*
X018941Y017702D01*
X018893Y017702D01*
X018844Y017654D01*
X018844Y017509D01*
X018941Y017509D01*
X018844Y017509D02*
X018747Y017605D01*
X018699Y017702D01*
X017844Y017654D02*
X017796Y017702D01*
X017747Y017702D01*
X017699Y017654D01*
X018893Y017016D02*
X018989Y017113D01*
X019699Y017064D02*
X019747Y017113D01*
X019844Y017113D01*
X019893Y017064D01*
X019893Y016919D01*
X019989Y016919D02*
X019699Y016919D01*
X019699Y017064D01*
X019747Y017214D02*
X019699Y017262D01*
X019699Y017359D01*
X019747Y017407D01*
X019796Y017407D01*
X019989Y017214D01*
X019989Y017407D01*
X019941Y017509D02*
X019989Y017557D01*
X019989Y017654D01*
X019941Y017702D01*
X019844Y017702D01*
X019796Y017654D01*
X019796Y017605D01*
X019844Y017509D01*
X019699Y017509D01*
X019699Y017702D01*
X019989Y017113D02*
X019893Y017016D01*
X020699Y017064D02*
X020747Y017113D01*
X020844Y017113D01*
X020893Y017064D01*
X020893Y016919D01*
X020989Y016919D02*
X020699Y016919D01*
X020699Y017064D01*
X020893Y017016D02*
X020989Y017113D01*
X020844Y017214D02*
X020844Y017407D01*
X020844Y017509D02*
X020796Y017605D01*
X020796Y017654D01*
X020844Y017702D01*
X020941Y017702D01*
X020989Y017654D01*
X020989Y017557D01*
X020941Y017509D01*
X020844Y017509D02*
X020699Y017509D01*
X020699Y017702D01*
X020699Y017359D02*
X020844Y017214D01*
X020989Y017359D02*
X020699Y017359D01*
X023457Y018827D02*
X023457Y019021D01*
X023505Y019069D01*
X023602Y019069D01*
X023651Y019021D01*
X023752Y019069D02*
X023945Y018779D01*
X023945Y019069D01*
X024046Y019021D02*
X024046Y018972D01*
X024095Y018924D01*
X024192Y018924D01*
X024240Y018876D01*
X024240Y018827D01*
X024192Y018779D01*
X024095Y018779D01*
X024046Y018827D01*
X024046Y018876D01*
X024095Y018924D01*
X024192Y018924D02*
X024240Y018972D01*
X024240Y019021D01*
X024192Y019069D01*
X024095Y019069D01*
X024046Y019021D01*
X023752Y019069D02*
X023752Y018779D01*
X023651Y018827D02*
X023602Y018779D01*
X023505Y018779D01*
X023457Y018827D01*
X024161Y018244D02*
X024306Y018244D01*
X024354Y018196D01*
X024354Y018099D01*
X024306Y018051D01*
X024161Y018051D01*
X024258Y018051D02*
X024354Y017954D01*
X024456Y017954D02*
X024649Y017954D01*
X024552Y017954D02*
X024552Y018244D01*
X024456Y018147D01*
X024750Y018244D02*
X024944Y018244D01*
X024944Y018196D01*
X024750Y018002D01*
X024750Y017954D01*
X024161Y017954D02*
X024161Y018244D01*
X026161Y018244D02*
X026161Y017954D01*
X026161Y018051D02*
X026306Y018051D01*
X026354Y018099D01*
X026354Y018196D01*
X026306Y018244D01*
X026161Y018244D01*
X026258Y018051D02*
X026354Y017954D01*
X026456Y017954D02*
X026649Y017954D01*
X026552Y017954D02*
X026552Y018244D01*
X026456Y018147D01*
X026750Y018147D02*
X026750Y018196D01*
X026799Y018244D01*
X026895Y018244D01*
X026944Y018196D01*
X026944Y018147D01*
X026895Y018099D01*
X026799Y018099D01*
X026750Y018147D01*
X026799Y018099D02*
X026750Y018051D01*
X026750Y018002D01*
X026799Y017954D01*
X026895Y017954D01*
X026944Y018002D01*
X026944Y018051D01*
X026895Y018099D01*
X025127Y015664D02*
X024837Y015664D01*
X024982Y015519D01*
X024982Y015713D01*
X025078Y015418D02*
X025127Y015370D01*
X025127Y015273D01*
X025078Y015225D01*
X024885Y015225D01*
X024837Y015273D01*
X024837Y015370D01*
X024885Y015418D01*
X024837Y015125D02*
X024837Y015028D01*
X024837Y015077D02*
X025127Y015077D01*
X025127Y015125D02*
X025127Y015028D01*
X023739Y015012D02*
X023691Y014964D01*
X023739Y015012D02*
X023739Y015109D01*
X023691Y015157D01*
X023594Y015157D01*
X023546Y015109D01*
X023546Y015061D01*
X023594Y014964D01*
X023449Y014964D01*
X023449Y015157D01*
X023497Y014863D02*
X023449Y014814D01*
X023449Y014718D01*
X023497Y014669D01*
X023691Y014669D01*
X023739Y014718D01*
X023739Y014814D01*
X023691Y014863D01*
X022489Y013904D02*
X022441Y013952D01*
X022393Y013952D01*
X022344Y013904D01*
X022344Y013759D01*
X022441Y013759D01*
X022489Y013807D01*
X022489Y013904D01*
X022344Y013759D02*
X022247Y013855D01*
X022199Y013952D01*
X022489Y013657D02*
X022489Y013464D01*
X022489Y013561D02*
X022199Y013561D01*
X022296Y013464D01*
X022247Y013363D02*
X022199Y013314D01*
X022199Y013218D01*
X022247Y013169D01*
X022441Y013169D01*
X022489Y013218D01*
X022489Y013314D01*
X022441Y013363D01*
X023449Y012654D02*
X023449Y012557D01*
X023497Y012509D01*
X023449Y012654D02*
X023497Y012702D01*
X023546Y012702D01*
X023739Y012509D01*
X023739Y012702D01*
X023739Y012407D02*
X023739Y012214D01*
X023739Y012311D02*
X023449Y012311D01*
X023546Y012214D01*
X023594Y012113D02*
X023497Y012113D01*
X023449Y012064D01*
X023449Y011919D01*
X023739Y011919D01*
X023643Y011919D02*
X023643Y012064D01*
X023594Y012113D01*
X023643Y012016D02*
X023739Y012113D01*
X025161Y012502D02*
X025209Y012454D01*
X025306Y012454D01*
X025354Y012502D01*
X025456Y012502D02*
X025456Y012551D01*
X025504Y012599D01*
X025601Y012599D01*
X025649Y012551D01*
X025649Y012502D01*
X025601Y012454D01*
X025504Y012454D01*
X025456Y012502D01*
X025504Y012599D02*
X025456Y012647D01*
X025456Y012696D01*
X025504Y012744D01*
X025601Y012744D01*
X025649Y012696D01*
X025649Y012647D01*
X025601Y012599D01*
X025354Y012696D02*
X025306Y012744D01*
X025209Y012744D01*
X025161Y012696D01*
X025161Y012502D01*
X025161Y013454D02*
X025161Y013744D01*
X025306Y013744D01*
X025354Y013696D01*
X025354Y013599D01*
X025306Y013551D01*
X025161Y013551D01*
X025258Y013551D02*
X025354Y013454D01*
X025456Y013454D02*
X025649Y013454D01*
X025552Y013454D02*
X025552Y013744D01*
X025456Y013647D01*
X025750Y013696D02*
X025799Y013744D01*
X025895Y013744D01*
X025944Y013696D01*
X025944Y013647D01*
X025895Y013599D01*
X025944Y013551D01*
X025944Y013502D01*
X025895Y013454D01*
X025799Y013454D01*
X025750Y013502D01*
X025847Y013599D02*
X025895Y013599D01*
X026949Y014669D02*
X026949Y014814D01*
X026997Y014863D01*
X027094Y014863D01*
X027143Y014814D01*
X027143Y014669D01*
X027239Y014669D02*
X026949Y014669D01*
X027143Y014766D02*
X027239Y014863D01*
X027239Y014964D02*
X027239Y015157D01*
X027239Y015061D02*
X026949Y015061D01*
X027046Y014964D01*
X027046Y015259D02*
X026949Y015355D01*
X027239Y015355D01*
X027239Y015259D02*
X027239Y015452D01*
X028661Y014494D02*
X028806Y014494D01*
X028854Y014446D01*
X028854Y014349D01*
X028806Y014301D01*
X028661Y014301D01*
X028758Y014301D02*
X028854Y014204D01*
X028956Y014204D02*
X029149Y014204D01*
X029052Y014204D02*
X029052Y014494D01*
X028956Y014397D01*
X029250Y014446D02*
X029250Y014252D01*
X029444Y014446D01*
X029444Y014252D01*
X029395Y014204D01*
X029299Y014204D01*
X029250Y014252D01*
X029250Y014446D02*
X029299Y014494D01*
X029395Y014494D01*
X029444Y014446D01*
X028661Y014494D02*
X028661Y014204D01*
X028692Y013353D02*
X028886Y013353D01*
X028886Y013305D01*
X028692Y013111D01*
X028692Y013063D01*
X028591Y013111D02*
X028543Y013063D01*
X028446Y013063D01*
X028398Y013111D01*
X028398Y013305D01*
X028446Y013353D01*
X028543Y013353D01*
X028591Y013305D01*
X028661Y011994D02*
X028806Y011994D01*
X028854Y011946D01*
X028854Y011849D01*
X028806Y011801D01*
X028661Y011801D01*
X028758Y011801D02*
X028854Y011704D01*
X028956Y011752D02*
X029004Y011704D01*
X029101Y011704D01*
X029149Y011752D01*
X029149Y011946D01*
X029101Y011994D01*
X029004Y011994D01*
X028956Y011946D01*
X028956Y011897D01*
X029004Y011849D01*
X029149Y011849D01*
X028661Y011704D02*
X028661Y011994D01*
X029161Y009994D02*
X029306Y009994D01*
X029354Y009946D01*
X029354Y009849D01*
X029306Y009801D01*
X029161Y009801D01*
X029258Y009801D02*
X029354Y009704D01*
X029456Y009849D02*
X029649Y009849D01*
X029750Y009849D02*
X029847Y009946D01*
X029944Y009994D01*
X029895Y009849D02*
X029750Y009849D01*
X029750Y009752D01*
X029799Y009704D01*
X029895Y009704D01*
X029944Y009752D01*
X029944Y009801D01*
X029895Y009849D01*
X029601Y009994D02*
X029456Y009849D01*
X029601Y009704D02*
X029601Y009994D01*
X029161Y009994D02*
X029161Y009704D01*
X029161Y008994D02*
X029306Y008994D01*
X029354Y008946D01*
X029354Y008849D01*
X029306Y008801D01*
X029161Y008801D01*
X029258Y008801D02*
X029354Y008704D01*
X029456Y008849D02*
X029649Y008849D01*
X029750Y008752D02*
X029944Y008946D01*
X029944Y008994D01*
X029750Y008994D01*
X029601Y008994D02*
X029456Y008849D01*
X029601Y008704D02*
X029601Y008994D01*
X029750Y008752D02*
X029750Y008704D01*
X029161Y008704D02*
X029161Y008994D01*
X027239Y009218D02*
X027191Y009169D01*
X026997Y009169D01*
X026949Y009218D01*
X026949Y009314D01*
X026997Y009363D01*
X027094Y009464D02*
X027094Y009609D01*
X027143Y009657D01*
X027191Y009657D01*
X027239Y009609D01*
X027239Y009512D01*
X027191Y009464D01*
X027094Y009464D01*
X026997Y009561D01*
X026949Y009657D01*
X027191Y009363D02*
X027239Y009314D01*
X027239Y009218D01*
X025649Y008196D02*
X025649Y008002D01*
X025601Y007954D01*
X025504Y007954D01*
X025456Y008002D01*
X025354Y008002D02*
X025306Y007954D01*
X025209Y007954D01*
X025161Y008002D01*
X025161Y008196D01*
X025209Y008244D01*
X025306Y008244D01*
X025354Y008196D01*
X025456Y008196D02*
X025456Y008147D01*
X025504Y008099D01*
X025649Y008099D01*
X025649Y008196D02*
X025601Y008244D01*
X025504Y008244D01*
X025456Y008196D01*
X025127Y009528D02*
X025127Y009625D01*
X025127Y009577D02*
X024837Y009577D01*
X024837Y009625D02*
X024837Y009528D01*
X024885Y009725D02*
X025078Y009725D01*
X025127Y009773D01*
X025127Y009870D01*
X025078Y009918D01*
X025078Y010019D02*
X025127Y010068D01*
X025127Y010164D01*
X025078Y010213D01*
X024982Y010213D01*
X024933Y010164D01*
X024933Y010116D01*
X024982Y010019D01*
X024837Y010019D01*
X024837Y010213D01*
X024885Y009918D02*
X024837Y009870D01*
X024837Y009773D01*
X024885Y009725D01*
X023739Y009657D02*
X023739Y009464D01*
X023739Y009561D02*
X023449Y009561D01*
X023546Y009464D01*
X023594Y009363D02*
X023497Y009363D01*
X023449Y009314D01*
X023449Y009169D01*
X023739Y009169D01*
X023643Y009169D02*
X023643Y009314D01*
X023594Y009363D01*
X023643Y009266D02*
X023739Y009363D01*
X023594Y009759D02*
X023449Y009904D01*
X023739Y009904D01*
X023594Y009952D02*
X023594Y009759D01*
X022443Y007843D02*
X022443Y007649D01*
X022250Y007843D01*
X022201Y007843D01*
X022153Y007794D01*
X022153Y007697D01*
X022201Y007649D01*
X022201Y007548D02*
X022395Y007548D01*
X022443Y007500D01*
X022443Y007403D01*
X022395Y007354D01*
X022201Y007354D01*
X022153Y007403D01*
X022153Y007500D01*
X022201Y007548D01*
X022346Y007451D02*
X022443Y007548D01*
X022411Y006494D02*
X022556Y006494D01*
X022604Y006446D01*
X022604Y006349D01*
X022556Y006301D01*
X022411Y006301D01*
X022508Y006301D02*
X022604Y006204D01*
X022706Y006204D02*
X022899Y006397D01*
X022899Y006446D01*
X022851Y006494D01*
X022754Y006494D01*
X022706Y006446D01*
X022706Y006204D02*
X022899Y006204D01*
X023000Y006252D02*
X023194Y006446D01*
X023194Y006252D01*
X023145Y006204D01*
X023049Y006204D01*
X023000Y006252D01*
X023000Y006446D01*
X023049Y006494D01*
X023145Y006494D01*
X023194Y006446D01*
X022411Y006494D02*
X022411Y006204D01*
X020989Y006154D02*
X020941Y006202D01*
X020893Y006202D01*
X020844Y006154D01*
X020844Y006009D01*
X020941Y006009D01*
X020989Y006057D01*
X020989Y006154D01*
X020844Y006009D02*
X020747Y006105D01*
X020699Y006202D01*
X020699Y005811D02*
X020989Y005811D01*
X020989Y005907D02*
X020989Y005714D01*
X020989Y005613D02*
X020893Y005516D01*
X020893Y005564D02*
X020893Y005419D01*
X020989Y005419D02*
X020699Y005419D01*
X020699Y005564D01*
X020747Y005613D01*
X020844Y005613D01*
X020893Y005564D01*
X020796Y005714D02*
X020699Y005811D01*
X019989Y005811D02*
X019699Y005811D01*
X019796Y005714D01*
X019844Y005613D02*
X019893Y005564D01*
X019893Y005419D01*
X019989Y005419D02*
X019699Y005419D01*
X019699Y005564D01*
X019747Y005613D01*
X019844Y005613D01*
X019893Y005516D02*
X019989Y005613D01*
X019989Y005714D02*
X019989Y005907D01*
X019941Y006009D02*
X019989Y006057D01*
X019989Y006154D01*
X019941Y006202D01*
X019844Y006202D01*
X019796Y006154D01*
X019796Y006105D01*
X019844Y006009D01*
X019699Y006009D01*
X019699Y006202D01*
X018989Y006154D02*
X018989Y006057D01*
X018941Y006009D01*
X018747Y006202D01*
X018941Y006202D01*
X018989Y006154D01*
X018941Y006009D02*
X018747Y006009D01*
X018699Y006057D01*
X018699Y006154D01*
X018747Y006202D01*
X018989Y005907D02*
X018989Y005714D01*
X018989Y005811D02*
X018699Y005811D01*
X018796Y005714D01*
X018747Y005613D02*
X018699Y005564D01*
X018699Y005468D01*
X018747Y005419D01*
X018941Y005419D01*
X018989Y005468D01*
X018989Y005564D01*
X018941Y005613D01*
X017989Y005564D02*
X017941Y005613D01*
X017989Y005564D02*
X017989Y005468D01*
X017941Y005419D01*
X017747Y005419D01*
X017699Y005468D01*
X017699Y005564D01*
X017747Y005613D01*
X017796Y005714D02*
X017699Y005811D01*
X017989Y005811D01*
X017989Y005907D02*
X017989Y005714D01*
X017989Y006009D02*
X017796Y006202D01*
X017747Y006202D01*
X017699Y006154D01*
X017699Y006057D01*
X017747Y006009D01*
X017989Y006009D02*
X017989Y006202D01*
X016989Y006154D02*
X016941Y006202D01*
X016747Y006202D01*
X016699Y006154D01*
X016699Y006057D01*
X016747Y006009D01*
X016796Y006009D01*
X016844Y006057D01*
X016844Y006202D01*
X016989Y006154D02*
X016989Y006057D01*
X016941Y006009D01*
X016989Y005907D02*
X016989Y005714D01*
X016796Y005907D01*
X016747Y005907D01*
X016699Y005859D01*
X016699Y005762D01*
X016747Y005714D01*
X016747Y005613D02*
X016844Y005613D01*
X016893Y005564D01*
X016893Y005419D01*
X016989Y005419D02*
X016699Y005419D01*
X016699Y005564D01*
X016747Y005613D01*
X016893Y005516D02*
X016989Y005613D01*
X015989Y005613D02*
X015893Y005516D01*
X015893Y005564D02*
X015893Y005419D01*
X015989Y005419D02*
X015699Y005419D01*
X015699Y005564D01*
X015747Y005613D01*
X015844Y005613D01*
X015893Y005564D01*
X015989Y005714D02*
X015796Y005907D01*
X015747Y005907D01*
X015699Y005859D01*
X015699Y005762D01*
X015747Y005714D01*
X015989Y005714D02*
X015989Y005907D01*
X015941Y006009D02*
X015893Y006009D01*
X015844Y006057D01*
X015844Y006154D01*
X015893Y006202D01*
X015941Y006202D01*
X015989Y006154D01*
X015989Y006057D01*
X015941Y006009D01*
X015844Y006057D02*
X015796Y006009D01*
X015747Y006009D01*
X015699Y006057D01*
X015699Y006154D01*
X015747Y006202D01*
X015796Y006202D01*
X015844Y006154D01*
X014149Y006704D02*
X013956Y006704D01*
X014052Y006704D02*
X014052Y006994D01*
X013956Y006897D01*
X013854Y006704D02*
X013661Y006704D01*
X013661Y006994D01*
X013692Y008063D02*
X013886Y008256D01*
X013886Y008305D01*
X013837Y008353D01*
X013741Y008353D01*
X013692Y008305D01*
X013591Y008305D02*
X013543Y008353D01*
X013446Y008353D01*
X013398Y008305D01*
X013398Y008111D01*
X013446Y008063D01*
X013543Y008063D01*
X013591Y008111D01*
X013692Y008063D02*
X013886Y008063D01*
X013987Y008111D02*
X014180Y008305D01*
X014180Y008111D01*
X014132Y008063D01*
X014035Y008063D01*
X013987Y008111D01*
X013987Y008305D01*
X014035Y008353D01*
X014132Y008353D01*
X014180Y008305D01*
X014149Y009204D02*
X013956Y009204D01*
X014052Y009204D02*
X014052Y009494D01*
X013956Y009397D01*
X013854Y009446D02*
X013806Y009494D01*
X013709Y009494D01*
X013661Y009446D01*
X013661Y009252D01*
X013709Y009204D01*
X013806Y009204D01*
X013854Y009252D01*
X014250Y009252D02*
X014299Y009204D01*
X014395Y009204D01*
X014444Y009252D01*
X014444Y009446D01*
X014395Y009494D01*
X014299Y009494D01*
X014250Y009446D01*
X014250Y009397D01*
X014299Y009349D01*
X014444Y009349D01*
X012989Y010218D02*
X012989Y010314D01*
X012941Y010363D01*
X012989Y010464D02*
X012796Y010657D01*
X012747Y010657D01*
X012699Y010609D01*
X012699Y010512D01*
X012747Y010464D01*
X012747Y010363D02*
X012699Y010314D01*
X012699Y010218D01*
X012747Y010169D01*
X012941Y010169D01*
X012989Y010218D01*
X012989Y010464D02*
X012989Y010657D01*
X012989Y010759D02*
X012796Y010952D01*
X012747Y010952D01*
X012699Y010904D01*
X012699Y010807D01*
X012747Y010759D01*
X012989Y010759D02*
X012989Y010952D01*
X012941Y012169D02*
X012989Y012218D01*
X012989Y012314D01*
X012941Y012363D01*
X012989Y012464D02*
X012796Y012657D01*
X012747Y012657D01*
X012699Y012609D01*
X012699Y012512D01*
X012747Y012464D01*
X012747Y012363D02*
X012699Y012314D01*
X012699Y012218D01*
X012747Y012169D01*
X012941Y012169D01*
X012989Y012464D02*
X012989Y012657D01*
X012989Y012759D02*
X012989Y012952D01*
X012989Y012855D02*
X012699Y012855D01*
X012796Y012759D01*
X015740Y012228D02*
X015789Y012131D01*
X015886Y012034D01*
X015886Y012179D01*
X015934Y012228D01*
X015982Y012228D01*
X016031Y012179D01*
X016031Y012083D01*
X015982Y012034D01*
X015886Y012034D01*
X015982Y011933D02*
X016031Y011885D01*
X016031Y011788D01*
X015982Y011740D01*
X015789Y011740D01*
X015740Y011788D01*
X015740Y011885D01*
X015789Y011933D01*
X015740Y011640D02*
X015740Y011543D01*
X015740Y011592D02*
X016031Y011592D01*
X016031Y011640D02*
X016031Y011543D01*
X016209Y008494D02*
X016161Y008446D01*
X016161Y008252D01*
X016209Y008204D01*
X016306Y008204D01*
X016354Y008252D01*
X016456Y008204D02*
X016649Y008204D01*
X016552Y008204D02*
X016552Y008494D01*
X016456Y008397D01*
X016354Y008446D02*
X016306Y008494D01*
X016209Y008494D01*
X016750Y008446D02*
X016750Y008397D01*
X016799Y008349D01*
X016895Y008349D01*
X016944Y008301D01*
X016944Y008252D01*
X016895Y008204D01*
X016799Y008204D01*
X016750Y008252D01*
X016750Y008301D01*
X016799Y008349D01*
X016895Y008349D02*
X016944Y008397D01*
X016944Y008446D01*
X016895Y008494D01*
X016799Y008494D01*
X016750Y008446D01*
X020161Y008446D02*
X020161Y008252D01*
X020209Y008204D01*
X020306Y008204D01*
X020354Y008252D01*
X020456Y008204D02*
X020649Y008204D01*
X020552Y008204D02*
X020552Y008494D01*
X020456Y008397D01*
X020354Y008446D02*
X020306Y008494D01*
X020209Y008494D01*
X020161Y008446D01*
X020750Y008494D02*
X020750Y008349D01*
X020847Y008397D01*
X020895Y008397D01*
X020944Y008349D01*
X020944Y008252D01*
X020895Y008204D01*
X020799Y008204D01*
X020750Y008252D01*
X020750Y008494D02*
X020944Y008494D01*
X019285Y004493D02*
X019188Y004493D01*
X019140Y004445D01*
X019038Y004445D02*
X018990Y004493D01*
X018893Y004493D01*
X018845Y004445D01*
X018845Y004396D01*
X018893Y004348D01*
X018990Y004348D01*
X019038Y004299D01*
X019038Y004251D01*
X018990Y004203D01*
X018893Y004203D01*
X018845Y004251D01*
X019140Y004251D02*
X019188Y004203D01*
X019285Y004203D01*
X019333Y004251D01*
X019333Y004299D01*
X019285Y004348D01*
X019236Y004348D01*
X019285Y004348D02*
X019333Y004396D01*
X019333Y004445D01*
X019285Y004493D01*
X019145Y001494D02*
X019049Y001494D01*
X019000Y001446D01*
X019000Y001397D01*
X019049Y001349D01*
X019194Y001349D01*
X019194Y001252D02*
X019194Y001446D01*
X019145Y001494D01*
X019194Y001252D02*
X019145Y001204D01*
X019049Y001204D01*
X019000Y001252D01*
X018899Y001252D02*
X018851Y001204D01*
X018754Y001204D01*
X018706Y001252D01*
X018604Y001204D02*
X018508Y001301D01*
X018556Y001301D02*
X018411Y001301D01*
X018411Y001204D02*
X018411Y001494D01*
X018556Y001494D01*
X018604Y001446D01*
X018604Y001349D01*
X018556Y001301D01*
X018706Y001446D02*
X018754Y001494D01*
X018851Y001494D01*
X018899Y001446D01*
X018899Y001397D01*
X018851Y001349D01*
X018899Y001301D01*
X018899Y001252D01*
X018851Y001349D02*
X018802Y001349D01*
X013944Y001301D02*
X013944Y001252D01*
X013895Y001204D01*
X013799Y001204D01*
X013750Y001252D01*
X013750Y001301D01*
X013799Y001349D01*
X013895Y001349D01*
X013944Y001301D01*
X013895Y001349D02*
X013944Y001397D01*
X013944Y001446D01*
X013895Y001494D01*
X013799Y001494D01*
X013750Y001446D01*
X013750Y001397D01*
X013799Y001349D01*
X013649Y001301D02*
X013649Y001252D01*
X013601Y001204D01*
X013504Y001204D01*
X013456Y001252D01*
X013354Y001204D02*
X013258Y001301D01*
X013306Y001301D02*
X013161Y001301D01*
X013161Y001204D02*
X013161Y001494D01*
X013306Y001494D01*
X013354Y001446D01*
X013354Y001349D01*
X013306Y001301D01*
X013456Y001446D02*
X013504Y001494D01*
X013601Y001494D01*
X013649Y001446D01*
X013649Y001397D01*
X013601Y001349D01*
X013649Y001301D01*
X013601Y001349D02*
X013552Y001349D01*
X013643Y004203D02*
X013595Y004251D01*
X013643Y004203D02*
X013740Y004203D01*
X013788Y004251D01*
X013788Y004299D01*
X013740Y004348D01*
X013643Y004348D01*
X013595Y004396D01*
X013595Y004445D01*
X013643Y004493D01*
X013740Y004493D01*
X013788Y004445D01*
X013890Y004445D02*
X013938Y004493D01*
X014035Y004493D01*
X014083Y004445D01*
X014083Y004396D01*
X013890Y004203D01*
X014083Y004203D01*
X011989Y005919D02*
X011699Y005919D01*
X011699Y006064D01*
X011747Y006113D01*
X011844Y006113D01*
X011893Y006064D01*
X011893Y005919D01*
X011893Y006016D02*
X011989Y006113D01*
X011844Y006214D02*
X011844Y006407D01*
X011844Y006509D02*
X011844Y006702D01*
X011699Y006654D02*
X011844Y006509D01*
X011989Y006654D02*
X011699Y006654D01*
X011699Y006359D02*
X011844Y006214D01*
X011989Y006359D02*
X011699Y006359D01*
X011747Y007919D02*
X011941Y007919D01*
X011989Y007968D01*
X011989Y008064D01*
X011941Y008113D01*
X011989Y008214D02*
X011796Y008407D01*
X011747Y008407D01*
X011699Y008359D01*
X011699Y008262D01*
X011747Y008214D01*
X011747Y008113D02*
X011699Y008064D01*
X011699Y007968D01*
X011747Y007919D01*
X011989Y008214D02*
X011989Y008407D01*
X011941Y008509D02*
X011989Y008557D01*
X011989Y008654D01*
X011941Y008702D01*
X011893Y008702D01*
X011844Y008654D01*
X011844Y008605D01*
X011844Y008654D02*
X011796Y008702D01*
X011747Y008702D01*
X011699Y008654D01*
X011699Y008557D01*
X011747Y008509D01*
X008736Y004493D02*
X008736Y004203D01*
X008640Y004203D02*
X008833Y004203D01*
X008640Y004396D02*
X008736Y004493D01*
X008538Y004445D02*
X008490Y004493D01*
X008393Y004493D01*
X008345Y004445D01*
X008345Y004396D01*
X008393Y004348D01*
X008490Y004348D01*
X008538Y004299D01*
X008538Y004251D01*
X008490Y004203D01*
X008393Y004203D01*
X008345Y004251D01*
X008351Y001494D02*
X008254Y001494D01*
X008206Y001446D01*
X008104Y001446D02*
X008104Y001349D01*
X008056Y001301D01*
X007911Y001301D01*
X008008Y001301D02*
X008104Y001204D01*
X008206Y001252D02*
X008254Y001204D01*
X008351Y001204D01*
X008399Y001252D01*
X008399Y001301D01*
X008351Y001349D01*
X008302Y001349D01*
X008351Y001349D02*
X008399Y001397D01*
X008399Y001446D01*
X008351Y001494D01*
X008500Y001494D02*
X008694Y001494D01*
X008694Y001446D01*
X008500Y001252D01*
X008500Y001204D01*
X008104Y001446D02*
X008056Y001494D01*
X007911Y001494D01*
X007911Y001204D01*
X003989Y002169D02*
X003699Y002169D01*
X003699Y002314D01*
X003747Y002363D01*
X003844Y002363D01*
X003893Y002314D01*
X003893Y002169D01*
X003893Y002266D02*
X003989Y002363D01*
X003941Y002464D02*
X003989Y002512D01*
X003989Y002609D01*
X003941Y002657D01*
X003893Y002657D01*
X003844Y002609D01*
X003844Y002561D01*
X003844Y002609D02*
X003796Y002657D01*
X003747Y002657D01*
X003699Y002609D01*
X003699Y002512D01*
X003747Y002464D01*
X003844Y002759D02*
X003844Y002904D01*
X003893Y002952D01*
X003941Y002952D01*
X003989Y002904D01*
X003989Y002807D01*
X003941Y002759D01*
X003844Y002759D01*
X003747Y002855D01*
X003699Y002952D01*
X023661Y001494D02*
X023661Y001204D01*
X023661Y001301D02*
X023806Y001301D01*
X023854Y001349D01*
X023854Y001446D01*
X023806Y001494D01*
X023661Y001494D01*
X023758Y001301D02*
X023854Y001204D01*
X023956Y001349D02*
X024149Y001349D01*
X024250Y001252D02*
X024444Y001446D01*
X024444Y001252D01*
X024395Y001204D01*
X024299Y001204D01*
X024250Y001252D01*
X024250Y001446D01*
X024299Y001494D01*
X024395Y001494D01*
X024444Y001446D01*
X024101Y001494D02*
X024101Y001204D01*
X023956Y001349D02*
X024101Y001494D01*
X027111Y003459D02*
X027111Y003653D01*
X027159Y003701D01*
X027256Y003701D01*
X027304Y003653D01*
X027405Y003701D02*
X027599Y003411D01*
X027599Y003701D01*
X027700Y003556D02*
X027845Y003556D01*
X027893Y003507D01*
X027893Y003459D01*
X027845Y003411D01*
X027748Y003411D01*
X027700Y003459D01*
X027700Y003556D01*
X027797Y003653D01*
X027893Y003701D01*
X027893Y003919D02*
X027893Y004064D01*
X027844Y004113D01*
X027747Y004113D01*
X027699Y004064D01*
X027699Y003919D01*
X027989Y003919D01*
X027893Y004016D02*
X027989Y004113D01*
X027941Y004214D02*
X027989Y004262D01*
X027989Y004359D01*
X027941Y004407D01*
X027893Y004407D01*
X027844Y004359D01*
X027844Y004311D01*
X027844Y004359D02*
X027796Y004407D01*
X027747Y004407D01*
X027699Y004359D01*
X027699Y004262D01*
X027747Y004214D01*
X027844Y004509D02*
X027844Y004702D01*
X027699Y004654D02*
X027844Y004509D01*
X027989Y004654D02*
X027699Y004654D01*
X026989Y004654D02*
X026989Y004557D01*
X026941Y004509D01*
X026844Y004509D02*
X026796Y004605D01*
X026796Y004654D01*
X026844Y004702D01*
X026941Y004702D01*
X026989Y004654D01*
X026844Y004509D02*
X026699Y004509D01*
X026699Y004702D01*
X026747Y004407D02*
X026796Y004407D01*
X026844Y004359D01*
X026893Y004407D01*
X026941Y004407D01*
X026989Y004359D01*
X026989Y004262D01*
X026941Y004214D01*
X026989Y004113D02*
X026893Y004016D01*
X026893Y004064D02*
X026893Y003919D01*
X026989Y003919D02*
X026699Y003919D01*
X026699Y004064D01*
X026747Y004113D01*
X026844Y004113D01*
X026893Y004064D01*
X026747Y004214D02*
X026699Y004262D01*
X026699Y004359D01*
X026747Y004407D01*
X026844Y004359D02*
X026844Y004311D01*
X027405Y003701D02*
X027405Y003411D01*
X027304Y003459D02*
X027256Y003411D01*
X027159Y003411D01*
X027111Y003459D01*
X028699Y003919D02*
X028699Y004064D01*
X028747Y004113D01*
X028844Y004113D01*
X028893Y004064D01*
X028893Y003919D01*
X028989Y003919D02*
X028699Y003919D01*
X028893Y004016D02*
X028989Y004113D01*
X028941Y004214D02*
X028989Y004262D01*
X028989Y004359D01*
X028941Y004407D01*
X028893Y004407D01*
X028844Y004359D01*
X028844Y004311D01*
X028844Y004359D02*
X028796Y004407D01*
X028747Y004407D01*
X028699Y004359D01*
X028699Y004262D01*
X028747Y004214D01*
X028747Y004509D02*
X028699Y004557D01*
X028699Y004654D01*
X028747Y004702D01*
X028796Y004702D01*
X028844Y004654D01*
X028893Y004702D01*
X028941Y004702D01*
X028989Y004654D01*
X028989Y004557D01*
X028941Y004509D01*
X028844Y004605D02*
X028844Y004654D01*
X029699Y004654D02*
X029699Y004557D01*
X029747Y004509D01*
X029747Y004407D02*
X029699Y004359D01*
X029699Y004262D01*
X029747Y004214D01*
X029747Y004113D02*
X029844Y004113D01*
X029893Y004064D01*
X029893Y003919D01*
X029989Y003919D02*
X029699Y003919D01*
X029699Y004064D01*
X029747Y004113D01*
X029893Y004016D02*
X029989Y004113D01*
X029941Y004214D02*
X029989Y004262D01*
X029989Y004359D01*
X029941Y004407D01*
X029893Y004407D01*
X029844Y004359D01*
X029844Y004311D01*
X029844Y004359D02*
X029796Y004407D01*
X029747Y004407D01*
X029699Y004654D02*
X029747Y004702D01*
X029796Y004702D01*
X029989Y004509D01*
X029989Y004702D01*
X033095Y004445D02*
X033095Y004396D01*
X033143Y004348D01*
X033240Y004348D01*
X033288Y004299D01*
X033288Y004251D01*
X033240Y004203D01*
X033143Y004203D01*
X033095Y004251D01*
X033095Y004445D02*
X033143Y004493D01*
X033240Y004493D01*
X033288Y004445D01*
X033390Y004493D02*
X033390Y004348D01*
X033486Y004396D01*
X033535Y004396D01*
X033583Y004348D01*
X033583Y004251D01*
X033535Y004203D01*
X033438Y004203D01*
X033390Y004251D01*
X033390Y004493D02*
X033583Y004493D01*
X033347Y001494D02*
X033347Y001204D01*
X033250Y001204D02*
X033444Y001204D01*
X033250Y001397D02*
X033347Y001494D01*
X033149Y001349D02*
X032956Y001349D01*
X033101Y001494D01*
X033101Y001204D01*
X032854Y001204D02*
X032758Y001301D01*
X032806Y001301D02*
X032661Y001301D01*
X032661Y001204D02*
X032661Y001494D01*
X032806Y001494D01*
X032854Y001446D01*
X032854Y001349D01*
X032806Y001301D01*
X024535Y004203D02*
X024535Y004493D01*
X024390Y004348D01*
X024583Y004348D01*
X024288Y004299D02*
X024288Y004251D01*
X024240Y004203D01*
X024143Y004203D01*
X024095Y004251D01*
X024143Y004348D02*
X024240Y004348D01*
X024288Y004299D01*
X024288Y004445D02*
X024240Y004493D01*
X024143Y004493D01*
X024095Y004445D01*
X024095Y004396D01*
X024143Y004348D01*
X032977Y009705D02*
X033025Y009657D01*
X033122Y009657D01*
X033170Y009705D01*
X033271Y009657D02*
X033271Y009947D01*
X033465Y009657D01*
X033465Y009947D01*
X033566Y009802D02*
X033760Y009802D01*
X033711Y009657D02*
X033711Y009947D01*
X033566Y009802D01*
X033170Y009899D02*
X033122Y009947D01*
X033025Y009947D01*
X032977Y009899D01*
X032977Y009705D01*
X021739Y019169D02*
X021449Y019169D01*
X021449Y019314D01*
X021497Y019363D01*
X021594Y019363D01*
X021643Y019314D01*
X021643Y019169D01*
X021643Y019266D02*
X021739Y019363D01*
X021739Y019464D02*
X021739Y019657D01*
X021739Y019561D02*
X021449Y019561D01*
X021546Y019464D01*
X021546Y019759D02*
X021594Y019807D01*
X021594Y019952D01*
X021497Y019952D02*
X021449Y019904D01*
X021449Y019807D01*
X021497Y019759D01*
X021546Y019759D01*
X021691Y019759D02*
X021739Y019807D01*
X021739Y019904D01*
X021691Y019952D01*
X021497Y019952D01*
X020739Y019952D02*
X020739Y019759D01*
X020739Y019855D02*
X020449Y019855D01*
X020546Y019759D01*
X020739Y019657D02*
X020739Y019464D01*
X020739Y019561D02*
X020449Y019561D01*
X020546Y019464D01*
X020497Y019363D02*
X020449Y019314D01*
X020449Y019218D01*
X020497Y019169D01*
X020691Y019169D01*
X020739Y019218D01*
X020739Y019314D01*
X020691Y019363D01*
X016944Y019599D02*
X016750Y019599D01*
X016895Y019744D01*
X016895Y019454D01*
X016649Y019454D02*
X016456Y019454D01*
X016649Y019647D01*
X016649Y019696D01*
X016601Y019744D01*
X016504Y019744D01*
X016456Y019696D01*
X016354Y019696D02*
X016354Y019599D01*
X016306Y019551D01*
X016161Y019551D01*
X016258Y019551D02*
X016354Y019454D01*
X016161Y019454D02*
X016161Y019744D01*
X016306Y019744D01*
X016354Y019696D01*
X016147Y020606D02*
X016195Y020654D01*
X016195Y020751D01*
X016147Y020799D01*
X015953Y020799D01*
X015905Y020751D01*
X015905Y020654D01*
X015953Y020606D01*
X016147Y020606D01*
X016098Y020702D02*
X016195Y020799D01*
X016147Y020900D02*
X016195Y020949D01*
X016195Y021045D01*
X016147Y021094D01*
X016098Y021094D01*
X016050Y021045D01*
X016050Y020997D01*
X016050Y021045D02*
X016002Y021094D01*
X015953Y021094D01*
X015905Y021045D01*
X015905Y020949D01*
X015953Y020900D01*
X014847Y019744D02*
X014847Y019454D01*
X014750Y019454D02*
X014944Y019454D01*
X014750Y019647D02*
X014847Y019744D01*
X014649Y019696D02*
X014601Y019744D01*
X014504Y019744D01*
X014456Y019696D01*
X014354Y019696D02*
X014354Y019599D01*
X014306Y019551D01*
X014161Y019551D01*
X014258Y019551D02*
X014354Y019454D01*
X014456Y019454D02*
X014649Y019647D01*
X014649Y019696D01*
X014649Y019454D02*
X014456Y019454D01*
X014354Y019696D02*
X014306Y019744D01*
X014161Y019744D01*
X014161Y019454D01*
X014147Y020606D02*
X013953Y020606D01*
X013905Y020654D01*
X013905Y020751D01*
X013953Y020799D01*
X014147Y020799D01*
X014195Y020751D01*
X014195Y020654D01*
X014147Y020606D01*
X014098Y020702D02*
X014195Y020799D01*
X014050Y020900D02*
X014050Y021094D01*
X013905Y021045D02*
X014050Y020900D01*
X014195Y021045D02*
X013905Y021045D01*
X014161Y022954D02*
X014161Y023244D01*
X014306Y023244D01*
X014354Y023196D01*
X014354Y023099D01*
X014306Y023051D01*
X014161Y023051D01*
X014258Y023051D02*
X014354Y022954D01*
X014456Y022954D02*
X014649Y023147D01*
X014649Y023196D01*
X014601Y023244D01*
X014504Y023244D01*
X014456Y023196D01*
X014456Y022954D02*
X014649Y022954D01*
X014750Y022954D02*
X014944Y023147D01*
X014944Y023196D01*
X014895Y023244D01*
X014799Y023244D01*
X014750Y023196D01*
X014750Y022954D02*
X014944Y022954D01*
X016161Y022954D02*
X016161Y023244D01*
X016306Y023244D01*
X016354Y023196D01*
X016354Y023099D01*
X016306Y023051D01*
X016161Y023051D01*
X016258Y023051D02*
X016354Y022954D01*
X016456Y022954D02*
X016649Y023147D01*
X016649Y023196D01*
X016601Y023244D01*
X016504Y023244D01*
X016456Y023196D01*
X016456Y022954D02*
X016649Y022954D01*
X016750Y023002D02*
X016799Y022954D01*
X016895Y022954D01*
X016944Y023002D01*
X016944Y023051D01*
X016895Y023099D01*
X016847Y023099D01*
X016895Y023099D02*
X016944Y023147D01*
X016944Y023196D01*
X016895Y023244D01*
X016799Y023244D01*
X016750Y023196D01*
X019108Y023209D02*
X019157Y023160D01*
X019253Y023160D01*
X019302Y023209D01*
X019403Y023160D02*
X019403Y023451D01*
X019596Y023160D01*
X019596Y023451D01*
X019697Y023451D02*
X019891Y023451D01*
X019891Y023402D01*
X019697Y023209D01*
X019697Y023160D01*
X019302Y023402D02*
X019253Y023451D01*
X019157Y023451D01*
X019108Y023402D01*
X019108Y023209D01*
X015941Y017702D02*
X015989Y017654D01*
X015989Y017557D01*
X015941Y017509D01*
X015747Y017702D01*
X015941Y017702D01*
X015941Y017509D02*
X015747Y017509D01*
X015699Y017557D01*
X015699Y017654D01*
X015747Y017702D01*
X015747Y017407D02*
X015796Y017407D01*
X015844Y017359D01*
X015893Y017407D01*
X015941Y017407D01*
X015989Y017359D01*
X015989Y017262D01*
X015941Y017214D01*
X015989Y017113D02*
X015893Y017016D01*
X015893Y017064D02*
X015893Y016919D01*
X015989Y016919D02*
X015699Y016919D01*
X015699Y017064D01*
X015747Y017113D01*
X015844Y017113D01*
X015893Y017064D01*
X015747Y017214D02*
X015699Y017262D01*
X015699Y017359D01*
X015747Y017407D01*
X015844Y017359D02*
X015844Y017311D01*
X032978Y023205D02*
X033026Y023157D01*
X033123Y023157D01*
X033171Y023205D01*
X033272Y023157D02*
X033272Y023447D01*
X033466Y023157D01*
X033466Y023447D01*
X033567Y023447D02*
X033567Y023302D01*
X033664Y023350D01*
X033712Y023350D01*
X033760Y023302D01*
X033760Y023205D01*
X033712Y023157D01*
X033615Y023157D01*
X033567Y023205D01*
X033567Y023447D02*
X033760Y023447D01*
X033171Y023399D02*
X033123Y023447D01*
X033026Y023447D01*
X032978Y023399D01*
X032978Y023205D01*
D15*
X028205Y023479D02*
X028205Y020723D01*
X028205Y019542D02*
X028205Y019148D01*
X023480Y019148D01*
X023480Y019542D01*
X023480Y020723D02*
X023480Y023479D01*
X028205Y023479D01*
X020598Y013752D02*
X017134Y013752D01*
X016976Y013595D01*
X016976Y010130D01*
X017134Y009973D01*
X020598Y009973D01*
X020756Y010130D01*
X020756Y013595D01*
X020598Y013752D01*
X011542Y016321D02*
X010642Y016321D01*
X010642Y016881D01*
X011542Y016881D01*
X011542Y016321D01*
X010642Y016321D02*
X010142Y016321D01*
X010142Y016881D01*
X010642Y016881D01*
X009942Y020851D02*
X009842Y020851D01*
X009342Y021651D02*
X009342Y022551D01*
X009842Y023451D02*
X011842Y023451D01*
X012342Y022551D02*
X012342Y021651D01*
X011842Y020851D02*
X011742Y020851D01*
X007622Y021151D02*
X007062Y021151D01*
X007062Y021651D01*
X007622Y021651D01*
X007622Y021151D01*
X007622Y021651D02*
X007622Y022551D01*
X007062Y022551D01*
X007062Y021651D01*
X007742Y004051D02*
X009442Y004051D01*
X009792Y003251D02*
X009792Y002446D01*
X009442Y001651D02*
X007742Y001651D01*
X007392Y002458D02*
X007392Y003251D01*
X007892Y002851D02*
X007894Y002903D01*
X007900Y002955D01*
X007910Y003007D01*
X007923Y003057D01*
X007940Y003107D01*
X007961Y003155D01*
X007986Y003201D01*
X008014Y003245D01*
X008045Y003287D01*
X008079Y003327D01*
X008116Y003364D01*
X008156Y003398D01*
X008198Y003429D01*
X008242Y003457D01*
X008288Y003482D01*
X008336Y003503D01*
X008386Y003520D01*
X008436Y003533D01*
X008488Y003543D01*
X008540Y003549D01*
X008592Y003551D01*
X008644Y003549D01*
X008696Y003543D01*
X008748Y003533D01*
X008798Y003520D01*
X008848Y003503D01*
X008896Y003482D01*
X008942Y003457D01*
X008986Y003429D01*
X009028Y003398D01*
X009068Y003364D01*
X009105Y003327D01*
X009139Y003287D01*
X009170Y003245D01*
X009198Y003201D01*
X009223Y003155D01*
X009244Y003107D01*
X009261Y003057D01*
X009274Y003007D01*
X009284Y002955D01*
X009290Y002903D01*
X009292Y002851D01*
X009290Y002799D01*
X009284Y002747D01*
X009274Y002695D01*
X009261Y002645D01*
X009244Y002595D01*
X009223Y002547D01*
X009198Y002501D01*
X009170Y002457D01*
X009139Y002415D01*
X009105Y002375D01*
X009068Y002338D01*
X009028Y002304D01*
X008986Y002273D01*
X008942Y002245D01*
X008896Y002220D01*
X008848Y002199D01*
X008798Y002182D01*
X008748Y002169D01*
X008696Y002159D01*
X008644Y002153D01*
X008592Y002151D01*
X008540Y002153D01*
X008488Y002159D01*
X008436Y002169D01*
X008386Y002182D01*
X008336Y002199D01*
X008288Y002220D01*
X008242Y002245D01*
X008198Y002273D01*
X008156Y002304D01*
X008116Y002338D01*
X008079Y002375D01*
X008045Y002415D01*
X008014Y002457D01*
X007986Y002501D01*
X007961Y002547D01*
X007940Y002595D01*
X007923Y002645D01*
X007910Y002695D01*
X007900Y002747D01*
X007894Y002799D01*
X007892Y002851D01*
X012642Y002458D02*
X012642Y003251D01*
X012992Y004051D02*
X014692Y004051D01*
X015042Y003251D02*
X015042Y002446D01*
X014692Y001651D02*
X012992Y001651D01*
X013142Y002851D02*
X013144Y002903D01*
X013150Y002955D01*
X013160Y003007D01*
X013173Y003057D01*
X013190Y003107D01*
X013211Y003155D01*
X013236Y003201D01*
X013264Y003245D01*
X013295Y003287D01*
X013329Y003327D01*
X013366Y003364D01*
X013406Y003398D01*
X013448Y003429D01*
X013492Y003457D01*
X013538Y003482D01*
X013586Y003503D01*
X013636Y003520D01*
X013686Y003533D01*
X013738Y003543D01*
X013790Y003549D01*
X013842Y003551D01*
X013894Y003549D01*
X013946Y003543D01*
X013998Y003533D01*
X014048Y003520D01*
X014098Y003503D01*
X014146Y003482D01*
X014192Y003457D01*
X014236Y003429D01*
X014278Y003398D01*
X014318Y003364D01*
X014355Y003327D01*
X014389Y003287D01*
X014420Y003245D01*
X014448Y003201D01*
X014473Y003155D01*
X014494Y003107D01*
X014511Y003057D01*
X014524Y003007D01*
X014534Y002955D01*
X014540Y002903D01*
X014542Y002851D01*
X014540Y002799D01*
X014534Y002747D01*
X014524Y002695D01*
X014511Y002645D01*
X014494Y002595D01*
X014473Y002547D01*
X014448Y002501D01*
X014420Y002457D01*
X014389Y002415D01*
X014355Y002375D01*
X014318Y002338D01*
X014278Y002304D01*
X014236Y002273D01*
X014192Y002245D01*
X014146Y002220D01*
X014098Y002199D01*
X014048Y002182D01*
X013998Y002169D01*
X013946Y002159D01*
X013894Y002153D01*
X013842Y002151D01*
X013790Y002153D01*
X013738Y002159D01*
X013686Y002169D01*
X013636Y002182D01*
X013586Y002199D01*
X013538Y002220D01*
X013492Y002245D01*
X013448Y002273D01*
X013406Y002304D01*
X013366Y002338D01*
X013329Y002375D01*
X013295Y002415D01*
X013264Y002457D01*
X013236Y002501D01*
X013211Y002547D01*
X013190Y002595D01*
X013173Y002645D01*
X013160Y002695D01*
X013150Y002747D01*
X013144Y002799D01*
X013142Y002851D01*
X017892Y002458D02*
X017892Y003251D01*
X018242Y004051D02*
X019942Y004051D01*
X020292Y003251D02*
X020292Y002446D01*
X019942Y001651D02*
X018242Y001651D01*
X018392Y002851D02*
X018394Y002903D01*
X018400Y002955D01*
X018410Y003007D01*
X018423Y003057D01*
X018440Y003107D01*
X018461Y003155D01*
X018486Y003201D01*
X018514Y003245D01*
X018545Y003287D01*
X018579Y003327D01*
X018616Y003364D01*
X018656Y003398D01*
X018698Y003429D01*
X018742Y003457D01*
X018788Y003482D01*
X018836Y003503D01*
X018886Y003520D01*
X018936Y003533D01*
X018988Y003543D01*
X019040Y003549D01*
X019092Y003551D01*
X019144Y003549D01*
X019196Y003543D01*
X019248Y003533D01*
X019298Y003520D01*
X019348Y003503D01*
X019396Y003482D01*
X019442Y003457D01*
X019486Y003429D01*
X019528Y003398D01*
X019568Y003364D01*
X019605Y003327D01*
X019639Y003287D01*
X019670Y003245D01*
X019698Y003201D01*
X019723Y003155D01*
X019744Y003107D01*
X019761Y003057D01*
X019774Y003007D01*
X019784Y002955D01*
X019790Y002903D01*
X019792Y002851D01*
X019790Y002799D01*
X019784Y002747D01*
X019774Y002695D01*
X019761Y002645D01*
X019744Y002595D01*
X019723Y002547D01*
X019698Y002501D01*
X019670Y002457D01*
X019639Y002415D01*
X019605Y002375D01*
X019568Y002338D01*
X019528Y002304D01*
X019486Y002273D01*
X019442Y002245D01*
X019396Y002220D01*
X019348Y002199D01*
X019298Y002182D01*
X019248Y002169D01*
X019196Y002159D01*
X019144Y002153D01*
X019092Y002151D01*
X019040Y002153D01*
X018988Y002159D01*
X018936Y002169D01*
X018886Y002182D01*
X018836Y002199D01*
X018788Y002220D01*
X018742Y002245D01*
X018698Y002273D01*
X018656Y002304D01*
X018616Y002338D01*
X018579Y002375D01*
X018545Y002415D01*
X018514Y002457D01*
X018486Y002501D01*
X018461Y002547D01*
X018440Y002595D01*
X018423Y002645D01*
X018410Y002695D01*
X018400Y002747D01*
X018394Y002799D01*
X018392Y002851D01*
X023142Y002458D02*
X023142Y003251D01*
X023492Y004051D02*
X025192Y004051D01*
X025542Y003251D02*
X025542Y002446D01*
X025192Y001651D02*
X023492Y001651D01*
X023642Y002851D02*
X023644Y002903D01*
X023650Y002955D01*
X023660Y003007D01*
X023673Y003057D01*
X023690Y003107D01*
X023711Y003155D01*
X023736Y003201D01*
X023764Y003245D01*
X023795Y003287D01*
X023829Y003327D01*
X023866Y003364D01*
X023906Y003398D01*
X023948Y003429D01*
X023992Y003457D01*
X024038Y003482D01*
X024086Y003503D01*
X024136Y003520D01*
X024186Y003533D01*
X024238Y003543D01*
X024290Y003549D01*
X024342Y003551D01*
X024394Y003549D01*
X024446Y003543D01*
X024498Y003533D01*
X024548Y003520D01*
X024598Y003503D01*
X024646Y003482D01*
X024692Y003457D01*
X024736Y003429D01*
X024778Y003398D01*
X024818Y003364D01*
X024855Y003327D01*
X024889Y003287D01*
X024920Y003245D01*
X024948Y003201D01*
X024973Y003155D01*
X024994Y003107D01*
X025011Y003057D01*
X025024Y003007D01*
X025034Y002955D01*
X025040Y002903D01*
X025042Y002851D01*
X025040Y002799D01*
X025034Y002747D01*
X025024Y002695D01*
X025011Y002645D01*
X024994Y002595D01*
X024973Y002547D01*
X024948Y002501D01*
X024920Y002457D01*
X024889Y002415D01*
X024855Y002375D01*
X024818Y002338D01*
X024778Y002304D01*
X024736Y002273D01*
X024692Y002245D01*
X024646Y002220D01*
X024598Y002199D01*
X024548Y002182D01*
X024498Y002169D01*
X024446Y002159D01*
X024394Y002153D01*
X024342Y002151D01*
X024290Y002153D01*
X024238Y002159D01*
X024186Y002169D01*
X024136Y002182D01*
X024086Y002199D01*
X024038Y002220D01*
X023992Y002245D01*
X023948Y002273D01*
X023906Y002304D01*
X023866Y002338D01*
X023829Y002375D01*
X023795Y002415D01*
X023764Y002457D01*
X023736Y002501D01*
X023711Y002547D01*
X023690Y002595D01*
X023673Y002645D01*
X023660Y002695D01*
X023650Y002747D01*
X023644Y002799D01*
X023642Y002851D01*
X032142Y002458D02*
X032142Y003251D01*
X032492Y004051D02*
X034192Y004051D01*
X034542Y003251D02*
X034542Y002446D01*
X034192Y001651D02*
X032492Y001651D01*
X032642Y002851D02*
X032644Y002903D01*
X032650Y002955D01*
X032660Y003007D01*
X032673Y003057D01*
X032690Y003107D01*
X032711Y003155D01*
X032736Y003201D01*
X032764Y003245D01*
X032795Y003287D01*
X032829Y003327D01*
X032866Y003364D01*
X032906Y003398D01*
X032948Y003429D01*
X032992Y003457D01*
X033038Y003482D01*
X033086Y003503D01*
X033136Y003520D01*
X033186Y003533D01*
X033238Y003543D01*
X033290Y003549D01*
X033342Y003551D01*
X033394Y003549D01*
X033446Y003543D01*
X033498Y003533D01*
X033548Y003520D01*
X033598Y003503D01*
X033646Y003482D01*
X033692Y003457D01*
X033736Y003429D01*
X033778Y003398D01*
X033818Y003364D01*
X033855Y003327D01*
X033889Y003287D01*
X033920Y003245D01*
X033948Y003201D01*
X033973Y003155D01*
X033994Y003107D01*
X034011Y003057D01*
X034024Y003007D01*
X034034Y002955D01*
X034040Y002903D01*
X034042Y002851D01*
X034040Y002799D01*
X034034Y002747D01*
X034024Y002695D01*
X034011Y002645D01*
X033994Y002595D01*
X033973Y002547D01*
X033948Y002501D01*
X033920Y002457D01*
X033889Y002415D01*
X033855Y002375D01*
X033818Y002338D01*
X033778Y002304D01*
X033736Y002273D01*
X033692Y002245D01*
X033646Y002220D01*
X033598Y002199D01*
X033548Y002182D01*
X033498Y002169D01*
X033446Y002159D01*
X033394Y002153D01*
X033342Y002151D01*
X033290Y002153D01*
X033238Y002159D01*
X033186Y002169D01*
X033136Y002182D01*
X033086Y002199D01*
X033038Y002220D01*
X032992Y002245D01*
X032948Y002273D01*
X032906Y002304D01*
X032866Y002338D01*
X032829Y002375D01*
X032795Y002415D01*
X032764Y002457D01*
X032736Y002501D01*
X032711Y002547D01*
X032690Y002595D01*
X032673Y002645D01*
X032660Y002695D01*
X032650Y002747D01*
X032644Y002799D01*
X032642Y002851D01*
D16*
X007901Y010117D03*
D17*
X007922Y015760D02*
X007924Y015779D01*
X007930Y015798D01*
X007939Y015815D01*
X007952Y015830D01*
X007967Y015841D01*
X007985Y015850D01*
X008003Y015855D01*
X008023Y015856D01*
X008042Y015853D01*
X008060Y015846D01*
X008077Y015836D01*
X008091Y015823D01*
X008102Y015807D01*
X008110Y015789D01*
X008114Y015770D01*
X008114Y015750D01*
X008110Y015731D01*
X008102Y015713D01*
X008091Y015697D01*
X008077Y015684D01*
X008060Y015674D01*
X008042Y015667D01*
X008023Y015664D01*
X008003Y015665D01*
X007985Y015670D01*
X007967Y015679D01*
X007952Y015690D01*
X007939Y015705D01*
X007930Y015722D01*
X007924Y015741D01*
X007922Y015760D01*
X026155Y015760D02*
X026157Y015779D01*
X026163Y015798D01*
X026172Y015815D01*
X026185Y015830D01*
X026200Y015841D01*
X026218Y015850D01*
X026236Y015855D01*
X026256Y015856D01*
X026275Y015853D01*
X026293Y015846D01*
X026310Y015836D01*
X026324Y015823D01*
X026335Y015807D01*
X026343Y015789D01*
X026347Y015770D01*
X026347Y015750D01*
X026343Y015731D01*
X026335Y015713D01*
X026324Y015697D01*
X026310Y015684D01*
X026293Y015674D01*
X026275Y015667D01*
X026256Y015664D01*
X026236Y015665D01*
X026218Y015670D01*
X026200Y015679D01*
X026185Y015690D01*
X026172Y015705D01*
X026163Y015722D01*
X026157Y015741D01*
X026155Y015760D01*
X026155Y010260D02*
X026157Y010279D01*
X026163Y010298D01*
X026172Y010315D01*
X026185Y010330D01*
X026200Y010341D01*
X026218Y010350D01*
X026236Y010355D01*
X026256Y010356D01*
X026275Y010353D01*
X026293Y010346D01*
X026310Y010336D01*
X026324Y010323D01*
X026335Y010307D01*
X026343Y010289D01*
X026347Y010270D01*
X026347Y010250D01*
X026343Y010231D01*
X026335Y010213D01*
X026324Y010197D01*
X026310Y010184D01*
X026293Y010174D01*
X026275Y010167D01*
X026256Y010164D01*
X026236Y010165D01*
X026218Y010170D01*
X026200Y010179D01*
X026185Y010190D01*
X026172Y010205D01*
X026163Y010222D01*
X026157Y010241D01*
X026155Y010260D01*
X033192Y008701D02*
X036092Y008701D01*
X036092Y008401D02*
X033192Y008401D01*
X033192Y007701D02*
X036092Y007701D01*
X036092Y007401D02*
X033192Y007401D01*
X033192Y006701D02*
X036092Y006701D01*
X036092Y006401D02*
X033192Y006401D01*
X033192Y005701D02*
X036092Y005701D01*
X036092Y005401D02*
X033192Y005401D01*
D18*
X033192Y004601D01*
X032992Y004601D01*
X032992Y009601D01*
X033192Y009601D01*
X033192Y008701D01*
X033192Y008551D01*
X036092Y008551D01*
X036092Y008401D01*
X036092Y007701D01*
X036092Y007551D01*
X033192Y007551D01*
X033192Y007401D01*
X033192Y006701D01*
X033192Y006551D01*
X036092Y006551D01*
X036092Y006401D01*
X036092Y005701D01*
X036092Y005551D01*
X033192Y005551D01*
X033192Y005401D01*
X033192Y005551D02*
X033192Y005701D01*
X033192Y006401D01*
X033192Y006551D01*
X033192Y007551D02*
X033192Y007701D01*
X033192Y008401D01*
X033192Y008551D01*
X033192Y009601D02*
X036092Y009601D01*
X036092Y008701D01*
X036092Y008551D01*
X036092Y007551D02*
X036092Y007401D01*
X036092Y006701D01*
X036092Y006551D01*
X036092Y005551D02*
X036092Y005401D01*
X036092Y004601D01*
X033192Y004601D01*
X030842Y003101D02*
X030842Y002601D01*
X030592Y002351D01*
X030092Y002351D01*
X029842Y002601D01*
X029592Y002351D01*
X029092Y002351D01*
X028842Y002601D01*
X028592Y002351D01*
X028092Y002351D01*
X027842Y002601D01*
X027592Y002351D01*
X027092Y002351D01*
X026842Y002601D01*
X026842Y003101D01*
X027092Y003351D01*
X027592Y003351D01*
X027842Y003101D01*
X028092Y003351D01*
X028592Y003351D01*
X028842Y003101D01*
X029092Y003351D01*
X029592Y003351D01*
X029842Y003101D01*
X030092Y003351D01*
X030592Y003351D01*
X030842Y003101D01*
X023652Y007521D02*
X023652Y007861D01*
X023372Y007861D01*
X023192Y007341D02*
X022992Y007341D01*
X022532Y007521D02*
X022532Y007861D01*
X022812Y007861D01*
X025200Y009339D02*
X025200Y010363D01*
X025202Y010383D01*
X025206Y010403D01*
X025214Y010421D01*
X025224Y010438D01*
X025237Y010454D01*
X025253Y010467D01*
X025270Y010477D01*
X025288Y010485D01*
X025308Y010489D01*
X025328Y010491D01*
X026367Y010491D01*
X026352Y010491D02*
X026372Y010489D01*
X026392Y010485D01*
X026410Y010477D01*
X026427Y010467D01*
X026443Y010454D01*
X026456Y010438D01*
X026466Y010421D01*
X026474Y010403D01*
X026478Y010383D01*
X026480Y010363D01*
X026480Y009339D01*
X026478Y009319D01*
X026474Y009299D01*
X026466Y009281D01*
X026456Y009264D01*
X026443Y009248D01*
X026427Y009235D01*
X026410Y009225D01*
X026392Y009217D01*
X026372Y009213D01*
X026352Y009211D01*
X025328Y009211D01*
X025308Y009213D01*
X025288Y009217D01*
X025270Y009225D01*
X025253Y009235D01*
X025237Y009248D01*
X025224Y009264D01*
X025214Y009281D01*
X025206Y009299D01*
X025202Y009319D01*
X025200Y009339D01*
X025328Y014711D02*
X026352Y014711D01*
X026372Y014713D01*
X026392Y014717D01*
X026410Y014725D01*
X026427Y014735D01*
X026443Y014748D01*
X026456Y014764D01*
X026466Y014781D01*
X026474Y014799D01*
X026478Y014819D01*
X026480Y014839D01*
X026480Y015863D01*
X026478Y015883D01*
X026474Y015903D01*
X026466Y015921D01*
X026456Y015938D01*
X026443Y015954D01*
X026427Y015967D01*
X026410Y015977D01*
X026392Y015985D01*
X026372Y015989D01*
X026352Y015991D01*
X026367Y015991D02*
X025328Y015991D01*
X025308Y015989D01*
X025288Y015985D01*
X025270Y015977D01*
X025253Y015967D01*
X025237Y015954D01*
X025224Y015938D01*
X025214Y015921D01*
X025206Y015903D01*
X025202Y015883D01*
X025200Y015863D01*
X025200Y014839D01*
X025202Y014819D01*
X025206Y014799D01*
X025214Y014781D01*
X025224Y014764D01*
X025237Y014748D01*
X025253Y014735D01*
X025270Y014725D01*
X025288Y014717D01*
X025308Y014713D01*
X025328Y014711D01*
X032992Y015101D02*
X032992Y014101D01*
X032992Y013101D01*
X036092Y013101D01*
X036092Y014101D01*
X036092Y015101D01*
X036092Y016101D01*
X036092Y017101D01*
X036092Y018101D01*
X036092Y019101D01*
X036092Y020101D01*
X036092Y021101D01*
X036092Y022101D01*
X036092Y023101D01*
X032992Y023101D01*
X032992Y022101D01*
X036092Y022101D01*
X036092Y021101D02*
X032992Y021101D01*
X032992Y022101D01*
X032992Y021101D02*
X032992Y020101D01*
X036092Y020101D01*
X036092Y019101D02*
X032992Y019101D01*
X032992Y018101D01*
X036092Y018101D01*
X036092Y017101D02*
X032992Y017101D01*
X032992Y018101D01*
X032992Y017101D02*
X032992Y016101D01*
X036092Y016101D01*
X036092Y015101D02*
X032992Y015101D01*
X032992Y016101D01*
X032992Y014101D02*
X036092Y014101D01*
X036092Y013101D02*
X036092Y012101D01*
X036092Y011101D01*
X036092Y010101D01*
X032992Y010101D01*
X032992Y011101D01*
X032992Y012101D01*
X032992Y013101D01*
X032992Y012101D02*
X036092Y012101D01*
X036092Y011101D02*
X032992Y011101D01*
X032992Y019101D02*
X032992Y020101D01*
X021842Y022351D02*
X021842Y022851D01*
X021592Y023101D01*
X021092Y023101D01*
X020842Y022851D01*
X020592Y023101D01*
X020092Y023101D01*
X019842Y022851D01*
X019592Y023101D01*
X019092Y023101D01*
X018842Y022851D01*
X018842Y022351D01*
X019092Y022101D01*
X019592Y022101D01*
X019842Y022351D01*
X020092Y022101D01*
X020592Y022101D01*
X020842Y022351D01*
X021092Y022101D01*
X021592Y022101D01*
X021842Y022351D01*
X012442Y015701D02*
X012292Y015701D01*
X012292Y015001D01*
X012292Y014951D01*
X010142Y014951D01*
X010125Y014953D01*
X010108Y014957D01*
X010092Y014964D01*
X010078Y014974D01*
X010065Y014987D01*
X010055Y015001D01*
X010048Y015017D01*
X010044Y015034D01*
X010042Y015051D01*
X010042Y015651D01*
X010044Y015668D01*
X010048Y015685D01*
X010055Y015701D01*
X010065Y015715D01*
X010078Y015728D01*
X010092Y015738D01*
X010108Y015745D01*
X010125Y015749D01*
X010142Y015751D01*
X012292Y015751D01*
X012292Y015701D01*
X012442Y015701D02*
X012442Y015001D01*
X012292Y015001D01*
X011642Y015351D02*
X011442Y015351D01*
X011442Y015551D01*
X011292Y015551D02*
X011142Y015551D01*
X011142Y015151D01*
X011292Y015151D01*
X011292Y015551D01*
X011442Y015351D02*
X011442Y015151D01*
X010992Y015151D02*
X010992Y015351D01*
X010992Y015551D01*
X010992Y015351D02*
X010792Y015351D01*
X008246Y015863D02*
X008246Y014839D01*
X008244Y014819D01*
X008240Y014799D01*
X008232Y014781D01*
X008222Y014764D01*
X008209Y014748D01*
X008193Y014735D01*
X008176Y014725D01*
X008158Y014717D01*
X008138Y014713D01*
X008118Y014711D01*
X007095Y014711D01*
X007075Y014713D01*
X007055Y014717D01*
X007037Y014725D01*
X007020Y014735D01*
X007004Y014748D01*
X006991Y014764D01*
X006981Y014781D01*
X006973Y014799D01*
X006969Y014819D01*
X006967Y014839D01*
X006967Y015863D01*
X006969Y015883D01*
X006973Y015903D01*
X006981Y015921D01*
X006991Y015938D01*
X007004Y015954D01*
X007020Y015967D01*
X007037Y015977D01*
X007055Y015985D01*
X007075Y015989D01*
X007095Y015991D01*
X008134Y015991D01*
X008118Y015991D02*
X008138Y015989D01*
X008158Y015985D01*
X008176Y015977D01*
X008193Y015967D01*
X008209Y015954D01*
X008222Y015938D01*
X008232Y015921D01*
X008240Y015903D01*
X008244Y015883D01*
X008246Y015863D01*
X010692Y013051D02*
X010692Y010651D01*
X010694Y010601D01*
X010700Y010552D01*
X010709Y010503D01*
X010722Y010455D01*
X010739Y010408D01*
X010759Y010363D01*
X010783Y010319D01*
X010810Y010277D01*
X010841Y010237D01*
X010874Y010200D01*
X010910Y010166D01*
X010948Y010134D01*
X010989Y010105D01*
X011031Y010080D01*
X011076Y010058D01*
X011122Y010039D01*
X011170Y010024D01*
X011218Y010013D01*
X011267Y010005D01*
X011317Y010001D01*
X011367Y010001D01*
X011417Y010005D01*
X011466Y010013D01*
X011514Y010024D01*
X011562Y010039D01*
X011608Y010058D01*
X011653Y010080D01*
X011695Y010105D01*
X011736Y010134D01*
X011774Y010166D01*
X011810Y010200D01*
X011843Y010237D01*
X011874Y010277D01*
X011901Y010319D01*
X011925Y010363D01*
X011945Y010408D01*
X011962Y010455D01*
X011975Y010503D01*
X011984Y010552D01*
X011990Y010601D01*
X011992Y010651D01*
X011992Y013051D01*
X011990Y013101D01*
X011984Y013150D01*
X011975Y013199D01*
X011962Y013247D01*
X011945Y013294D01*
X011925Y013339D01*
X011901Y013383D01*
X011874Y013425D01*
X011843Y013465D01*
X011810Y013502D01*
X011774Y013536D01*
X011736Y013568D01*
X011695Y013597D01*
X011653Y013622D01*
X011608Y013644D01*
X011562Y013663D01*
X011514Y013678D01*
X011466Y013689D01*
X011417Y013697D01*
X011367Y013701D01*
X011317Y013701D01*
X011267Y013697D01*
X011218Y013689D01*
X011170Y013678D01*
X011122Y013663D01*
X011076Y013644D01*
X011031Y013622D01*
X010989Y013597D01*
X010948Y013568D01*
X010910Y013536D01*
X010874Y013502D01*
X010841Y013465D01*
X010810Y013425D01*
X010783Y013383D01*
X010759Y013339D01*
X010739Y013294D01*
X010722Y013247D01*
X010709Y013199D01*
X010700Y013150D01*
X010694Y013101D01*
X010692Y013051D01*
X011342Y012351D02*
X011342Y012101D01*
X011642Y012101D01*
X011642Y011951D02*
X011642Y011751D01*
X011042Y011751D01*
X011042Y011951D01*
X011642Y011951D01*
X011342Y012101D02*
X011042Y012101D01*
X011042Y011601D02*
X011342Y011601D01*
X011342Y011351D01*
X011342Y011601D02*
X011642Y011601D01*
X006152Y020591D02*
X006152Y020931D01*
X006152Y020591D02*
X005872Y020591D01*
X005692Y021111D02*
X005492Y021111D01*
X005032Y020931D02*
X005032Y020591D01*
X005312Y020591D01*
D19*
X011184Y018672D02*
X011186Y018684D01*
X011191Y018695D01*
X011200Y018704D01*
X011211Y018709D01*
X011223Y018711D01*
X011235Y018709D01*
X011246Y018704D01*
X011255Y018695D01*
X011260Y018684D01*
X011262Y018672D01*
X011260Y018660D01*
X011255Y018649D01*
X011246Y018640D01*
X011235Y018635D01*
X011223Y018633D01*
X011211Y018635D01*
X011200Y018640D01*
X011191Y018649D01*
X011186Y018660D01*
X011184Y018672D01*
X012642Y015551D02*
X012792Y015551D01*
X012792Y015151D02*
X012592Y015151D01*
X012192Y013051D02*
X012192Y010651D01*
X012190Y010594D01*
X012184Y010538D01*
X012175Y010482D01*
X012162Y010426D01*
X012145Y010372D01*
X012125Y010319D01*
X012101Y010268D01*
X012073Y010218D01*
X012043Y010170D01*
X012009Y010124D01*
X011972Y010081D01*
X011933Y010040D01*
X011891Y010002D01*
X011846Y009967D01*
X011799Y009935D01*
X011750Y009906D01*
X011700Y009880D01*
X011647Y009858D01*
X011594Y009839D01*
X011539Y009824D01*
X011483Y009813D01*
X011427Y009805D01*
X011370Y009801D01*
X011314Y009801D01*
X011257Y009805D01*
X011201Y009813D01*
X011145Y009824D01*
X011090Y009839D01*
X011037Y009858D01*
X010984Y009880D01*
X010934Y009906D01*
X010885Y009935D01*
X010838Y009967D01*
X010793Y010002D01*
X010751Y010040D01*
X010712Y010081D01*
X010675Y010124D01*
X010641Y010170D01*
X010611Y010218D01*
X010583Y010268D01*
X010559Y010319D01*
X010539Y010372D01*
X010522Y010426D01*
X010509Y010482D01*
X010500Y010538D01*
X010494Y010594D01*
X010492Y010651D01*
X010492Y013051D01*
X010494Y013108D01*
X010500Y013164D01*
X010509Y013220D01*
X010522Y013276D01*
X010539Y013330D01*
X010559Y013383D01*
X010583Y013434D01*
X010611Y013484D01*
X010641Y013532D01*
X010675Y013578D01*
X010712Y013621D01*
X010751Y013662D01*
X010793Y013700D01*
X010838Y013735D01*
X010885Y013767D01*
X010934Y013796D01*
X010984Y013822D01*
X011037Y013844D01*
X011090Y013863D01*
X011145Y013878D01*
X011201Y013889D01*
X011257Y013897D01*
X011314Y013901D01*
X011370Y013901D01*
X011427Y013897D01*
X011483Y013889D01*
X011539Y013878D01*
X011594Y013863D01*
X011647Y013844D01*
X011700Y013822D01*
X011750Y013796D01*
X011799Y013767D01*
X011846Y013735D01*
X011891Y013700D01*
X011933Y013662D01*
X011972Y013621D01*
X012009Y013578D01*
X012043Y013532D01*
X012073Y013484D01*
X012101Y013434D01*
X012125Y013383D01*
X012145Y013330D01*
X012162Y013276D01*
X012175Y013220D01*
X012184Y013164D01*
X012190Y013108D01*
X012192Y013051D01*
D20*
X017180Y013437D02*
X017182Y013457D01*
X017187Y013477D01*
X017197Y013495D01*
X017209Y013512D01*
X017224Y013526D01*
X017242Y013536D01*
X017261Y013544D01*
X017281Y013548D01*
X017301Y013548D01*
X017321Y013544D01*
X017340Y013536D01*
X017358Y013526D01*
X017373Y013512D01*
X017385Y013495D01*
X017395Y013477D01*
X017400Y013457D01*
X017402Y013437D01*
X017400Y013417D01*
X017395Y013397D01*
X017385Y013379D01*
X017373Y013362D01*
X017358Y013348D01*
X017340Y013338D01*
X017321Y013330D01*
X017301Y013326D01*
X017281Y013326D01*
X017261Y013330D01*
X017242Y013338D01*
X017224Y013348D01*
X017209Y013362D01*
X017197Y013379D01*
X017187Y013397D01*
X017182Y013417D01*
X017180Y013437D01*
D21*
X012577Y015151D03*
X012577Y015551D03*
D22*
X032092Y015601D03*
X032092Y016601D03*
X032092Y017601D03*
X032092Y018601D03*
X032092Y019601D03*
X032092Y020601D03*
X032092Y021601D03*
X032092Y022601D03*
X032092Y014601D03*
X032092Y013601D03*
X032092Y012601D03*
X032092Y011601D03*
X032092Y010601D03*
M02*
